<?xml version="1.0" encoding="utf-8"?>
<!-- Generator: Adobe Illustrator 19.1.1, SVG Export Plug-In . SVG Version: 6.00 Build 0)  -->
<svg version="1.1" baseProfile="tiny" id="Layer_1" xmlns="http://www.w3.org/2000/svg" xmlns:xlink="http://www.w3.org/1999/xlink"
	 x="0px" y="0px" width="960px" height="960px" viewBox="0 0 960 960" xml:space="preserve">
<path fill="none" d="M266,616.1c0,0-8.8,19.5-11.4,21.8c-2.6,2.3-7.7,6.3-10.7,3.5c-3-2.8-3.9-4.9-2.1-9.7
	c1.9-4.9,7.2-17.9,7.2-17.9s-12.5-2.8-14.9-3.7s-6.5-9.3-0.9-11.6c5.6-2.3,22.7,0.2,22.7,0.2s-6-3.9-6.5-7.2
	c-0.7-4.6,4.4-8.8,7.9-9.5c3.5-0.7,9.2,1.7,10,4.9c0.6,2.3,1.2,4.4-1.6,8.6c0,0,10.9-8.8,13.9-10.2s13.5,0.5,7.9,7.4
	c-5.6,7-10.7,10-10.7,10s14.6,13.7,16.7,18.3c2.1,4.6,2.8,9.3-0.9,11.6c-3.7,2.3-4.6-0.2-8.1-2.6C281.1,627.7,266,616.1,266,616.1z"
	/>
</svg>
