<?xml version="1.0" encoding="utf-8"?>
<!-- Generator: Adobe Illustrator 19.1.1, SVG Export Plug-In . SVG Version: 6.00 Build 0)  -->
<svg version="1.1" baseProfile="tiny" id="Layer_1" xmlns="http://www.w3.org/2000/svg" xmlns:xlink="http://www.w3.org/1999/xlink"
	 x="0px" y="0px" width="960px" height="960px" viewBox="0 0 960 960" xml:space="preserve">
<path fill="none" d="M322.7,432.1c1.4,1.1-22.4,100-25.9,115.6s-8.6,47.1-8.6,47.1s26.4,3.2,34.5,3.2s29.3,2.9,34.2,0
	c0,0,1.1-54.9,1.7-63.2c0,0,2,8,5.7,8c3.7,0,10.3-12.4,12.4-36.5s0-37.1-5.5-37.1c-5.5,0-13.8,14.1-15.2,28.2c0,0-1.7-57.5-2.3-69.8
	c-3.4-2.3-38.5-2.6-38.5-2.6S321.2,430.9,322.7,432.1z"/>
</svg>
