<?xml version="1.0" encoding="utf-8"?>
<!-- Generator: Adobe Illustrator 19.1.1, SVG Export Plug-In . SVG Version: 6.00 Build 0)  -->
<svg version="1.1" baseProfile="tiny" id="Layer_1" xmlns="http://www.w3.org/2000/svg" xmlns:xlink="http://www.w3.org/1999/xlink"
	 x="0px" y="0px" width="960px" height="960px" viewBox="0 0 960 960" xml:space="preserve">
<path fill="none" d="M584.7,541.9l2-26.2c0,0,8.6-4.3,20.7-2.6c12.1,1.7,20.1,4.9,20.1,4.9s-2.6,46-3.7,50.3
	c-1.1,4.3-2.6,10.6-6.9,10.6c-4.3,0-10.9-0.6-10.9-0.6l-0.9,8.6c0,0,6.3-0.9,9.2,7.8l-29.6-0.9c0,0,2.3-8.6,14.4-8.3l0.3-8
	c0,0-9.5-0.9-12.4-1.1c-2.9-0.3-5.5-5.2-5.5-8.3c0-3.2,1.1-15.5,1.1-15.5s-6.9,4-9.8,0.6S572.6,521.2,584.7,541.9z"/>
</svg>
