<?xml version="1.0" encoding="utf-8"?>
<!-- Generator: Adobe Illustrator 19.1.0, SVG Export Plug-In . SVG Version: 6.00 Build 0)  -->
<!DOCTYPE svg PUBLIC "-//W3C//DTD SVG 1.1//EN" "http://www.w3.org/Graphics/SVG/1.1/DTD/svg11.dtd">
<svg version="1.1" id="Layer_1" xmlns="http://www.w3.org/2000/svg" xmlns:xlink="http://www.w3.org/1999/xlink" x="0px" y="0px"
	 viewBox="0 0 111.3 46.5" enable-background="new 0 0 111.3 46.5" xml:space="preserve">
<g>
	<g>
		<path fill="#FFFFFF" d="M20.9,43.9c-0.1,0-0.3,0-0.4,0c-2-0.1-3.7-0.7-5-1.8c-1.7,1.1-3.4,1.6-5.2,1.6c-3,0-5.4-1.5-6.8-4
			c-2-3.8-1.2-9.3,2.2-14.2c4.3-6.2,9.2-9.8,13.6-9.8c1.1,0,2.2,0.3,3.2,0.7c0.9-0.6,1.8-0.7,2.3-0.8l0.1,0c1.3,0,2.6,0.6,3.4,1.7
			c0.4,0.4,0.7,1,1,1.7c3.5-6,7.4-12.1,9.5-14.7c0.9-1.1,2.2-1.8,3.6-1.8c0.2,0,0.3,0,0.5,0c1.6,0.2,2.9,1.2,3.5,2.8
			c1.3,2.8,0.7,6.6-1.7,10.5c-0.2,0.3-0.4,0.6-0.6,1c1.1,0.6,2,1.6,2.7,2.8c0.2,0.3,0.3,0.7,0.5,1C51.1,14,55.5,7.2,57.8,4.3
			c0.8-1.1,2.2-1.8,3.6-1.8c0.2,0,0.3,0,0.5,0c1.6,0.2,2.9,1.2,3.5,2.8c1.3,2.8,0.7,6.6-1.7,10.5c-0.2,0.3-0.4,0.6-0.6,1
			c1.1,0.6,2,1.6,2.7,2.8c0.2,0.3,0.3,0.7,0.5,1C70,14,74.3,7.2,76.6,4.3c0.9-1.1,2.2-1.8,3.6-1.8c0.2,0,0.3,0,0.5,0
			c1.6,0.2,2.9,1.2,3.5,2.8c1.3,2.8,0.7,6.6-1.7,10.5c-0.2,0.3-0.4,0.6-0.6,1c1.1,0.6,2,1.6,2.7,2.8c1.2,2.2,1.2,4.8,0,7.2
			c-0.1,0.3-0.3,0.6-0.5,0.9c0,0,0.1,0,0.1,0c1.7,0,3.2,0.9,3.9,2.4c0.6,1.3,1,3.5-0.5,6.5c-1.8,3.6-5.9,7.4-10.8,7.4
			c-4,0-5.9-1.9-6.8-3.1c-0.4-0.6-0.9-1.4-1.1-2.4c-0.4,0.9-0.8,1.7-1.1,2.5L67.8,41c-0.6,1.4-1.9,2.4-3.3,2.6c-0.2,0-0.4,0-0.6,0
			c-0.7,0-1.5-0.2-2.1-0.6c-1.3,0.5-2.6,0.8-3.8,0.8c-4,0-5.9-1.9-6.8-3.1c-0.4-0.6-0.9-1.4-1.1-2.4c-0.4,0.9-0.8,1.7-1.1,2.5
			L49,40.9c-0.6,1.4-1.9,2.4-3.3,2.6c-0.2,0-0.4,0-0.6,0c-0.7,0-1.5-0.2-2.1-0.6c-1.3,0.5-2.6,0.8-3.8,0.8c-4,0-5.9-1.9-6.8-3.1
			c-0.4-0.6-0.9-1.4-1.1-2.4c-0.4,0.9-0.8,1.7-1.1,2.5l-0.1,0.1c-0.6,1.4-1.9,2.4-3.3,2.6c-0.2,0-0.4,0-0.6,0
			c-0.6,0-1.2-0.1-1.8-0.4C23.2,43.7,22.1,43.9,20.9,43.9L20.9,43.9z"/>
		<path d="M80.2,5c0.1,0,0.1,0,0.2,0c0.7,0.1,1.2,0.5,1.5,1.2c0.9,2.1,0.4,5.1-1.5,8.2c-0.6,1-1.6,2.6-2.7,4.3
			c0.5-0.2,1-0.3,1.5-0.3c0.1,0,0.2,0,0.3,0c1.2,0.1,2.3,1,3,2.2c0.8,1.5,0.8,3.3,0,4.9c-0.5,0.9-1.2,2.1-1.9,3.4
			c-1,1.7-2.1,3.6-2.7,5c-0.9,2.1-0.7,3.3-0.5,3.4l0,0c0,0,0,0,0.1,0c0,0,0,0,0,0c1.1-0.1,3.6-2.6,5.3-6.2c0.3-0.6,0.9-1,1.6-1
			c0,0,0,0,0,0c0.7,0,1.3,0.4,1.6,1c0.3,0.7,0.6,2-0.5,4.2c-1.5,3-4.9,6-8.5,6c-2.7,0-4.1-1.1-4.7-2c-1.2-1.6-1.2-4.1-0.2-7
			c0.9-2.7,2.6-5.4,3.8-7.4c0,0,0,0,0,0c-1.7,1.3-3.9,3.3-5.4,5.8c-2,3.2-3.7,6.6-4.8,9.3c0,0,0,0,0,0.1c-0.3,0.6-0.8,1-1.4,1.1
			c-0.1,0-0.2,0-0.2,0c-0.5,0-1-0.2-1.3-0.6c-0.1-0.1-0.2-0.3-0.3-0.5c-1.3,0.8-2.8,1.3-4.3,1.3c-2.7,0-4.1-1.1-4.7-2
			c-1.2-1.6-1.2-4.1-0.2-7c0.9-2.7,2.6-5.4,3.8-7.4c0,0,0,0,0,0c-1.7,1.3-3.9,3.3-5.4,5.8c-2,3.2-3.7,6.6-4.8,9.3c0,0,0,0,0,0.1
			c-0.3,0.6-0.8,1-1.4,1.1c-0.1,0-0.2,0-0.2,0c-0.5,0-1-0.2-1.3-0.6c-0.1-0.1-0.2-0.3-0.3-0.5c-1.3,0.8-2.8,1.3-4.3,1.3
			c-2.7,0-4.1-1.1-4.7-2c-1.2-1.6-1.2-4.1-0.2-7c0.9-2.7,2.6-5.4,3.8-7.4c0,0,0,0,0,0c-1.7,1.3-3.9,3.3-5.4,5.8
			c-2,3.2-3.7,6.6-4.8,9.3c0,0,0,0,0,0.1c-0.3,0.6-0.8,1-1.4,1.1c-0.1,0-0.2,0-0.2,0c-0.5,0-1-0.2-1.3-0.6c-0.1-0.1-0.1-0.2-0.2-0.2
			c-1.2,0.8-2.5,1.2-3.8,1.2c-0.1,0-0.2,0-0.3,0c-2.2-0.1-3.9-1.1-4.7-2.8c-1.4,1.3-3.3,2.6-5.6,2.6c-2,0-3.6-1-4.6-2.7
			C4.2,35.6,5,31,7.9,26.9c3.7-5.4,8-8.7,11.5-8.7c1.2,0,2.3,0.4,3.1,1.2c0.1,0.1,0.2,0.3,0.3,0.4c0.1-0.2,0.3-0.4,0.4-0.6
			c0,0,0,0,0,0c0.5-0.7,1.1-1.1,1.7-1.1c0,0,0,0,0,0c0.3,0,0.9,0.1,1.4,0.8c1.1,1.3,1.5,3.9,0.1,6.9c-0.5,1-1.3,2.3-2.1,3.7
			c-1,1.7-2.1,3.5-2.7,4.9c-0.8,1.8-0.8,2.7-0.8,3.1c0.7-0.1,2-1,3.2-2.7c0.1-0.3,0.2-0.6,0.3-0.9c1.8-5.3,12.5-23.1,16.4-28
			c0.4-0.6,1-0.9,1.6-0.9c0.1,0,0.1,0,0.2,0c0.7,0.1,1.2,0.5,1.5,1.2c0.9,2.1,0.4,5.1-1.5,8.2c-0.6,1-1.6,2.6-2.7,4.3
			c0.5-0.2,1-0.3,1.5-0.3c0.1,0,0.2,0,0.3,0c1.2,0.1,2.3,1,3,2.2c0.8,1.5,0.8,3.3,0,4.9c-0.5,0.9-1.2,2.1-1.9,3.4
			c-1,1.7-2.1,3.6-2.7,5c-0.9,2.1-0.7,3.3-0.5,3.4l0,0c0,0,0,0,0.1,0c0,0,0,0,0,0c0.8,0,2.2-1.3,3.5-3.2c0-0.1,0-0.2,0.1-0.2
			c1.8-5.3,12.5-23.1,16.4-28c0.4-0.6,1-0.9,1.6-0.9c0.1,0,0.1,0,0.2,0c0.7,0.1,1.2,0.5,1.5,1.2c0.9,2.1,0.4,5.1-1.5,8.2
			c-0.6,1-1.6,2.6-2.7,4.3c0.5-0.2,1-0.3,1.5-0.3c0.1,0,0.2,0,0.3,0c1.2,0.1,2.3,1,3,2.2c0.8,1.5,0.8,3.3,0,4.9
			c-0.5,0.9-1.2,2.1-1.9,3.4c-1,1.7-2.1,3.6-2.7,5c-0.9,2.1-0.7,3.3-0.5,3.4c0,0,0,0,0.1,0c0,0,0,0,0,0c0.8,0,2.2-1.3,3.5-3.2
			c0-0.1,0-0.2,0.1-0.2c1.8-5.3,12.5-23.1,16.4-28C79,5.3,79.6,5,80.2,5 M11.1,37.1c0.6-0.1,2.5-0.9,5.9-6.9c2.2-3.9,2.8-6,2.8-6.8
			c-1.1,0.5-4,2.8-6.5,6.9C11.2,33.7,10.9,36.4,11.1,37.1 M80.2,0C80.2,0,80.2,0,80.2,0C78,0,76,1,74.6,2.8c-1.7,2.1-4.3,6.1-7,10.5
			c1.1-3.3,1.2-6.4,0-9c-1-2.3-3-3.9-5.5-4.2C61.9,0,61.6,0,61.3,0c-2.2,0-4.2,1-5.6,2.8c-1.7,2.1-4.3,6.1-7,10.5
			c1.1-3.3,1.2-6.4,0-9c-1-2.3-3-3.9-5.5-4.2C43,0,42.8,0,42.5,0c-2.2,0-4.2,1-5.6,2.8c-1.8,2.3-4.8,6.8-7.8,11.8
			c-1.2-0.9-2.6-1.4-4.2-1.4h-0.1l-0.1,0c-0.8,0-1.6,0.2-2.4,0.5c-1-0.3-2-0.5-3-0.5C14.1,13.2,8.5,17,3.7,24
			c-3.9,5.7-4.8,12.2-2.4,16.8c1.8,3.4,5.1,5.4,9,5.4c1.7,0,3.4-0.4,5.1-1.2c1.4,0.8,3.1,1.3,4.9,1.4c0.2,0,0.4,0,0.6,0
			c1.2,0,2.3-0.2,3.5-0.6c0.6,0.2,1.2,0.2,1.8,0.2c0.3,0,0.6,0,1-0.1c1.7-0.3,3.2-1.2,4.3-2.5c1.4,1.4,3.9,2.8,7.7,2.8
			c1.2,0,2.5-0.2,3.7-0.6c0.7,0.2,1.4,0.4,2.2,0.4c0.3,0,0.6,0,1-0.1c1.7-0.3,3.2-1.2,4.3-2.5c1.4,1.4,3.9,2.8,7.7,2.8
			c1.2,0,2.5-0.2,3.7-0.6c0.7,0.2,1.4,0.4,2.2,0.4c0.3,0,0.6,0,1-0.1c1.7-0.3,3.2-1.2,4.3-2.5c1.4,1.4,3.9,2.8,7.7,2.8
			c6,0,10.9-4.6,13-8.8c2-4,1.2-7.1,0.6-8.5l0-0.1l0-0.1c-0.6-1.2-1.6-2.2-2.7-2.9c0.8-2.6,0.5-5.3-0.8-7.6c-0.4-0.8-1-1.6-1.6-2.2
			c2.3-4.2,2.7-8.5,1.2-11.9c-1-2.3-3-3.9-5.5-4.2C80.7,0,80.5,0,80.2,0L80.2,0L80.2,0z"/>
	</g>
	<g>
		<path fill="#FFFFFF" d="M90.9,44c-0.1,0-0.2,0-0.3,0c-1.9-0.1-3.7-1.2-4.7-2.9c-1.6-2.6-1.3-6,0.7-8.2c0.5-0.5,1.1-0.9,1.7-1.2
			c0.1-1.2,0.4-2.4,0.8-3.8c2-5.4,7.2-15.8,11.2-21.6c0.9-1.3,2.2-2.1,3.7-2.1c0.1,0,0.3,0,0.4,0c1.6,0.1,3,1.2,3.7,2.8
			c0.9,1.9,1.4,5.5-1.7,10.9c-3,5.3-7,12.9-9.4,18.1c-0.3,0.5-0.6,1-0.9,1.3c0.1,1.8-0.5,3.5-1.4,4.7l-0.2,0.2l0,0
			C93.8,43.4,92.4,44,90.9,44z"/>
		<path d="M104.1,6.8c0.1,0,0.1,0,0.2,0c0.7,0.1,1.3,0.5,1.6,1.3c0.7,1.5,0.9,4.2-1.5,8.7c-3,5.4-7,13-9.5,18.3
			c-0.2,0.3-0.5,1-1.3,1.2c0,0-0.1,0-0.1,0c0.7,1.6,0.2,3.4-0.5,4.4c0,0,0,0,0,0c-0.5,0.6-1.1,0.9-1.9,0.9c-0.1,0-0.1,0-0.2,0
			c-1.1-0.1-2.1-0.7-2.7-1.7c-1-1.7-0.9-3.8,0.4-5.2c0.5-0.5,1.1-0.8,1.8-0.8c0.1,0,0.3,0,0.4,0c0.1,0,0.3,0.1,0.4,0.1
			c-0.4-1.1-0.4-2.8,0.5-5.2c2-5.3,7.1-15.4,10.9-21C102.8,7.2,103.4,6.8,104.1,6.8 M104.1,1.8c-2.3,0-4.5,1.2-5.8,3.2
			c-4.2,6.1-9.4,16.5-11.4,22.1c-0.4,1.1-0.7,2.1-0.8,3.1c-0.4,0.3-0.8,0.6-1.2,1c-2.8,3-3.2,7.6-1,11.2c1.4,2.4,3.9,3.9,6.6,4.1
			c0.2,0,0.3,0,0.5,0c2.3,0,4.4-1,5.8-2.8l0-0.1l0,0l0,0l0,0c1-1.4,1.8-3.3,1.9-5.4c0.2-0.3,0.4-0.6,0.6-1l0-0.1l0-0.1
			c2.4-5.2,6.4-12.6,9.3-17.9c3.5-6.3,2.9-10.6,1.7-13.1c-1.1-2.4-3.2-4-5.7-4.2C104.5,1.8,104.3,1.8,104.1,1.8L104.1,1.8z"/>
	</g>
</g>
</svg>
