<?xml version="1.0" encoding="utf-8"?>
<!-- Generator: Adobe Illustrator 19.1.0, SVG Export Plug-In . SVG Version: 6.00 Build 0)  -->
<!DOCTYPE svg PUBLIC "-//W3C//DTD SVG 1.1//EN" "http://www.w3.org/Graphics/SVG/1.1/DTD/svg11.dtd">
<svg version="1.1" id="Layer_1" xmlns="http://www.w3.org/2000/svg" xmlns:xlink="http://www.w3.org/1999/xlink" x="0px" y="0px"
	 viewBox="0 0 127.8 44.9" enable-background="new 0 0 127.8 44.9" xml:space="preserve">
<g>
	<g>
		<path fill="#FFFFFF" d="M11.7,42.2c-1.4,0-2.7-0.3-3.8-0.9c-1.5-0.8-2.9-2-4-3.5c-1.5-2.2-2-4.3-0.5-8.5
			c1.7-4.6,4.5-10.5,7.7-15.7c-0.6-0.6-1.1-1.3-1.4-2c-0.6-1.4-0.6-2.8,0.1-4c0.7-1.2,1.9-1.9,3.5-2.1c1.3-0.1,3-0.7,4.8-1.3
			c2.2-0.8,4.5-1.5,6.7-1.7c0.3,0,0.5,0,0.8,0c4.5,0,7.8,2.5,8.9,6.9c1.1,4.1,0.3,8.1-2.4,11.6c-0.8,1.1-2.4,2.8-4.8,4.5
			c1.4,2.9,1.2,7.2-2,10.6c-2.9,3.2-7.6,5.2-10.9,5.8C13.4,42.1,12.5,42.2,11.7,42.2z M14.6,30.6c0.4-0.2,0.8-0.5,1.2-0.7
			c-0.3,0-0.6,0-0.9,0C14.8,30.1,14.7,30.3,14.6,30.6z M23,14.4c-0.1,0.2-0.1,0.4-0.2,0.6c0.4-0.3,0.7-0.6,1-0.9
			C23.5,14.2,23.2,14.3,23,14.4z"/>
		<path d="M25.5,5c4.3,0,5.9,2.7,6.5,5c0.9,3.3,0.2,6.6-2,9.4c-0.8,1.1-3,3.5-6.4,5.4c0.4,0.4,0.7,0.8,1,1.2c1.3,2,1.3,5.6-1.3,8.4
			c-2.5,2.8-6.7,4.5-9.5,5c-0.9,0.2-1.6,0.2-2.3,0.2c-1,0-1.9-0.2-2.7-0.6c-1.1-0.6-2.2-1.5-3-2.7c-1-1.4-1.5-2.7-0.2-6.2
			c1.8-5.1,5.2-11.7,8.7-17.2c-1.3-0.5-2.1-1.5-2.5-2.3c-0.3-0.7-0.3-1.3,0-1.8C12.2,8.3,12.7,8,13.5,8c1.6-0.1,3.5-0.8,5.4-1.4
			c2-0.7,4.2-1.4,6-1.5C25.1,5,25.3,5,25.5,5 M16.8,21.2c5.4-1.9,9.1-5.1,10.5-7.6c0.5-0.9,0.7-1.8,0.5-2.3
			c-0.1-0.3-0.5-0.4-0.9-0.4c-1.3,0-3.7,0.8-5.1,1.3c-0.3,0.1-0.6,0.2-0.9,0.3c-0.1,1.3-0.7,2.8-1.6,4.6c-0.6,1.1-1.3,2.3-2.1,3.6
			C17,20.8,16.9,21,16.8,21.2 M14.9,27.4c-0.5,0-1,0-1.5-0.1c-1,2-2.1,4.3-2.8,6.6c-0.1,0.3-0.1,0.5-0.1,0.6c0.1,0,0.2,0,0.4,0
			c2.8-0.3,6.8-2.2,8.8-4.6c0.8-0.9,1-1.7,0.8-2c-0.1-0.3-0.9-0.7-2.5-0.8c-0.7,0.1-1.3,0.2-2,0.3c0,0,0,0-0.1,0
			C15.7,27.4,15.3,27.4,14.9,27.4 M25.5,0c-0.3,0-0.6,0-1,0c-2.5,0.2-5.1,1-7.3,1.8C15.7,2.3,14,2.9,13.1,3
			c-2.3,0.2-4.3,1.4-5.4,3.3c-1.1,1.9-1.2,4.2-0.2,6.3C7.6,13,7.8,13.4,8,13.8c-2.9,5-5.4,10.3-7,14.6c-1.6,4.5-1.4,7.5,0.8,10.7
			c1.3,1.9,3,3.4,4.9,4.4c1.5,0.8,3.1,1.1,4.9,1.1c1,0,2-0.1,3.2-0.3c3.4-0.6,8.7-2.7,12.2-6.6c3.3-3.6,4-7.9,3.1-11.4
			c1.8-1.5,3-2.9,3.8-3.8c3.2-4.1,4.2-9,2.9-13.8C35.4,3.3,31.2,0,25.5,0L25.5,0z"/>
	</g>
	<g>
		<path fill="#FFFFFF" d="M41.4,42.3c-1.5,0-3-0.3-4.5-0.8c-5.1-1.9-8.2-6.7-8.2-12.9c0-12.4,10.3-22.9,17.5-25.4
			c1.4-0.5,2.8-0.7,4.1-0.7c2.3,0,4.5,0.7,6.1,2.1c2.4,1.2,4.2,3.3,5.1,6c2,5.9-0.2,13.3-2.9,18.3C54,37.6,47.9,42.3,41.4,42.3z
			 M51.5,12.8c-1.8,0.7-5.3,3-8.5,8c-3.3,5.1-3.6,9.9-3,11.7c0,0.1,0,0.1,0.1,0.2c1.5-0.2,5.3-2.8,8.4-8.6
			C51.1,19.2,51.8,15,51.5,12.8z"/>
		<path d="M50.4,5c1.8,0,3.5,0.6,4.7,1.7c2,0.9,3.4,2.6,4.1,4.8c1.8,5.1-0.4,12-2.7,16.3l0,0c-4.2,7.8-9.7,12-15.1,12
			c-1.2,0-2.4-0.2-3.6-0.7c-4.1-1.5-6.5-5.4-6.5-10.5C31.3,17,41.4,7.6,47.1,5.6C48.2,5.2,49.3,5,50.4,5 M39.8,35.2
			c2.8,0,7.4-3.6,10.8-9.9c3.4-6.2,3.9-11.7,3-14.1c-0.2-0.5-0.5-0.9-0.8-1c0,0,0,0,0,0c-0.1,0-0.3-0.1-0.5-0.1
			c-2,0-7.2,2.7-11.6,9.4c-3.5,5.4-4.2,11-3.3,13.8c0.2,0.6,0.6,1.5,1.3,1.8C39.1,35.1,39.5,35.2,39.8,35.2 M50.4,0
			c-1.6,0-3.3,0.3-4.9,0.8c-7.9,2.8-19.2,14.3-19.2,27.8c0,7.3,3.7,13,9.8,15.2c1.7,0.6,3.5,1,5.3,1c7.4,0,14.3-5.2,19.4-14.6
			c3-5.5,5.3-13.7,3-20.4c-1.1-3.2-3.2-5.8-6.1-7.3C55.8,0.9,53.2,0,50.4,0L50.4,0z M42.6,28c0.4-1.7,1.2-3.7,2.5-5.8
			c1.1-1.7,2.2-3,3.2-4c-0.4,1.3-1.1,2.9-2,4.6C45,25.1,43.7,26.8,42.6,28L42.6,28z"/>
	</g>
	<g>
		<path fill="#FFFFFF" d="M70.8,42.3c-1.5,0-3-0.3-4.5-0.8c-5.1-1.9-8.2-6.7-8.2-12.9c0-12.4,10.3-22.9,17.5-25.4
			c1.4-0.5,2.8-0.7,4.1-0.7c2.3,0,4.5,0.7,6.1,2.1c2.4,1.2,4.2,3.3,5.1,6c2,5.9-0.2,13.3-2.9,18.3C83.4,37.6,77.2,42.3,70.8,42.3z
			 M80.9,12.8c-1.8,0.7-5.3,3-8.5,8c-3.3,5.1-3.6,9.9-3,11.7c0,0.1,0,0.1,0.1,0.2c1.5-0.2,5.3-2.8,8.4-8.6
			C80.4,19.2,81.1,15,80.9,12.8z"/>
		<path d="M79.7,5c1.8,0,3.5,0.6,4.7,1.7c2,0.9,3.4,2.6,4.1,4.8c1.8,5.1-0.4,12-2.7,16.3l0,0c-4.2,7.8-9.7,12-15.1,12
			c-1.2,0-2.4-0.2-3.6-0.7c-4.1-1.5-6.5-5.4-6.5-10.5C60.6,17,70.8,7.6,76.5,5.6C77.6,5.2,78.7,5,79.7,5 M69.2,35.2
			c2.8,0,7.4-3.6,10.8-9.9c3.4-6.2,3.9-11.7,3-14.1c-0.2-0.5-0.5-0.9-0.8-1c0,0,0,0,0,0c-0.1,0-0.3-0.1-0.5-0.1
			c-2,0-7.2,2.7-11.6,9.4c-3.5,5.4-4.2,11-3.3,13.8c0.2,0.6,0.6,1.5,1.3,1.8C68.5,35.1,68.8,35.2,69.2,35.2 M79.7,0
			c-1.6,0-3.3,0.3-4.9,0.8C67,3.6,55.6,15.1,55.6,28.7c0,7.3,3.7,13,9.8,15.2c1.7,0.6,3.5,1,5.3,1c7.4,0,14.3-5.2,19.4-14.6
			c3-5.5,5.3-13.7,3-20.4c-1.1-3.2-3.2-5.8-6.1-7.3C85.2,0.9,82.6,0,79.7,0L79.7,0z M71.9,28c0.4-1.7,1.2-3.7,2.5-5.8
			c1.1-1.7,2.2-3,3.2-4c-0.4,1.3-1.1,2.9-2,4.6C74.4,25.1,73,26.8,71.9,28L71.9,28z"/>
	</g>
	<g>
		<path fill="#FFFFFF" d="M109.1,42.4c-1,0-2-0.4-2.9-1.2c-0.7-0.6-1.5-1.5-1.9-2.9c-0.3,0.5-0.5,1-0.8,1.4
			c-0.8,1.7-2.2,2.2-2.9,2.4c-0.3,0.1-0.6,0.1-0.9,0.1c-0.9,0-1.8-0.3-2.6-0.9c-1.7-1.3-2.8-2.9-3.3-5c-0.6,1.2-1.2,2.3-1.6,3.4
			c-0.6,1.4-1.7,2.3-3.2,2.6c-0.2,0-0.4,0.1-0.7,0.1c-1.2,0-2.4-0.6-3.3-1.6c-0.9-0.9-2.8-3.9-0.8-9.3c1.9-5,10.1-18.5,15.8-26.3
			c0.8-1.2,2-1.9,3.3-2.1c0.2,0,0.4,0,0.6,0c0.8,0,2,0.2,3.1,1.2c3.1,2.7,3.6,5.8,3.1,8.7c1.9-2.5,3.8-5.1,5.5-7.7
			c1.1-1.7,2.5-2.2,3.4-2.3c0.2,0,0.3,0,0.5,0c1.2,0,2.4,0.5,3.4,1.5c2.9,3,3.2,7.3,0.8,11.7c-3.7,6.8-8.4,16.5-10.8,23.3l-0.1,0.2
			c-0.5,1.3-1.6,2.3-2.9,2.6C109.7,42.3,109.4,42.4,109.1,42.4z"/>
		<path d="M119.6,5.5c0.8,0,1.4,0.6,1.6,0.8c2.1,2.2,2.2,5.3,0.4,8.8c-3.7,6.9-8.5,16.7-10.9,23.6c0,0,0,0,0,0.1
			c-0.3,0.6-0.6,1-1.2,1.1c-0.1,0-0.2,0-0.3,0c-0.6,0-1.1-0.4-1.3-0.6c-1.5-1.2-1.8-3.4-0.9-6.7c0.4-1.4,1.2-3.6,2.3-6.1
			c-3.4,4.6-6,8.6-7.9,12.1c-0.1,0.2-0.5,0.9-1.3,1.1c-0.1,0-0.2,0-0.4,0c-0.3,0-0.7-0.1-1.1-0.4c-2.2-1.6-2.9-3.9-2.4-7.2
			c0.3-1.6,0.9-4.6,1.9-8.2c-3.1,5-6.2,10.4-8.2,14.8c-0.3,0.9-1,1.1-1.3,1.1c-0.1,0-0.2,0-0.3,0c-0.4,0-0.9-0.2-1.4-0.7
			c-0.6-0.6-1.9-2.6-0.3-6.7c1.8-4.7,9.9-18.2,15.5-25.7c0.4-0.6,1-1,1.6-1.1c0.1,0,0.2,0,0.3,0c0.4,0,0.9,0.1,1.5,0.6
			c2.5,2.2,3,4.6,1.6,8.7c-1.1,3.2-2.1,6.6-3.2,10.2c1.8-2.4,3.6-4.7,5.4-7c2.9-3.7,6-7.5,8.5-11.5c0.2-0.3,0.7-1,1.6-1.1
			C119.4,5.5,119.5,5.5,119.6,5.5 M119.6,0.5c-0.2,0-0.5,0-0.7,0c-1.2,0.1-3.6,0.8-5.3,3.4c-0.5,0.8-1.1,1.7-1.7,2.5
			c-0.6-1.4-1.6-2.7-3.1-4l0,0l0,0c-1.4-1.2-3-1.8-4.8-1.8c-0.3,0-0.6,0-0.9,0.1c-2,0.3-3.8,1.4-5,3.2c-5.3,7.2-14,21.3-16.1,26.8
			c-2.5,6.6,0,10.5,1.3,11.9c1.4,1.5,3.2,2.4,5.1,2.4c0.4,0,0.7,0,1.1-0.1c1.8-0.3,3.4-1.4,4.4-3c0.6,0.6,1.2,1.1,1.7,1.5
			c1.2,0.9,2.6,1.4,4.1,1.4c0.5,0,1-0.1,1.5-0.2c0.8-0.2,2-0.6,3.1-1.7c0.1,0.1,0.2,0.2,0.3,0.3c1.7,1.4,3.4,1.7,4.5,1.7
			c0.5,0,1-0.1,1.5-0.2c2.1-0.5,3.8-2,4.6-4.1c0-0.1,0.1-0.2,0.1-0.3c2.3-6.7,7-16.2,10.6-22.9c2.9-5.4,2.5-10.9-1.2-14.6l0,0l0,0
			C122.9,0.8,120.9,0.5,119.6,0.5L119.6,0.5z"/>
	</g>
</g>
</svg>
