<?xml version="1.0" encoding="utf-8"?>
<!-- Generator: Adobe Illustrator 19.1.0, SVG Export Plug-In . SVG Version: 6.00 Build 0)  -->
<!DOCTYPE svg PUBLIC "-//W3C//DTD SVG 1.1//EN" "http://www.w3.org/Graphics/SVG/1.1/DTD/svg11.dtd">
<svg version="1.1" id="Layer_1" xmlns="http://www.w3.org/2000/svg" xmlns:xlink="http://www.w3.org/1999/xlink" x="0px" y="0px"
	 viewBox="0 0 118.6 46.4" enable-background="new 0 0 118.6 46.4" xml:space="preserve">
<g>
	<g>
		<path fill="#FFFFFF" d="M20.8,43.9c-0.1,0-0.3,0-0.4,0c-2-0.1-3.6-0.7-4.9-1.7c-1.7,1-3.4,1.6-5.1,1.6c-2.9,0-5.4-1.5-6.7-4
			c-2-3.8-1.2-9.3,2.2-14.2c4.2-6.2,9.1-9.7,13.5-9.7c0.8,0,1.6,0.1,2.4,0.4c2.1-3.8,4.5-7.9,5.9-9.9c1.3-1.8,2.9-2.1,3.7-2.1
			c0.2,0,0.4,0,0.5,0c1.6,0.2,2.9,1.3,3.5,2.9c1.6,3.8-0.2,8-1.8,10.7c-0.5,0.9-1.1,2-1.8,3.1c-1.1,2-2.5,4.4-3.8,6.8
			c1.5,0.1,2.8,1,3.5,2.4l0.1,0.2c0.7,1.7,0.6,4.1-0.4,6.2C29.4,40.1,25.4,43.9,20.8,43.9z"/>
		<path d="M31.3,6.7c0.1,0,0.1,0,0.2,0C31.9,6.8,32.6,7,33,8c0.9,2.2,0.5,4.9-1.6,8.6c-0.5,0.9-1.1,1.9-1.8,3.1
			c-2.5,4.4-5.9,10.5-7.9,14.7c-0.8,1.7-0.9,2.7-0.9,3.1c1.1-0.1,3.5-2.5,5.4-6.2c0.4-0.7,0.9-1,1.5-1c0,0,0,0,0,0
			c0.6,0,1.2,0.4,1.5,1c0,0,0,0,0,0.1c0.4,0.8,0.4,2.5-0.4,4.2c-1.4,2.9-4.7,6-8.1,6c-0.1,0-0.2,0-0.3,0c-2.2-0.1-3.9-1.1-4.7-2.7
			c-1.4,1.3-3.3,2.5-5.5,2.5c-2,0-3.6-1-4.5-2.7C4.2,35.6,5,31,7.8,26.9c3.7-5.4,8-8.6,11.5-8.6c1.2,0,2.3,0.4,3,1.2
			c0.1,0.1,0.2,0.2,0.2,0.3c2.6-4.8,5.5-9.9,7-12.1C30.2,6.9,30.8,6.7,31.3,6.7 M11,37.1c1-0.1,3.3-2,5.8-6.8c2.1-4,2.6-5.9,2.8-6.8
			c-1.2,0.6-3.9,2.9-6.3,6.7c0,0,0,0,0,0C11.1,33.7,10.8,36.4,11,37.1 M31.3,1.7c-2.2,0-4.3,1.1-5.8,3.1c-1.4,2-3.5,5.6-5.1,8.5
			c-0.4,0-0.7-0.1-1.1-0.1c-5.3,0-10.9,3.9-15.6,10.8c-3.9,5.7-4.8,12.1-2.3,16.8c1.8,3.3,5.1,5.3,9,5.3c1.7,0,3.4-0.4,5-1.2
			c1.4,0.8,3.1,1.2,4.9,1.3c0.2,0,0.4,0,0.6,0c5.7,0,10.5-4.5,12.6-8.8c1.4-2.8,1.5-6,0.5-8.4c0-0.1-0.1-0.2-0.1-0.3
			c-0.5-1-1.3-1.9-2.2-2.5c0.8-1.5,1.6-2.9,2.4-4.2c0.7-1.2,1.3-2.2,1.8-3.1c1.8-3.2,3.9-8,1.9-12.9c-1-2.4-3-4.1-5.5-4.4
			C31.9,1.7,31.6,1.7,31.3,1.7L31.3,1.7z"/>
	</g>
	<g>
		<path fill="#FFFFFF" d="M35.6,33.1c-0.2,0-0.4,0-0.6,0c-3.8-0.2-6.5-2.2-7.2-5.6c-0.4-1.9,0.4-3.2,0.9-3.8
			c0.8-0.9,1.9-1.4,3.2-1.4c0.1,0,0.3,0,0.4,0c0.2,0,0.4,0,0.7,0c1.2,0,2.6-0.1,4-0.2c1.4-0.1,2.6-0.2,3.7-0.2
			c3.9,0,6.7,2.1,7.4,5.6c0.3,1.4,0,2.8-0.9,3.8c-0.8,0.9-1.9,1.4-3.2,1.4l0,0c-0.1,0-0.3,0-0.4,0c-0.4,0-0.8,0-1.3,0
			c-1.3,0-2.4,0.1-3.6,0.3C37.7,33,36.6,33.1,35.6,33.1z"/>
		<path d="M40.7,24.3c3.5,0,4.6,2,5,3.6c0.2,0.8-0.1,1.4-0.3,1.7c-0.2,0.3-0.6,0.6-1.3,0.6c-0.1,0-0.1,0-0.2,0c-0.5,0-1-0.1-1.5-0.1
			c-1.4,0-2.7,0.2-3.9,0.3c-1,0.1-2,0.2-2.9,0.2c-0.1,0-0.3,0-0.4,0c-3.4-0.1-4.5-2.1-4.8-3.6c-0.1-0.3-0.2-1,0.3-1.7
			c0.2-0.3,0.6-0.5,1.3-0.5c0.1,0,0.1,0,0.2,0c0.3,0,0.6,0,0.9,0c1.3,0,2.7-0.1,4.2-0.2C38.5,24.4,39.7,24.3,40.7,24.3 M40.7,19.3
			c-1.2,0-2.5,0.1-3.9,0.2c-1.3,0.1-2.7,0.2-3.8,0.2c-0.2,0-0.4,0-0.6,0c-0.2,0-0.4,0-0.6,0c-2,0-3.8,0.8-5,2.2
			c-0.8,0.9-2.1,3-1.5,6c0.9,4.5,4.6,7.4,9.5,7.6c0.2,0,0.4,0,0.7,0c1.2,0,2.4-0.1,3.5-0.3c1.1-0.1,2.2-0.3,3.3-0.3
			c0.4,0,0.7,0,1.1,0c0.2,0,0.4,0,0.6,0c2,0,3.8-0.8,5.1-2.3c1.4-1.6,2-3.8,1.5-6C49.6,22.2,45.8,19.3,40.7,19.3L40.7,19.3z"/>
	</g>
	<g>
		<path fill="#FFFFFF" d="M81.3,43.8c-3.4,0-6.2-1.1-8.3-3.1c-2.2,1.9-4.9,3-7.5,3c-3.1,0-4.9-1.3-5.9-2.4c-1.8,1.2-4.1,2.3-6.8,2.3
			l-0.3,0c-2.6-0.1-4.9-1.1-6.3-3c-1.8-2.2-2.2-5.4-1.4-9.5c2.2-10.2,8.7-19.7,13.6-24.9c1.4-1.5,2.9-1.8,3.9-1.8
			c1.3,0,2.5,0.5,3.5,1.4c1.3,1.2,2.6,3.1,2.6,6.2c0.9-0.7,1.9-1,3.1-1c0.3,0,0.5,0,0.8,0.1c1.9,0.3,3.6,1.6,4.6,3.6
			c1.4,2.9,0.5,5.9-1,7.5c-0.5,0.6-1.2,1-1.9,1.3c-0.1,0.8-0.2,1.5-0.5,2.3c0.7-0.3,1.4-0.4,1.9-0.4c0,0,0,0,0.1,0
			c1.1-1.6,2-3,2.7-4.1c0.4-2.3,1.3-3.9,2.9-5.4c1.4-1.3,3-1.9,4.6-1.9c1.3,0,2.4,0.5,3.3,1.3c2.6,2.6,0.9,5.6,0.2,6.7L89.2,22
			l-0.1,0.1c-0.1,1.8,0.1,3.6,0.2,5.3c0.2-0.1,0.4-0.1,0.7-0.2c4-7.6,11-19.1,14.1-22.9c0.9-1.1,2.2-1.8,3.6-1.8c0.2,0,0.3,0,0.5,0
			c1.6,0.2,2.9,1.2,3.5,2.8c1.3,2.8,0.7,6.6-1.7,10.5c-0.2,0.3-0.4,0.6-0.6,1c1.1,0.6,2,1.6,2.7,2.8c1.2,2.2,1.2,4.8,0,7.2
			c-0.1,0.3-0.3,0.6-0.5,0.9c0,0,0.1,0,0.1,0c1.7,0,3.2,0.9,3.9,2.4c0.6,1.3,1,3.5-0.5,6.5c-1.8,3.6-5.9,7.4-10.8,7.4
			c-4,0-5.9-1.9-6.8-3.1c-0.4-0.6-0.9-1.4-1.1-2.4c-0.4,0.9-0.8,1.7-1.1,2.5L95.3,41c-0.6,1.4-1.8,2.3-3.3,2.5c-0.2,0-0.4,0-0.6,0
			c-1.2,0-2.4-0.6-3.2-1.5c-1.9,1.1-4.1,1.7-6.3,1.8C81.7,43.8,81.5,43.8,81.3,43.8z"/>
		<path d="M107.7,5c0.1,0,0.1,0,0.2,0c0.7,0.1,1.2,0.5,1.5,1.2c0.9,2.1,0.4,5.1-1.5,8.2c-0.6,1-1.6,2.6-2.7,4.3
			c0.5-0.2,1-0.3,1.5-0.3c0.1,0,0.2,0,0.3,0c1.2,0.1,2.3,1,3,2.2c0.8,1.5,0.8,3.3,0,4.9c-0.5,0.9-1.2,2.1-1.9,3.4
			c-1,1.7-2.1,3.6-2.7,5c-0.9,2.1-0.7,3.3-0.5,3.4c0,0,0,0,0.1,0c0,0,0,0,0,0c1.1-0.1,3.6-2.6,5.3-6.2c0.3-0.6,0.9-1,1.6-1
			c0,0,0,0,0,0c0.7,0,1.3,0.4,1.6,1c0.3,0.7,0.6,2-0.5,4.2c-1.5,3-4.9,6-8.5,6c-2.7,0-4.1-1.1-4.7-2c-1.2-1.6-1.2-4.1-0.2-7
			c0.9-2.7,2.6-5.4,3.8-7.4c0,0,0,0,0,0c-1.7,1.3-3.9,3.3-5.4,5.8c-2,3.2-3.7,6.6-4.8,9.3c0,0,0,0,0,0.1c-0.3,0.6-0.8,1-1.4,1.1
			c-0.1,0-0.2,0-0.2,0c-0.5,0-1-0.2-1.3-0.6c-0.5-0.6-0.8-1.3-1-2c-2,1.8-4.5,2.8-7.3,2.9c-0.2,0-0.3,0-0.5,0c-3.7,0-6.4-1.5-8-4.4
			c0,0,0-0.1,0-0.1c-1.9,2.7-4.8,4.4-7.7,4.4c-2.4,0-3.6-1.1-4.3-1.9c-0.4-0.6-0.7-1.2-0.8-2c-1.8,1.9-4.5,3.8-7.5,3.8
			c-0.1,0-0.1,0-0.2,0c-1.9-0.1-3.5-0.7-4.5-2c-1.3-1.6-1.6-4.1-0.9-7.4c2.1-9.6,8.3-18.8,13-23.7c0.7-0.8,1.4-1.1,2.1-1.1
			c0.7,0,1.3,0.3,1.8,0.8c1.7,1.6,2.3,3.8,1.5,6.7c-1.6,6.3-7.2,12.4-11.8,15.6c-1.8,4.4-1.7,6.6-1.3,7.1c0,0.1,0,0.1,0.1,0.1
			c0,0,0.1,0,0.1,0c1.5,0,4.6-2.7,6.5-6.6c0.4-0.8,1-1.2,1.7-1.2c0.1,0,0.1,0,0.2,0c0.3,0,0.5,0.1,0.7,0.2c1.6-3.6,4.1-7.8,5.5-9.9
			c0.2-0.3,0.7-1,1.5-1.1c-0.6-1.5-0.3-3.3,0.8-4.4c0.5-0.5,1.1-0.8,1.8-0.8c0.1,0,0.3,0,0.4,0c1.1,0.2,2.1,1,2.7,2.2
			c0.9,1.8,0.4,3.8-0.6,4.7c-0.5,0.5-1.2,0.8-1.9,0.8c-0.1,0-0.2,0-0.3,0c-0.1,0-0.3,0-0.4-0.1c0.3,1.3,0.2,3.1-0.7,5
			c-0.4,0.9-1.1,2.1-1.7,3.3c-0.9,1.7-1.9,3.4-2.5,4.8c-0.7,1.7-0.8,2.7-0.7,3c1.4-0.1,3.9-2.6,5.4-6.1c0,0,0-0.1,0.1-0.1
			c0.3-0.6,0.9-1,1.5-1c0.3-0.7,0.7-1.3,1.3-1.7c0.5-0.4,1-0.6,1.4-0.6c0.3,0,0.5,0.1,0.6,0.1c0.1,0.1,0.3,0.1,0.4,0.3
			c1.4-2,2.9-4.2,4.1-6.2c0.3-2,0.9-3.2,2.2-4.4c0.9-0.9,2-1.3,2.9-1.3c0.6,0,1.1,0.2,1.5,0.6c1.2,1.2,0.4,2.6-0.2,3.7
			c0,0,0,0.1,0,0.1c-0.1,0.2-0.2,0.4-0.3,0.5c0,0,0,0.1,0,0.1c-0.2,2.4,0,4.6,0.2,6.7c0.2,1.7,0.3,3.4,0.2,5c0,0.4-0.1,0.8-0.1,1.2
			c1-1.1,1.7-2.4,2.2-3.5c0.3-0.7,0.9-1.1,1.6-1.1c0,0,0,0,0.1,0c0.2,0,0.5,0.1,0.7,0.2c3.7-7.4,11.4-19.9,14.6-23.9
			C106.5,5.3,107.1,5,107.7,5 M79.9,37.1c0,0,0.1,0,0.1,0c0.8-0.5,0.8-4.3,0.7-7.2c-0.9,1.5-1.9,2.9-2.8,4.2c0.5,1.8,1.2,2.7,1.7,3
			C79.8,37,79.9,37.1,79.9,37.1 M107.7,0c-2.2,0-4.2,1-5.6,2.8c-2.1,2.6-5.8,8.5-9.3,14.4c-0.3-1.6-1.1-2.8-2-3.7
			c-1.3-1.3-3.1-2.1-5.1-2.1c-2.2,0-4.4,0.9-6.3,2.6c0,0,0,0,0,0c-0.1-0.1-0.1-0.3-0.2-0.4c-1.3-2.7-3.7-4.5-6.4-4.9
			c-0.4-0.1-0.8-0.1-1.2-0.1c-0.4,0-0.7,0-1.1,0.1c-0.7-2.2-2-3.7-2.9-4.5c-1.4-1.3-3.3-2.1-5.2-2.1c-2.1,0-4.1,0.9-5.7,2.6
			c-5.2,5.4-12,15.4-14.2,26.1c-1,4.8-0.4,8.7,1.8,11.5c1.9,2.4,4.8,3.8,8.2,3.9c0.1,0,0.2,0,0.3,0c2.5,0,4.7-0.7,6.5-1.7
			c1.7,1.2,3.8,1.8,6.1,1.8c2.6,0,5.2-0.8,7.5-2.3c2.3,1.6,5.1,2.4,8.3,2.4c0.2,0,0.5,0,0.7,0c2-0.1,4-0.5,5.8-1.3
			c1.1,0.7,2.3,1.1,3.6,1.1c0.3,0,0.7,0,1-0.1c1.7-0.3,3.2-1.2,4.3-2.5c1.4,1.4,3.9,2.8,7.7,2.8c6,0,10.9-4.6,13-8.8
			c2-4,1.2-7.1,0.6-8.5l0-0.1l0-0.1c-0.6-1.2-1.6-2.2-2.7-2.9c0.8-2.6,0.5-5.3-0.8-7.6c-0.4-0.8-1-1.6-1.6-2.2
			c2.3-4.2,2.7-8.5,1.2-11.9c-1-2.3-3-3.9-5.5-4.2C108.2,0,107.9,0,107.7,0L107.7,0z"/>
	</g>
</g>
</svg>
