<?xml version="1.0" encoding="utf-8"?>
<!-- Generator: Adobe Illustrator 19.1.0, SVG Export Plug-In . SVG Version: 6.00 Build 0)  -->
<!DOCTYPE svg PUBLIC "-//W3C//DTD SVG 1.1//EN" "http://www.w3.org/Graphics/SVG/1.1/DTD/svg11.dtd">
<svg version="1.1" id="Layer_1" xmlns="http://www.w3.org/2000/svg" xmlns:xlink="http://www.w3.org/1999/xlink" x="0px" y="0px"
	 viewBox="0 0 80 44.5" enable-background="new 0 0 80 44.5" xml:space="preserve">
<g>
	<g>
		<path fill="#FFFFFF" d="M7.6,41.8c-0.7,0-1.9-0.2-3-1.2c-2.1-1.8-2.7-5.1-1.6-8.9c0.6-1.8,1.6-4.3,3-7.1c0.1-4,0.4-12.8,1.5-18.3
			c0.3-1.6,1.3-2.8,2.6-3.4c0.5-0.2,1.1-0.3,1.6-0.3c0.9,0,1.8,0.3,2.5,0.8c3.2,2,3.5,5.7,3.4,8.6c3.3-3.3,6.6-6.4,8.6-8.2
			c1.2-1,2.3-1.2,3.1-1.2c0.4,0,0.8,0.1,1.3,0.2c1.4,0.4,2.4,1.6,2.8,3.1c0.6,2.2,0.4,5.8-4,10.2c-0.9,0.9-1.8,1.7-2.8,2.7l-0.1,0.1
			c-3,2.8-6.3,6-10.7,10.7c-2.2,4-3.5,7.3-4.3,9.4L11.5,39c-0.5,1.3-1.6,2.3-2.9,2.6C8.3,41.7,7.9,41.8,7.6,41.8z"/>
		<path d="M29.4,5c0.2,0,0.4,0,0.5,0.1c0.3,0.1,0.9,0.4,1.2,1.4c0.4,1.6,0.2,4.2-3.4,7.8c-0.9,0.9-1.8,1.8-2.8,2.7
			c-3.1,2.9-6.5,6.2-11.1,11.1c-2.4,4.3-3.8,7.8-4.6,10c0,0,0,0,0,0.1c-0.3,0.8-0.9,1.1-1.2,1.1c-0.1,0-0.2,0-0.4,0
			c-0.4,0-0.8-0.1-1.3-0.6c-1-0.9-1.8-3-0.9-6.3C6,30.6,7,28.1,8.5,25.2c0.1-3.9,0.4-12.8,1.5-18.4c0.2-1,0.7-1.4,1.1-1.6
			C11.2,5.1,11.5,5,11.8,5c0.3,0,0.7,0.1,1.2,0.4c1.8,1.1,2.5,3.3,2.3,6.9c-0.1,1.3-0.2,2.7-0.3,4.2c-0.1,0.7-0.1,1.4-0.2,2.1
			c4.5-4.7,10.1-10.1,13.3-13C28.6,5.1,29.1,5,29.4,5 M29.4,0c-1.1,0-2.8,0.3-4.6,1.7l-0.1,0.1l-0.1,0.1c-1.3,1.2-3.1,2.8-5.1,4.7
			c-0.6-2-1.8-3.9-4-5.4C14.4,0.5,13.1,0,11.8,0C10.9,0,10,0.2,9.2,0.6C7,1.5,5.5,3.4,5,5.8C4,11.2,3.6,19.1,3.5,24
			c-1,2.1-2.2,4.7-2.9,7l0,0l0,0c-1.4,4.7-0.5,9,2.4,11.5c1.3,1.2,2.9,1.8,4.6,1.8c0.5,0,1-0.1,1.5-0.2c2.1-0.5,3.9-2,4.7-4.1
			c0-0.1,0.1-0.2,0.1-0.2c0.7-1.9,1.9-5,4-8.7c4.2-4.5,7.5-7.7,10.4-10.4c1-1,2-1.9,2.9-2.8C36.6,12.5,36.7,8,36,5.1
			c-0.6-2.3-2.3-4.1-4.5-4.8C30.8,0.1,30.1,0,29.4,0L29.4,0z"/>
	</g>
	<g>
		<path fill="#FFFFFF" d="M52.5,42c-1.2,0-2.3-0.5-3.2-1.4c-0.4-0.4-1-1.1-1.4-2.1c0,0.1-0.1,0.2-0.1,0.3c-0.6,1.4-1.7,2.4-3.1,2.7
			c-0.3,0.1-0.6,0.1-0.9,0.1c-1.1,0-2.1-0.4-2.9-1.2c0,0-0.1-0.1-0.1-0.1c-1.7,1-3.5,1.5-5.2,1.5c-2.8,0-4.6-1-5.7-2
			c-1.8,1.2-3.6,1.8-5.4,1.8c-0.2,0-0.4,0-0.6,0c-2.3-0.2-4.2-1.2-5.4-3c-2.1-3.1-1.2-7.1-0.5-9.2c1.3-3.9,4.1-9.2,7.4-13.7
			c0.9-1.2,2.1-1.9,3.5-2l0.2,0c1.3,0,2.5,0.6,3.4,1.6c0.1,0.1,0.2,0.3,0.3,0.4c0.5,0.7,0.9,1.6,1.1,2.6c0.6-1,1.1-1.9,1.7-2.8
			c1.2-1.7,2.7-2.1,3.7-2.1c0,0,0,0,0,0c1.4,0,2.6,0.6,3.5,1.7c1,1.2,1.6,3.1,1.5,5.3c1-1.8,2.1-3.5,3-4.9c0.8-1.3,2.1-2.1,3.6-2.1
			l0.1,0c1.3,0,2.6,0.7,3.4,1.9c1.7-1.1,3.3-1.6,4.6-1.6l0.1,0c1.6,0,3.1,0.8,4.1,2.1c1.9-1.2,3.6-1.8,5.1-1.8l0.1,0
			c1.7,0,3.3,0.9,4.3,2.4c1.4,2.1,1.5,5.3,0.3,8.2c-0.1,0.3-0.2,0.5-0.4,0.8l0.1,0c1.4,0,2.7,0.7,3.5,1.8c1.9,2.7-0.1,6.9-0.1,6.9
			c-2.1,4.3-6.7,7.5-10.9,7.5c-3.2,0-5.8-1.3-7.3-3.6c-0.3-0.4-0.5-0.9-0.7-1.3c-0.4,0.8-0.8,1.6-1.2,2.5l-0.1,0.1
			c-1,2-2.6,2.5-3.4,2.6C52.8,42,52.7,42,52.5,42z"/>
		<path d="M39.6,15.9c0.4,0,1,0.1,1.5,0.8c1,1.2,1.5,4,0.1,6.9c-0.5,1.1-1.3,2.4-2.1,3.8c-1,1.7-2,3.4-2.6,4.8
			c-0.9,2-0.7,2.9-0.7,3.1c0,0,0,0,0,0c0,0,0,0,0.1,0c0,0,0,0,0.1,0c1.1-0.1,3.2-2,5.6-6.3c0.3-0.6,0.9-1,1.6-1c0,0,0.1,0,0.1,0
			c0.1,0,0.2,0,0.2,0c1.7-3.6,4.2-8,6.3-11.1c0.5-0.8,1.2-0.9,1.5-0.9c0,0,0,0,0,0c0.4,0,1.1,0.1,1.6,1c0.4,0.7,0.7,1.5,0.7,2.4
			c2-1.7,4.2-3.1,5.8-3.1c0,0,0.1,0,0.1,0c0,0,0,0,0,0c0.9,0,1.8,0.5,2.4,1.4c0.4,0.5,0.7,1.2,0.8,2c1.9-1.6,4.3-3.1,6-3.1
			c0,0,0.1,0,0.1,0c0.9,0,1.7,0.5,2.2,1.3c0.9,1.4,0.9,3.8,0.1,5.9c-0.5,1.4-1.6,3-2.6,4.6c-0.8,1.2-1.5,2.5-2.1,3.5
			c-0.7,1.5-0.7,2.6-0.4,3.1c0.1,0.1,0.2,0.2,0.3,0.2c0,0,0,0,0,0c0.7,0,2.2-0.8,5.2-6.2c0.3-0.6,0.9-1,1.5-1c0,0,0.1,0,0.1,0
			c0.6,0,1.1,0.3,1.4,0.8c0.7,1,0.1,3.4-0.3,4.4c-1.7,3.5-5.4,6.1-8.6,6.1c-2.3,0-4.2-0.9-5.2-2.5c-1.2-1.8-1.1-4.3,0-6.8
			c0.9-2,2.4-4.3,3.6-6.3c-0.4,0.4-0.9,0.8-1.4,1.3c-3.8,3.8-6.1,8-8.4,13.3c0,0,0,0,0,0c-0.5,0.9-1.1,1.2-1.5,1.2
			c-0.1,0-0.1,0-0.2,0c-0.4,0-0.9-0.1-1.4-0.7c-0.7-0.6-2.3-2.8-0.4-7.7c0.8-2,2.4-4.6,3.8-6.9c0.3-0.4,0.5-0.8,0.8-1.3
			c-0.8,0.6-1.7,1.5-2.7,2.7c-2.4,2.6-4.7,6.6-7.1,12.2c-0.4,0.8-0.9,1.1-1.3,1.2c-0.1,0-0.2,0-0.3,0c-0.4,0-0.8-0.1-1.3-0.5
			c-0.6-0.5-0.9-1.1-1.2-1.8c-1.7,1.5-3.7,2.5-5.8,2.5c-2.3,0-3.6-0.9-4.3-1.7c-0.4-0.4-0.7-0.9-0.9-1.5c-1.6,1.5-3.6,2.9-5.9,2.9
			c-0.1,0-0.3,0-0.4,0c-1.9-0.1-3-1.1-3.5-1.9c-1.5-2.2-0.7-5.3-0.2-7c1.2-3.7,3.9-8.7,7.1-13.1c0.4-0.6,1-0.9,1.6-0.9
			c0,0,0.1,0,0.1,0c0.6,0,1.1,0.3,1.6,0.8c0,0,0.1,0.1,0.1,0.1c1.4,2.1,1.1,4.9-0.9,8.1c-1.8,2.9-2.8,4.9-3.8,7.2
			c-0.6,1.4-0.6,2.2-0.6,2.6c0.6-0.1,2.3-1.1,6-7.1c1.5-2.4,2.7-4.6,3.6-6.2c1-1.9,1.8-3.4,2.7-4.5C38,16.7,38.6,15.9,39.6,15.9
			C39.5,15.9,39.6,15.9,39.6,15.9 M39.6,10.9L39.6,10.9L39.6,10.9L39.6,10.9l-0.1,0l0,0c-1.2,0-3.3,0.4-5.1,2.5
			c-1.4-1.4-3.2-2.3-5.2-2.3c-0.1,0-0.2,0-0.4,0c-2.1,0.1-4.1,1.2-5.4,3C20,19,17.1,24.4,15.7,28.5c-1.5,4.4-1.2,8.5,0.8,11.4
			c1.6,2.4,4.2,3.9,7.3,4.1c0.2,0,0.5,0,0.8,0c1.8,0,3.5-0.4,5.2-1.3c1.6,1,3.6,1.5,5.8,1.5c1.6,0,3.3-0.4,4.9-1.1
			c1,0.6,2.1,0.9,3.3,0.9c0.5,0,1-0.1,1.4-0.2c1-0.2,1.9-0.6,2.7-1.3c1.3,1.2,2.9,1.8,4.6,1.8c0.3,0,0.6,0,0.9-0.1
			c1.9-0.3,3.6-1.3,4.7-2.9c2,1.7,4.6,2.7,7.6,2.7c5.2,0,10.6-3.6,13.1-8.9l0,0l0,0c0.1-0.2,2.6-5.6-0.1-9.5
			c-0.6-0.9-1.4-1.6-2.3-2.1c0.8-3.2,0.4-6.4-1.1-8.7c-1.4-2.2-3.7-3.5-6.3-3.5c-0.1,0-0.1,0-0.2,0c-1.5,0-3,0.4-4.7,1.3
			c-1.3-0.9-2.8-1.5-4.4-1.5l-0.1,0h0c0,0-0.1,0-0.1,0c-1.3,0-2.7,0.3-4.2,1c-1.1-0.8-2.4-1.3-3.8-1.3l0,0l-0.1,0
			c-2.3,0-4.4,1.2-5.7,3.2c0,0,0,0,0,0.1c-0.2-0.2-0.3-0.5-0.5-0.7C43.6,11.8,41.7,10.9,39.6,10.9L39.6,10.9z"/>
	</g>
</g>
</svg>
