<svg xmlns="http://www.w3.org/2000/svg" viewBox="0 0 462.913 462.913"><path d="M256.074 32.827a164.773 164.773 0 0 1 23.137 5.195 5.505 5.505 0 0 0 6.856-3.676 5.5 5.5 0 0 0-3.675-6.855 175.74 175.74 0 0 0-24.687-5.542 5.504 5.504 0 0 0-6.254 4.625 5.5 5.5 0 0 0 4.624 6.254zM315.317 53.863c36.76 21.7 63.473 56.123 75.214 96.926a5.5 5.5 0 0 0 6.806 3.763 5.5 5.5 0 0 0 3.765-6.807c-12.52-43.514-41-80.22-80.192-103.356a5.5 5.5 0 0 0-5.59 9.473zM305.908 180.218c10.173 0 18.45-8.276 18.45-18.45s-8.277-18.448-18.45-18.448-18.45 8.276-18.45 18.45 8.278 18.448 18.45 18.448zm0-25.9c4.107 0 7.45 3.343 7.45 7.45s-3.343 7.45-7.45 7.45-7.45-3.343-7.45-7.45 3.343-7.45 7.45-7.45zM274.255 272.133h63.308a5.5 5.5 0 0 0 5.5-5.5v-53.787a5.5 5.5 0 0 0-5.5-5.5h-63.308a5.5 5.5 0 0 0-5.5 5.5v53.787a5.5 5.5 0 0 0 5.5 5.5zm5.5-26.894h20.653v15.893h-20.653V245.24zm31.653 15.893V245.24h20.654v15.893h-20.654zm20.655-26.894H311.41v-15.895h20.653v15.894zm-31.655-15.894v15.894h-20.653v-15.894h20.653z"/><circle cx="200.245" cy="79.757" r="5.755"/><circle cx="107.866" cy="109.543" r="5.755"/><circle cx="393.866" cy="234.543" r="5.755"/><circle cx="247.866" cy="119.543" r="5.755"/><circle cx="201.866" cy="165.543" r="5.755"/><circle cx="73.866" cy="223.543" r="5.755"/><circle cx="357.866" cy="120.543" r="5.755"/><path d="M382.74 424.043l-17.796-83.386c40.114-37.164 63.002-89.33 63.002-144.167C427.946 88.145 339.8 0 231.456 0 123.11 0 34.966 88.145 34.966 196.49c0 54.837 22.888 107.003 63.002 144.167l-17.796 83.386c-10.688.033-19.375 8.74-19.375 19.435a19.4 19.4 0 0 0 16.125 19.148c.558.188 1.15.287 1.752.287H384.24a5.27 5.27 0 0 0 1.67-.273c9.313-1.553 16.207-9.605 16.207-19.162 0-10.696-8.687-19.402-19.376-19.435zm-27.823-77.667l16.576 77.667H91.42l16.576-77.667h246.92zM231.457 11c102.28 0 185.49 83.21 185.49 185.49a185.376 185.376 0 0 1-28.907 99.42c-3.46 0-6.903-.402-10.272-1.14V188.805l8.24 7.9a5.484 5.484 0 0 0 3.807 1.53 5.5 5.5 0 0 0 3.808-9.47l-83.908-80.437a5.498 5.498 0 0 0-7.61 0l-83.908 80.438a5.5 5.5 0 1 0 7.612 7.94l8.24-7.9v93.616a58.964 58.964 0 0 0-2.593-.064 59.264 59.264 0 0 0-28.775 7.47 48.334 48.334 0 0 1-23.42 6.083c-8.17 0-16.272-2.103-23.427-6.08a58.982 58.982 0 0 0-9.8-4.336V273.74h51.37a5.5 5.5 0 0 0 4.37-8.837l-27.16-35.593h15.104a5.5 5.5 0 0 0 4.37-8.837l-26.327-34.5h14.27a5.5 5.5 0 0 0 4.373-8.838L145.63 123.7a5.5 5.5 0 0 0-8.745 0l-40.777 53.435a5.5 5.5 0 0 0 4.372 8.837h14.27l-26.327 34.5a5.5 5.5 0 0 0 4.372 8.838h15.103l-27.162 35.593a5.5 5.5 0 0 0 4.373 8.837h49.928v9.167c-2.64-.36-5.307-.55-7.98-.55a59.248 59.248 0 0 0-28.767 7.47 48.03 48.03 0 0 1-23.422 6.07A185.376 185.376 0 0 1 45.97 196.49C45.966 94.21 129.177 11 231.456 11zm74.45 108.916l60.86 58.344v112.672c-.72-.354-1.438-.71-2.14-1.1a59.243 59.243 0 0 0-28.77-7.473 59.254 59.254 0 0 0-28.775 7.47 48.347 48.347 0 0 1-23.43 6.083 48.325 48.325 0 0 1-23.417-6.08 59.16 59.16 0 0 0-15.188-5.88V178.258l60.86-58.344zM123.94 221.37a5.5 5.5 0 0 0-4.93-3.06h-15.103l26.328-34.5a5.5 5.5 0 0 0-4.372-8.838h-14.27l29.66-38.868 29.662 38.868h-14.27a5.5 5.5 0 0 0-4.372 8.837l26.328 34.5h-15.103a5.5 5.5 0 0 0-4.372 8.837l27.16 35.593H96.222l27.163-35.593a5.503 5.503 0 0 0 .557-5.776zM82.1 306.463a59.13 59.13 0 0 0 21.537-7.023 48.22 48.22 0 0 1 23.416-6.083 48.244 48.244 0 0 1 23.43 6.084 59.368 59.368 0 0 0 28.777 7.47 59.364 59.364 0 0 0 28.77-7.472c7.14-3.98 15.24-6.08 23.426-6.08s16.287 2.102 23.432 6.083a59.34 59.34 0 0 0 28.765 7.47 59.375 59.375 0 0 0 28.78-7.472 48.237 48.237 0 0 1 23.426-6.082c8.178 0 16.275 2.103 23.42 6.084a59.433 59.433 0 0 0 21.534 7.018 185.848 185.848 0 0 1-26.43 28.916H108.528A185.762 185.762 0 0 1 82.1 306.462zm301.518 145.394a5.378 5.378 0 0 0-.38.056H79.68a5.517 5.517 0 0 0-.386-.056 8.413 8.413 0 0 1-7.497-8.378c0-4.65 3.784-8.435 8.435-8.435h302.45c4.65 0 8.435 3.784 8.435 8.435a8.415 8.415 0 0 1-7.5 8.378z"/></svg>