<?xml version="1.0" encoding="iso-8859-1"?>
<!-- Generator: Adobe Illustrator 19.1.1, SVG Export Plug-In . SVG Version: 6.00 Build 0)  -->
<svg version="1.1" id="Layer_1" xmlns="http://www.w3.org/2000/svg" xmlns:xlink="http://www.w3.org/1999/xlink" x="0px" y="0px"
	 viewBox="0 0 960 960" style="enable-background:new 0 0 960 960;" xml:space="preserve">
<g id="_x31_">
	<path style="fill:none;" d="M595.244,697.172c-0.636-10.613-11.283-16.67-20.356-17.334c-6.889-0.504-7.366-6.891-6.889-14.504
		c0.445-7.099,1.841-11.538,0.094-15.213c0.932-4.991-0.377-14.996,0.099-18.867c0.641-5.214,2.563-55.209-0.641-57.834
		c-0.701-0.574-1.39-0.833-2.041-0.906c1.007-2.967,2.637-7.991,3.221-11.055c0.869-4.555-3.981-11.866-6.608-3.836
		c-2.103,6.317-0.581,10.23,1.596,15.143c-1.409,0.558-2.364,1.743-2.364,1.743s-5.385,60.107-3.89,67.527
		c0.538,2.667,0.719,4.895,1.121,6.637c-2.854-0.151,0.09,8.668,1.192,19.396c1.113,10.835-12.563,13.964-21.469,18.765
		c-8.906,4.802-4.812,15.665-4.812,15.665l61.5,1C595,703.5,595.881,707.785,595.244,697.172z"/>
</g>
<g id="Layer_1_1_">
</g>
</svg>
