<?xml version="1.0" encoding="iso-8859-1"?>
<!-- Generator: Adobe Illustrator 19.1.1, SVG Export Plug-In . SVG Version: 6.00 Build 0)  -->
<svg version="1.1" xmlns="http://www.w3.org/2000/svg" xmlns:xlink="http://www.w3.org/1999/xlink" x="0px" y="0px"
	 viewBox="0 0 960 960" style="enable-background:new 0 0 960 960;" xml:space="preserve">
<g id="_x38_">
	<path style="fill:none;" d="M701.243,683.328c47.919-44.233,37.746-123.729,6.117-164.889L703.852,561h-79.183
		c1.244-14,2.85-42.858,2.85-42.858s-8.048-3.205-20.121-4.93c-12.073-1.725-20.696,2.565-20.696,2.565l-2.012,26.146
		c-12.072-20.696-14.659,7.755-11.785,11.205s9.773-0.491,9.773-0.491S582.29,557,581.965,561h-79.032
		c-3.435-11-10.839-20.783-10.839-27.79c0-8.048,2.299-45.746,2.299-45.746s-0.202-0.249-0.539-0.596
		c-2.384,1.574-4.67,3.224-6.859,4.951c-0.479,9.878-1.742,32.555-3.525,39.016c-2.299,8.336-3.737,14.367-7.186,18.391
		c-0.44,0.513-0.869,1.047-1.285,1.606c-2.354-8.507-7.155-19.397-9.587-25.365c-0.628-1.542-1.141-4.183-1.563-7.41
		c-8.294,13.529-14.06,29.435-18.056,47.601c-11,50-8.814,115.152,38.186,139.152c5.245,2.678,11.382,5.087,18.211,7.19h144.19
		C667.757,705.836,686.991,696.483,701.243,683.328z"/>
</g>
<g id="Layer_1">
</g>
</svg>
