<?xml version="1.0" encoding="iso-8859-1"?>
<!-- Generator: Adobe Illustrator 19.1.1, SVG Export Plug-In . SVG Version: 6.00 Build 0)  -->
<svg version="1.1" xmlns="http://www.w3.org/2000/svg" xmlns:xlink="http://www.w3.org/1999/xlink" x="0px" y="0px"
	 viewBox="0 0 960 960" style="enable-background:new 0 0 960 960;" xml:space="preserve">
<g id="_x36_">
	<path style="fill:none;" d="M699.28,680.888c46.895-43.288,37.669-115.035,7.535-155.844L703.852,561h-79.183
		c1.244-14,2.85-42.858,2.85-42.858s-8.048-3.205-20.121-4.93c-12.073-1.725-20.696,2.565-20.696,2.565l-2.012,26.146
		c-12.072-20.696-14.659,7.755-11.785,11.205s9.773-0.491,9.773-0.491S582.29,557,581.965,561h-79.032
		c-3.435-11-10.839-20.783-10.839-27.79c0-6.627,1.558-33.341,2.109-42.574c-2.598,1.716-5.067,3.526-7.423,5.424
		c-0.587,11.048-1.749,29.121-3.309,34.775c-2.299,8.336-3.737,14.367-7.186,18.391c-0.44,0.513-0.869,1.047-1.285,1.606
		c-2.354-8.507-7.155-19.397-9.587-25.365c-0.342-0.838-0.648-2.014-0.925-3.417c-7.309,12.421-12.502,26.989-16.208,43.838
		c-11,50-10,111,37,135c8.745,4.466,19.847,8.237,32.457,11.112h116.71C659.637,706.235,682.673,696.217,699.28,680.888z"/>
</g>
<g id="Layer_1">
</g>
</svg>
