<?xml version="1.0" encoding="iso-8859-1"?>
<!-- Generator: Adobe Illustrator 19.1.1, SVG Export Plug-In . SVG Version: 6.00 Build 0)  -->
<svg version="1.1" xmlns="http://www.w3.org/2000/svg" xmlns:xlink="http://www.w3.org/1999/xlink" x="0px" y="0px"
	 viewBox="0 0 960 960" style="enable-background:new 0 0 960 960;" xml:space="preserve">
<g id="_x33_">
	<g>
		<path style="fill:none;" d="M702.593,684.996c48.609-44.87,37.795-129.932,5.137-171.059L703.852,561h-79.183
			c1.244-14,2.85-42.858,2.85-42.858s-8.048-3.205-20.121-4.93c-12.073-1.725-20.696,2.565-20.696,2.565l-2.012,26.146
			c-12.072-20.696-14.659,7.755-11.785,11.205s9.773-0.491,9.773-0.491S582.29,557,581.965,561h-79.032
			c-3.435-11-10.839-20.783-10.839-27.79c0-8.048,2.299-45.746,2.299-45.746s-1.053-1.304-2.41-2.127
			c-1.664,1.143-3.282,2.323-4.851,3.544c-0.321,7.168-1.667,34.721-3.662,41.954c-2.299,8.336-3.737,14.367-7.186,18.391
			c-0.44,0.513-0.869,1.047-1.285,1.606c-2.354-8.507-7.155-19.397-9.587-25.365c-0.808-1.983-1.427-5.771-1.903-10.305
			c-9.034,14.332-15.216,31.234-19.418,50.334c-11,50-8,118,39,142c3.145,1.606,6.629,3.108,10.389,4.504h159.896
			C672.555,705.772,689.686,696.911,702.593,684.996z"/>
	</g>
</g>
<g id="Layer_1">
</g>
</svg>
