<?xml version="1.0" encoding="iso-8859-1"?>
<!-- Generator: Adobe Illustrator 19.1.1, SVG Export Plug-In . SVG Version: 6.00 Build 0)  -->
<svg version="1.1" xmlns="http://www.w3.org/2000/svg" xmlns:xlink="http://www.w3.org/1999/xlink" x="0px" y="0px"
	 viewBox="0 0 960 960" style="enable-background:new 0 0 960 960;" xml:space="preserve">
<g id="_x32_">
	<g>
		<path style="fill:none;" d="M704.027,686.759c49.331-45.537,37.847-136.731,4.094-177.563L703.852,561h-79.183
			c1.244-14,2.85-42.858,2.85-42.858s-8.048-3.205-20.121-4.93c-12.073-1.725-20.696,2.565-20.696,2.565l-2.012,26.146
			c-12.072-20.696-14.659,7.755-11.785,11.205s9.773-0.491,9.773-0.491S582.29,557,581.965,561h-79.032
			c-3.435-11-10.839-20.783-10.839-27.79c0-8.048,2.299-45.746,2.299-45.746s-4.886-6.058-7.186-0.309c0,0-1.437,35.344-3.737,43.68
			s-3.737,14.367-7.186,18.391c-0.44,0.513-0.869,1.047-1.285,1.606c-2.354-8.507-7.155-19.397-9.587-25.365
			c-0.989-2.427-1.696-7.553-2.202-13.452c-9.857,15.208-16.497,33.216-20.916,53.304c-11,50-7.138,121.016,39.862,145.016
			c1.115,0.57,2.286,1.121,3.485,1.664h174.411C677.166,705.828,692.378,697.512,704.027,686.759z"/>
	</g>
</g>
<g id="Layer_1">
</g>
</svg>
