<?xml version="1.0" encoding="iso-8859-1"?>
<!-- Generator: Adobe Illustrator 19.1.1, SVG Export Plug-In . SVG Version: 6.00 Build 0)  -->
<svg version="1.1" xmlns="http://www.w3.org/2000/svg" xmlns:xlink="http://www.w3.org/1999/xlink" x="0px" y="0px"
	 viewBox="0 0 960 960" style="enable-background:new 0 0 960 960;" xml:space="preserve">
<g id="_x30_">
	<path style="fill:none;" d="M705.926,689.08c51.844-47.856,37.087-152.361-0.66-189.657l-13.315,0.038l16.369,7.341L703.852,561
		h-79.183c1.244-14,2.85-42.858,2.85-42.858s-8.048-3.205-20.121-4.93c-12.073-1.725-20.696,2.565-20.696,2.565l-2.012,26.146
		c-12.072-20.696-14.659,7.755-11.785,11.205s9.773-0.491,9.773-0.491S582.29,557,581.965,561h-79.032
		c-3.435-11-10.839-20.783-10.839-27.79c0-8.048,2.299-45.746,2.299-45.746s-4.886-6.058-7.186-0.309c0,0-1.437,35.344-3.737,43.68
		s-3.737,14.367-7.186,18.391c-0.44,0.513-0.869,1.047-1.285,1.606c-2.354-8.507-7.155-19.397-9.587-25.365
		c-1.22-2.993-2.01-10.094-2.523-17.686c-10.99,16.391-18.263,35.925-22.965,57.298c-10.7,48.638-6.255,120.926,37.259,146.92
		h190.892C682.756,706.044,695.759,698.464,705.926,689.08z"/>
</g>
<g id="Layer_1">
</g>
</svg>
