<?xml version="1.0" encoding="iso-8859-1"?>
<!-- Generator: Adobe Illustrator 19.1.1, SVG Export Plug-In . SVG Version: 6.00 Build 0)  -->
<svg version="1.1" xmlns="http://www.w3.org/2000/svg" xmlns:xlink="http://www.w3.org/1999/xlink" x="0px" y="0px"
	 viewBox="0 0 960 960" style="enable-background:new 0 0 960 960;" xml:space="preserve">
<g id="_x37_">
	<path style="fill:none;" d="M699.895,681.655c47.219-43.587,37.694-117.72,7.091-158.688L703.852,561h-79.183
		c1.244-14,2.85-42.858,2.85-42.858s-8.048-3.205-20.121-4.93c-12.073-1.725-20.696,2.565-20.696,2.565l-2.012,26.146
		c-12.072-20.696-14.659,7.755-11.785,11.205s9.773-0.491,9.773-0.491S582.29,557,581.965,561h-79.032
		c-3.435-11-10.839-20.783-10.839-27.79c0-6.979,1.728-36.234,2.188-43.891c-2.601,1.709-5.069,3.517-7.432,5.407
		c-0.561,10.863-1.754,30.22-3.379,36.109c-2.299,8.336-3.737,14.367-7.186,18.391c-0.44,0.513-0.869,1.047-1.285,1.606
		c-2.354-8.507-7.155-19.397-9.587-25.365c-0.437-1.074-0.818-2.689-1.152-4.652c-7.607,12.761-12.966,27.744-16.763,45.002
		c-11,50-9.628,112.303,37.372,136.303c7.579,3.87,16.96,7.204,27.571,9.88h126.046C662.379,706.059,684.095,696.24,699.895,681.655
		z"/>
</g>
<g id="Layer_1">
</g>
</svg>
