<?xml version="1.0" encoding="iso-8859-1"?>
<!-- Generator: Adobe Illustrator 19.1.1, SVG Export Plug-In . SVG Version: 6.00 Build 0)  -->
<svg version="1.1" xmlns="http://www.w3.org/2000/svg" xmlns:xlink="http://www.w3.org/1999/xlink" x="0px" y="0px"
	 viewBox="0 0 960 960" style="enable-background:new 0 0 960 960;" xml:space="preserve">
<g id="_x30_">
	<path style="fill:none;" d="M802.934,555.897l-4.572-11.52l2.906-3.547c-0.284-2.12-0.589-4.299-0.909-6.411l-30.454,0.189
		l-1.15,11.471c0,0-4.886-3.75-9.198-4.037c-4.312-0.287-10.635,6.041-8.623,15.239c0.429,1.959,1.408,3.719,2.679,4.719h-11.962
		l-0.663-13.981c0,0,16.166-11.448,13.906-23.817s-6.159-12.827-8.264-11.033c-2.105,1.794-10.14,11.724-10.14,11.724
		s1.167-22.712-0.634-25.525l-43.908,0.11l16.369,7.833L703.852,562h-79.183c1.244-14,2.85-43.358,2.85-43.358
		s-8.048-3.455-20.121-5.18c-12.073-1.725-20.696,2.44-20.696,2.44l-2.012,26.084c-12.072-20.696-14.659,7.724-11.785,11.174
		s9.773-0.007,9.773-0.007S582.29,558,581.965,562h-79.032c-3.435-11-10.839-21.283-10.839-28.29c0-8.048,2.299-45.996,2.299-45.996
		s-4.886-6.183-7.186-0.434c0,0-1.437,35.282-3.737,43.618s-3.737,14.335-7.186,18.359c-0.44,0.513-0.869,1.031-1.285,1.591
		c-2.354-8.507-7.155-19.404-9.587-25.373c-3.162-7.761-3.449-43.121-3.449-43.121s-1.437-6.901-9.773-1.727
		c0,0,0.575,29.318-2.299,40.815c-2.874,11.498-7.473,21.281-10.923,28.18c-1.084,2.169-2.325,7.377-3.468,12.377h-77.77
		c0.305-12,0.63-23.341,0.862-26.699c0,0,2.012,7.755,5.749,7.755c3.737,0,10.348-12.506,12.36-36.651
		c2.012-24.145,0-37.153-5.461-37.153s-13.797,14.048-15.234,28.133c0,0-1.487-49.584-2.16-66.56
		c-23.81,32.71-38.909,75.136-44.346,127.183C301.974,630.038,334.617,679,373.714,713h401.424
		C800.723,668,808.087,611.044,802.934,555.897z"/>
</g>
<g id="Layer_1">
</g>
</svg>
