<?xml version="1.0" encoding="utf-8"?>
<!-- Generator: Adobe Illustrator 19.1.0, SVG Export Plug-In . SVG Version: 6.00 Build 0)  -->
<!DOCTYPE svg PUBLIC "-//W3C//DTD SVG 1.1//EN" "http://www.w3.org/Graphics/SVG/1.1/DTD/svg11.dtd">
<svg version="1.1" id="Layer_1" xmlns="http://www.w3.org/2000/svg" xmlns:xlink="http://www.w3.org/1999/xlink" x="0px" y="0px"
	 viewBox="0 0 106.9 46.4" enable-background="new 0 0 106.9 46.4" xml:space="preserve">
<g>
	<g>
		<path fill="#FFFFFF" d="M39.1,43.9c-0.1,0-0.3,0-0.4,0c-1.9-0.1-3.7-0.7-5-1.8c-1.7,1.1-3.4,1.6-5.2,1.6c-2.4,0-4.5-1-6-2.8
			c-2.3,1.7-5.1,2.8-8,2.9c-0.2,0-0.4,0-0.6,0c-4.6,0-8.2-2-10.2-5.7c-1.9-3.5-1.8-8.9,1.6-11.6c1.1-0.9,2.2-1.1,3-1.1
			c0,0,0,0,0.1,0c1.1-1.6,2-3,2.7-4.1c0.4-2.3,1.3-3.9,2.9-5.4c1.4-1.3,3-1.9,4.6-1.9c1.3,0,2.4,0.5,3.3,1.3
			c2.6,2.6,0.9,5.6,0.2,6.7l-0.1,0.2c-0.1,1.8,0.1,3.6,0.2,5.3c0.3-0.1,0.6-0.2,0.9-0.2c0.3-0.6,0.7-1.2,1.1-1.7
			c4.3-6.2,9.2-9.8,13.6-9.8c1.1,0,2.2,0.3,3.2,0.7c0.9-0.6,1.8-0.7,2.3-0.8l0.1,0c1.3,0,2.6,0.6,3.4,1.7c0.9,1.1,1.6,2.9,1.5,5.2
			c3.5-6.9,8-14.9,10.2-18c0.9-1.3,2.2-2,3.7-2l0.2,0c1.5,0.1,2.8,0.9,3.7,2.4c1.6,3,1.2,6.6-1.3,11.1c-0.1,0.2-0.2,0.4-0.3,0.6
			c1.1,0.5,2.1,1.4,2.8,2.5c2.1,3.2,1.8,8.5-0.8,14.2c-2.9,6.5-7.2,10.3-11.8,10.3c-1.6,0-3-0.3-4.3-1c-0.6,0.6-1.4,1-2.3,1.1
			c-0.1,0-0.3,0-0.5,0c-1.2,0-2.3-0.5-3.1-1.5C42.6,43.3,40.8,43.9,39.1,43.9z"/>
		<path d="M62,5C62.1,5,62.1,5,62,5c0.5,0,1.2,0.2,1.7,1.2c1.1,2.1,0.7,4.9-1.3,8.6c-0.4,0.7-1.1,1.9-1.9,3.3
			c-0.1,0.2-0.2,0.3-0.3,0.5c0.3-0.1,0.6-0.1,0.9-0.1c1.6,0,3,0.7,3.8,2c1.6,2.4,1.2,7-1,11.8c-2.5,5.6-6,8.8-9.5,8.8
			c-2.1,0-3.8-0.7-5.1-2.1c-0.2,0.4-0.3,0.8-0.5,1.1c-0.4,0.9-1,1.1-1.4,1.2c-0.1,0-0.1,0-0.2,0c-0.3,0-0.9-0.1-1.4-0.8
			c-0.5-0.6-0.8-1.3-0.9-2.1c-1.7,1.7-3.8,3-6,3c-0.1,0-0.2,0-0.3,0c-2.2-0.1-3.9-1.1-4.7-2.8c-1.4,1.3-3.3,2.6-5.6,2.6
			c-2,0-3.6-1-4.6-2.7c-0.3-0.6-0.5-1.2-0.6-1.8c-2.1,2.8-5.3,4.5-8.9,4.6c-0.2,0-0.3,0-0.5,0c-3.7,0-6.4-1.5-8-4.4
			c-1.4-2.6-1.3-6.6,1-8.5c0.5-0.4,1-0.6,1.4-0.6c0.3,0,0.5,0.1,0.6,0.1C9,28,9.2,28.1,9.3,28.2c1.4-2,2.9-4.2,4.1-6.2
			c0.3-2,0.9-3.2,2.2-4.4c0.9-0.9,2-1.3,2.9-1.3c0.6,0,1.1,0.2,1.5,0.6c1.2,1.2,0.4,2.6-0.2,3.7c0,0,0,0.1,0,0.1
			c-0.1,0.2-0.2,0.4-0.3,0.5c0,0,0,0,0,0.1c-0.2,2.4,0,4.6,0.2,6.7c0.2,1.7,0.3,3.4,0.2,5c0,0.4-0.1,0.8-0.1,1.2
			c1-1.1,1.7-2.4,2.2-3.5c0.3-0.7,0.9-1.1,1.6-1.1c0,0,0,0,0.1,0c0.3,0,0.6,0.1,0.9,0.3c0.4-1,1-2.1,1.7-3.1c3.7-5.4,8-8.7,11.5-8.7
			c1.2,0,2.3,0.4,3.1,1.2c0.1,0.1,0.2,0.3,0.3,0.4c0.1-0.2,0.3-0.4,0.4-0.6c0,0,0,0,0,0c0.5-0.7,1.1-1.1,1.7-1.1c0,0,0,0,0.1,0
			c0.3,0,0.9,0.1,1.4,0.8c1.1,1.3,1.5,3.9,0.1,6.9c-0.5,1-1.3,2.3-2.1,3.7c-1,1.7-2.1,3.5-2.7,4.9c-0.8,1.8-0.8,2.7-0.8,3.1
			c1.2-0.1,3.6-2.5,5.5-6.3c0.4-0.7,0.9-1,1.6-1c0,0,0,0,0.1,0c0.3,0,0.5,0.1,0.8,0.3c3.2-7,10.5-20.4,13.3-24.4
			C60.9,5.3,61.4,5,62,5 M52.9,36.2c0.7,0,2.6-0.7,5.3-6.3c2.1-4.1,2-6.4,1.8-7c-0.5,0.1-1.2,0.4-2.4,1.6c-1.8,1.9-4,5.4-6.1,9.7
			c0.1,0.9,0.5,1.8,1.1,1.9C52.7,36.2,52.8,36.2,52.9,36.2 M29.3,37c0.6-0.1,2.5-0.9,5.9-6.9c2.2-3.9,2.8-6,2.8-6.8
			c-1.1,0.5-4,2.8-6.5,6.9C29.4,33.6,29.1,36.3,29.3,37 M12.6,37c0,0,0.1,0,0.1,0c0.8-0.5,0.8-4.3,0.7-7.2c-0.9,1.5-1.9,2.9-2.8,4.2
			c0.5,1.8,1.2,2.7,1.7,3C12.5,37,12.5,37,12.6,37 M62,0C62,0,62,0,62,0c-2.2,0-4.3,1.1-5.7,3.1c-1.7,2.4-4.7,7.5-7.6,12.9
			c-0.1-0.1-0.1-0.2-0.2-0.3c-1.3-1.7-3.3-2.6-5.3-2.6c-0.1,0-0.2,0-0.2,0c-0.8,0-1.6,0.2-2.3,0.5c-1-0.3-2-0.5-3-0.5
			c-4,0-8.3,2.3-12.2,6.5c0.5-2.9-0.7-4.9-2-6.2c-1.3-1.3-3.1-2.1-5.1-2.1c-2.2,0-4.4,0.9-6.3,2.6c-1.9,1.7-3,3.7-3.6,6.3
			C8.1,21.1,7.5,22,6.9,23c-1.1,0.2-2.2,0.8-3.2,1.6c-4.3,3.6-4.5,10.3-2.2,14.7l0,0l0,0c2.5,4.5,6.9,7,12.4,7c0.2,0,0.4,0,0.7,0
			c2.7-0.1,5.4-0.9,7.7-2.2c1.7,1.3,3.9,2.1,6.3,2.1c1.7,0,3.4-0.4,5.1-1.2c1.4,0.8,3.1,1.3,4.9,1.4c0.2,0,0.4,0,0.6,0
			c1.7,0,3.3-0.4,4.9-1.1c1,0.6,2.2,1,3.4,1c0.3,0,0.6,0,0.9-0.1c0.8-0.1,1.6-0.4,2.3-0.7c1.2,0.4,2.6,0.6,4,0.6
			c5.6,0,10.7-4.3,14.1-11.8c2.9-6.5,3.2-12.6,0.6-16.5c-0.5-0.7-1-1.4-1.6-1.9c1.3-2.6,3-7.4,0.6-12l0-0.1l0-0.1
			c-1.3-2.2-3.4-3.6-5.8-3.7C62.2,0,62.1,0,62,0L62,0L62,0z"/>
	</g>
	<g>
		<path fill="#FFFFFF" d="M93.5,43.9c-0.2,0-0.3,0-0.5,0c-2.8-0.1-5.1-1.4-6.5-3.5c-1.1-1.6-1.6-3.5-1.6-5.6
			c-1.9,3.7-4.8,7.2-8.5,8.3c-1,0.3-2,0.5-3,0.5c-3,0-5.6-1.4-7.5-4c-2.9-3.9-2.7-9.5,0.5-15.3c2.7-4.9,6.9-8.1,11-8.4
			c0.3,0,0.5,0,0.8,0c2.4,0,4,1.1,5.1,2.4c1.5-2.8,4.2-5.6,7-5.7l0.2,0c1.5,0,2.9,0.7,3.7,1.9c0.4,0.5,0.6,1.1,0.8,1.8
			c0.6-0.2,1.1-0.3,1.7-0.3c1.3,0,2.6,0.6,3.4,1.7c2.7,3.1,2.9,7.2,0.5,9.9c0,0,0,0-0.1,0.1c1.4,0.2,2.6,1.1,3.2,2.5
			c0.6,1.5,0.9,4-0.2,6.3C101.7,40.9,97.5,43.9,93.5,43.9z"/>
		<path d="M90.5,15.1c0.7,0,1.3,0.3,1.7,0.9c0.6,0.9,0.7,2.5,0,4.8c0.8-0.4,1.8-0.9,2.8-1.6c0.7-0.5,1.2-0.6,1.7-0.6
			c0.7,0,1.2,0.4,1.5,0.8c1.6,1.9,2.4,4.7,0.6,6.7c-2.6,2.9-4.7,6.1-5.4,8.3c-0.5,1.6-0.4,2.6-0.2,3c0.1,0.1,0.1,0.2,0.3,0.2
			c0,0,0,0,0,0c0.9,0,3.1-2.1,4.9-6.1c0.3-0.7,0.9-1.1,1.6-1.1c0.6,0,1.2,0.4,1.5,1c0.4,1,0.5,2.8-0.2,4.3c-1.6,3.5-4.8,5.9-7.9,5.9
			c-0.1,0-0.2,0-0.3,0c-2-0.1-3.6-0.9-4.6-2.4c-1.2-1.8-1.5-4.2-0.6-6.9c0.6-2.1,2-4.2,3.4-6.1c-0.5,0.1-0.9,0.1-1.3,0.2
			c-1.6,2.3-3.6,3.6-5.9,4c-1.3,4.5-4.5,9.3-8.4,10.6c-0.8,0.3-1.5,0.4-2.2,0.4c-2.1,0-4.1-1-5.5-3c-2.3-3.1-2-7.7,0.7-12.6
			c2.2-4.1,5.8-6.9,9-7.1c0.2,0,0.4,0,0.6,0c1.7,0,2.8,0.9,3.8,2.2c0.2,0.3,0.5,0.5,0.7,0.8c0.9,0.9,1.8,1.9,1.9,4.3
			c0.3-0.2,0.6-0.5,0.8-0.8c-0.8-0.8-1.1-2-0.8-3.3C85.3,18.9,88.2,15.1,90.5,15.1C90.5,15.1,90.5,15.1,90.5,15.1 M72.1,36.7
			c0,0,0.1,0,0.2,0c1.1-0.2,3-1.8,4.7-4.9c0.6-1.1,1.1-2.1,1.4-3c-1.1-0.8-1.9-1.9-2.4-3c-0.8,0.9-1.5,1.9-2.1,2.9
			c-2.1,3.8-2.3,7.4-1.8,7.9C72,36.7,72,36.7,72.1,36.7 M90.5,10.1L90.5,10.1c-0.1,0-0.2,0-0.2,0c-2.9,0.1-5.6,2-7.5,4.5
			c-1.2-0.7-2.7-1.2-4.6-1.2c-0.3,0-0.7,0-1.1,0.1c-4.9,0.4-9.9,4.1-13,9.7c-3.6,6.7-3.8,13.2-0.3,17.9c2.4,3.2,5.8,5,9.6,5
			c1.3,0,2.6-0.2,3.8-0.6c2.6-0.8,4.8-2.5,6.6-4.6c0.2,0.3,0.4,0.6,0.6,0.9c1.9,2.7,4.9,4.3,8.5,4.5c0.2,0,0.4,0,0.6,0
			c5.1,0,10.1-3.5,12.5-8.8c1.2-2.6,1.3-5.7,0.2-8.3l0-0.1l0-0.1c-0.4-1-1.1-1.9-1.9-2.5c1.3-3.3,0.6-7.3-2.1-10.6
			c-1.4-1.7-3.3-2.6-5.3-2.6c0,0-0.1,0-0.1,0c-0.1-0.2-0.2-0.3-0.3-0.5C94.9,11.2,92.8,10.1,90.5,10.1L90.5,10.1z"/>
	</g>
</g>
</svg>
