<?xml version="1.0" encoding="utf-8"?>
<!-- Generator: Adobe Illustrator 19.1.0, SVG Export Plug-In . SVG Version: 6.00 Build 0)  -->
<!DOCTYPE svg PUBLIC "-//W3C//DTD SVG 1.1//EN" "http://www.w3.org/Graphics/SVG/1.1/DTD/svg11.dtd">
<svg version="1.1" id="Layer_1" xmlns="http://www.w3.org/2000/svg" xmlns:xlink="http://www.w3.org/1999/xlink" x="0px" y="0px"
	 viewBox="0 0 250 250" enable-background="new 0 0 250 250" xml:space="preserve">
	<path opacity="0.64" fill-rule="evenodd" clip-rule="evenodd" fill="#83A63E" d="M111.1,203.4c-5.4,0-9.8-3.2-9.8-7v-78.9
		c0-15.5,13.5-26.7,13.9-32.1l2.1-34.9c9.2,0,5.3,0,14.5,0l2.1,34.9c0.3,5.4,13.9,16.6,13.9,32.1v78.9c0,3.9-4.4,7-9.8,7
		C124.2,203.4,125,203.4,111.1,203.4z"/>
	<path opacity="0.64" fill-rule="evenodd" clip-rule="evenodd" fill="#A9CD49" d="M127.1,50.4L127.1,50.4h0.3h0h0.2h0h0.2h0.1h0.2
		h0.1h0.2h0h0.2h0h0.2h0.1h0.1h0.2h0h0.2h0.1h0.1h0.2h0.1h0.1h0.2h0.1h0h0.1h0.1h0.1h0h0.1h0.1h0.1h0h0.1h0.1h0.1h0.1h0h0.1h0.1h0.1
		h0.1h0.1l2.1,34.9c0.3,5.4,13.9,16.6,13.9,32.1v78.9c0,3.9-4.4,7-9.8,7h0h-0.3h-0.3h0h-0.3h-0.3h0h-0.3h-0.3h0H136h-0.3h0h-0.2
		h-0.3h-0.1h-0.2h-0.2h-0.1h-0.1h-0.2H134H134h-0.2h-0.2h0h-0.2h-0.2H133h-0.1h-0.2h-0.1h-0.1h-0.2h-0.2H132h-0.2h-0.2h0h-0.2h-0.2
		h0H131h-0.2h0h-0.2h-0.2h0h-0.2H130h-0.1h-0.2h0h-0.2h-0.2h-0.1h-0.3h-0.1h-0.2h-0.2h-0.1h-0.2h0h-0.3h0h-0.2h-0.1h-0.2h-0.1h-0.2
		h-0.2h-0.2h-0.2h-0.2h-0.2H126h-0.1h-0.2h-0.1h-0.3h-0.1h-0.3h0h-0.3h-0.1h-0.2h-0.2H124h-0.3h0h-0.3h-0.1H123h-0.2
		c-3.7,0-6.6-3.2-6.6-7v-78.9c0-15.5,9.2-26.7,9.5-32.1L127.1,50.4z"/>
	<path opacity="0.64" fill-rule="evenodd" clip-rule="evenodd" fill="#CADF81" d="M129.2,50.3h1l1.4,35.1
		c0.2,5.4,10.5,16.6,10.5,32.1v78.9c0,3.6-3.5,5.7-3.5,1.4v-80.5c0-15.8-8.2-27.2-8.4-32.8L129.2,50.3z"/>
	<path opacity="0.64" fill-rule="evenodd" clip-rule="evenodd" fill="#A9CD49" d="M107.1,196.4v-78.9c0-15.5,10.2-26.7,10.5-32.1
		l2.5-35.5h1L119,84.5c-0.2,5.6-8.4,17-8.4,32.8v80.5C110.6,202,107.1,199.9,107.1,196.4z"/>
	<path opacity="0.64" fill-rule="evenodd" clip-rule="evenodd" fill="#CBAF4B" d="M119.6,48h9.9c1.8,0,3.3,1.5,3.3,3.3v2.1h-16.4
		v-2.1C116.4,49.4,117.8,48,119.6,48z"/>
	<path opacity="0.64" fill-rule="evenodd" clip-rule="evenodd" fill="#CBAF4B" d="M124.6,180.8c11,0,20-13,20-29c0-16-9-29-20-29
		c-11,0-20,13-20,29C104.6,167.8,113.6,180.8,124.6,180.8z"/>
	<path opacity="0.64" fill-rule="evenodd" clip-rule="evenodd" fill="#F9E496" d="M107.1,165.7v-27.8c0.9-2.5,2.1-4.8,3.5-6.8v41.4
		C109.2,170.5,108,168.2,107.1,165.7z"/>
	<path opacity="0.64" fill-rule="evenodd" clip-rule="evenodd" fill="#F9E496" d="M124.6,122.8c11,0,20,13,20,29c0,16-8.9,29-20,29
		c-3,0-5.8-1-8.4-2.7v-52.7C118.8,123.7,121.6,122.8,124.6,122.8z"/>
	<path opacity="0.64" fill-rule="evenodd" clip-rule="evenodd" fill="#FFF4CD" d="M142.1,137.9v27.8c-0.9,2.5-2.1,4.8-3.5,6.8v-41.4
		C140,133.1,141.2,135.4,142.1,137.9z"/>
	<path opacity="0.64" fill-rule="evenodd" clip-rule="evenodd" fill="#F9E496" d="M125,48h4.6c1.8,0,3.3,1.5,3.3,3.3v2.1h-11.1v-2.1
		C121.7,49.4,123.2,48,125,48z"/>
	<path opacity="0.64" fill-rule="evenodd" clip-rule="evenodd" fill="#F9E496" d="M122.2,48h1.3c-1.8,0-3.3,1.5-3.3,3.3v2.1h-1.3
		v-2.1C118.9,49.4,120.4,48,122.2,48z"/>
	<path opacity="0.64" fill-rule="evenodd" clip-rule="evenodd" fill="#FFF4CD" d="M127.7,48h-1.3c1.8,0,3.3,1.5,3.3,3.3v2.1h1.3
		v-2.1C131,49.4,129.5,48,127.7,48z"/>
</svg>
