<?xml version="1.0" encoding="utf-8"?>
<!-- Generator: Adobe Illustrator 19.1.0, SVG Export Plug-In . SVG Version: 6.00 Build 0)  -->
<!DOCTYPE svg PUBLIC "-//W3C//DTD SVG 1.1//EN" "http://www.w3.org/Graphics/SVG/1.1/DTD/svg11.dtd">
<svg version="1.1" id="Layer_1" xmlns="http://www.w3.org/2000/svg" xmlns:xlink="http://www.w3.org/1999/xlink" x="0px" y="0px"
	 viewBox="0 0 250 250" enable-background="new 0 0 250 250" xml:space="preserve">
	<path fill-rule="evenodd" clip-rule="evenodd" fill="#D15227" d="M100.3,189c-15.8,0-32.9-22.3-28.1-43.9
		c5-22.4,34.4-28.5,39.5-33.8c5.7-6,4.8-32.1,2-38.2h21.8c-2.7,6.1-3.7,32.2,2,38.2c5,5.3,34.5,11.4,39.5,33.8
		c4.8,21.7-12.3,43.9-28.1,43.9H100.3z"/>
	<path fill-rule="evenodd" clip-rule="evenodd" fill="#E46C25" d="M123,73h12.5c-2.7,6.1-3.7,32.2,2,38.2c5,5.3,34.5,11.4,39.5,33.8
		c4.8,21.7-12.3,43.9-28.1,43.9h-37.3c-13.5,0-28.1-22.3-24-43.9c4.3-22.4,29.4-28.5,33.7-33.8C126.1,105.2,125.3,79.2,123,73z"/>
	<path fill-rule="evenodd" clip-rule="evenodd" fill="#EC8923" d="M132.4,73l1,0c-2.4,6.1-2.6,32.1,2.4,38.1
		c4.4,5.3,30.2,11.5,34.6,34c2.8,14.4-3.3,28.6-11,37.2c-2.3,2.6-3.2,1.6-1.2-1c6.4-8.5,10.1-22.1,7.9-35.3
		c-3.9-22.9-27.8-29.1-31.8-34.5C129.7,105.5,130.3,80.1,132.4,73z"/>
	
		<path opacity="0.64" fill-rule="evenodd" clip-rule="evenodd" fill="#E46C25" stroke="#D15227" stroke-width="0.216" stroke-miterlimit="22.9256" d="
		M90.2,182.6c-8.3-8.2-14.1-23-11.3-37.5c4.4-22.4,30.8-28.5,35.2-33.9c5-6,4.6-31.8,2.2-38l0.9,0c2.1,7,2.7,32.5-1.7,38.5
		c-4,5.4-28.3,11.4-32.3,34.3c-2.3,13.5,1.7,27.3,8.2,35.9C93.1,184,92.6,185,90.2,182.6z"/>
	<rect x="98.4" y="161.4" opacity="0.64" fill-rule="evenodd" clip-rule="evenodd" fill="#EBD37C" width="52.3" height="15.6"/>
	<path opacity="0.64" fill-rule="evenodd" clip-rule="evenodd" fill="#412D23" d="M115.4,99.1c1-9.8,0-22.1-1.8-26.1h21.8
		c-1.8,4-2.8,16.2-1.8,26.1H115.4z"/>
	<path opacity="0.64" fill-rule="evenodd" clip-rule="evenodd" fill="#6F5346" d="M118.5,99.1h-1c1-9.7,0.3-21.9-1.2-25.8l0.9,0
		C118.5,77.7,119.2,89.5,118.5,99.1z"/>
	<path opacity="0.64" fill-rule="evenodd" clip-rule="evenodd" fill="#412D23" d="M111.8,62.6h25.6c1.5,0,2.7,1.2,2.7,2.7v7.6
		c0,1.5-1.2,2.7-2.7,2.7h-25.6c-1.5,0-2.7-1.2-2.7-2.7v-7.6C109.1,63.8,110.3,62.6,111.8,62.6z"/>
	<path opacity="0.64" fill-rule="evenodd" clip-rule="evenodd" fill="#6F5346" d="M134.1,78.9l0.1-0.5l0-0.1c0-0.2,0.1-0.3,0.1-0.5
		l0,0c0-0.2,0.1-0.3,0.1-0.5l0-0.2c0-0.1,0.1-0.3,0.1-0.4l0,0l0-0.1c0-0.1,0.1-0.3,0.1-0.4l0-0.1c0-0.1,0.1-0.3,0.1-0.4l0-0.1
		c0-0.1,0.1-0.2,0.1-0.4l0-0.1c0-0.1,0.1-0.2,0.1-0.4l0-0.1c0-0.1,0.1-0.2,0.1-0.3l0-0.1c0-0.1,0.1-0.2,0.1-0.3l0-0.1
		c0-0.1,0.1-0.2,0.1-0.3l0,0c0-0.1,0.1-0.2,0.1-0.3l0-0.1c0-0.1,0.1-0.2,0.1-0.3H123c1.5,4,2.4,16.2,1.5,26.1h9.2
		c-0.1-0.9-0.2-1.9-0.2-2.8v0c0-0.5-0.1-0.9-0.1-1.4l0,0c0-0.5,0-0.9-0.1-1.4l0-0.1c0-0.3,0-0.5,0-0.8l0-0.1l0-0.4l0-0.1
		c0-0.3,0-0.6,0-0.9v-0.1c0-0.4,0-0.9,0-1.3l0-0.1c0-0.4,0-0.9,0-1.3l0-0.2c0-0.4,0-0.9,0-1.3l0-0.1c0-0.2,0-0.4,0-0.6l0-0.3l0-0.3
		l0-0.3l0-0.3l0-0.5l0,0l0-0.4l0-0.2c0-0.2,0-0.4,0-0.6l0-0.3l0-0.3l0-0.4l0-0.4l0-0.3l0-0.2c0-0.2,0-0.3,0.1-0.5l0-0.2l0-0.4l0-0.2
		c0-0.2,0-0.3,0.1-0.5l0-0.2l0.1-0.4L134.1,78.9z"/>
	<path opacity="0.64" fill-rule="evenodd" clip-rule="evenodd" fill="#886E62" d="M131.1,99.1h1.1c-1.1-9.8-0.4-22.1,1.1-26.1l-1,0
		C131.1,77.5,130.3,89.5,131.1,99.1z"/>
	<path opacity="0.64" fill-rule="evenodd" clip-rule="evenodd" fill="#15110F" d="M115,78.7c-0.2-1.1-0.4-2.2-0.6-3.1h20.2
		c-0.2,0.9-0.4,1.9-0.6,3.1H115z"/>
	<path opacity="0.64" fill-rule="evenodd" clip-rule="evenodd" fill="#412D23" d="M116.9,75.6h0.8c0.2,0.9,0.3,1.9,0.4,3.1h-0.8
		C117.3,77.6,117.1,76.5,116.9,75.6z"/>
	<path opacity="0.64" fill-rule="evenodd" clip-rule="evenodd" fill="#412D23" d="M123.7,75.6h11l0,0l0,0l0,0l0,0v0l0,0l0,0l0,0l0,0
		l0,0l0,0l0,0l0,0l0,0l0,0l0,0l0,0v0l0,0l0,0l0,0l0,0l0,0l0,0v0l0,0l0,0l0,0l0,0l0,0l0,0l0,0l0,0l0,0l0,0l0,0l0,0l0,0l0,0l0,0l0,0
		l0,0l0,0.2l0,0.1l0,0l0,0l0,0v0l0,0l0,0l0,0l0,0l0,0l0,0l0,0l0,0l0,0l0,0l0,0l0,0l0,0l0,0l0,0l0,0l0,0l0,0l0,0l0,0l0,0v0l0,0l0,0
		l0,0l0,0l0,0l0,0l0,0l0,0l0,0l0,0l0,0v0l0,0l0,0l0,0l0,0l0,0v0l0,0l0,0l0,0l0,0l0,0l0,0v0l0,0l0,0l0,0l0,0l0,0l0,0l0,0v0l0,0l0,0
		l0,0l0,0.1l0,0l0,0.2l0,0l0,0l0,0.1l0,0l0,0v0l0,0l0,0l0,0l0,0l0,0l0,0l0,0v0l0,0l0,0l0,0l0,0l0,0l0,0l0,0l0,0v0l0,0l0,0l0,0l0,0
		l0,0l0,0l0,0l0,0l0,0l0,0v0l0,0l0,0l0,0l0,0l0,0l0,0v0l0,0l0,0l0,0l0,0l0,0l0,0l0,0l0,0l0,0l0,0l0,0l0,0l0,0l0,0l0,0l0,0l0,0l0,0
		l0,0l0,0l0,0l0,0v0l0,0l0,0l0,0l0,0l0,0v0l0,0.2l0,0l0,0.1v0l0,0l0,0l0,0l0,0l0,0.1l0,0l0,0v0l0,0l0,0l0,0l0,0l0,0l0,0l0,0l0,0l0,0
		l0,0l0,0l0,0l0,0l0,0l0,0l0,0l0,0l0,0l0,0l0,0l0,0l0,0l0,0l0,0l0,0l0,0l0,0l0,0v0l0,0l0,0l0,0l0,0l0,0v0l0,0l0,0l0,0l0,0l0,0l0,0.1
		l0,0l0,0l0,0l0,0.3h-10C124,77.6,123.8,76.5,123.7,75.6z"/>
	<path opacity="0.64" fill-rule="evenodd" clip-rule="evenodd" fill="#6F5346" d="M131.8,75.6h0.9c-0.2,0.9-0.3,1.9-0.5,3.1h-0.8
		C131.5,77.6,131.6,76.6,131.8,75.6z"/>
	<path opacity="0.64" fill-rule="evenodd" clip-rule="evenodd" fill="#6F5346" d="M120.2,62.6h16.6h0.5c1.5,0,2.7,1.2,2.7,2.7v7.6
		c0,1.5-1.2,2.7-2.7,2.7h-0.5h-16.6h-0.5c-1.5,0-2.7-1.2-2.7-2.7v-7.6c0-1.5,1.2-2.7,2.7-2.7H120.2z"/>
	<path opacity="0.64" fill-rule="evenodd" clip-rule="evenodd" fill="#CBAF4B" d="M124.6,170.2c4.8,0,8.7-3.9,8.7-8.8
		s-3.9-8.8-8.7-8.8c-4.8,0-8.7,3.9-8.7,8.8S119.8,170.2,124.6,170.2z"/>
	<rect x="133.2" y="62.6" opacity="0.64" fill-rule="evenodd" clip-rule="evenodd" fill="#886E62" width="1" height="13.1"/>
	<rect x="114.9" y="62.6" opacity="0.64" fill-rule="evenodd" clip-rule="evenodd" fill="#6F5346" width="1" height="13.1"/>
</svg>
