<?xml version="1.0" encoding="utf-8"?>
<!-- Generator: Adobe Illustrator 19.1.0, SVG Export Plug-In . SVG Version: 6.00 Build 0)  -->
<!DOCTYPE svg PUBLIC "-//W3C//DTD SVG 1.1//EN" "http://www.w3.org/Graphics/SVG/1.1/DTD/svg11.dtd">
<svg version="1.1" id="Layer_1" xmlns="http://www.w3.org/2000/svg" xmlns:xlink="http://www.w3.org/1999/xlink" x="0px" y="0px"
	 viewBox="0 0 250 250" enable-background="new 0 0 250 250" xml:space="preserve">
	<path fill-rule="evenodd" clip-rule="evenodd" fill="#BCD8E6" d="M114.2,54.7l-2,23.2c-0.4,5.8,1,8.3-7.3,15.6
		c-5.7,5-9.2,12-9.2,19.6v81.6c0,5.5,2,10.6,7.1,10.6H146c5.1,0,7.1-5.1,7.1-10.6v-81.6c0-7.6-3.5-14.6-9.2-19.6
		c-8.3-7.3-6.9-9.8-7.3-15.6l-2-23.2H114.2z"/>
	<rect x="95.6" y="120.3" fill-rule="evenodd" clip-rule="evenodd" fill="#193440" width="57.5" height="16.7"/>
	<path fill-rule="evenodd" clip-rule="evenodd" fill="#F5FBFE" d="M116.7,54.7l-1.5,23.2c-0.3,5.8,0.7,8.3-5.5,15.6
		c-4.3,5-6.9,12-6.9,19.6v81.6c0,3.9,4.7,5,4.7-0.2V117c0-8.8,2.1-16.9,5.4-22.6c4.8-8.4,4-11.3,4.3-18l1-21.7H116.7z"/>
	<rect x="102.8" y="120.3" fill-rule="evenodd" clip-rule="evenodd" fill="#3D5F6F" width="4.7" height="16.7"/>
	<path fill-rule="evenodd" clip-rule="evenodd" fill="#E9F2F7" d="M120.6,202.5l23.5,0.5c5.1,0.1,7.1-5,7.1-10.4v-80.3
		c0-7.5-3.5-14.4-9.2-19.3c-8.3-7.2-6.9-9.6-7.3-15.4l-2-22.8h-7.1l-1.4,22.8c-0.6,12.8-8.2,18.5-8.2,34.2V192
		C115.9,197.4,117.2,202.5,120.6,202.5z"/>
	<path fill-rule="evenodd" clip-rule="evenodd" fill="#FFFFFF" d="M145.9,194.7v-81.6c0-7.6-2.7-14.6-6.9-19.6
		c-6.2-7.3-5.2-9.8-5.5-15.6L132,54.7h-1.4l1,21.7c0.2,6.7-0.6,9.6,4.3,18c3.3,5.8,5.4,13.9,5.4,22.6v77.9
		C141.2,200.5,145.9,199.6,145.9,194.7z"/>
	<polygon fill-rule="evenodd" clip-rule="evenodd" fill="#193440" points="114.2,54.7 112.9,69 135.7,69 134.5,54.7 	"/>
	<polygon fill-rule="evenodd" clip-rule="evenodd" fill="#3D5F6F" points="115.8,69 117.5,69 118.2,54.7 116.7,54.7 	"/>
	<polygon fill-rule="evenodd" clip-rule="evenodd" fill="#3D5F6F" points="124.6,69 133.9,69 132.6,54.7 125.5,54.7 	"/>
	<polygon fill-rule="evenodd" clip-rule="evenodd" fill="#5C7E8C" points="131.1,69 132.9,69 132,54.7 130.5,54.7 	"/>
	<polygon fill-rule="evenodd" clip-rule="evenodd" fill="#0D171C" points="114.2,54.7 113.8,59 134.9,59 134.5,54.7 	"/>
	<polygon fill-rule="evenodd" clip-rule="evenodd" fill="#193440" points="116.4,59 118,59 118.2,54.7 116.7,54.7 	"/>
	<polygon fill-rule="evenodd" clip-rule="evenodd" fill="#193440" points="125.2,59 133,59 132.6,54.7 125.5,54.7 	"/>
	<polygon fill-rule="evenodd" clip-rule="evenodd" fill="#3D5F6F" points="130.7,59 132.2,59 132,54.7 130.5,54.7 	"/>
	<path fill-rule="evenodd" clip-rule="evenodd" fill="#193440" d="M114.6,45.9h19.5c1.2,0,2.2,1,2.2,2.2v6.3c0,1.2-1,2.2-2.2,2.2
		h-19.5c-1.2,0-2.2-1-2.2-2.2v-6.3C112.4,46.9,113.4,45.9,114.6,45.9z"/>
	<rect x="115.9" y="120.3" fill-rule="evenodd" clip-rule="evenodd" fill="#3D5F6F" width="35.3" height="16.7"/>
	<rect x="141.2" y="120.3" fill-rule="evenodd" clip-rule="evenodd" fill="#5C7E8C" width="4.7" height="16.7"/>
	<path fill-rule="evenodd" clip-rule="evenodd" fill="#3D5F6F" d="M123.4,45.9h10.6c1.2,0,2.2,1,2.2,2.2v6.3c0,1.2-1,2.2-2.2,2.2
		h-10.6c-1.2,0-2.2-1-2.2-2.2v-6.3C121.2,46.9,122.2,45.9,123.4,45.9z"/>
	<rect x="114.7" y="45.9" fill-rule="evenodd" clip-rule="evenodd" fill="#3D5F6F" width="1.2" height="10.8"/>
	<rect x="131.7" y="45.9" fill-rule="evenodd" clip-rule="evenodd" fill="#5C7E8C" width="1.2" height="10.8"/>
</svg>
