<?xml version="1.0" encoding="utf-8"?>
<!-- Generator: Adobe Illustrator 19.1.0, SVG Export Plug-In . SVG Version: 6.00 Build 0)  -->
<!DOCTYPE svg PUBLIC "-//W3C//DTD SVG 1.1//EN" "http://www.w3.org/Graphics/SVG/1.1/DTD/svg11.dtd">
<svg version="1.1" id="Layer_1" xmlns="http://www.w3.org/2000/svg" xmlns:xlink="http://www.w3.org/1999/xlink" x="0px" y="0px"
	 viewBox="0 0 250 250" enable-background="new 0 0 250 250" xml:space="preserve">
	<path opacity="0.64" fill-rule="evenodd" clip-rule="evenodd" fill="#AB3F2B" d="M145.8,206.4c16.5-5.6,25.8-56.2-0.7-85
		c4.8-4.8,0.7-7.3-6.1-16.7c-2.6-3.5-3.9-10.1-3.9-17.8V55H114v32c0,7.7-1.3,14.2-3.9,17.8c-6.8,9.3-10.9,11.9-6.1,16.7
		c-26.5,28.8-17.2,79.3-0.7,85H145.8z"/>
	<path opacity="0.64" fill-rule="evenodd" clip-rule="evenodd" fill="#F19320" d="M155.1,167.4c0-8.9-1.3-18.4-4.2-27.3H98.2
		c-2.9,8.9-4.2,18.4-4.2,27.3H155.1z"/>
	<path opacity="0.64" fill-rule="evenodd" clip-rule="evenodd" fill="#C35746" d="M145.8,206.4c16.5-5.6,25.8-56.2-0.7-85
		c4.8-4.8,0.7-7.3-6.1-16.7c-2.6-3.5-3.9-10.1-3.9-17.8V55h-9.7v32c0,7.7-1,14.2-3,17.8c-5.2,9.3-8.3,11.9-4.7,16.7
		c-20.2,28.8-13.1,79.3-0.5,85H145.8z"/>
	<path opacity="0.64" fill-rule="evenodd" clip-rule="evenodd" fill="#C35746" d="M117.7,55H116v32c0,7.7-1.1,14.2-3.2,17.8
		c-5.5,9.3-8.8,11.9-5,16.7c-18.4,24.6-15.6,64.9-6,79.8c1.3,2,5.5,3.6,3.8-0.4c-6.9-16.4-8.5-55.4,5.6-79.5c-3.1-4.9-0.4-7.5,4-17
		c1.7-3.6,2.5-10.3,2.5-18.1V55z"/>
	<path opacity="0.64" fill-rule="evenodd" clip-rule="evenodd" fill="#FAA31B" d="M98.5,140c-2.9,8.9-4.1,18.4-4.1,27.3h6.2
		c0.1-9,1.1-18.4,3.4-27.3H98.5z"/>
	<path opacity="0.64" fill-rule="evenodd" clip-rule="evenodd" fill="#DE7E6D" d="M147.3,201.3c9.6-14.8,12.4-55.2-6-79.8
		c3.9-4.8,0.6-7.3-5-16.7c-2.1-3.5-3.2-10.1-3.2-17.8V55h-1.7v31.2c0,7.8,0.9,14.5,2.5,18.1c4.4,9.5,7,12.1,4,17
		c14.1,24.1,12.5,63.3,5.6,79.6C141.8,204.7,146,203.3,147.3,201.3z"/>
	<path opacity="0.64" fill-rule="evenodd" clip-rule="evenodd" fill="#F19320" d="M135.3,91.9c-0.1-1.6-0.2-3.2-0.2-4.9V55H114v32
		c0,1.7-0.1,3.3-0.2,4.9H135.3z"/>
	<path opacity="0.64" fill-rule="evenodd" clip-rule="evenodd" fill="#FAA31B" d="M117.7,55H116v32c0,1.7-0.1,3.3-0.2,4.9h1.7
		c0.1-1.8,0.2-3.7,0.2-5.7V55z"/>
	<path opacity="0.64" fill-rule="evenodd" clip-rule="evenodd" fill="#D38328" d="M135.3,61.7c-0.1-0.2-0.2-0.5-0.2-0.7v-6H114v6
		c0,0.3-0.1,0.5-0.2,0.7H135.3z"/>
	<rect x="116" y="55" opacity="0.64" fill-rule="evenodd" clip-rule="evenodd" fill="#F19320" width="1.7" height="6.7"/>
	<path opacity="0.64" fill-rule="evenodd" clip-rule="evenodd" fill="#FAA31B" d="M135.3,91.9L135.3,91.9L135.3,91.9l0-0.1l0-0.1
		l0-0.1l0-0.1l0,0l0-0.1l0-0.1l0-0.1l0-0.1l0-0.1l0,0l0-0.1l0-0.1l0-0.1l0-0.1l0-0.1l0-0.1l0-0.1l0-0.1l0-0.1l0,0l0-0.1l0-0.1l0-0.1
		l0-0.1l0,0l0-0.1l0-0.1l0-0.2l0-0.1v0l0-0.1l0-0.1l0-0.1l0-0.1l0,0l0,0l0-0.1l0-0.2l0-0.1v0l0-0.1l0-0.2l0-0.1v0l0,0l0-0.1l0-0.1
		l0-0.1l0-0.1v0l0-0.1l0-0.1l0-0.1l0-0.1v0l0,0l0-0.1l0-0.1l0-0.1l0-0.1v0l0-0.1l0-0.1l0-0.1v-0.1v0l0,0v-0.1v-0.1l0-0.1V87V55h-9.7
		v32c0,1.7,0,3.3-0.1,4.9H135.3z"/>
	<path opacity="0.64" fill-rule="evenodd" clip-rule="evenodd" fill="#FBC311" d="M133.1,55h-1.7v31.2c0,2,0.1,3.9,0.2,5.7h1.7
		c-0.1-1.6-0.2-3.2-0.2-4.9V55z"/>
	<polygon opacity="0.64" fill-rule="evenodd" clip-rule="evenodd" fill="#F19320" points="135.1,61.7 135.1,61 135.1,61 135.1,55 
		125.4,55 125.4,61.7 	"/>
	<rect x="131.4" y="55" opacity="0.64" fill-rule="evenodd" clip-rule="evenodd" fill="#FAA31B" width="1.7" height="6.7"/>
	<path opacity="0.64" fill-rule="evenodd" clip-rule="evenodd" fill="#F19320" d="M113.2,44.9h22.7c1.8,0,0.9,1.1,0.9,2.5V56
		c0,1.4,0.9,2.5-0.9,2.5h-22.7c-1.8,0-0.8-1.1-0.8-2.5v-8.7C112.4,46,111.4,44.9,113.2,44.9z"/>
	<path opacity="0.64" fill-rule="evenodd" clip-rule="evenodd" fill="#FAA31B" d="M109,140c-2.7,8.9-3.9,18.4-3.9,27.3h50
		c0-8.9-1.3-18.4-4.2-27.3H109z"/>
	<path opacity="0.64" fill-rule="evenodd" clip-rule="evenodd" fill="#FBC311" d="M154.8,167.4c0-8.9-1.3-18.4-4.1-27.3h-5.4
		c2.3,8.9,3.3,18.4,3.4,27.3H154.8z"/>
	<path opacity="0.64" fill-rule="evenodd" clip-rule="evenodd" fill="#FAA31B" d="M121.8,44.9h14.5c1.2,0,0.6,1.1,0.6,2.5V56
		c0,1.4,0.6,2.5-0.6,2.5h-14.5c-1.2,0-0.5-1.1-0.5-2.5v-8.7C121.3,46,120.6,44.9,121.8,44.9z"/>
	<path opacity="0.64" fill-rule="evenodd" clip-rule="evenodd" fill="#FAA31B" d="M115.8,44.9H114v12c0,0.5-0.1,1-0.2,1.5h1.7
		c0.1-0.5,0.2-1.1,0.2-1.7V44.9z"/>
	<path opacity="0.64" fill-rule="evenodd" clip-rule="evenodd" fill="#FBC311" d="M133.1,44.9h-1.7v12c0,0.5-0.1,1-0.2,1.5h1.7
		c0.1-0.5,0.2-1.1,0.2-1.7V44.9z"/>
</svg>
