<?xml version="1.0" encoding="utf-8"?>
<!-- Generator: Adobe Illustrator 19.1.0, SVG Export Plug-In . SVG Version: 6.00 Build 0)  -->
<!DOCTYPE svg PUBLIC "-//W3C//DTD SVG 1.1//EN" "http://www.w3.org/Graphics/SVG/1.1/DTD/svg11.dtd">
<svg version="1.1" id="Layer_1" xmlns="http://www.w3.org/2000/svg" xmlns:xlink="http://www.w3.org/1999/xlink" x="0px" y="0px"
	 viewBox="0 0 250 250" enable-background="new 0 0 250 250" xml:space="preserve">
	<path fill-rule="evenodd" clip-rule="evenodd" fill="#BE5C27" d="M114.7,59.3c0.9,13.8,0.1,24-9,34.2c-4.8,5.3-18.1,14.3-15.7,32.7
		l7.6,57.4c0.8,6.1-4.9,16.8,5.6,16.8h43.3c10.9,0,4.7-9.7,5.6-16.8l7.6-57.4c2-14.8-10.9-27.4-15.7-32.7c-9.1-10.1-9.9-20.3-9-34.2
		H114.7z"/>
	<path fill-rule="evenodd" clip-rule="evenodd" fill="#E88724" d="M116.1,200.3h30.4c10.9,0,4.7-9.7,5.6-16.8l7.6-57.4
		c2-14.8-10.9-27.4-15.7-32.7c-9.1-10.1-9.9-20.3-9-34.2h-10c0.7,13.8,0,24-7,34.2c-3.7,5.3-14,14.3-12.1,32.7l5.9,57.4
		C112.3,189.7,107.9,200.3,116.1,200.3z"/>
	<path fill-rule="evenodd" clip-rule="evenodd" fill="#FBAD47" d="M146.6,195.8c-0.1-4.1-0.9-7.7-0.4-12.3l5.9-57.4
		c1.5-14.8-8.5-27.4-12.3-32.7c-7.1-10.1-9.4-20-8.7-33.9h-1.3c-0.5,13.6,1.7,23.4,7.6,33.5c3.1,5.4,11.6,18.2,10.3,33.1l-5,58
		c-0.4,4.3,0.5,8,0.5,11.7C143.2,196.9,146.6,196.9,146.6,195.8z"/>
	<path fill-rule="evenodd" clip-rule="evenodd" fill="#E88724" d="M118.8,58.9c0.7,13.8-1.9,24.4-9,34.5
		c-3.8,5.3-14.2,14.3-12.3,32.7l5.9,57.4c0.4,4.1-0.7,8.5-0.4,12.3c0.1,1.1,3.2,1.1,3.3,0c0.5-3.7,0.8-7.8,0.5-11.7l-5-58
		c-1.6-18.6,7.1-27.7,10.3-33.1c5.9-10.1,8.4-20.5,7.9-34.1H118.8z"/>
	<path fill-rule="evenodd" clip-rule="evenodd" fill="#193440" d="M114.7,59.3c0.4,6.5,0.4,12.2-0.6,17.5h21.5c-1-5.3-1-11-0.6-17.5
		H114.7z"/>
	<path fill-rule="evenodd" clip-rule="evenodd" fill="#0D1417" d="M114.7,59.3c0.1,1.2,0.1,2.4,0.2,3.5h19.9c0-1.2,0.1-2.3,0.2-3.5
		H114.7z"/>
	<path fill-rule="evenodd" clip-rule="evenodd" fill="#385B6C" d="M124.5,76.8h11.1l0-0.2l0,0l0-0.2l0-0.2l0,0l0-0.2l0,0l0-0.2l0,0
		l0-0.3l0,0l0-0.2l0-0.3l0,0l-0.1-0.4l0-0.2l0-0.3l0-0.2l0-0.3l0-0.2l0-0.3l0,0l0-0.3l0-0.2l0,0l0-0.3l0-0.2l0,0l0-0.3l0,0l0-0.2
		l0,0l0-0.3l0,0l0-0.3l0-0.3l0-0.2l0-0.4l0-0.2l0-0.4l0-0.2l0-0.4l0-0.2l0-0.4l0-0.2l0-0.3l0-0.2v0l0-0.3v-0.1v-0.1l0-0.5l0-0.1
		l0-0.5v0l0-0.1l0-0.4l0-0.1l0,0l0,0l0-0.5l0-0.1v0l0-0.1l0-0.5l0,0l0-0.1l0-0.5l0-0.1l0-0.2l0-0.4l0,0l0-0.2l0-0.3l0-0.2l0,0l0-0.4
		l0-0.2l0-0.1l0-0.5l0-0.1l0-0.3l0-0.3l0,0l0-0.3l0-0.3h-10C125.3,65.8,125.3,71.5,124.5,76.8z"/>
	<path fill-rule="evenodd" clip-rule="evenodd" fill="#193440" d="M134.8,62.8l0-0.3l0,0l0-0.2l0-0.3l0-0.2l0,0l0-0.4l0-0.2l0-0.1
		l0-0.5l0-0.1l0-0.3l0-0.3l0,0l0-0.3l0-0.3h-10c0.1,1.2,0.1,2.4,0.1,3.5H134.8z"/>
	<path fill-rule="evenodd" clip-rule="evenodd" fill="#5E8091" d="M131,76.8h1.3c-1.2-5.2-1.5-10.8-1.2-17.2h-1.3
		C129.6,66,129.9,71.6,131,76.8z"/>
	<path fill-rule="evenodd" clip-rule="evenodd" fill="#385B6C" d="M131,62.8c0-1.1,0.1-2.1,0.1-3.2h-1.3c0,1.1-0.1,2.2-0.1,3.2H131z
		"/>
	<path fill-rule="evenodd" clip-rule="evenodd" fill="#385B6C" d="M117.4,76.8h1.3c1.2-5.3,1.7-11.1,1.5-17.5h-1.3
		C119.1,65.7,118.7,71.5,117.4,76.8z"/>
	<path fill-rule="evenodd" clip-rule="evenodd" fill="#193440" d="M120.2,62.8c0-1.2,0-2.3-0.1-3.5h-1.3c0.1,1.2,0.1,2.4,0.1,3.5
		H120.2z"/>
	<path fill-rule="evenodd" clip-rule="evenodd" fill="#193440" d="M115,51.1h19.7c1.2,0,2.1,0.9,2.1,2.1V59c0,1.2-0.9,2.1-2.1,2.1
		H115c-1.2,0-2.1-0.9-2.1-2.1v-5.9C112.9,52,113.8,51.1,115,51.1z"/>
	<polygon fill-rule="evenodd" clip-rule="evenodd" fill="#E6CF76" points="97.6,152 100.8,180.4 148.8,180.4 152.1,152 	"/>
	<polygon fill-rule="evenodd" clip-rule="evenodd" fill="#F9E496" points="100.2,152 103.1,180.4 106.6,180.4 104.1,152 	"/>
	<polygon fill-rule="evenodd" clip-rule="evenodd" fill="#F9E496" points="108.6,152 111.3,180.4 148.6,180.4 152.1,152 	"/>
	<polygon fill-rule="evenodd" clip-rule="evenodd" fill="#FFF5D0" points="146.5,180.4 149.4,152 145.5,152 143,180.4 	"/>
	<path fill-rule="evenodd" clip-rule="evenodd" fill="#385B6C" d="M122.2,51.1h12.5c1.2,0,2.1,0.9,2.1,2.1V59c0,1.2-0.9,2.1-2.1,2.1
		h-12.5c-1.2,0-2.1-0.9-2.1-2.1v-5.9C120.1,52,121.1,51.1,122.2,51.1z"/>
	<rect x="116.2" y="51.1" fill-rule="evenodd" clip-rule="evenodd" fill="#385B6C" width="1.2" height="10.1"/>
	<rect x="132" y="51.1" fill-rule="evenodd" clip-rule="evenodd" fill="#5E8091" width="1.2" height="10.1"/>
</svg>
