<?xml version="1.0" encoding="utf-8"?>
<!-- Generator: Adobe Illustrator 19.1.0, SVG Export Plug-In . SVG Version: 6.00 Build 0)  -->
<!DOCTYPE svg PUBLIC "-//W3C//DTD SVG 1.1//EN" "http://www.w3.org/Graphics/SVG/1.1/DTD/svg11.dtd">
<svg version="1.1" id="Layer_1" xmlns="http://www.w3.org/2000/svg" xmlns:xlink="http://www.w3.org/1999/xlink" x="0px" y="0px"
	 viewBox="0 0 250 250" enable-background="new 0 0 250 250" xml:space="preserve">
	<path fill-rule="evenodd" clip-rule="evenodd" fill="#CDCCCC" d="M116.2,74.3c0,5-3.9,9-7.8,12l-6.1,4.7c-2.8,2.2-3.8,5.9-3.5,11.9
		l4.7,92.9c0.3,5.3-1.6,10.6-3.5,15.6c-1,2.9-1.1,8.9,5.4,8.9h10.8h6.9h21.2c6.5,0,6.5-6.1,5.4-8.9c-1.8-5-3.7-10.2-3.5-15.6
		L151,103c0.3-6-0.8-9.7-3.5-11.9l-6.1-4.7c-3.9-3-7.8-7-7.8-12l-7-18.5h-3.5L116.2,74.3z"/>
	<path fill-rule="evenodd" clip-rule="evenodd" fill="#E6E6E5" d="M116.9,220.3h6.3h21.2c6.5,0,6.5-6.1,5.4-8.9
		c-1.8-5-3.7-10.2-3.5-15.6L151,103c0-0.7,0-1.3,0-1.9c0-4.9-1.1-8.1-3.6-10l-6.1-4.7c-3.9-3-7.8-7-7.8-12l0-33.9
		c0-1.5-0.9-2.7-2.6-2.8h-6.1l0,36.7c0,5-3,9-5.8,12l-4.6,4.7c-2.1,2.2-2.9,5.9-2.6,11.9l3.5,92.9c0.2,5.3-1.2,10.6-2.6,15.6
		C112,214.2,112,220.3,116.9,220.3z"/>
	<path fill-rule="evenodd" clip-rule="evenodd" fill="#FFFFFF" d="M144.3,217c1.7-0.3,0.8-4.2,0.4-5.7c-1.4-5-3-10.2-2.7-15.6
		l3.7-92.9c0.2-6-0.6-9.7-2.8-11.9l-4.8-4.7c-3.1-3-6.2-7-6.2-12l-0.8-2.6h-0.9l0.3,1.5c0,5,2.5,9.1,5,12.2l3.9,4.8
		c1.8,2.2,2.5,6,2.3,12.1l-3,94.6c-0.2,5.4,1.1,10.8,2.2,15.8C141.2,213.8,141.4,217.5,144.3,217z"/>
	<path fill-rule="evenodd" clip-rule="evenodd" fill="#E6E6E5" d="M118,74.3c0,5-3.1,9-6.2,12l-4.8,4.7c-2.2,2.2-3,5.9-2.8,11.9
		l3.7,92.9c0.2,5.3-1.3,10.6-2.7,15.6c-0.6,2.2-0.3,6.4,2,6.5c2.1,0.1,1.2-3.1,1.7-5.2c1.2-5.1,2.4-10.4,2.2-15.8l-3-94.6
		c-0.2-6.1,0.5-9.9,2.3-12.1l3.9-4.8c2.5-3.1,5-7.1,5-12.2l0.4-1.5h-0.9L118,74.3z"/>
	<path fill-rule="evenodd" clip-rule="evenodd" fill="#C42126" d="M118.8,37.7H131c1.5,0,2.6,1.2,2.6,2.6v35.2h-17.5V40.3
		C116.2,38.9,117.3,37.7,118.8,37.7z"/>
	<polygon fill-rule="evenodd" clip-rule="evenodd" fill="#DC393E" points="119,41.5 119,75.5 117.9,75.5 118,41.5 	"/>
	<path fill-rule="evenodd" clip-rule="evenodd" fill="#DC393E" d="M124.9,37.7h6.1c0.2,0,0.4,0,0.7,0.1c0.8,0.2,1.4,0.7,1.8,1.5
		c0.2,0.4,0.2,0.8,0.2,1.2l0,33.9c0,0.3,0,0.6,0,0.9v0.3h-8.8c0-0.4,0.1-0.8,0.1-1.2L124.9,37.7z"/>
	<polygon fill-rule="evenodd" clip-rule="evenodd" fill="#F26D72" points="131.9,41.5 131.9,75.5 130.8,75.5 130.8,41.5 	"/>
	<path fill-rule="evenodd" clip-rule="evenodd" fill="#C42126" d="M149.1,138.1l0.8-16.3l0,0l0-0.5c-14.2-7.7-35.8-7.7-50,0l0,0.5
		l0,0l0.8,16.3C115.8,129.3,134.1,129.3,149.1,138.1z"/>
	<path fill-rule="evenodd" clip-rule="evenodd" fill="#DC393E" d="M108.6,117.8c-1.3,0.4-2.5,0.8-3.7,1.3l0.7,16.6
		c1.2-0.5,2.4-1,3.6-1.4L108.6,117.8z"/>
	<path fill-rule="evenodd" clip-rule="evenodd" fill="#DC393E" d="M149.1,138.1l0.8-16.3l0,0l0-0.5c-10.4-5.7-24.9-7.2-37.5-4.5
		L113,133C125.1,129.9,138,131.5,149.1,138.1z"/>
	<path fill-rule="evenodd" clip-rule="evenodd" fill="#F26D72" d="M145,119c-1.2-0.5-2.5-0.9-3.7-1.3l-0.5,16.4
		c1.2,0.4,2.4,0.9,3.6,1.4L145,119z"/>
	<path fill-rule="evenodd" clip-rule="evenodd" fill="#C42126" d="M124.9,138.4c10.7,0,19.5,4.3,19.5,9.5c0,5.3-8.7,23.9-19.5,23.9
		c-10.7,0-19.5-18.7-19.5-23.9C105.5,142.6,114.2,138.4,124.9,138.4z"/>
	<path fill-rule="evenodd" clip-rule="evenodd" fill="#DC393E" d="M124.9,138.4c10.7,0,19.5,4.3,19.5,9.5c0,5.3-8.7,23.9-19.5,23.9
		c-3.9,0-7.6-2.5-10.7-6l-1-25.6C116.5,139.1,120.6,138.4,124.9,138.4z"/>
	<path fill-rule="evenodd" clip-rule="evenodd" fill="#971B1E" d="M116.2,42.5l0.3-5.8c10.7,0,6.1,0,16.8,0l0.3,5.8H116.2z"/>
	<rect x="118" y="41.5" fill-rule="evenodd" clip-rule="evenodd" fill="#C42126" width="1" height="1"/>
	<path fill-rule="evenodd" clip-rule="evenodd" fill="#C42126" d="M115,31.5h19.7c1.2,0,2.1,0.9,2.1,2.1v5.9c0,1.2-0.9,2.1-2.1,2.1
		H115c-1.2,0-2.1-0.9-2.1-2.1v-5.9C112.9,32.4,113.9,31.5,115,31.5z"/>
	<polygon fill-rule="evenodd" clip-rule="evenodd" fill="#C42126" points="133.6,41.5 133.6,42.5 124.9,42.5 124.9,41.5 	"/>
	<rect x="130.8" y="41.5" fill-rule="evenodd" clip-rule="evenodd" fill="#DC393E" width="1" height="1"/>
	<path fill-rule="evenodd" clip-rule="evenodd" fill="#D26C5B" d="M132.2,31.5l0,10.1c0.9,0,1.3,0,2.1,0l-0.1-10.1H132.2z"/>
	<polygon fill-rule="evenodd" clip-rule="evenodd" fill="#DC393E" points="117.4,31.5 117.4,41.5 116.2,41.5 116.2,31.5 	"/>
	<path fill-rule="evenodd" clip-rule="evenodd" fill="#DC393E" d="M123,31.5h11.8c1.2,0,2.1,0.9,2.1,2.1v5.9c0,1.2-0.9,2.1-2.1,2.1
		H123c-1.2,0-2.1-0.9-2.1-2.1v-5.9C120.9,32.4,121.8,31.5,123,31.5z"/>
	<polygon fill-rule="evenodd" clip-rule="evenodd" fill="#F26D72" points="133.2,31.5 133.2,41.5 132.2,41.5 132.2,31.5 	"/>
</svg>
