<?xml version="1.0" encoding="utf-8"?>
<!-- Generator: Adobe Illustrator 19.1.0, SVG Export Plug-In . SVG Version: 6.00 Build 0)  -->
<!DOCTYPE svg PUBLIC "-//W3C//DTD SVG 1.1//EN" "http://www.w3.org/Graphics/SVG/1.1/DTD/svg11.dtd">
<svg version="1.1" id="Layer_1" xmlns="http://www.w3.org/2000/svg" xmlns:xlink="http://www.w3.org/1999/xlink" x="0px" y="0px"
	 viewBox="0 0 250 250" enable-background="new 0 0 250 250" xml:space="preserve">
	<path opacity="0.64" fill-rule="evenodd" clip-rule="evenodd" fill="#F19320" d="M109.8,215.3c-6.1,0-11.1-3.6-11.1-8v-89.5
		c0-17.6,15.3-19,15.8-25.1l2.4-50.9c10.4,0,6,0,16.4,0l2.4,50.9c0.3,6.2,15.8,7.6,15.8,25.1v89.5c0,4.4-5,8-11.1,8
		C124.7,215.3,125.6,215.3,109.8,215.3z"/>
	<path opacity="0.64" fill-rule="evenodd" clip-rule="evenodd" fill="#194226" d="M101.3,136.1c13.8-15.2,33.3-15.4,47.8,0
		l-5.7,42.9H107L101.3,136.1z"/>
	<path opacity="0.64" fill-rule="evenodd" clip-rule="evenodd" fill="#FAA31B" d="M135.8,92.7c0,0.1,0,0.2,0,0.3
		c0,0.1,0,0.2,0.1,0.3c0,0.1,0,0.2,0.1,0.3c0,0.1,0.1,0.2,0.1,0.3c0,0.1,0.1,0.2,0.1,0.3c0,0.1,0.1,0.2,0.1,0.3
		c0,0.1,0.1,0.2,0.1,0.3c0.1,0.1,0.1,0.2,0.2,0.2c0.1,0.1,0.1,0.2,0.2,0.2c0.1,0.1,0.1,0.2,0.2,0.2c0.1,0.1,0.1,0.2,0.2,0.2
		c0.1,0.1,0.1,0.2,0.2,0.2c0.1,0.1,0.2,0.2,0.2,0.2l0,0c0.1,0.1,0.2,0.2,0.3,0.2c0.1,0.1,0.2,0.2,0.3,0.2c0.1,0.1,0.2,0.2,0.3,0.2
		l0,0c0.1,0.1,0.2,0.2,0.3,0.2c0.1,0.1,0.2,0.2,0.3,0.2l0.3,0.2l0.3,0.2l0.3,0.2l0.3,0.3l0.3,0.3l0.3,0.3v0l0.3,0.3l0.4,0.3l0.4,0.3
		l0.4,0.3l0.4,0.3v0c0.1,0.1,0.2,0.2,0.4,0.3c0.1,0.1,0.2,0.2,0.4,0.3c0.1,0.1,0.2,0.2,0.4,0.3c0.1,0.1,0.2,0.2,0.4,0.3
		c0.1,0.1,0.2,0.2,0.4,0.3c0.1,0.1,0.2,0.2,0.4,0.3l0,0c0.1,0.1,0.2,0.2,0.4,0.3l0,0c0.1,0.1,0.2,0.2,0.4,0.4
		c0.1,0.1,0.2,0.2,0.4,0.4l0,0c0.1,0.1,0.2,0.2,0.3,0.4c0.1,0.1,0.2,0.3,0.3,0.4c0.1,0.1,0.2,0.3,0.3,0.4c0.1,0.1,0.2,0.3,0.3,0.4
		c0.1,0.1,0.2,0.3,0.3,0.4c0.1,0.1,0.2,0.3,0.3,0.4v0c0.1,0.1,0.2,0.3,0.3,0.5c0.1,0.2,0.2,0.3,0.3,0.5c0.1,0.2,0.2,0.3,0.3,0.5
		c0.1,0.2,0.2,0.3,0.3,0.5c0.1,0.2,0.2,0.3,0.3,0.5c0.1,0.2,0.2,0.4,0.3,0.5c0.1,0.2,0.2,0.4,0.2,0.5c0.1,0.2,0.2,0.4,0.2,0.6l0,0
		c0.1,0.2,0.1,0.4,0.2,0.6c0.1,0.2,0.1,0.4,0.2,0.6c0.1,0.2,0.1,0.4,0.2,0.6c0.1,0.2,0.1,0.4,0.2,0.6c0.1,0.2,0.1,0.4,0.1,0.7l0,0
		c0,0.2,0.1,0.4,0.1,0.7c0,0.2,0.1,0.5,0.1,0.7c0,0.2,0.1,0.5,0.1,0.7l0,0c0,0.2,0.1,0.5,0.1,0.7c0,0.3,0,0.5,0.1,0.8
		c0,0.3,0,0.5,0,0.8c0,0.3,0,0.5,0,0.8v89.5c0,4.4-5,8-11.1,8h-19.2c-5.1,0-8.2-4.5-8.2-7.5v-90c0-17.6,10.2-19,10.2-25.1l0.1-50.9
		h9.9L135.8,92.7z"/>
	<path opacity="0.64" fill-rule="evenodd" clip-rule="evenodd" fill="#FAA31B" d="M104.7,207.3v-89.5c0-10.2,4-14.9,7.4-18.3
		c0.4-0.4,0.8-0.8,1.2-1.2c1.6-1.6,3.7-1.7,2.8,0c-0.3,0.5-0.7,0.9-1,1.4c-2.3,3.4-4.8,8.3-4.8,17.8v90
		C110.3,211.7,104.7,210.2,104.7,207.3L104.7,207.3z M117,90.8l1.8-49h1.7l-1.3,49C119.2,92.6,117,92.5,117,90.8z"/>
	<path opacity="0.64" fill-rule="evenodd" clip-rule="evenodd" fill="#2D6640" d="M104.7,161.8v-29c1.8-1.6,3.7-2.9,5.6-4.1V179H107
		L104.7,161.8z"/>
	<path opacity="0.64" fill-rule="evenodd" clip-rule="evenodd" fill="#FBC311" d="M129.8,41.8h1.7l1.8,49c0.1,1.5-2.2,1.6-2.2,0
		L129.8,41.8L129.8,41.8z M137,98.3c0.5,0.4,0.9,0.9,1.4,1.4c3.4,3.4,7.2,8.2,7.2,18.1v89.5c0,4.5-5.6,4-5.6,0.5v-90.3
		c0-9.4-2.4-14.2-4.7-17.6c-0.4-0.6-1-1-1.1-1.6C133.8,96.5,135.4,97,137,98.3z"/>
	<path opacity="0.64" fill-rule="evenodd" clip-rule="evenodd" fill="#2D6640" d="M113.1,179v-51.7c11.9-5.4,25.3-2.5,36,8.8
		l-5.7,42.9H113.1z"/>
	<path opacity="0.64" fill-rule="evenodd" clip-rule="evenodd" fill="#428158" d="M140,128.8c1.9,1.1,3.8,2.5,5.6,4v28.9l-2.3,17.2
		H140V128.8z"/>
	<path opacity="0.64" fill-rule="evenodd" clip-rule="evenodd" fill="#194226" d="M115.8,66.2l0.7-15.3c10.4,0,7.1,0,17.5,0
		l0.5,15.3H115.8z"/>
	<polygon opacity="0.64" fill-rule="evenodd" clip-rule="evenodd" fill="#2D6640" points="118.3,39.9 118.7,39.9 119,45.3 
		119.4,39.9 119.8,45.3 120,39.9 119.9,66.2 117.9,66.2 	"/>
	<path opacity="0.64" fill-rule="evenodd" clip-rule="evenodd" fill="#102316" d="M116.4,52.1l0.2-12.8c10.9,0,6.3,0,17.2,0
		l0.3,12.8H116.4z"/>
	<polygon opacity="0.64" fill-rule="evenodd" clip-rule="evenodd" fill="#194226" points="119.9,52.1 118.1,52.1 118.3,39.9 
		118.7,39.9 119,45.3 119.4,39.9 119.8,45.3 120,39.9 	"/>
	<path opacity="0.64" fill-rule="evenodd" clip-rule="evenodd" fill="#194226" d="M116.1,36.2h18.1c1.5,0,0.7,1.2,0.7,2.7v9.3
		c0,1.5,0.7,2.7-0.7,2.7h-18.1c-1.5,0-0.6-1.2-0.6-2.7v-9.3C115.5,37.4,114.6,36.2,116.1,36.2z"/>
	<path opacity="0.64" fill-rule="evenodd" clip-rule="evenodd" fill="#2D6640" d="M134,50.8l0.5,15.3h-11.2l0-15.3l-2.3,0
		c-0.9-0.1,0-0.7,0-1.5V37.7c0-0.7-1-1.3,0-1.5v0h0.4h7h6.2c1.1,0,0.2,0.7,0.2,1.5v11.7c0,0.8,0.9,1.5-0.2,1.5H134z"/>
	<polygon opacity="0.64" fill-rule="evenodd" clip-rule="evenodd" fill="#428158" points="132.4,66.2 130.4,66.2 130.1,50.8 
		131.8,50.8 	"/>
	<polygon opacity="0.64" fill-rule="evenodd" clip-rule="evenodd" fill="#194226" points="134,50.8 134.1,52.1 123.4,52.1 
		123.4,50.8 	"/>
	<polygon opacity="0.64" fill-rule="evenodd" clip-rule="evenodd" fill="#2D6640" points="131.8,52.1 130.1,52.1 130.1,50.8 
		131.8,50.8 	"/>
	<path opacity="0.64" fill-rule="evenodd" clip-rule="evenodd" fill="#428158" d="M132.3,36.2l0,14.6c0.9,0,1.3,0,2.1,0l-0.1-14.6
		H132.3z"/>
	<polygon opacity="0.64" fill-rule="evenodd" clip-rule="evenodd" fill="#2D6640" points="118.7,36.2 118.6,50.8 116.6,50.8 
		116.7,36.2 	"/>
</svg>
