<svg xmlns="http://www.w3.org/2000/svg" width="1592.001" height="292.863" viewBox="256.5 672.768 1592.001 292.863" enable-background="new 256.5 672.768 1592.001 292.863"><path fill="#fff" d="M443.717 672.768c-8.04 0-16.12 2.37-22.257 7.168L265.664 801.792c-5.686 4.447-9.164 10.62-9.164 17.408s3.478 12.96 9.164 17.408L421.46 958.463c6.136 4.8 14.216 7.168 22.257 7.168 8.042 0 15.467-2.368 21.604-7.167 6.137-4.8 9.818-11.117 9.818-17.408 0-6.29-3.703-12.594-9.817-17.406l-101.464-79.872h1377.29l-101.466 79.87c-6.115 4.813-9.818 11.118-9.818 17.407 0 6.29 3.686 12.61 9.818 17.408 6.137 4.8 13.563 7.168 21.604 7.168s16.122-2.368 22.258-7.167l155.795-121.854c5.687-4.45 9.164-10.624 9.164-17.41s-3.478-12.96-9.163-17.407l-155.795-121.857c-6.136-4.797-14.217-7.168-22.258-7.168-8.04 0-15.468 2.37-21.604 7.168-6.134 4.8-9.818 11.12-9.818 17.408 0 6.29 5.45 11.547 9.818 17.408l101.467 79.873H363.855l101.464-79.873c6.113-4.812 9.816-11.117 9.816-17.408 0-6.29-3.683-12.607-9.817-17.408-6.136-4.8-13.56-7.168-21.603-7.168z"/></svg>