<svg xmlns="http://www.w3.org/2000/svg" width="1117.799" height="1051.322" viewBox="336.547 238.592 1117.799 1051.322" enable-background="new 336.547 238.592 1117.799 1051.322"><path fill="#fff" d="M851.808 302.592c78.99.007 109.102 87.59 109.102 87.59 5.395 25.076 23.372 38.132 40.96 38.132 14.7 0 29.126-9.126 35.673-27.968 9.114-26.214 31.897-70.957 86.03-70.95 9.023 0 18.924 1.247 29.77 4.025 85.883 22.017 60.667 92.31 50.817 145.524-3.866 20.896 26.003 37.632 46.547 37.632 7.193 0 13.242-2.055 16.3-6.7 10.868-16.532 25.422-34.356 49.818-34.356 10.663 0 23.213 3.405 38.157 11.814 54.457 30.63 32.75 122.478 21.62 150.45l-192.48 567.29c-4.23 12.462-15.924 20.84-29.075 20.84h-.04l-459.243-.55c-36.513-15.45-307.066-356.385-294.83-428.756 3.688-21.786 43.713-60.877 84.718-60.87 5.043 0 10.105.595 15.11 1.88 47.373 12.187 45.798 48.04 81.69 77.147 8.255 6.7 16.914 9.74 24.728 9.74 18.26 0 31.88-16.633 24.832-42.17-10.144-36.76-51.328-132.287-110.81-262.533-9.223-20.198-20.135-99.405 34.72-123.578 15.578-6.867 29.6-9.952 42.336-9.952 40.365 0 67.764 31.02 90.535 71.04 6.003 11.194 15.725 15.917 25.562 15.917 17.094 0 34.534-14.28 33.408-33.723-2.035-35.11-8.403-122.822 88.953-135.89 5.217-.7 10.24-1.025 15.092-1.025m.006-64c-7.764 0-15.706.538-23.616 1.6-64.422 8.64-111.526 43.89-132.646 99.25-2.195 5.76-4.032 11.515-5.562 17.223-22.93-19.18-53.126-34.394-91.737-34.394-22.048 0-44.98 5.18-68.147 15.387-32.416 14.285-56.46 39.987-69.53 74.336-19.666 51.673-9.337 108.685 2.4 134.393 24.493 53.633 43.597 96.416 58.47 130.548-1.555-.448-3.135-.884-4.748-1.3-10.048-2.585-20.492-3.897-31.046-3.897-32.922-.006-67.15 12.896-96.384 36.32-13.312 10.67-44.974 39.61-51.443 77.875-5.664 33.53 7.283 74.727 43.31 137.772 29.7 51.994 69.337 108.372 97.355 146.51 34.925 47.545 72.41 94.97 105.543 133.522 54.63 63.565 72.832 74.656 86.79 80.563 7.865 3.327 16.32 5.05 24.864 5.06l459.245.552c40.71 0 76.748-25.83 89.79-64.27l192-565.862c25.87-66.586 33.57-181.01-50.36-228.224-23.63-13.293-47.02-20.032-69.53-20.032-14.175 0-26.75 2.51-37.83 6.56.858-14.93.18-30.438-3.334-46.016-6.56-29.075-29.1-80.812-106.426-100.64-15.603-4-30.97-6.03-45.663-6.03-41.506-.005-78.338 15.835-106.523 45.793-5.28 5.614-10.208 11.675-14.777 18.17-26.87-43.88-76.15-90.76-150.466-90.768z"/></svg>