<?xml version="1.0" encoding="iso-8859-1"?>
<!-- Generator: Adobe Illustrator 19.1.1, SVG Export Plug-In . SVG Version: 6.00 Build 0)  -->
<svg version="1.1" xmlns="http://www.w3.org/2000/svg" xmlns:xlink="http://www.w3.org/1999/xlink" x="0px" y="0px"
	 viewBox="0 0 960 960" style="enable-background:new 0 0 960 960;" xml:space="preserve">
<g id="_x32_1">
	<path id="_x32_1_1_" style="fill:none;" d="M861.316,531.211c-14.742,1.115-61.052-12.555-67.062-17.054
		c-6.009-4.499-13.262-10.885-10.581-14.005c2.681-3.12,15.377-3.364,22.341-1.524c6.964,1.84,16.54-1.086,15.849-3.676
		c-0.691-2.589-13.01-14.096-27.399-19.502c-14.389-5.406-39.172-15.806-43.052-22.723c-3.88-6.917-5.954-14.685-0.475-13.558
		c5.479,1.126,18.774,5.9,22.516,9.525c3.741,3.625,13.986,7.363,16.967,6.752c2.981-0.611,6.065-5.687-1.671-9.725
		c-7.736-4.038-44.157-21.319-54.23-27.877c-10.073-6.558-19.963-17.973-13.609-19.115c6.352-1.141,20.833,1.836,27.154,6.807
		c6.32,4.972,18.027,13.498,21.55,14.222c3.523,0.724,8.31-0.738,4.73-5.146c-3.581-4.408-12.885-12.99-27.802-21.761
		c-14.916-8.77-30.991-20.767-35.444-26.995c-4.452-6.228-10.573-21.209,1.375-16.591c11.947,4.618,30.983,17.865,30.983,17.865
		s-25.472-24.177-31.409-32.481c-5.937-8.304-11.232-21.811-7.138-26.038c4.094-4.227,13.006-7.92,17.842-1.585
		c4.836,6.336,19.227,22.827,25.055,31.515c5.828,8.687,14.175,17.258,15.592,15.173c1.417-2.084-0.335-9.69-4.237-26.045
		c-3.602-15.099-8.055-21.327-4.228-23.145c3.827-1.817,7.287,2.06,12.84,10.255c5.553,8.195,9.105,24.937,11.974,32.374
		c2.869,7.437,11.265,28.057,11.265,28.057s5.646-5.321,7.191-11.167c1.841-6.964,3.289-14.008,7.019-8.346
		c4.984,7.564,8.072,14.305,9.86,31.397c1.788,17.091,3.943,24.469,6.51,27.852c2.568,3.383,6.078,6.145,6.502,0.113
		c0.425-6.031,0.871-16.137,2.77-19.417c1.899-3.281,8.412-5.205,12.432,5.004c4.02,10.208,5.255,28.002,6.926,37.728
		c1.672,9.726,4.828,20.164,6.795,18.53c1.968-1.635,5.512-4.985,5.165-13.215c-0.347-8.23,5.038-18.543,8.468-15.391
		c3.431,3.153,16.59,18.504,16.608,44.206c0.017,25.703-2.511,43.946-10.382,50.486
		C869.004,529.529,867.117,530.773,861.316,531.211z"/>
</g>
<g id="Layer_1">
</g>
</svg>
