<?xml version="1.0" encoding="iso-8859-1"?>
<!-- Generator: Adobe Illustrator 19.1.1, SVG Export Plug-In . SVG Version: 6.00 Build 0)  -->
<svg version="1.1" xmlns="http://www.w3.org/2000/svg" xmlns:xlink="http://www.w3.org/1999/xlink" x="0px" y="0px"
	 viewBox="0 0 960 960" style="enable-background:new 0 0 960 960;" xml:space="preserve">
<g id="_x31_9">
	<path id="_x31_9_1_" style="fill:none;" d="M861.316,531.211c-14.755,0.948-60.912-13.247-66.871-17.815
		c-5.958-4.567-13.139-11.036-10.423-14.125c2.716-3.09,15.416-3.189,22.359-1.271c6.943,1.919,16.553-0.899,15.891-3.497
		c-0.662-2.597-12.851-14.243-27.179-19.814c-14.328-5.57-38.994-16.251-42.797-23.212c-3.802-6.961-5.788-14.752-0.322-13.564
		c5.467,1.189,18.708,6.112,22.409,9.78c3.701,3.668,13.903,7.521,16.891,6.945c2.988-0.577,6.129-5.618-1.561-9.744
		c-7.691-4.126-43.917-21.82-53.916-28.492c-9.999-6.672-19.76-18.2-13.393-19.27c6.366-1.069,20.814,2.072,27.078,7.115
		c6.264,5.043,17.875,13.703,21.389,14.467c3.514,0.764,8.319-0.644,4.788-5.093c-3.531-4.449-14.32-13.262-28.741-22.908
		c-14.42-9.645-29.814-22.587-33.908-29.079c-4.094-6.492-9.35-21.844,2.34-16.527c11.69,5.317,29.974,19.682,29.974,19.682
		s-24.092-25.679-29.552-34.336c-5.46-8.657-9.975-22.484-5.632-26.477c4.343-3.993,13.478-7.172,17.951-0.549
		c4.472,6.623,17.918,23.966,23.248,33c5.329,9.034,13.185,18.097,14.725,16.093c1.54-2.004,0.227-9.719-2.728-26.316
		c-2.728-15.323-6.824-21.815-2.887-23.413c3.936-1.596,7.174,2.485,12.256,11.011c5.082,8.526,7.665,25.49,10.104,33.1
		c2.439,7.61,9.965,27.505,9.965,27.505s5.706-5.257,7.318-11.086c1.92-6.943,3.447-13.971,7.114-8.267
		c4.899,7.621,7.91,14.397,9.504,31.51c1.595,17.112,3.666,24.514,6.195,27.927s6.008,6.214,6.501,0.187
		c0.494-6.026,1.054-16.127,2.99-19.387c1.936-3.259,8.471-5.109,12.375,5.145c3.904,10.254,4.937,28.063,6.499,37.808
		c1.562,9.745,4.6,20.22,6.586,18.607c1.987-1.613,5.569-4.923,5.315-13.157c-0.254-8.234,5.248-18.487,8.643-15.295
		c3.395,3.191,16.381,18.693,16.108,44.395c-0.274,25.704-3.009,43.919-10.955,50.37
		C869.023,529.617,867.122,530.838,861.316,531.211z"/>
</g>
<g id="Layer_1">
</g>
</svg>
