<?xml version="1.0" encoding="iso-8859-1"?>
<!-- Generator: Adobe Illustrator 19.1.1, SVG Export Plug-In . SVG Version: 6.00 Build 0)  -->
<svg version="1.1" xmlns="http://www.w3.org/2000/svg" xmlns:xlink="http://www.w3.org/1999/xlink" x="0px" y="0px"
	 viewBox="0 0 960 960" style="enable-background:new 0 0 960 960;" xml:space="preserve">
<g id="_x34_">
	<path id="_x34__1_" style="fill:none;" d="M861.316,531.211c-14.746,1.058-61.005-12.789-66.997-17.311
		c-5.992-4.522-13.221-10.936-10.528-14.046c2.693-3.11,15.39-3.305,22.347-1.438c6.957,1.866,16.544-1.023,15.863-3.616
		c-0.682-2.592-12.956-14.146-27.325-19.608c-14.368-5.462-36.149-15.957-40.003-22.888c-3.854-6.932-5.898-14.708-0.423-13.56
		c5.475,1.147,18.752,5.971,22.48,9.611c3.728,3.639,10.995,7.417,13.978,6.817c2.983-0.599,6.087-5.664-1.634-9.732
		c-7.721-4.068-40.743-20.748-50.791-27.344c-10.048-6.596-19.894-18.05-13.536-19.167c6.357-1.117,20.827,1.916,27.128,6.911
		c6.301,4.996,14.643,12.826,18.162,13.564c3.52,0.738,8.313-0.707,4.75-5.128c-3.564-4.422-13.37-13.082-28.119-22.148
		c-14.748-9.066-30.593-21.382-34.925-27.699c-4.331-6.317-10.159-21.424,1.701-16.569c11.861,4.854,30.642,18.479,30.642,18.479
		s-25.006-24.684-30.782-33.108c-5.776-8.423-10.807-22.038-6.629-26.187c4.178-4.148,13.166-7.668,17.879-1.235
		c4.713,6.433,18.785,23.212,24.445,32.017c5.659,8.804,13.84,17.541,15.299,15.484c1.458-2.057-0.145-9.7-3.727-26.137
		c-3.307-15.175-7.639-21.492-3.774-23.236c3.863-1.743,7.248,2.203,12.643,10.51c5.394,8.307,8.618,25.124,11.342,32.619
		c2.724,7.495,10.825,27.87,10.825,27.87s5.667-5.299,7.234-11.139c1.867-6.957,5.565-12.514,9.274-6.838
		c4.955,7.583,5.795,12.855,7.518,29.954c1.723,17.099,3.849,24.484,6.404,27.877c2.555,3.393,6.054,6.169,6.502,0.138
		c0.448-6.029,1.303-13.911,3.215-17.185c1.911-3.273,9.914-6.654,13.894,3.57c3.981,10.224,3.296,27.282,4.93,37.014
		c1.635,9.732,4.75,20.183,6.724,18.556c1.974-1.628,5.531-4.964,5.216-13.195c-0.316-8.231,5.109-18.524,8.527-15.358
		c3.419,3.166,16.52,18.568,16.439,44.27c-0.081,25.703-2.679,43.937-10.576,50.447C869.01,529.559,867.119,530.795,861.316,531.211
		z"/>
</g>
<g id="Layer_1">
</g>
</svg>
