<?xml version="1.0" encoding="iso-8859-1"?>
<!-- Generator: Adobe Illustrator 19.1.1, SVG Export Plug-In . SVG Version: 6.00 Build 0)  -->
<svg version="1.1" xmlns="http://www.w3.org/2000/svg" xmlns:xlink="http://www.w3.org/1999/xlink" x="0px" y="0px"
	 viewBox="0 0 960 960" style="enable-background:new 0 0 960 960;" xml:space="preserve">
<g id="_x31_8">
	<path id="_x31_8_1_" style="fill:none;" d="M861.316,531.211c-14.75,1.001-60.957-13.025-66.932-17.571
		c-5.975-4.545-13.179-10.987-10.474-14.087c2.705-3.099,15.403-3.245,22.353-1.352c6.95,1.893,16.549-0.959,15.877-3.554
		c-0.672-2.595-12.902-14.196-27.25-19.714c-14.347-5.517-39.051-16.108-42.879-23.055c-3.827-6.947-5.841-14.731-0.371-13.562
		c5.471,1.169,18.73,6.044,22.444,9.698c3.714,3.654,13.93,7.47,16.916,6.883c2.986-0.588,6.109-5.64-1.596-9.738
		c-7.705-4.098-43.994-21.659-54.017-28.295c-10.023-6.635-19.825-18.127-13.463-19.22c6.361-1.092,20.82,1.996,27.102,7.016
		c6.282,5.02,17.924,13.637,21.441,14.388c3.517,0.751,8.316-0.674,4.77-5.11c-3.547-4.436-13.86-13.175-28.44-22.54
		c-14.579-9.364-30.191-22.003-34.401-28.411c-4.209-6.408-9.742-21.64,2.03-16.547c11.773,5.093,30.298,19.099,30.298,19.099
		s-24.535-25.197-30.148-33.741c-5.613-8.544-10.378-22.268-6.115-26.336c4.263-4.068,13.327-7.412,17.916-0.882
		c4.589,6.531,18.338,23.6,23.828,32.523c5.489,8.922,13.503,17.828,15.003,15.798c1.5-2.03,0.047-9.71-3.212-26.229
		c-3.008-15.251-7.219-21.659-3.317-23.327c3.901-1.667,7.21,2.349,12.443,10.768c5.233,8.42,8.127,25.312,10.704,32.867
		c2.577,7.555,10.382,27.682,10.382,27.682s5.687-5.278,7.277-11.112c1.894-6.95,3.397-13.983,7.084-8.292
		c4.926,7.603,7.962,14.367,9.618,31.474c1.657,17.105,3.754,24.5,6.296,27.903c2.542,3.403,6.03,6.192,6.502,0.163
		c0.472-6.028,0.995-16.13,2.919-19.396c1.924-3.266,8.452-5.14,12.393,5.1c3.941,10.24,5.039,28.043,6.636,37.782
		c1.597,9.739,4.673,20.202,6.653,18.582c1.981-1.62,5.551-4.943,5.267-13.175c-0.284-8.232,5.181-18.505,8.587-15.326
		c3.406,3.179,16.448,18.632,16.268,44.335c-0.18,25.703-2.849,43.928-10.771,50.407
		C869.017,529.589,867.121,530.817,861.316,531.211z"/>
</g>
<g id="Layer_1">
</g>
</svg>
