<?xml version="1.0" encoding="iso-8859-1"?>
<!-- Generator: Adobe Illustrator 19.1.1, SVG Export Plug-In . SVG Version: 6.00 Build 0)  -->
<svg version="1.1" xmlns="http://www.w3.org/2000/svg" xmlns:xlink="http://www.w3.org/1999/xlink" x="0px" y="0px"
	 viewBox="0 0 960 960" style="enable-background:new 0 0 960 960;" xml:space="preserve">
<g id="_x31_">
	<path id="_x31__1_" style="fill:none;" d="M861.316,531.211c-14.73,1.263-61.177-11.938-67.232-16.376
		c-6.054-4.438-13.372-10.751-10.722-13.898c2.649-3.147,15.343-3.519,22.325-1.75c6.982,1.769,16.529-1.253,15.811-3.836
		c-0.718-2.582-13.152-13.964-27.595-19.225c-14.443-5.261-38.293-15.41-42.244-22.288c-3.95-6.877-6.102-14.624-0.612-13.553
		c5.491,1.071,18.834,5.709,22.612,9.297c3.778,3.587,13.023,7.221,15.998,6.58c2.975-0.641,6.007-5.748-1.769-9.708
		c-7.777-3.96-43.204-20.614-53.344-27.069s-20.144-17.771-13.802-18.977c6.341-1.205,20.852,1.625,27.222,6.533
		s16.996,13.056,20.526,13.745c3.53,0.688,8.302-0.822,4.678-5.194c-3.625-4.372-11.605-12.747-26.964-20.738
		c-15.358-7.99-32.041-19.144-36.812-25.136c-4.771-5.992-11.663-20.644,0.514-16.648c12.177,3.995,31.883,16.245,31.883,16.245
		s-26.704-22.837-33.066-30.826c-6.362-7.99-12.352-21.211-8.481-25.647c3.871-4.435,12.585-8.588,17.745-2.508
		c5.16,6.08,20.393,21.812,26.667,30.19c6.273,8.378,15.057,16.509,16.365,14.352c1.308-2.156-0.837-9.665-5.583-25.804
		c-4.381-14.9-9.154-20.892-5.423-22.907c3.729-2.014,7.387,1.681,13.36,9.581c5.973,7.901,10.389,24.445,13.641,31.727
		c3.252,7.282,12.424,28.549,12.424,28.549s5.592-5.378,7.078-11.239c1.77-6.982,3.925-13.522,7.713-7.898
		c5.06,7.514,7.438,13.704,9.399,30.778c1.961,17.073,4.19,24.428,6.791,27.785c2.602,3.357,6.139,6.084,6.503,0.048
		c0.364-6.035,0.838-15.367,2.703-18.667c1.866-3.3,8.878-5.808,13,4.36c4.122,10.167,4.889,27.689,6.659,37.398
		c1.77,9.709,5.031,20.115,6.982,18.46c1.951-1.655,5.462-5.041,5.031-13.267c-0.43-8.226,4.85-18.594,8.313-15.476
		c3.462,3.118,16.777,18.336,17.054,44.037c0.277,25.702-2.067,43.97-9.872,50.589C868.987,529.452,867.112,530.714,861.316,531.211
		z"/>
</g>
<g id="Layer_1">
</g>
</svg>
