<?xml version="1.0" encoding="iso-8859-1"?>
<!-- Generator: Adobe Illustrator 19.1.1, SVG Export Plug-In . SVG Version: 6.00 Build 0)  -->
<svg version="1.1" xmlns="http://www.w3.org/2000/svg" xmlns:xlink="http://www.w3.org/1999/xlink" x="0px" y="0px"
	 viewBox="0 0 960 960" style="enable-background:new 0 0 960 960;" xml:space="preserve">
<g id="_x31_5">
	<path id="_x31_5_1_" style="fill:none;" d="M861.316,531.211c-14.724,1.33-61.233-11.664-67.307-16.075
		c-6.075-4.411-13.42-10.691-10.785-13.85c2.635-3.159,15.327-3.589,22.318-1.85c6.99,1.738,16.522-1.327,15.794-3.907
		c-0.729-2.579-13.215-13.906-27.682-19.102c-14.467-5.196-39.401-15.234-43.382-22.094c-3.981-6.86-6.168-14.598-0.673-13.551
		c5.496,1.046,18.859,5.625,22.655,9.196c3.794,3.57,14.093,7.159,17.065,6.504c2.972-0.654,5.981-5.775-1.813-9.7
		c-7.795-3.925-44.467-20.673-54.635-27.084c-10.168-6.41-20.224-17.681-13.888-18.915c6.336-1.234,20.859,1.533,27.252,6.411
		c6.392,4.879,18.224,13.234,21.756,13.907c3.533,0.673,8.299-0.86,4.655-5.215c-3.645-4.356-11.036-12.639-26.591-20.283
		c-15.554-7.643-32.508-18.422-37.421-24.31c-4.913-5.887-12.147-20.392,0.131-16.674c12.279,3.719,32.283,15.525,32.283,15.525
		s-27.251-22.241-33.803-30.091c-6.551-7.85-12.85-20.944-9.078-25.473c3.772-4.528,12.398-8.884,17.702-2.918
		c5.304,5.966,20.912,21.36,27.384,29.602c6.471,8.24,15.449,16.176,16.709,13.987c1.259-2.188-1.06-9.653-6.181-25.697
		c-4.728-14.811-9.642-20.699-5.955-22.801c3.686-2.101,7.432,1.512,13.592,9.282c6.16,7.77,10.961,24.225,14.382,31.439
		c3.422,7.213,12.939,28.767,12.939,28.767s5.569-5.403,7.028-11.271c1.739-6.991,3.084-14.055,6.897-8.448
		c5.094,7.491,8.28,14.186,10.318,31.252c2.038,17.065,4.299,24.41,6.916,27.756c2.617,3.346,6.168,6.056,6.504,0.019
		c0.337-6.037,0.636-16.149,2.487-19.457c1.851-3.308,8.337-5.328,12.504,4.823c4.168,10.149,5.664,27.924,7.477,37.625
		c1.814,9.701,5.121,20.093,7.065,18.43c1.944-1.664,5.439-5.065,4.972-13.29c-0.467-8.224,4.767-18.616,8.243-15.514
		c3.477,3.102,16.859,18.261,17.252,43.961c0.393,25.701-1.869,43.981-9.645,50.635C868.979,529.417,867.11,530.688,861.316,531.211
		z"/>
</g>
<g id="Layer_1">
</g>
</svg>
