<?xml version="1.0" encoding="iso-8859-1"?>
<!-- Generator: Adobe Illustrator 19.1.1, SVG Export Plug-In . SVG Version: 6.00 Build 0)  -->
<svg version="1.1" xmlns="http://www.w3.org/2000/svg" xmlns:xlink="http://www.w3.org/1999/xlink" x="0px" y="0px"
	 viewBox="0 0 960 960" style="enable-background:new 0 0 960 960;" xml:space="preserve">
<g id="_x32_2">
	<path id="_x32_2_1_" style="fill:none;" d="M861.697,531.477c-14.733,1.226-61.146-12.092-67.189-16.545
		c-6.043-4.453-13.344-10.784-10.687-13.924c2.657-3.14,15.351-3.481,22.329-1.693c6.978,1.787,16.531-1.212,15.82-3.796
		c-0.711-2.584-13.116-13.997-27.547-19.294c-14.429-5.297-39.291-15.509-43.224-22.396c-3.933-6.887-6.065-14.64-0.578-13.554
		c5.488,1.085,18.819,5.757,22.588,9.354c3.769,3.597,14.042,7.257,17.018,6.623c2.976-0.633,6.021-5.733-1.745-9.712
		c-7.767-3.98-44.318-20.983-54.44-27.465c-10.123-6.481-20.099-17.821-13.754-19.011c6.344-1.189,20.847,1.678,27.205,6.601
		c6.358,4.923,18.129,13.36,21.657,14.058c3.528,0.697,8.304-0.802,4.691-5.182c-3.614-4.381-11.924-12.808-27.173-20.993
		c-15.248-8.184-31.78-19.548-36.471-25.599c-4.692-6.051-11.391-20.785,0.729-16.634c12.12,4.151,31.659,16.648,31.659,16.648
		s-26.397-23.171-32.653-31.238c-6.256-8.068-12.073-21.36-8.146-25.744c3.927-4.383,12.69-8.421,17.769-2.278
		c5.079,6.144,20.103,22.065,26.266,30.52c6.162,8.454,14.837,16.695,16.172,14.556c1.335-2.138-0.712-9.671-5.247-25.864
		c-4.187-14.949-8.88-21.001-5.125-22.966c3.753-1.965,7.362,1.775,13.231,9.749c5.869,7.974,10.07,24.567,13.226,31.888
		c3.156,7.32,12.135,28.426,12.135,28.426s5.606-5.364,7.106-11.221c1.788-6.978,3.182-14.033,6.956-8.399
		c5.041,7.526,8.18,14.243,10.098,31.322c1.918,17.077,4.128,24.438,6.721,27.802s6.124,6.099,6.503,0.064
		c0.379-6.034,0.749-16.143,2.623-19.438c1.874-3.295,8.373-5.268,12.469,4.91c4.097,10.178,5.467,27.962,7.212,37.675
		c1.746,9.713,4.98,20.127,6.936,18.478c1.955-1.65,5.474-5.027,5.065-13.254c-0.41-8.227,4.897-18.581,8.351-15.455
		c3.455,3.126,16.73,18.378,16.943,44.079c0.212,25.702-2.177,43.964-9.999,50.564C869.372,529.737,867.495,530.994,861.697,531.477
		z"/>
</g>
<g id="Layer_1">
</g>
</svg>
