<?xml version="1.0" encoding="iso-8859-1"?>
<!-- Generator: Adobe Illustrator 19.1.1, SVG Export Plug-In . SVG Version: 6.00 Build 0)  -->
<svg version="1.1" xmlns="http://www.w3.org/2000/svg" xmlns:xlink="http://www.w3.org/1999/xlink" x="0px" y="0px"
	 viewBox="0 0 960 960" style="enable-background:new 0 0 960 960;" xml:space="preserve">
<g id="_x30_">
	<path id="_x30__1_" style="fill:none;" d="M861.721,530.929c-14.721,1.374-61.27-11.48-67.358-15.873s-13.453-10.651-10.827-13.818
		c2.626-3.167,15.317-3.634,22.313-1.917c6.996,1.717,16.52-1.377,15.783-3.955c-0.737-2.577-13.257-13.866-27.741-19.019
		c-14.483-5.153-39.448-15.116-43.45-21.964c-4.002-6.848-6.212-14.579-0.714-13.549c5.499,1.03,18.877,5.568,22.683,9.128
		c3.805,3.559,14.115,7.116,17.085,6.453c2.97-0.663,5.964-5.793-1.842-9.695c-7.807-3.902-44.53-20.541-54.718-26.921
		c-10.188-6.38-20.278-17.621-13.945-18.874c6.332-1.253,20.865,1.469,27.272,6.329c6.407,4.86,18.264,13.18,21.799,13.842
		c3.535,0.662,8.296-0.885,4.639-5.229c-3.658-4.345-10.655-12.567-26.342-19.978c-15.686-7.411-32.821-17.939-37.829-23.756
		c-5.008-5.817-12.472-20.224-0.125-16.691c12.347,3.533,32.551,15.042,32.551,15.042s-27.618-21.842-34.296-29.598
		c-6.678-7.756-13.185-20.765-9.478-25.356c3.706-4.59,12.272-9.083,17.673-3.193c5.401,5.89,21.259,21.058,27.864,29.207
		c6.604,8.148,15.712,15.953,16.939,13.743c1.227-2.209-1.21-9.646-6.582-25.625c-4.96-14.752-9.969-20.569-6.311-22.73
		c3.657-2.16,7.462,1.399,13.747,9.081c6.285,7.682,11.343,24.079,14.879,31.246c3.536,7.167,13.284,28.914,13.284,28.914
		s5.552-5.42,6.994-11.293c1.718-6.996,3.042-14.065,6.872-8.469c5.117,7.476,8.323,14.162,10.412,31.222
		c2.089,17.059,4.373,24.398,7,27.736c2.627,3.338,6.185,6.038,6.504-0.001c0.319-6.038,0.587-16.151,2.428-19.465
		c1.841-3.314,8.32-5.352,12.519,4.785c4.199,10.137,5.747,27.908,7.59,37.604c1.843,9.696,5.182,20.079,7.121,18.409
		c1.939-1.67,5.424-5.082,4.932-13.305c-0.492-8.223,4.711-18.631,8.197-15.539c3.486,3.092,16.915,18.211,17.385,43.911
		c0.47,25.701-1.737,43.988-9.493,50.666C869.379,529.112,867.514,530.388,861.721,530.929z"/>
</g>
<g id="Layer_1">
</g>
</svg>
