<?xml version="1.0" encoding="iso-8859-1"?>
<!-- Generator: Adobe Illustrator 19.1.1, SVG Export Plug-In . SVG Version: 6.00 Build 0)  -->
<svg version="1.1" xmlns="http://www.w3.org/2000/svg" xmlns:xlink="http://www.w3.org/1999/xlink" x="0px" y="0px"
	 viewBox="0 0 960 960" style="enable-background:new 0 0 960 960;" xml:space="preserve">
<g id="_x31_7">
	<path id="_x31_7_1_" style="fill:none;" d="M861.316,531.211c-14.743,1.095-61.036-12.636-67.039-17.143
		c-6.003-4.507-13.248-10.902-10.563-14.019c2.685-3.116,15.382-3.344,22.343-1.494c6.962,1.849,16.541-1.065,15.853-3.656
		c-0.688-2.59-12.991-14.113-27.374-19.538c-14.382-5.426-39.151-15.858-43.023-22.78c-3.871-6.922-5.935-14.693-0.458-13.559
		c5.478,1.134,18.767,5.924,22.504,9.555c3.737,3.63,13.977,7.381,16.958,6.774c2.982-0.607,6.072-5.679-1.658-9.727
		c-7.731-4.049-44.13-21.377-54.194-27.948c-10.065-6.571-19.939-18-13.584-19.133c6.354-1.133,20.831,1.863,27.145,6.843
		c6.313,4.98,18.01,13.522,21.531,14.251c3.522,0.729,8.311-0.728,4.737-5.14c-3.575-4.413-13.051-13.022-27.91-21.893
		c-14.859-8.872-30.855-20.978-35.266-27.236c-4.411-6.259-10.431-21.283,1.487-16.584c11.918,4.699,30.866,18.076,30.866,18.076
		s-25.312-24.351-31.194-32.696c-5.882-8.345-11.086-21.889-6.963-26.089c4.122-4.199,13.061-7.834,17.855-1.465
		c4.794,6.369,19.075,22.959,24.846,31.687c5.771,8.727,14.06,17.355,15.492,15.279c1.431-2.075-0.27-9.694-4.062-26.077
		c-3.501-15.125-7.913-21.384-4.072-23.176c3.839-1.792,7.273,2.109,12.772,10.342c5.499,8.234,8.938,25.001,11.757,32.458
		c2.819,7.457,11.114,27.993,11.114,27.993s5.653-5.314,7.206-11.158c1.85-6.962,3.307-14.004,7.03-8.337
		c4.974,7.571,8.053,14.316,9.819,31.41c1.766,17.094,3.91,24.474,6.474,27.861c2.563,3.387,6.07,6.153,6.502,0.122
		c0.433-6.03,0.892-16.135,2.795-19.414c1.903-3.278,8.419-5.193,12.425,5.021c4.006,10.214,5.218,28.009,6.877,37.737
		c1.659,9.728,4.801,20.171,6.771,18.539c1.97-1.633,5.519-4.978,5.182-13.208c-0.336-8.23,5.062-18.537,8.489-15.38
		c3.427,3.157,16.566,18.526,16.55,44.228c-0.016,25.703-2.568,43.943-10.449,50.473C869.006,529.54,867.118,530.78,861.316,531.211
		z"/>
</g>
<g id="Layer_1">
</g>
</svg>
