<?xml version="1.0" encoding="iso-8859-1"?>
<!-- Generator: Adobe Illustrator 19.1.1, SVG Export Plug-In . SVG Version: 6.00 Build 0)  -->
<svg version="1.1" xmlns="http://www.w3.org/2000/svg" xmlns:xlink="http://www.w3.org/1999/xlink" x="0px" y="0px"
	 viewBox="0 0 960 960" style="enable-background:new 0 0 960 960;" xml:space="preserve">
<g id="_x37_">
	<path id="_x37__1_" style="fill:none;" d="M861.316,531.211c-14.729,1.266-59.301-12.394-65.356-16.831
		c-6.055-4.437-13.998-10.435-11.349-13.582c2.649-3.147,14.482-3.991,21.464-2.223c6.982,1.768,17.464-0.709,16.747-3.292
		c-0.718-2.582-14.126-13.809-28.534-19.148c-14.408-5.34-38.357-15.565-42.267-22.462c-3.91-6.897-5.393-14.678,0.089-13.575
		c5.482,1.102,17.689,5.544,21.446,9.151c3.756,3.607,13.623,7.532,16.6,6.908c2.977-0.624,5.145-6.113-2.516-10.245
		c-7.661-4.133-42.666-21.66-52.623-28.337c-9.958-6.677-19.373-18.677-13.021-19.729c6.351-1.052,20.694,2.585,26.93,7.629
		c6.236,5.044,16.166,12.402,19.643,13.673c3.303,1.02,8.635-0.012,5.124-4.456c-3.511-4.445-10.231-12.859-25.639-20.734
		c-15.406-7.876-31.87-19.462-36.681-25.417s-11.402-20.252,0.797-16.346c12.199,3.906,31.288,16.269,31.288,16.269
		s-26.853-22.632-33.269-30.572c-6.416-7.939-12.275-21.425-8.438-25.887c3.837-4.46,13.45-9.157,18.651-3.118
		c5.201,6.04,20.061,21.578,26.391,29.907c6.33,8.328,14.488,17.266,15.78,15.101c1.292-2.164-1.377-9.713-6.236-25.809
		c-4.486-14.86-8.662-20.527-4.948-22.567c3.713-2.04,7.839,0.984,13.866,8.837s10.575,24.746,13.876,32.001
		c3.302,7.254,11.719,29.261,11.719,29.261s5.782-5.233,7.401-11.043c1.93-6.921,3.775-13.822,7.735-8.332
		c5.244,7.286,7.772,14.224,9.325,31.295c1.552,17.071,2.985,24.716,5.5,28.126c2.515,3.409,6.424,5.986,6.822-0.046
		c0.398-6.031,0.961-15.984,2.844-19.273c1.883-3.288,9.329-5.542,13.327,4.664c4,10.206,5.127,27.282,6.781,37.002
		c1.655,9.72,3.715,20.599,5.666,18.944c1.951-1.656,5.42-5.344,5.419-13.501c0.023-8.228,5.125-17.771,8.778-15.008
		c3.939,2.825,16.779,18.019,17.061,43.718c0.282,25.7-2.917,44.046-10.721,50.666C868.986,529.451,867.112,530.713,861.316,531.211
		z"/>
</g>
<g id="Layer_1">
</g>
</svg>
