<?xml version="1.0" encoding="iso-8859-1"?>
<!-- Generator: Adobe Illustrator 19.1.1, SVG Export Plug-In . SVG Version: 6.00 Build 0)  -->
<svg version="1.1" xmlns="http://www.w3.org/2000/svg" xmlns:xlink="http://www.w3.org/1999/xlink" x="0px" y="0px"
	 viewBox="0 0 960 960" style="enable-background:new 0 0 960 960;" xml:space="preserve">
<g id="_x32_0">
	<path id="_x32_0_1_" style="fill:none;" d="M861.316,531.211c-14.751,0.992-60.95-13.064-66.921-17.613
		c-5.972-4.549-13.172-10.996-10.465-14.094c2.707-3.098,15.406-3.236,22.354-1.338c6.949,1.898,16.549-0.949,15.88-3.544
		c-0.67-2.595-12.893-14.204-27.238-19.731c-14.344-5.526-39.041-16.133-42.864-23.082s-5.832-14.734-0.363-13.562
		c5.47,1.172,18.726,6.056,22.438,9.712c3.711,3.656,13.925,7.479,16.911,6.893c2.986-0.586,6.112-5.637-1.59-9.739
		c-7.703-4.103-43.981-21.687-54-28.329c-10.019-6.642-19.814-18.14-13.451-19.228c6.362-1.088,20.819,2.009,27.098,7.033
		c6.279,5.024,17.916,13.648,21.432,14.402c3.516,0.753,8.316-0.669,4.773-5.107c-3.544-4.438-13.939-13.19-28.492-22.603
		c-14.552-9.413-30.126-22.104-34.316-28.526c-4.19-6.422-9.675-21.675,2.084-16.544c11.759,5.131,30.242,19.199,30.242,19.199
		s-24.458-25.28-30.045-33.843c-5.587-8.563-10.309-22.305-6.032-26.361c4.277-4.055,13.353-7.371,17.922-0.824
		c4.569,6.547,18.266,23.663,23.728,32.605c5.462,8.941,13.448,17.874,14.955,15.848c1.507-2.025,0.078-9.711-3.128-26.244
		c-2.96-15.263-7.151-21.686-3.243-23.342c3.907-1.655,7.204,2.372,12.411,10.81c5.207,8.438,8.047,25.343,10.601,32.907
		c2.554,7.564,10.31,27.651,10.31,27.651s5.69-5.274,7.284-11.107c1.899-6.949,3.405-13.981,7.089-8.288
		c4.921,7.606,7.953,14.372,9.599,31.48c1.646,17.107,3.739,24.502,6.279,27.907c2.539,3.405,6.026,6.196,6.502,0.168
		c0.475-6.028,1.005-16.13,2.932-19.395c1.926-3.265,8.456-5.135,12.39,5.108c3.935,10.242,5.022,28.047,6.612,37.787
		c1.591,9.74,4.66,20.205,6.641,18.587c1.982-1.619,5.554-4.94,5.275-13.172c-0.279-8.233,5.192-18.502,8.597-15.321
		c3.404,3.181,16.437,18.642,16.24,44.345c-0.196,25.703-2.876,43.926-10.803,50.401
		C869.018,529.593,867.121,530.821,861.316,531.211z"/>
</g>
<g id="Layer_1">
</g>
</svg>
