<?xml version="1.0" encoding="iso-8859-1"?>
<!-- Generator: Adobe Illustrator 19.1.1, SVG Export Plug-In . SVG Version: 6.00 Build 0)  -->
<svg version="1.1" xmlns="http://www.w3.org/2000/svg" xmlns:xlink="http://www.w3.org/1999/xlink" x="0px" y="0px"
	 viewBox="0 0 960 960" style="enable-background:new 0 0 960 960;" xml:space="preserve">
<g id="_x31_2">
	<path id="_x31_2_1_" style="fill:none;" d="M861.721,530.929c-14.744,1.043-55.219-14.289-61.205-18.816
		c-5.986-4.527-15.128-9.987-12.432-13.093c2.696-3.107,12.75-4.729,19.703-2.856c6.954,1.873,19.423,0.675,18.744-1.918
		c-0.679-2.592-15.928-13.688-30.18-19.415c-14.251-5.728-36.095-16.497-39.814-23.494c-3.719-6.997-3.695-14.88,1.752-13.63
		c5.448,1.25,15.225,5.492,18.881,9.198c3.655,3.706,12.604,8.393,15.596,7.851c2.992-0.542,3.446-6.775-3.912-11.386
		c-7.359-4.61-38.8-23.98-48.281-31.273c-9.481-7.292-17.497-20.866-11.105-21.502c6.391-0.636,20.34,4.897,26.222,10.322
		c5.881,5.425,11.817,10.79,15.173,13.321c2.823,1.763,9.336,1.798,6.129-2.854c-3.208-4.653-9.352-13.464-24.18-22.303
		c-14.827-8.838-29.898-22.619-34.303-28.859c-4.404-6.24-9.183-20.309,2.708-15.63c11.891,4.679,28.671,18.812,28.671,18.812
		s-25.266-24.271-31.139-32.59c-5.873-8.319-10.391-22.794-6.282-26.987c4.109-4.192,15.893-9.311,20.679-2.961
		c4.786,6.35,17.575,22.657,23.338,31.359c5.762,8.701,11.952,19.987,13.379,17.916c1.426-2.071-1.725-9.852-5.52-26.191
		c-3.503-15.084-5.951-20.44-2.122-22.23c3.828-1.79,8.621,0.123,14.112,8.332c5.491,8.209,8.981,26.13,11.798,33.567
		c2.818,7.436,8.475,29.981,8.475,29.981s6.257-4.847,8.246-10.526c2.37-6.765,5.294-13.319,9.525-8.046
		c5.508,6.892,6.631,14.351,7.07,31.447c0.439,17.095,0.109,25.376,2.392,28.933c2.283,3.557,6.919,5.877,7.48-0.139
		c0.562-6.015,1.735-15.639,3.706-18.873c1.971-3.234,11.417-5.935,15.003,4.413c3.586,10.348,3.84,25.985,5.104,35.754
		c1.264,9.769,0.675,21.678,2.65,20.053c1.975-1.626,5.413-5.887,6.428-13.908c1.09-8.239,5.983-15.987,9.982-13.906
		c4.879,2.271,16.498,17.621,16.391,43.318c-0.107,25.698-5.364,44.166-13.266,50.666
		C869.416,529.285,867.524,530.519,861.721,530.929z"/>
</g>
<g id="Layer_1">
</g>
</svg>
