<?xml version="1.0" encoding="iso-8859-1"?>
<!-- Generator: Adobe Illustrator 19.1.1, SVG Export Plug-In . SVG Version: 6.00 Build 0)  -->
<svg version="1.1" xmlns="http://www.w3.org/2000/svg" xmlns:xlink="http://www.w3.org/1999/xlink" x="0px" y="0px"
	 viewBox="0 0 960 960" style="enable-background:new 0 0 960 960;" xml:space="preserve">
<g id="_x35_">
	<path id="_x35__1_" style="fill:none;" d="M861.316,531.211c-14.73,1.259-61.174-11.955-67.227-16.395
		c-6.053-4.44-13.369-10.754-10.718-13.901c2.65-3.146,15.344-3.515,22.325-1.743c6.982,1.771,16.528-1.249,15.812-3.832
		c-0.717-2.582-13.148-13.968-27.59-19.233c-14.441-5.265-38.251-15.421-42.199-22.299c-3.948-6.878-6.098-14.626-0.608-13.553
		c5.49,1.073,18.832,5.715,22.609,9.303c3.777,3.588,12.983,7.226,15.957,6.585c2.975-0.64,6.008-5.746-1.766-9.708
		c-7.776-3.962-43.156-20.615-53.293-27.075c-10.137-6.459-20.139-17.777-13.797-18.98c6.341-1.204,20.851,1.632,27.22,6.54
		c6.369,4.909,16.95,13.051,20.479,13.741c3.53,0.689,8.303-0.82,4.679-5.192c-3.624-4.373-11.64-12.754-26.987-20.766
		c-15.346-8.012-32.013-19.189-36.775-25.187s-11.633-20.659,0.538-16.647c12.17,4.013,31.858,16.289,31.858,16.289
		s-26.67-22.874-33.021-30.872c-6.351-7.998-12.321-21.227-8.444-25.658c3.877-4.429,12.596-8.569,17.748-2.482
		c5.151,6.087,20.362,21.84,26.623,30.227c6.261,8.386,15.033,16.529,16.344,14.375c1.311-2.154-0.823-9.666-5.546-25.811
		c-4.36-14.905-9.123-20.904-5.39-22.914c3.732-2.008,7.384,1.691,13.346,9.6c5.962,7.909,10.355,24.457,13.595,31.744
		c3.241,7.286,12.392,28.535,12.392,28.535s5.594-5.376,7.081-11.237c1.772-6.982,3.957-13.502,7.744-7.877
		c5.058,7.515,7.405,13.688,9.361,30.762c1.956,17.073,4.183,24.429,6.784,27.787c2.601,3.358,6.138,6.085,6.503,0.05
		c0.366-6.035,0.847-15.338,2.714-18.637c1.867-3.299,8.899-5.825,13.018,4.344c4.12,10.168,4.858,27.681,6.625,37.39
		c1.768,9.709,5.025,20.116,6.977,18.462c1.952-1.655,5.463-5.039,5.035-13.265c-0.428-8.226,4.855-18.592,8.317-15.474
		s16.771,18.341,17.042,44.041c0.27,25.702-2.079,43.97-9.886,50.586C868.987,529.454,867.113,530.716,861.316,531.211z"/>
</g>
<g id="Layer_1">
</g>
</svg>
