<?xml version="1.0" encoding="iso-8859-1"?>
<!-- Generator: Adobe Illustrator 19.1.1, SVG Export Plug-In . SVG Version: 6.00 Build 0)  -->
<svg version="1.1" xmlns="http://www.w3.org/2000/svg" xmlns:xlink="http://www.w3.org/1999/xlink" x="0px" y="0px"
	 viewBox="0 0 960 960" style="enable-background:new 0 0 960 960;" xml:space="preserve">
<g id="_x31_6">
	<path id="_x31_6_1_" style="fill:none;" d="M861.316,531.211c-14.734,1.207-61.13-12.172-67.167-16.633
		c-6.037-4.461-13.33-10.802-10.669-13.938c2.661-3.137,15.356-3.46,22.331-1.664c6.975,1.796,16.532-1.19,15.825-3.776
		c-0.708-2.585-13.098-14.014-27.521-19.33c-14.422-5.316-39.27-15.56-43.194-22.453c-3.924-6.892-6.046-14.647-0.56-13.555
		c5.486,1.092,18.811,5.782,22.576,9.383c3.764,3.602,14.032,7.275,17.009,6.646c2.977-0.629,6.029-5.725-1.732-9.714
		c-7.761-3.99-44.29-21.041-54.404-27.536c-10.114-6.494-20.075-17.848-13.729-19.029c6.345-1.181,20.844,1.706,27.196,6.637
		c6.351,4.932,18.112,13.384,21.639,14.087c3.527,0.702,8.305-0.791,4.697-5.176c-3.608-4.386-12.09-12.839-27.281-21.125
		c-15.19-8.286-31.643-19.759-36.294-25.841c-4.65-6.082-11.25-20.858,0.84-16.627c12.09,4.232,31.542,16.859,31.542,16.859
		s-26.237-23.345-32.438-31.453c-6.201-8.109-11.927-21.438-7.972-25.795c3.955-4.356,12.744-8.335,17.782-2.158
		c5.037,6.177,19.951,22.197,26.056,30.692c6.105,8.495,14.722,16.793,16.072,14.663c1.349-2.129-0.646-9.674-5.073-25.896
		c-4.086-14.975-8.737-21.057-4.97-22.997c3.766-1.939,7.349,1.824,13.163,9.837c5.814,8.012,9.903,24.631,13.009,31.972
		c3.107,7.341,11.984,28.362,11.984,28.362s5.613-5.356,7.121-11.212c1.797-6.975,3.201-14.028,6.967-8.39
		c5.031,7.533,8.161,14.254,10.057,31.335c1.895,17.08,4.096,24.443,6.685,27.811c2.589,3.367,6.116,6.107,6.503,0.073
		c0.387-6.034,0.77-16.142,2.648-19.434c1.878-3.293,8.38-5.257,12.463,4.926c4.083,10.183,5.431,27.969,7.163,37.684
		c1.733,9.715,4.954,20.134,6.911,18.487c1.958-1.648,5.481-5.02,5.082-13.247c-0.399-8.227,4.921-18.575,8.372-15.444
		c3.45,3.131,16.706,18.4,16.885,44.101c0.179,25.702-2.235,43.961-10.065,50.55C868.993,529.481,867.114,530.736,861.316,531.211z"
		/>
</g>
<g id="Layer_1">
</g>
</svg>
