<?xml version="1.0" encoding="iso-8859-1"?>
<!-- Generator: Adobe Illustrator 19.1.1, SVG Export Plug-In . SVG Version: 6.00 Build 0)  -->
<svg version="1.1" xmlns="http://www.w3.org/2000/svg" xmlns:xlink="http://www.w3.org/1999/xlink" x="0px" y="0px"
	 viewBox="0 0 960 960" style="enable-background:new 0 0 960 960;" xml:space="preserve">
<g id="_x38_">
	<path id="_x38__1_" style="fill:none;" d="M861.316,531.211c-14.746,1.016-54.718-14.521-60.696-19.06
		c-5.978-4.538-15.266-9.932-12.565-13.033c2.701-3.102,12.537-4.82,19.488-2.934c6.95,1.886,19.663,0.844,18.989-1.75
		c-0.674-2.593-16.149-13.673-30.381-19.447c-14.232-5.775-35.818-16.611-39.514-23.621c-3.696-7.01-3.487-14.905,1.956-13.637
		c5.444,1.268,14.923,5.486,18.566,9.204c3.643,3.718,12.479,8.499,15.473,7.966c2.993-0.532,3.238-6.857-4.083-11.525
		c-7.322-4.669-38.327-24.265-47.748-31.633c-9.422-7.367-17.267-21.134-10.87-21.719c6.396-0.585,20.297,5.181,26.135,10.653
		c5.838,5.472,11.284,10.593,14.625,13.278c2.764,1.854,9.422,2.02,6.252-2.658c-3.17-4.678-9.244-13.538-24.002-22.495
		c-14.756-8.956-29.657-23.006-34.011-29.281c-4.354-6.275-8.911-20.316,2.942-15.543c11.853,4.773,28.35,19.123,28.35,19.123
		s-25.072-24.472-30.878-32.838c-5.806-8.366-10.161-22.962-6.018-27.122c4.142-4.159,16.192-9.329,20.928-2.942
		c4.736,6.387,17.271,22.789,22.963,31.536c5.693,8.746,11.642,20.321,13.085,18.261c1.443-2.059-1.768-9.869-5.432-26.238
		c-3.383-15.112-5.619-20.429-1.776-22.189c3.842-1.759,8.717,0.017,14.142,8.27c5.425,8.252,8.786,26.3,11.543,33.759
		c2.758,7.458,8.078,30.069,8.078,30.069s6.315-4.8,8.349-10.462c2.424-6.746,5.481-13.257,9.744-8.011
		c5.54,6.844,6.492,14.366,6.794,31.465c0.303,17.098-0.243,25.457,2.011,29.032c2.255,3.575,6.979,5.864,7.561-0.15
		c0.582-6.013,1.83-15.597,3.812-18.824c1.982-3.228,11.673-5.983,15.208,4.383c3.535,10.365,3.683,25.826,4.899,35.601
		c1.217,9.775,0.302,21.81,2.28,20.189c1.979-1.622,5.412-5.954,6.552-13.957c1.22-8.24,6.088-15.769,10.129-13.772
		c4.995,2.203,16.463,17.572,16.309,43.269c-0.155,25.698-5.664,44.181-13.577,50.667
		C869.014,529.581,867.119,530.811,861.316,531.211z"/>
</g>
<g id="Layer_1">
</g>
</svg>
