<?xml version="1.0" encoding="iso-8859-1"?>
<!-- Generator: Adobe Illustrator 19.1.1, SVG Export Plug-In . SVG Version: 6.00 Build 0)  -->
<svg version="1.1" xmlns="http://www.w3.org/2000/svg" xmlns:xlink="http://www.w3.org/1999/xlink" x="0px" y="0px"
	 viewBox="0 0 960 960" style="enable-background:new 0 0 960 960;" xml:space="preserve">
<g id="_x32_3">
	<path id="_x32_3_1_" style="fill:none;" d="M861.316,531.211c-14.725,1.32-61.225-11.702-67.297-16.117
		c-6.072-4.415-13.414-10.699-10.776-13.857c2.637-3.157,15.329-3.579,22.319-1.836c6.989,1.742,16.523-1.317,15.797-3.897
		c-0.728-2.58-13.206-13.914-27.67-19.119c-14.464-5.205-39.391-15.259-43.368-22.121c-3.977-6.862-6.159-14.602-0.665-13.551
		c5.495,1.05,18.856,5.637,22.649,9.21c3.792,3.573,14.088,7.168,17.061,6.515c2.972-0.652,5.985-5.771-1.807-9.701
		c-7.792-3.93-44.454-20.701-54.617-27.118c-10.164-6.417-20.213-17.694-13.876-18.924c6.336-1.23,20.858,1.546,27.248,6.428
		c6.389,4.883,18.215,13.245,21.747,13.921c3.532,0.675,8.3-0.855,4.658-5.212c-3.642-4.358-11.115-12.654-26.643-20.346
		c-15.527-7.692-32.443-18.523-37.336-24.425c-4.893-5.902-12.08-20.427,0.185-16.67c12.264,3.757,32.227,15.625,32.227,15.625
		s-27.175-22.324-33.7-30.193c-6.525-7.869-12.781-20.981-8.995-25.497c3.786-4.515,12.424-8.843,17.708-2.861
		c5.284,5.982,20.84,21.423,27.284,29.684c6.444,8.259,15.395,16.222,16.661,14.038c1.266-2.183-1.029-9.655-6.098-25.712
		c-4.68-14.824-9.574-20.726-5.881-22.816c3.692-2.089,7.426,1.535,13.56,9.323c6.134,7.788,10.882,24.255,14.279,31.479
		c3.398,7.223,12.867,28.737,12.867,28.737s5.572-5.4,7.035-11.267c1.743-6.989,3.093-14.053,6.902-8.444
		c5.09,7.494,8.271,14.191,10.298,31.258c2.027,17.066,4.284,24.413,6.899,27.76c2.615,3.347,6.164,6.06,6.504,0.023
		c0.341-6.036,0.646-16.148,2.499-19.455c1.853-3.307,8.34-5.322,12.501,4.83c4.162,10.152,5.646,27.927,7.453,37.63
		c1.808,9.702,5.109,20.096,7.054,18.434c1.945-1.663,5.442-5.062,4.98-13.286c-0.462-8.224,4.778-18.613,8.253-15.508
		s16.848,18.271,17.224,43.972c0.377,25.701-1.897,43.979-9.677,50.629C868.98,529.422,867.111,530.691,861.316,531.211z"/>
</g>
<g id="Layer_1">
</g>
</svg>
