<?xml version="1.0" encoding="iso-8859-1"?>
<!-- Generator: Adobe Illustrator 19.1.1, SVG Export Plug-In . SVG Version: 6.00 Build 0)  -->
<svg version="1.1" xmlns="http://www.w3.org/2000/svg" xmlns:xlink="http://www.w3.org/1999/xlink" x="0px" y="0px"
	 viewBox="0 0 960 960" style="enable-background:new 0 0 960 960;" xml:space="preserve">
<g id="_x39_">
	<path id="_x39__1_" style="fill:none;" d="M861.721,530.929c-14.761,0.805-50.863-16.311-56.776-20.934
		c-5.913-4.624-16.333-9.509-13.587-12.572c2.746-3.063,10.902-5.517,17.825-3.532c6.923,1.985,21.513,2.151,20.876-0.452
		c-0.637-2.603-17.851-13.558-31.935-19.699c-14.084-6.141-33.682-17.49-37.198-24.596c-3.516-7.105-1.884-15.096,3.527-13.688
		c5.412,1.408,12.596,5.436,16.144,9.249c3.547,3.812,11.517,9.312,14.524,8.856c3.007-0.455,1.634-7.482-5.402-12.602
		c-7.037-5.12-34.676-26.456-43.647-34.405c-8.971-7.948-15.495-23.201-9.061-23.393c6.433-0.192,19.963,7.364,25.466,13.197
		c5.503,5.832,7.177,9.072,10.404,12.946c2.31,2.555,10.084,3.729,7.201-1.145c-2.884-4.874-8.414-14.11-22.625-23.976
		c-14.209-9.866-27.795-25.988-31.764-32.532c-3.97-6.544-6.816-20.37,4.747-14.867c11.563,5.503,25.878,21.525,25.878,21.525
		s-23.574-26.019-28.867-34.744c-5.293-8.725-8.381-24.255-3.982-28.161c4.399-3.905,18.498-9.474,22.843-2.794
		c4.344,6.68,14.923,23.808,20.08,32.907c5.156,9.098,9.246,22.891,10.817,20.919c1.57-1.971-2.096-10.001-4.755-26.599
		c-2.454-15.323-3.06-20.347,0.893-21.871c3.951-1.523,9.455-0.796,14.374,7.792c4.919,8.588,7.281,27.608,9.581,35.237
		c2.3,7.63,5.014,30.749,5.014,30.749s6.763-4.435,9.146-9.974c2.839-6.598,6.916-12.782,11.434-7.742
		c5.789,6.472,5.414,14.487,4.666,31.608c-0.748,17.121-2.96,26.081-0.924,29.795c2.035,3.714,7.446,5.761,8.182-0.238
		c0.736-5.998,2.562-15.271,4.627-18.447c2.065-3.177,13.646-6.354,16.79,4.146c3.145,10.5,2.467,24.601,3.315,34.423
		c0.848,9.822-2.569,22.83-0.568,21.237c2.002-1.594,5.405-6.467,7.505-14.341c2.228-8.251,6.898-14.084,11.266-12.732
		c5.882,1.681,16.197,17.196,15.675,42.891c-0.522,25.696-7.974,44.294-15.981,50.667
		C869.443,529.409,867.53,530.612,861.721,530.929z"/>
</g>
<g id="Layer_1">
</g>
</svg>
