<?xml version="1.0" encoding="utf-8"?>
<!-- Generator: Adobe Illustrator 19.1.1, SVG Export Plug-In . SVG Version: 6.00 Build 0)  -->
<svg version="1.1" baseProfile="tiny" id="Layer_1" xmlns="http://www.w3.org/2000/svg" xmlns:xlink="http://www.w3.org/1999/xlink"
	 x="0px" y="0px" width="960px" height="960px" viewBox="0 0 960 960" xml:space="preserve">
<path fill="none" d="M504.2,565.6c-2.3-12.4-12.1-24.4-12.1-32.5c0-8,2.3-45.7,2.3-45.7s-4.9-6-7.2-0.3c0,0-1.4,35.4-3.7,43.7
	s-3.7,14.4-7.2,18.4c-0.4,0.5-0.9,1-1.3,1.6c-2.4-8.5-7.2-19.4-9.6-25.4c-3.2-7.8-3.4-43.1-3.4-43.1s-1.4-6.9-9.8-1.7
	c0,0,0.6,29.3-2.3,40.8c-2.9,11.5-7.5,20.7-10.9,27.6s-8.5,36.6-6.9,41.4c1.5,4.5,25.4,4.4,37.8,4c-0.1,4.1-0.2,7.3-0.2,8.5
	c0,4-1.1,16.1-1.1,16.1s35.9,1.1,35.9,0.3S506.5,578,504.2,565.6z"/>
</svg>
