<?xml version="1.0" encoding="utf-8"?>
<!-- Generator: Adobe Illustrator 19.1.1, SVG Export Plug-In . SVG Version: 6.00 Build 0)  -->
<svg version="1.1" baseProfile="tiny" id="Layer_1" xmlns="http://www.w3.org/2000/svg" xmlns:xlink="http://www.w3.org/1999/xlink"
	 x="0px" y="0px" width="960px" height="960px" viewBox="0 0 960 960" xml:space="preserve">
<path fill="none" d="M393.6,327.4c-3.3,1.4-19.1,15.3-19.1,15.3c2.3-2.6,19.9-34.7,19.9-34.7c-12.7,9-22.2,29-22.2,29
	c1.6-4.7,10.7-45.1,10.7-45.1c-7.9,6.9-15,39.5-15,39.5c1-4.5,3.2-39.9,3.2-39.9c-6.7,11.9-11.3,53.7-11.3,53.7
	c-0.2-3.2-3.4-42.3-3.4-40c0.1,2.3-2.5,52.3-2.5,52.3l-4-36.3c-1,7.6-1.2,32.6-1.3,45.9c-0.5,0.6-4.3,4.1-4.3,4.1
	c0.5-5.6,2.2-21.6,2.2-23.1l-2.7,4.2l-4.1,6.1c1.8-9.3,6.2-33.8,6.2-35.4c0,0-9.4,11.4-11.4,19.1c0,0,3-31.1,2-41.8
	c0,0-11.4,18.7-12.1,23.1c0,0,4-44.2,3.7-48.5c0,0-10.8,19.8-11.7,24.9l4.6-45l-10.7,26.1c0,0-1.7-31.8-1-37.5
	c0.7-5.7-1.3-19.4-1.3-19.4s-6.4,14.1-7.7,24.8c-1.3,10.7,0.3,19.8,0.3,19.8s-14.7-39.2-17.1-44.2c-2.3-5-4.7-8.4-4.7-8.4
	s3.7,30.1,5,35.5s8,19.4,8,19.4L264,226.8l26.4,51.2c0,0-23.8-28.5-27.4-32.5c-3.7-4-5.4-2.7-5.4-2.7l34.8,51.2
	c0,0-18.1-18.7-22.4-22.1c-4.4-3.3-9-6.4-9-6.4s22.1,28.5,25.1,32.8c3,4.4,10.7,16.4,10.7,16.4s-22.8-26.1-27.8-30.1
	c0,0,35.1,48.9,40.8,58.6c0,0-22.1-26.4-24.4-28.8c0,0,32.8,51.2,34.5,56.6l-15.1-18.4c0,0,12.7,22.4,16.4,32.5
	c2.9,7.9,18.5,58.1,19.4,59.6c0,0,0.2-6.4,0.8-14.7c7.3-10.3,17-16.6,24.4-22.8c10.4-8.7,16.4-16.7,15.1-16
	c-1.2,0.7-21.3,12.2-21.3,12.2c6-5.4,23-23.2,23-23.2c-7.4,2.1-22,13.2-22,13.2c4.7-3.8,26-29.2,26-29.2c-6.4,0.8-18.8,9.6-18.8,9.6
	c3.1-4.6,21.7-24.5,21.7-27c0-2.6-17.8,11.4-17.8,11.4C375.8,353.4,396.9,326,393.6,327.4z"/>
</svg>
