<?xml version="1.0" encoding="utf-8"?>
<!-- Generator: Adobe Illustrator 19.1.1, SVG Export Plug-In . SVG Version: 6.00 Build 0)  -->
<svg version="1.1" baseProfile="tiny" id="Layer_1" xmlns="http://www.w3.org/2000/svg" xmlns:xlink="http://www.w3.org/1999/xlink"
	 x="0px" y="0px" width="960px" height="960px" viewBox="0 0 960 960" xml:space="preserve">
<path fill="none" d="M385.4,586.4c0,0-4.7,15-11.6,15.1c-4,0.1-8.3,0.4-8.3,0.4s-2.4-9.2-2.5-17.8c-0.1-9.2,3.2-19,4.6-19
	c1.4,0,8.9-1.3,12.1,2.7c3.2,4,6.5,14.3,6.5,14.3l36.2,1.2c0,0-0.2-13.8,1-13.2c1.2,0.6,2.1,9.7,1.6,15.8c-0.5,6-0.4,14.7-1.5,14.4
	c-1.2-0.3-1.9-12.6-1.9-12.6L385.4,586.4z"/>
</svg>
