<?xml version="1.0" encoding="utf-8"?>
<!-- Generator: Adobe Illustrator 19.1.1, SVG Export Plug-In . SVG Version: 6.00 Build 0)  -->
<svg version="1.1" baseProfile="tiny" id="Layer_1" xmlns="http://www.w3.org/2000/svg" xmlns:xlink="http://www.w3.org/1999/xlink"
	 x="0px" y="0px" width="960px" height="960px" viewBox="0 0 960 960" xml:space="preserve">
<path fill="none" d="M861.3,531.2c-14.7,1.4-61.3-11.5-67.4-15.9c-6.1-4.4-13.5-10.7-10.8-13.8s15.3-3.6,22.3-1.9
	c7,1.7,16.5-1.4,15.8-4c-0.7-2.6-13.3-13.9-27.7-19c-14.5-5.2-39.4-15.1-43.5-22s-6.2-14.6-0.7-13.5c5.5,1,18.9,5.6,22.7,9.1
	s14.1,7.1,17.1,6.5c3-0.7,6-5.8-1.8-9.7s-44.5-20.5-54.7-26.9s-20.3-17.6-13.9-18.9c6.3-1.3,20.9,1.5,27.3,6.3
	c6.4,4.9,18.3,13.2,21.8,13.8c3.5,0.7,8.3-0.9,4.6-5.2c-3.7-4.3-10.7-12.6-26.3-20s-32.8-17.9-37.8-23.8c-5-5.8-12.5-20.2-0.1-16.7
	c12.3,3.5,32.6,15,32.6,15s-27.6-21.8-34.3-29.6c-6.7-7.8-13.2-20.8-9.5-25.4c3.7-4.6,12.3-9.1,17.7-3.2
	c5.4,5.9,21.3,21.1,27.9,29.2c6.6,8.1,15.7,16,16.9,13.7c1.2-2.2-1.2-9.6-6.6-25.6c-5-14.8-10-20.6-6.3-22.7
	c3.7-2.2,7.5,1.4,13.7,9.1c6.3,7.7,11.3,24.1,14.9,31.2c3.5,7.2,13.3,28.9,13.3,28.9s5.6-5.4,7-11.3c1.7-7,3-14.1,6.9-8.5
	c5.1,7.5,8.3,14.2,10.4,31.2c2.1,17.1,4.4,24.4,7,27.7s6.2,6,6.5,0c0.3-6,0.6-16.2,2.4-19.5c1.8-3.3,8.3-5.4,12.5,4.8
	c4.2,10.1,5.7,27.9,7.6,37.6c1.8,9.7,5.2,20.1,7.1,18.4s5.4-5.1,4.9-13.3c-0.5-8.2,4.7-18.6,8.2-15.5c3.5,3.1,16.9,18.2,17.4,43.9
	c0.5,25.7-1.7,44-9.5,50.7C869,529.4,867.1,530.7,861.3,531.2z"/>
</svg>
