<?xml version="1.0" encoding="utf-8"?>
<!-- Generator: Adobe Illustrator 19.1.1, SVG Export Plug-In . SVG Version: 6.00 Build 0)  -->
<svg version="1.1" baseProfile="tiny" id="Layer_1" xmlns="http://www.w3.org/2000/svg" xmlns:xlink="http://www.w3.org/1999/xlink"
	 x="0px" y="0px" width="960px" height="960px" viewBox="0 0 960 960" xml:space="preserve">
<path fill="none" d="M468.9,682.1c-1.7-2.9-6.3,1.1-17.8,5.2c-12.5,4.4-18.3,6.3-20.1,5.4c-1.7-0.9,4.3-8.2,10.6-13.4
	c6.3-5.3,18.1-17.8,22.7-22.1c4.6-4.3,1-11-2.7-13.8c-3.6-2.9-13.8,2.4-19.8,7.7s-22.9,27.2-22.9,27.2s8.9-16,11.5-25.7
	s-8.6-3.7-13.1,0.2c-4.5,4-12.6,17.5-18.3,29.9c-5.7,12.4-12.1,17.9-15.5,20.8s-4.6-0.8-4.1-3.6s6.9-12.2,10.7-17.2
	c3.8-5.1,5.8-16.5,4.7-21.5s-9.8,3.1-14.7,11.1c-4.9,8.1-17.7,37-20.7,43.2c-3,6.2-7,3.9-7.6,1.5s2.2-10.4,4.9-13.5
	c2.8-3,6.2-13.6,7-17.9s-5.3-2.5-10.6,0.7c-5.3,3.2-12.9,22.9-16.9,34.3c-3.9,11.4-12.7,21.3-14.7,21.9c-2,0.6-4.5-6.8-3.2-12.4
	s0.8-15.5-1.7-17.5c-2.5-2-11.3,9.5-11.6,10.2c-9.3-13.2-20.5-19-23.8-20.3c-4.3-1.7-5.5,9.9-2.2,17.4c3.3,7.5,1.3,11.9,0.1,14.1
	c-1.2,2.2-8-6.3-13.1-14.7c-5.1-8.4-12.8-24.4-20.3-32.4s-12.8-3.8-13.4-0.1c-0.6,3.7,2.7,13.3,4.6,19c1.8,5.7-2.4,4.5-6.1,2.3
	c-3.6-2.2-8.3-8.2-16.3-23.4c-7.9-15.2-13.3-20.3-20.7-25.5c-5.5-3.9-4.3,3.2-3.4,10.3c0.7,6-2.6,13-2.6,13s-16.7-16.9-22.5-22.3
	c-5.8-5.4-16.3-19-24.8-23.9c-8.6-5-13.4-6.9-16-3.6c-2.7,3.3,4.1,7,13.9,19c10.6,13,15.5,19.1,15.1,21.6
	c-0.4,2.5-11.6-1.6-20.6-6.9c-9-5.3-29.1-13.9-36.2-17.5c-7.1-3.6-13.5,3.6-15.4,9.2c-1.8,5.6,8.8,15.4,17.7,20.3
	c9,4.9,42.4,15.6,42.4,15.6s-22.9-3.6-35.6-2.6c-12.8,1-0.7,11.9,6,15.5s26.4,7.5,43.6,8.9c17.2,1.4,26.6,6.6,31.6,9.4
	s1,5.9-2.5,6.5c-3.5,0.6-17.5-3-25.2-5.3c-7.7-2.3-22.2,0.3-27.7,3.7c-5.5,3.4,7.9,10.3,19.6,12.7c11.7,2.4,51.8,5,60.5,5.9
	s7.7,6.7,5.1,8.4c-2.5,1.7-13.4,2-18.2,0c-4.8-2-18.9-1.5-24.4-0.5c-5.5,1-0.7,7.4,5.4,12.4c6.1,5,32.9,5.5,48.2,5.2s31,5.9,32.5,8
	c1.6,2.1-6.2,8.4-13.3,9.2c-7.1,0.9-18.8,5.7-20.1,9.6s7.7,7.1,14.9,9.1c7.2,2,55.1-2.4,68.4-8.8c4.1-2,5.8-3.6,8.7-8.6
	c6.1,0.6,13.3,0.8,21.5,0.5c20.2-0.6,31.9-11.3,34.3-14c2.4-2.8-5.8-6.8-12.3-6.3c-6.5,0.5-9.2-2.2-10.5-3.8
	c-1.3-1.5,6.8-4.2,14.4-5.7s21.5-2.9,29.5-6.3c7.9-3.4,6.3-8.5,3.6-9.9s-10.6-1.5-15.3-1.7c-4.7-0.2-2.7-3-0.1-5.1
	c2.6-2.1,8.3-3.9,21.7-5.7c13.4-1.8,18.6-4.4,24.4-8.4c4.4-3.1-1.2-4-6.7-5.3c-4.6-1.1-8.9-5.4-8.9-5.4s17-7.8,22.6-10.7
	c5.6-2.8,18.4-7,24.4-12C467.8,688,470.6,684.9,468.9,682.1z"/>
</svg>
