<?xml version="1.0" encoding="utf-8"?>
<!-- Generator: Adobe Illustrator 19.1.0, SVG Export Plug-In . SVG Version: 6.00 Build 0)  -->
<!DOCTYPE svg PUBLIC "-//W3C//DTD SVG 1.1//EN" "http://www.w3.org/Graphics/SVG/1.1/DTD/svg11.dtd">
<svg version="1.1" id="Layer_1" xmlns="http://www.w3.org/2000/svg" xmlns:xlink="http://www.w3.org/1999/xlink" x="0px" y="0px"
	 viewBox="0 0 250 250" enable-background="new 0 0 250 250" xml:space="preserve">
	<path fill-rule="evenodd" clip-rule="evenodd" fill="#BCD8E6" d="M115.3,187.4h19.4c1.2,0,2.1-1,2.1-2.1l0,0c0-1.2-1-2.1-2.1-2.1
		h-19.4c-1.2,0-2.1,1-2.1,2.1l0,0C113.2,186.4,114.1,187.4,115.3,187.4z"/>
	<path fill-rule="evenodd" clip-rule="evenodd" fill="#BCD8E6" d="M129.1,184.3c-1.1-1.8-2.6-2.9-2.6-9.2v-32.3
		c0-6.7,2.1-10,4.4-12.7h-11.7c2.3,2.7,4.4,6,4.4,12.7v32.3c0,6.3-1.5,7.4-2.6,9.2C122.5,186.7,127.2,185.9,129.1,184.3z"/>
	<path fill-rule="evenodd" clip-rule="evenodd" fill="#9ABACA" d="M119.4,130.4c2.2,2.6,4.2,6,4.2,12.5v32.3c0,4.9-0.9,6.7-1.9,8.1
		c3.2,0.4,3-8.1,3-10.7v-32.3c0-3,0-8.4-1.1-10.1C122.7,128.7,120.7,130.9,119.4,130.4z"/>
	<path fill-rule="evenodd" clip-rule="evenodd" fill="#9ABACA" d="M114.4,187.4h21.2c0.7,0,1.2-1,1.2-2.1h-23.7
		C113.2,186.4,113.7,187.4,114.4,187.4z"/>
	<path fill-rule="evenodd" clip-rule="evenodd" fill="#9ABACA" d="M134.9,63.5h-19.8c-1,6.6-6.4,28.4-3.6,47.3
		c2.1,14.1,7.7,22.2,13.5,22.2c5.8,0,11.4-8.1,13.5-22.2C141.3,91.9,136,70.1,134.9,63.5z"/>
	<path fill-rule="evenodd" clip-rule="evenodd" fill="#BCD8E6" d="M118.8,63.5h-1.7c-0.8,6.3-5,27.3-2.8,45.5
		c0.9,7.3,2.6,12.9,4.6,16.5c-1-3.6-1.8-8.2-2.3-13.7C114.9,92.5,118.2,70.3,118.8,63.5z"/>
	<path fill-rule="evenodd" clip-rule="evenodd" fill="#F1CF65" d="M111.5,86.3c-0.8,7.7-1.1,16.4,0.1,24.5
		c2.1,14.1,7.7,22.2,13.5,22.2c5.8,0,11.4-8.1,13.5-22.2c1.2-8.1,0.9-16.7,0.1-24.5H111.5z"/>
	<path fill-rule="evenodd" clip-rule="evenodd" fill="#BCD8E6" d="M134.9,63.5h-12.5c-0.7,6.6-4.4,28.4-2.5,47.3
		c1.2,12,4.2,19.7,7.6,21.7c4.8-2,9.2-9.6,10.9-21.7c0.6-3.8,0.8-7.8,0.8-11.7C139.3,83.7,135.7,68.8,134.9,63.5z"/>
	<path fill-rule="evenodd" clip-rule="evenodd" fill="#E1F2FB" d="M132.9,63.5h-1.7c0.6,6.7,4,29,2.2,48.3
		c-0.5,5.5-1.3,10.1-2.3,13.7c2.1-3.6,3.7-9.2,4.6-16.5C137.9,90.8,133.7,69.9,132.9,63.5z"/>
	<path fill-rule="evenodd" clip-rule="evenodd" fill="#FCE67D" d="M119.9,86.3c-0.6,7.7-0.8,16.4,0.1,24.5c1.2,12,4.2,19.7,7.6,21.7
		c4.8-2,9.2-9.6,10.9-21.7c0.6-3.8,0.8-7.8,0.8-11.7c0-4.4-0.3-8.7-0.7-12.7H119.9z"/>
	<path fill-rule="evenodd" clip-rule="evenodd" fill="#FCE67D" d="M114.2,86.3c-0.6,7.2-0.8,15.2,0.1,22.7
		c0.9,7.3,2.6,12.9,4.6,16.5c-1-3.6-1.8-8.2-2.3-13.7c-0.8-8.5-0.5-17.5,0-25.5H114.2z"/>
	<path fill-rule="evenodd" clip-rule="evenodd" fill="#FFF6CF" d="M133.4,86.3c0.5,8,0.7,17.1,0,25.5c-0.5,5.5-1.3,10.1-2.3,13.7
		c2.1-3.6,3.7-9.2,4.6-16.5c0.9-7.5,0.7-15.5,0.1-22.7H133.4z"/>
</svg>
