<?xml version="1.0" encoding="utf-8"?>
<!-- Generator: Adobe Illustrator 19.1.0, SVG Export Plug-In . SVG Version: 6.00 Build 0)  -->
<!DOCTYPE svg PUBLIC "-//W3C//DTD SVG 1.1//EN" "http://www.w3.org/Graphics/SVG/1.1/DTD/svg11.dtd">
<svg version="1.1" id="Layer_1" xmlns="http://www.w3.org/2000/svg" xmlns:xlink="http://www.w3.org/1999/xlink" x="0px" y="0px"
	 viewBox="0 0 250 250" enable-background="new 0 0 250 250" xml:space="preserve">
	<path fill-rule="evenodd" clip-rule="evenodd" fill="#BCD8E6" d="M106,174.3h37c1,0,1.8-0.8,1.8-1.8v0c0-1-0.8-1.8-1.8-1.8h-37
		c-1,0-1.8,0.8-1.8,1.8v0C104.2,173.5,105,174.3,106,174.3z"/>
	<path fill-rule="evenodd" clip-rule="evenodd" fill="#BCD8E6" d="M130.2,171.1c-1.5-2.2-3.7-3.7-3.7-11.6v-11.8
		c0-8.5,3-12.6,6.2-16h-16.6c3.2,3.4,6.2,7.5,6.2,16v11.8c0,7.9-2.2,9.3-3.7,11.6C120.9,174.1,127.6,173.1,130.2,171.1z"/>
	<path fill-rule="evenodd" clip-rule="evenodd" fill="#9ABACA" d="M116.5,132c3.1,3.3,5.9,7.5,5.9,15.7v11.8c0,6.2-1.3,8.4-2.6,10.2
		c4.6,0.5,4.3-10.2,4.3-13.5v-11.8c0-3.8,0-10.6-1.6-12.7C121.1,130,118.4,132.7,116.5,132z"/>
	<path fill-rule="evenodd" clip-rule="evenodd" fill="#9ABACA" d="M106.3,174.3h36.3c1.2,0,2.1-0.8,2.1-1.8h-40.5
		C104.2,173.5,105.2,174.3,106.3,174.3z"/>
	<path fill-rule="evenodd" clip-rule="evenodd" fill="#9ABACA" d="M142.9,77.9h-36.8c-1.9,5.2-11.8,22.5-6.6,37.5
		c3.9,11.2,14.3,17.6,25.1,17.6c10.8,0,21.2-6.4,25.1-17.6C154.7,100.4,144.8,83.1,142.9,77.9z"/>
	<path fill-rule="evenodd" clip-rule="evenodd" fill="#BCD8E6" d="M113,77.9h-3.2c-1.5,5-9.4,21.6-5.3,36.1
		c1.6,5.8,4.7,10.2,8.6,13.1c-1.9-2.8-3.4-6.5-4.3-10.9C105.7,100.9,111.8,83.2,113,77.9z"/>
	<path fill-rule="evenodd" clip-rule="evenodd" fill="#BCD8E6" d="M99.3,96c-1.5,6.1-2.1,13,0.1,19.4c3.9,11.2,14.3,17.6,25.1,17.6
		s21.2-6.4,25.1-17.6c2.2-6.4,1.7-13.3,0.1-19.4H99.3z"/>
	<path fill-rule="evenodd" clip-rule="evenodd" fill="#BCD8E6" d="M142.9,77.9h-23.1c-1.3,5.2-8.2,22.5-4.6,37.5
		c2.3,9.5,7.9,15.6,14.1,17.2c9-1.6,17-7.6,20.3-17.2c1-3,1.5-6.2,1.5-9.3C151,93.8,144.4,82,142.9,77.9z"/>
	<path fill-rule="evenodd" clip-rule="evenodd" fill="#E1F2FB" d="M139.1,77.9H136c1.2,5.3,7.4,23,4.1,38.3c-0.9,4.4-2.4,8-4.3,10.9
		c3.8-2.9,7-7.3,8.6-13.1C148.5,99.5,140.6,82.9,139.1,77.9z"/>
	<path fill-rule="evenodd" clip-rule="evenodd" fill="#E9F2F7" d="M115,96c-1,6.1-1.4,13,0.1,19.4c2.2,9.5,7.5,15.6,13.5,17.2
		c8.6-1.6,16.3-7.6,19.4-17.2c1-3,1.4-6.2,1.4-9.3c0-3.5-0.5-6.9-1.3-10.1H115z"/>
	<path fill-rule="evenodd" clip-rule="evenodd" fill="#F5FBFE" d="M104.3,96c-1.1,5.7-1.4,12.1,0.2,18c1.6,5.8,4.7,10.2,8.6,13.1
		c-1.9-2.8-3.4-6.5-4.3-10.9c-1.4-6.7-1-13.9,0-20.2H104.3z"/>
	<path fill-rule="evenodd" clip-rule="evenodd" fill="#FFFFFF" d="M140.1,96c1,6.4,1.4,13.5,0,20.2c-0.9,4.4-2.4,8-4.3,10.9
		c3.8-2.9,7-7.3,8.6-13.1c1.7-6,1.3-12.3,0.2-18H140.1z"/>
</svg>
