<?xml version="1.0" encoding="utf-8"?>
<!-- Generator: Adobe Illustrator 19.1.0, SVG Export Plug-In . SVG Version: 6.00 Build 0)  -->
<!DOCTYPE svg PUBLIC "-//W3C//DTD SVG 1.1//EN" "http://www.w3.org/Graphics/SVG/1.1/DTD/svg11.dtd">
<svg version="1.1" id="Layer_1" xmlns="http://www.w3.org/2000/svg" xmlns:xlink="http://www.w3.org/1999/xlink" x="0px" y="0px"
	 viewBox="0 0 250 250" enable-background="new 0 0 250 250" xml:space="preserve">
	<polygon fill-rule="evenodd" clip-rule="evenodd" fill="#9ABACA" points="104.3,109.4 134.2,109.4 128.3,141.9 110.3,141.9 	"/>
	<polygon fill-rule="evenodd" clip-rule="evenodd" fill="#D0A32B" points="132.9,116.7 130.2,131.8 108.4,131.8 105.6,116.7 	"/>
	<polygon fill-rule="evenodd" clip-rule="evenodd" fill="#BCD8E6" points="113.2,109.4 134.2,109.4 128.3,141.9 117.4,141.9 	"/>
	<path fill-rule="evenodd" clip-rule="evenodd" fill="#E1F2FB" d="M128,109.4h3.2l-6.2,31c-0.1,0.7-1.3,0.7-1.2,0L128,109.4z"/>
	<path fill-rule="evenodd" clip-rule="evenodd" fill="#BCD8E6" d="M107.3,109.4h3.2l4.5,31c0.1,0.7-1.1,0.7-1.2,0L107.3,109.4z"/>
	<polygon fill-rule="evenodd" clip-rule="evenodd" fill="#FACD4D" points="111.6,116.7 113.7,131.8 111.9,131.8 108.8,116.7 	"/>
	<polygon fill-rule="evenodd" clip-rule="evenodd" fill="#FACD4D" points="132.9,116.7 130.2,131.8 116.1,131.8 114.1,116.7 	"/>
	<polygon fill-rule="evenodd" clip-rule="evenodd" fill="#FEEAAF" points="129.8,116.7 126.8,131.8 125,131.8 127,116.7 	"/>
		<path fill-rule="evenodd" clip-rule="evenodd" fill="#D0A32B" d="M126.9,130.7c-0.9-5.8,2.1-11.4,7.1-13.9l12,23.7
			c-1.2,0.6-2.5,1.1-4,1.3C134.8,142.9,128,137.9,126.9,130.7z"/>
			<path fill-rule="evenodd" clip-rule="evenodd" fill="#FACD4D" d="M140,128.6l-8.3,7.7c-1.5-1.7-2.6-3.7-2.9-6L140,128.6z"/>
			<path fill-rule="evenodd" clip-rule="evenodd" fill="#FACD4D" d="M140,128.6l-11.3,0.6c-0.1-2.3,0.4-4.5,1.6-6.4L140,128.6z"/>
			<path fill-rule="evenodd" clip-rule="evenodd" fill="#FACD4D" d="M140,128.6l-9-6.8c1-1.4,2.4-2.5,3.9-3.3L140,128.6z"/>
			<path fill-rule="evenodd" clip-rule="evenodd" fill="#FACD4D" d="M145.1,138.7c-1.6,0.8-3.5,1.3-5.3,1.2l0.2-11.3L145.1,138.7z"
				/>
			<path fill-rule="evenodd" clip-rule="evenodd" fill="#FACD4D" d="M140,128.6l-1.4,11.2c-2.2-0.3-4.4-1.2-6.1-2.7L140,128.6z"/>
</svg>
