<?xml version="1.0" encoding="iso-8859-1"?>
<!-- Generator: Adobe Illustrator 19.1.1, SVG Export Plug-In . SVG Version: 6.00 Build 0)  -->
<svg version="1.1" xmlns="http://www.w3.org/2000/svg" xmlns:xlink="http://www.w3.org/1999/xlink" x="0px" y="0px"
	 viewBox="0 0 960 960" style="enable-background:new 0 0 960 960;" xml:space="preserve">
<g id="_x37_">
	<path style="fill:none;stroke:none;stroke-miterlimit:10;" d="M472.761,684.204c-1.687-2.88-7.353,1.344-19.002,5.167
		c-12.618,4.142-19.775,5.805-21.511,4.832c-1.736-0.973,5.069-7.524,11.52-12.668c6.452-5.144,18.363-17.784,23.03-21.995
		c4.666-4.211-0.018-10.769-3.621-13.698c-3.601-2.929-13.884,2.115-20.025,7.318c-6.143,5.204-23.479,26.773-23.479,26.773
		s9.16-15.799,11.999-25.471c2.838-9.672-8.55-3.883-13.157,0.019c-4.607,3.903-12.98,17.299-18.89,29.573
		c-5.911,12.274-12.422,17.725-15.862,20.576c-3.44,2.85-4.639-0.894-4.101-3.665s7.261-11.768,11.118-16.773
		c3.858-5.005,5.956-16.662,4.997-21.637c-0.96-4.975-10.277,3.253-15.351,11.216c-5.074,7.964-17.376,35.726-20.486,41.833
		c-3.11,6.108-7.432,4.234-7.942,1.901c-0.51-2.334,2.485-10.657,5.307-13.626c2.822-2.969,6.442-13.187,7.278-17.497
		c0.836-4.31-5.664-2.506-11.079,0.602c-5.416,3.107-13.378,22.65-17.503,33.99c-4.124,11.34-11.517,20.741-13.533,21.342
		c-2.017,0.601-5.177-6.718-3.89-12.224c1.287-5.506,0.421-15.204-2.088-17.238s-11.302,9.542-11.621,10.24
		c-9.308-13.228-18.782-18.998-22.09-20.265c-4.336-1.66-7.09,9.873-3.744,17.369c3.346,7.496,1.164,11.902-0.058,14.139
		c-1.222,2.238-7.593-6.531-12.715-14.926c-5.122-8.395-12.676-24.165-20.15-32.145c-7.475-7.979-13.32-3.803-13.874-0.066
		c-0.553,3.736,3.266,13.262,5.089,19.005s-2.703,4.086-6.325,1.895c-3.621-2.19-8.069-7.844-16.006-23.019
		c-7.937-15.176-12.886-20.544-20.282-25.72c-5.537-3.874-5.327,2.925-4.472,10.052c0.717,5.983-1.651,13.245-1.651,13.245
		s-14.745-15.751-20.155-21.458c-5.41-5.706-15.759-19.448-23.886-24.818c-8.127-5.371-13.139-7.42-15.915-4.288
		c-2.776,3.132,3.197,7.296,12.17,19.734c9.72,13.472,14.598,19.628,14.154,22.096c-0.443,2.469-10.763-1.787-19.374-7.445
		c-8.612-5.657-27.965-15.097-34.774-18.995c-6.81-3.898-13.439,2.959-15.51,8.42c-2.071,5.461,7.914,15.729,16.477,20.994
		c8.561,5.265,40.717,17.313,40.717,17.313s-22.461-4.858-35.049-4.217c-12.588,0.641-1.133,12.944,5.356,16.801
		c6.489,3.858,25.851,7.344,42.764,9.276c16.914,1.931,26.22,6.446,31.157,9.212c4.936,2.767,1.687,6.789-1.842,7.413
		c-3.529,0.623-16.859-4.788-24.541-7.07c-7.681-2.282-21.8,0.281-27.266,3.673c-5.465,3.391,7.761,10.332,19.502,12.705
		c11.74,2.374,50.403,6.163,59.052,7.061c8.65,0.898,8.307,6.734,5.77,8.395c-2.536,1.661-13.53,1.833-18.328-0.15
		c-4.798-1.983-18.868-2.167-24.358-1.197c-5.489,0.97-0.583,7.663,5.553,12.644c6.136,4.981,32.397,5.248,47.712,4.968
		c15.315-0.279,31.214,6.242,32.806,8.387c1.592,2.145-6.592,8.763-13.719,9.618c-7.127,0.855-18.279,5.617-19.617,9.492
		c-1.337,3.875,7.21,7.256,14.43,9.215s55.142-2.397,68.388-8.846c4.122-2.007,5.797-3.596,8.732-8.592
		c6.071,0.632,13.305,0.759,21.52,0.518c20.169-0.593,32.567-11.395,34.964-14.158c2.397-2.764-5.783-6.886-12.261-6.429
		c-6.479,0.458-9.071-2.118-10.403-3.625c-1.334-1.508,6.068-3.596,13.717-4.997c7.651-1.4,21.138-2.437,29.146-5.684
		s6.56-8.333,3.956-9.793c-2.605-1.459-10.315-1.7-15.073-1.978c-4.757-0.279-2.614-3.059,0.028-5.104
		c2.642-2.046,7.79-3.846,21.245-5.405c13.455-1.559,18.739-4.043,24.654-8.023c4.427-2.98-1.139-4.052-6.645-5.432
		c-4.622-1.158-8.336-5.765-8.336-5.765s18.614-7.585,24.279-10.326c5.665-2.74,19.515-6.575,25.598-11.47
		C471.472,690.433,474.448,687.084,472.761,684.204z"/>
</g>
<g id="Layer_1">
</g>
</svg>
