<?xml version="1.0" encoding="iso-8859-1"?>
<!-- Generator: Adobe Illustrator 19.1.1, SVG Export Plug-In . SVG Version: 6.00 Build 0)  -->
<svg version="1.1" xmlns="http://www.w3.org/2000/svg" xmlns:xlink="http://www.w3.org/1999/xlink" x="0px" y="0px"
	 viewBox="0 0 960 960" style="enable-background:new 0 0 960 960;" xml:space="preserve">
<g id="_x33_">
	<path style="fill:none;stroke:none;stroke-miterlimit:10;" d="M475.884,683.775c-1.669-2.905-10.435,2.308-22.289,5.965
		c-12.841,3.962-16.255,3.833-18,2.834c-1.745-0.998,2.066-6.1,8.673-11.153c6.608-5.053,18.962-17.256,23.749-21.402
		c4.786-4.145,1.331-10.939-2.277-13.921c-3.607-2.982-14.095,1.916-20.389,7.033c-6.296,5.118-24.16,26.443-24.16,26.443
		s9.502-15.672,12.512-25.306c3.011-9.634-8.608-4.007-13.329-0.169c-4.721,3.838-13.391,17.118-19.55,29.31
		s-12.832,17.552-16.357,20.354c-3.525,2.801-4.687-0.961-4.103-3.725c0.583-2.763,7.879-10.921,11.856-15.872
		c3.978-4.951,5.909-17.328,5.006-22.318c-0.903-4.99-11.579,4.202-16.83,12.095c-5.252,7.893-15.48,32.56-18.715,38.624
		c-3.236,6.065-8.346,5.6-8.83,3.259c-0.484-2.342,3.046-11.361,5.946-14.29c2.901-2.93,6.7-12.358,7.607-16.657
		c0.908-4.299-6.814-2.233-12.343,0.798c-5.53,3.03-13.869,22.465-18.206,33.749c-4.337,11.284-8.211,20.961-10.227,21.562
		c-2.017,0.601-7.029-6.348-5.742-11.854c1.287-5.506-0.69-14.463-3.199-16.497s-11.302,9.542-11.621,10.24
		c-9.308-13.228-17.967-18.998-21.275-20.265c-4.336-1.66-8.034,9.873-4.688,17.369c3.346,7.496,1.294,11.902,0.072,14.139
		c-1.222,2.238-6.482-7.272-11.604-15.667c-5.122-8.395-12.306-23.424-19.78-31.404c-7.475-7.979-14.802-3.803-15.355-0.066
		c-0.553,3.736,4.747,13.262,6.57,19.005s-3.444,2.975-7.066,0.784c-3.621-2.19-7.328-6.733-15.265-21.908
		c-7.937-15.176-11.775-21.285-19.171-26.461c-5.537-3.874-8.29,2.184-7.435,9.311c0.717,5.983,0.942,13.986,0.942,13.986
		s-12.68-16.588-18.002-22.512c-5.321-5.925-17.705-19.06-25.802-24.74s-14.286-7.204-17.214-4.147
		c-2.928,3.057,1.862,8.157,10.59,20.976c9.455,13.885,15.403,19.644,15.034,22.134c-0.368,2.491-9.079-1.29-17.778-7.084
		c-8.698-5.795-28.281-15.525-35.165-19.528c-6.884-4.003-13.701,2.81-15.867,8.276c-2.166,5.466,7.88,15.913,16.532,21.313
		c8.651,5.399,40.673,17.761,40.673,17.761s-23.382-5.64-36.137-4.6c-12.755,1.041-0.236,16.356,6.477,20.022
		c6.713,3.666,23.888,4.969,41.118,6.373c17.231,1.404,26.142,5.615,31.079,8.382c4.936,2.767,3.539,9.381,0.01,10.005
		c-3.529,0.623-20.007-6.973-27.689-9.255c-7.681-2.282-20.689,0.281-26.155,3.673c-5.465,3.391,7.391,10.332,19.132,12.705
		c11.74,2.374,51.329,6.496,59.978,7.394c8.65,0.898,10.159,6.734,7.622,8.395c-2.536,1.661-13.9,1.463-18.698-0.52
		c-4.798-1.983-18.868-4.019-24.358-3.049c-5.489,0.97-0.213,8.404,5.923,13.385c6.136,4.981,30.916,4.507,46.231,4.227
		c15.315-0.279,31.955,7.353,33.547,9.498c1.592,2.145-7.703,9.874-14.83,10.729c-7.127,0.855-16.798,5.247-18.135,9.122
		s5.728,7.626,12.948,9.585s55.142-2.397,68.388-8.846c4.122-2.007,5.797-3.596,8.732-8.592c6.071,0.632,13.305,0.759,21.52,0.518
		c20.169-0.593,34.419-11.765,36.816-14.528c2.397-2.764-5.681-7.257-12.243-6.799c-6.561,0.458-8.817-1.748-10.167-3.255
		c-1.351-1.508,5.51-4.554,13.28-5.844c7.77-1.29,19.968-1.784,28.126-4.917c8.158-3.133,7.132-8.237,4.513-9.734
		c-2.618-1.497-9.688-1.837-14.505-2.185c-4.816-0.347-2.605-3.097,0.1-5.105c2.705-2.008,6.102-3.761,19.754-5.127
		c13.653-1.366,19.041-3.774,25.089-7.671c4.527-2.917-1.097-4.07-6.656-5.53c-4.666-1.225-6.878-6.607-6.878-6.607
		s15.483-6.366,21.26-9.026c5.777-2.659,22.444-6.26,28.674-11.069C474.107,691.093,477.553,686.68,475.884,683.775z"/>
</g>
<g id="Layer_1">
</g>
</svg>
