<?xml version="1.0" encoding="iso-8859-1"?>
<!-- Generator: Adobe Illustrator 19.1.1, SVG Export Plug-In . SVG Version: 6.00 Build 0)  -->
<svg version="1.1" xmlns="http://www.w3.org/2000/svg" xmlns:xlink="http://www.w3.org/1999/xlink" x="0px" y="0px"
	 viewBox="0 0 960 960" style="enable-background:new 0 0 960 960;" xml:space="preserve">
<g id="_x31_1">
	<path style="fill:none;stroke:none;stroke-miterlimit:10;" d="M472.912,684.275c-1.685-2.881-7.394,1.352-19.047,5.168
		c-12.623,4.134-19.829,5.785-21.565,4.812c-1.736-0.974,5.097-7.501,11.552-12.641c6.456-5.14,18.373-17.782,23.043-21.99
		c4.669-4.208-0.055-10.761-3.656-13.693c-3.6-2.932-13.887,2.106-20.033,7.305c-6.147,5.201-23.5,26.758-23.5,26.758
		s9.172-15.794,12.017-25.463c2.845-9.671-8.549-3.889-13.159,0.011c-4.61,3.9-12.993,17.29-18.911,29.561
		c-5.919,12.27-12.435,17.717-15.877,20.565c-3.442,2.848-4.639-0.897-4.099-3.667c0.539-2.77,7.273-11.754,11.135-16.756
		c3.861-5.003,5.963-16.668,5.006-21.643c-0.957-4.975-10.295,3.26-15.375,11.22c-5.08,7.961-17.366,35.678-20.48,41.783
		c-3.114,6.106-7.447,4.248-7.954,1.915c-0.509-2.334,2.498-10.665,5.321-13.632c2.825-2.968,6.451-13.173,7.29-17.483
		c0.839-4.309-5.678-2.506-11.095,0.599c-5.418,3.104-13.393,22.641-17.526,33.979c-4.132,11.337-11.474,20.719-13.49,21.32
		c-2.017,0.601-5.201-6.714-3.914-12.22c1.287-5.506,0.407-15.194-2.102-17.228s-11.302,9.542-11.621,10.24
		c-9.308-13.228-18.719-18.998-22.027-20.265c-4.336-1.66-7.147,9.873-3.801,17.369c3.346,7.496,1.16,11.902-0.062,14.139
		c-1.222,2.238-7.579-6.541-12.701-14.936c-5.122-8.395-12.672-24.155-20.146-32.135c-7.475-7.979-13.34-3.803-13.893-0.066
		c-0.553,3.736,3.285,13.262,5.108,19.005s-2.713,4.072-6.335,1.881c-3.621-2.19-8.059-7.83-15.996-23.005
		c-7.937-15.176-12.872-20.554-20.268-25.73c-5.537-3.874-5.365,2.915-4.51,10.042c0.717,5.983-1.617,13.255-1.617,13.255
		s-14.672-15.71-20.067-21.427c-5.396-5.716-15.739-19.466-23.85-24.852c-8.111-5.386-13.131-7.438-15.912-4.312
		c-2.781,3.126,3.165,7.308,12.107,19.762c9.686,13.489,14.564,19.648,14.118,22.115c-0.446,2.468-10.732-1.794-19.328-7.466
		c-8.597-5.671-27.922-15.143-34.72-19.052c-6.799-3.909-13.437,2.936-15.515,8.392c-2.08,5.456,7.882,15.74,16.43,21.019
		c8.547,5.279,40.656,17.378,40.656,17.378s-22.445-4.903-35.027-4.277c-12.582,0.627-1.147,12.984,5.333,16.849
		c6.48,3.865,25.831,7.34,42.733,9.291c16.902,1.951,26.204,6.439,31.141,9.206c4.936,2.767,1.711,6.822-1.818,7.446
		c-3.529,0.623-16.835-4.855-24.517-7.137c-7.681-2.282-21.786,0.281-27.252,3.673c-5.465,3.391,7.757,10.332,19.498,12.705
		c11.74,2.374,50.35,6.206,58.999,7.104c8.65,0.898,8.331,6.734,5.794,8.395c-2.536,1.661-13.534,1.829-18.332-0.154
		c-4.798-1.983-18.868-2.191-24.358-1.221c-5.489,0.97-0.579,7.673,5.557,12.654c6.136,4.981,32.378,5.238,47.693,4.958
		c15.315-0.279,31.224,6.256,32.816,8.401c1.592,2.145-6.606,8.777-13.733,9.632c-7.127,0.855-18.26,5.613-19.597,9.488
		c-1.337,3.875,7.19,7.26,14.41,9.219s55.142-2.397,68.388-8.846c4.122-2.007,5.797-3.596,8.732-8.592
		c6.071,0.632,13.305,0.759,21.52,0.518c20.169-0.593,32.591-11.399,34.988-14.162c2.397-2.764-5.781-6.891-12.261-6.433
		c-6.48,0.458-9.067-2.114-10.4-3.621c-1.334-1.508,6.041-3.573,13.693-4.969c7.653-1.395,21.124-2.42,29.135-5.662
		c8.011-3.242,6.571-8.329,3.967-9.79c-2.604-1.461-10.306-1.706-15.065-1.987c-4.758-0.282-2.613-3.06,0.031-5.104
		c2.644-2.044,7.77-3.842,21.227-5.393c13.459-1.551,18.745-4.032,24.663-8.008c4.43-2.977-1.137-4.053-6.643-5.436
		c-4.622-1.161-8.314-5.779-8.314-5.779s18.675-7.575,24.342-10.313c5.667-2.737,19.556-6.561,25.642-11.452
		C471.613,690.517,474.597,687.156,472.912,684.275z"/>
</g>
<g id="Layer_1">
</g>
</svg>
