<?xml version="1.0" encoding="iso-8859-1"?>
<!-- Generator: Adobe Illustrator 19.1.1, SVG Export Plug-In . SVG Version: 6.00 Build 0)  -->
<svg version="1.1" xmlns="http://www.w3.org/2000/svg" xmlns:xlink="http://www.w3.org/1999/xlink" x="0px" y="0px"
	 viewBox="0 0 960 960" style="enable-background:new 0 0 960 960;" xml:space="preserve">
<g id="_x31_">
	<path style="fill:none;stroke:none;stroke-miterlimit:10;" d="M470.697,682.521c-1.713-2.866-7.335,1.435-18.953,5.363
		c-12.585,4.254-17.779,5.685-19.524,4.727c-1.745-0.958,3.722-7.627,10.13-12.829c6.409-5.203,18.328-17.685,22.959-21.938
		c4.63-4.253,1.067-10.966-2.562-13.864c-3.628-2.898-13.869,2.238-19.967,7.497c-6.099,5.26-23.252,26.988-23.252,26.988
		s9.025-15.885,11.78-25.584c2.755-9.7-8.586-3.809-13.16,0.136c-4.574,3.945-12.832,17.418-18.637,29.748
		c-5.805,12.329-12.27,17.839-15.687,20.721c-3.416,2.881-4.648-0.854-4.134-3.629c0.513-2.776,7.166-11.839,10.981-16.879
		c3.815-5.041,5.805-16.716,4.802-21.684c-1.004-4.968-10.242,3.355-15.248,11.365c-5.006,8.011-17.094,35.866-20.151,42.002
		c-3.057,6.137-7.385,4.308-7.915,1.979c-0.531-2.33,2.387-10.686,5.183-13.68c2.797-2.995,6.335-13.248,7.134-17.566
		c0.799-4.318-5.684-2.447-11.074,0.71c-5.39,3.156-13.183,22.775-17.21,34.154c-4.027,11.38-11.515,21.241-13.531,21.842
		c-2.017,0.601-5.177-6.718-3.89-12.224c1.287-5.506,0.421-15.204-2.088-17.238s-11.302,9.542-11.621,10.24
		c-9.308-13.228-19.819-18.998-23.127-20.265c-4.336-1.66-6.182,9.873-2.836,17.369c3.346,7.496,1.294,11.902,0.072,14.139
		c-1.222,2.238-7.593-6.531-12.715-14.926c-5.122-8.395-12.676-24.165-20.15-32.145c-7.475-7.979-13.321-3.803-13.874-0.066
		c-0.553,3.736,3.266,13.262,5.089,19.005c1.823,5.743-2.703,4.086-6.325,1.895c-3.621-2.19-8.069-7.844-16.006-23.019
		c-7.937-15.176-12.886-20.544-20.282-25.72c-5.537-3.874-5.327,2.925-4.472,10.052c0.717,5.983-1.651,13.245-1.651,13.245
		s-15.677-16.787-21.363-22.355c-5.686-5.567-16.655-18.984-25.094-24.128c-8.438-5.145-13.597-7.009-16.321-3.773
		c-2.723,3.236,3.491,7.274,13.017,19.498c10.319,13.241,15.477,19.237,15.108,21.728c-0.368,2.491-10.948-1.511-19.884-6.926
		c-8.937-5.413-28.914-14.289-35.961-17.992c-7.048-3.702-13.564,3.396-15.492,8.948c-1.928,5.552,8.554,15.555,17.428,20.576
		c8.872,5.021,41.933,16.131,41.933,16.131s-23.012-4.159-35.767-3.119c-12.755,1.041-0.606,13.023,6.107,16.689
		c6.713,3.666,25.74,6.821,42.97,8.225c17.231,1.404,26.512,6.356,31.449,9.123c4.936,2.767,1.687,6.789-1.842,7.412
		c-3.529,0.623-18.155-4.01-25.837-6.292c-7.681-2.282-21.8,0.281-27.266,3.673c-5.465,3.391,7.761,10.332,19.502,12.705
		c11.74,2.374,51.699,5.385,60.348,6.283c8.65,0.898,8.307,6.734,5.77,8.395c-2.536,1.661-13.53,1.833-18.328-0.15
		c-4.798-1.983-18.868-2.167-24.358-1.197c-5.489,0.97-0.583,7.663,5.553,12.644c6.136,4.981,32.397,5.248,47.712,4.968
		c15.315-0.279,31.214,6.242,32.806,8.387c1.592,2.145-6.592,8.763-13.719,9.618c-7.127,0.855-18.279,5.617-19.617,9.492
		c-1.337,3.875,7.21,7.256,14.43,9.215s55.142-2.397,68.388-8.846c4.122-2.007,5.797-3.596,8.732-8.592
		c6.071,0.632,13.305,0.759,21.52,0.518c20.169-0.593,32.567-11.395,34.964-14.158c2.397-2.764-5.783-6.886-12.261-6.428
		c-6.479,0.458-9.071-2.119-10.403-3.625c-1.334-1.508,6.461-4.306,14.1-5.774c7.64-1.468,21.126-2.612,29.108-5.931
		c7.982-3.319,6.489-8.397,3.872-9.834c-2.618-1.436-10.333-1.616-15.095-1.852c-4.761-0.237-2.641-3.036-0.016-5.106
		c2.625-2.07,7.758-3.9,21.203-5.578c13.446-1.679,18.709-4.21,24.591-8.244c4.402-3.02-1.175-4.043-6.694-5.375
		c-4.634-1.118-8.394-5.706-8.394-5.706s16.596-7.459,22.238-10.25c5.642-2.791,19.464-6.772,25.505-11.722
		C469.472,688.766,472.41,685.386,470.697,682.521z"/>
</g>
<g id="Layer_1">
</g>
</svg>
