<?xml version="1.0" encoding="iso-8859-1"?>
<!-- Generator: Adobe Illustrator 19.1.1, SVG Export Plug-In . SVG Version: 6.00 Build 0)  -->
<svg version="1.1" xmlns="http://www.w3.org/2000/svg" xmlns:xlink="http://www.w3.org/1999/xlink" x="0px" y="0px"
	 viewBox="0 0 960 960" style="enable-background:new 0 0 960 960;" xml:space="preserve">
<g id="_x31_0">
	<path style="fill:none;stroke:none;stroke-miterlimit:10;" d="M480.521,687.525c-1.611-2.932-9.403,1.741-21.261,5.195
		c-12.845,3.742-22.493,4.823-24.212,3.796c-1.72-1.028,6.493-6.341,13.154-11.279c6.662-4.938,18.842-17.689,23.675-21.751
		c4.833-4.061-1.863-10.386-5.403-13.428c-3.539-3.042-14.057,1.676-20.408,6.683c-6.352,5.008-24.492,26.019-24.492,26.019
		s9.722-15.503,12.883-25.08c3.16-9.578-8.497-4.151-13.26-0.395c-4.763,3.756-13.617,16.881-19.954,28.963
		c-6.337,12.081-13.068,17.325-16.623,20.066c-3.555,2.74-4.647-1.04-4.02-3.792c0.628-2.752,7.899-11.041,11.941-15.922
		c4.043-4.881,6.303-16.959,5.49-21.962c-0.813-5.003-11.211,3.614-16.571,11.414c-5.361,7.8-16.851,33.317-20.174,39.322
		c-3.323,6.007-8.146,4.937-8.587,2.59c-0.442-2.349,3.098-11.044,6.033-13.922c2.936-2.879,6.878-12.497,7.854-16.778
		c0.977-4.281-6.36-2.477-11.914,0.458c-5.554,2.935-14.184,22.217-18.693,33.422c-4.508,11.205-9.373,19.631-11.389,20.232
		c-2.017,0.601-6.381-6.478-5.094-11.984c1.287-5.506-0.301-14.722-2.81-16.756c-2.509-2.034-11.302,9.542-11.621,10.24
		c-9.308-13.228-15.652-18.998-18.96-20.265c-4.336-1.66-9.978,9.873-6.632,17.369c3.346,7.496,0.924,11.902-0.298,14.139
		c-1.222,2.238-6.871-7.013-11.993-15.408c-5.122-8.395-12.436-23.683-19.91-31.663c-7.475-7.979-14.284-3.803-14.837-0.066
		c-0.553,3.736,4.229,13.262,6.051,19.005s-3.185,3.364-6.807,1.173c-3.621-2.19-7.587-7.122-15.524-22.297
		c-7.937-15.176-12.164-21.026-19.56-26.202c-5.537-3.874-7.253,2.443-6.398,9.57c0.717,5.983,0.035,13.727,0.035,13.727
		s-11.066-13.698-15.727-19.894c-4.661-6.196-14.776-20.361-22.102-26.498c-7.326-6.138-12.735-8.31-15.743-5.487
		c-3.008,2.822,1.593,7.91,9.021,21.133c8.046,14.322,12.916,20.617,12.334,23.044c-0.582,2.427-9.206-2.154-17.059-8.513
		c-7.854-6.358-25.793-17.4-32.053-21.856c-6.261-4.457-13.297,1.768-15.788,7.003c-2.491,5.236,6.288,16.285,14.128,22.251
		c7.84,5.964,37.64,20.566,37.64,20.566s-21.678-7.12-33.956-7.221c-12.278-0.101-1.87,14.963,4.202,19.177
		c6.072,4.214,24.854,7.113,41.179,10.024c16.326,2.911,25.436,6.131,30.373,8.898c4.936,2.767,2.891,8.474-0.638,9.098
		c-3.529,0.623-15.655-8.158-23.337-10.44c-7.681-2.282-21.078,0.281-26.544,3.673c-5.465,3.391,7.521,10.332,19.262,12.705
		c11.74,2.374,47.755,8.329,56.404,9.227c8.65,0.898,9.511,6.734,6.974,8.395c-2.536,1.661-13.77,1.593-18.568-0.39
		c-4.798-1.983-18.868-3.371-24.358-2.401c-5.489,0.97-0.343,8.145,5.793,13.126c6.136,4.981,31.435,4.766,46.75,4.486
		c15.315-0.279,31.696,6.964,33.288,9.109c1.592,2.145-7.314,9.485-14.441,10.34c-7.127,0.855-17.316,5.377-18.653,9.252
		c-1.337,3.875,6.246,7.496,13.466,9.455s55.142-2.397,68.388-8.846c4.122-2.007,5.797-3.596,8.732-8.592
		c6.071,0.632,13.305,0.759,21.52,0.518c20.169-0.593,33.771-11.635,36.168-14.398c2.397-2.764-5.717-7.127-12.249-6.669
		c-6.533,0.458-8.906-1.878-10.25-3.385c-1.345-1.508,4.721-2.439,12.474-3.597c7.754-1.158,20.41-1.574,28.581-4.568
		s7.109-8.112,4.53-9.652c-2.58-1.54-9.864-2.001-14.651-2.429c-4.786-0.428-2.539-3.139,0.187-5.101
		c2.726-1.961,6.773-3.656,20.38-4.79c13.609-1.134,19.011-3.45,25.095-7.242c4.554-2.839-1.022-4.087-6.529-5.639
		c-4.622-1.303-7.241-6.461-7.241-6.461s21.641-7.109,27.434-9.67c5.794-2.56,21.548-5.876,27.829-10.577
		C478.756,694.421,482.132,690.457,480.521,687.525z"/>
</g>
<g id="Layer_1">
</g>
</svg>
