<?xml version="1.0" encoding="iso-8859-1"?>
<!-- Generator: Adobe Illustrator 19.1.1, SVG Export Plug-In . SVG Version: 6.00 Build 0)  -->
<svg version="1.1" xmlns="http://www.w3.org/2000/svg" xmlns:xlink="http://www.w3.org/1999/xlink" x="0px" y="0px"
	 viewBox="0 0 960 960" style="enable-background:new 0 0 960 960;" xml:space="preserve">
<g id="_x38_">
	<path style="fill:none;stroke:none;stroke-miterlimit:10;" d="M480.177,687.672c-1.612-2.931-9.362,1.733-21.216,5.195
		c-12.84,3.75-22.439,4.843-24.159,3.817c-1.72-1.027,6.465-6.365,13.121-11.307c6.658-4.942,18.832-17.69,23.662-21.755
		c4.829-4.064-1.827-10.394-5.367-13.434c-3.54-3.039-14.054,1.685-20.401,6.696c-6.348,5.012-24.472,26.034-24.472,26.034
		s9.711-15.509,12.865-25.088c3.154-9.58-8.498-4.146-13.258-0.387c-4.76,3.759-13.604,16.89-19.933,28.975
		c-6.329,12.085-13.055,17.333-16.608,20.076c-3.553,2.742-4.647-1.037-4.021-3.79c0.626-2.752,7.886-11.055,11.925-15.938
		c4.039-4.884,6.296-16.953,5.48-21.955c-0.816-5.002-11.192,3.607-16.547,11.411c-5.355,7.803-16.861,33.365-20.18,39.372
		c-3.319,6.009-8.132,4.923-8.575,2.576c-0.443-2.349,3.085-11.036,6.019-13.916c2.934-2.881,6.869-12.51,7.843-16.792
		c0.974-4.282-6.346-2.477-11.897,0.461c-5.551,2.938-14.168,22.226-18.669,33.433c-4.5,11.207-9.416,19.653-11.432,20.254
		c-2.017,0.601-6.357-6.482-5.07-11.989c1.287-5.506-0.287-14.732-2.796-16.766c-2.509-2.034-11.302,9.542-11.621,10.24
		c-9.308-13.228-15.714-18.998-19.022-20.265c-4.336-1.66-9.921,9.873-6.575,17.369c3.346,7.496,0.928,11.902-0.294,14.139
		c-1.222,2.238-6.885-7.003-12.007-15.398c-5.122-8.395-12.44-23.693-19.914-31.673c-7.475-7.979-14.264-3.803-14.817-0.066
		c-0.553,3.736,4.209,13.262,6.032,19.005c1.823,5.743-3.175,3.378-6.797,1.187c-3.621-2.19-7.597-7.136-15.534-22.311
		c-7.937-15.176-12.178-21.016-19.574-26.192c-5.537-3.874-7.215,2.453-6.36,9.58c0.717,5.983,0.001,13.717,0.001,13.717
		s-11.14-13.739-15.815-19.925c-4.676-6.186-14.796-20.342-22.138-26.465c-7.342-6.123-12.743-8.292-15.746-5.463
		c-3.003,2.828,1.625,7.898,9.083,21.105c8.079,14.305,12.949,20.598,12.37,23.026c-0.579,2.428-9.237-2.147-17.105-8.492
		c-7.869-6.344-25.836-17.354-32.108-21.799c-6.272-4.446-13.3,1.792-15.783,7.032c-2.483,5.24,6.32,16.274,14.175,22.226
		c7.854,5.95,37.701,20.501,37.701,20.501s-21.694-7.075-33.978-7.161c-12.284-0.086-1.855,14.923,4.225,19.13
		s24.873,7.117,41.21,10.009c16.338,2.892,25.452,6.137,30.389,8.904c4.936,2.767,2.867,8.44-0.662,9.064
		c-3.529,0.623-15.679-8.091-23.361-10.373c-7.681-2.282-21.092,0.281-26.558,3.673c-5.465,3.391,7.525,10.332,19.266,12.705
		c11.74,2.374,47.808,8.286,56.457,9.184c8.65,0.898,9.487,6.734,6.95,8.395c-2.536,1.661-13.766,1.597-18.563-0.386
		c-4.798-1.983-18.868-3.347-24.358-2.377c-5.489,0.97-0.347,8.135,5.789,13.116c6.136,4.981,31.454,4.776,46.769,4.496
		c15.315-0.279,31.686,6.95,33.278,9.095c1.592,2.145-7.3,9.471-14.427,10.326c-7.127,0.855-17.336,5.381-18.673,9.256
		c-1.337,3.875,6.266,7.492,13.486,9.451s55.142-2.397,68.388-8.846c4.122-2.007,5.797-3.596,8.732-8.592
		c6.071,0.632,13.305,0.759,21.52,0.518c20.169-0.593,33.747-11.631,36.144-14.394c2.397-2.764-5.718-7.122-12.25-6.665
		c-6.532,0.458-8.909-1.882-10.253-3.389c-1.345-1.508,4.748-2.462,12.499-3.625c7.751-1.163,20.424-1.592,28.592-4.59
		c8.168-2.998,7.098-8.116,4.518-9.655c-2.58-1.539-9.873-1.995-14.659-2.42c-4.785-0.426-2.541-3.138,0.184-5.101
		c2.724-1.963,6.793-3.659,20.397-4.802c13.606-1.143,19.006-3.462,25.087-7.258c4.552-2.842-1.025-4.086-6.531-5.635
		c-4.622-1.301-7.263-6.447-7.263-6.447s21.58-7.119,27.371-9.683c5.791-2.564,21.507-5.89,27.785-10.595
		C478.42,694.554,481.789,690.603,480.177,687.672z"/>
</g>
<g id="Layer_1">
</g>
</svg>
