<?xml version="1.0" encoding="iso-8859-1"?>
<!-- Generator: Adobe Illustrator 19.1.1, SVG Export Plug-In . SVG Version: 6.00 Build 0)  -->
<svg version="1.1" xmlns="http://www.w3.org/2000/svg" xmlns:xlink="http://www.w3.org/1999/xlink" x="0px" y="0px"
	 viewBox="0 0 960 960" style="enable-background:new 0 0 960 960;" xml:space="preserve">
<g id="_x39_">
	<path style="fill:none;stroke:none;stroke-miterlimit:10;" d="M484.401,689.648c-1.57-2.96-10.506,1.955-22.477,5.211
		c-12.967,3.526-23.956,4.295-25.667,3.238c-1.71-1.057,7.26-5.704,14.034-10.531c6.775-4.827,19.099-17.637,24.022-21.619
		c4.923-3.981-2.857-10.18-6.362-13.283c-3.505-3.102-14.151,1.44-20.615,6.341c-6.465,4.903-25.038,25.614-25.038,25.614
		s10.025-15.343,13.358-24.87c3.334-9.527-8.468-4.295-13.315-0.619c-4.848,3.677-13.96,16.657-20.527,28.635
		c-6.567,11.978-13.416,17.11-17.034,19.791c-3.617,2.681-4.652-1.119-3.976-3.861c0.676-2.742,8.242-10.649,12.385-15.463
		c4.143-4.814,6.489-17.119,5.755-22.136c-0.734-5.018-11.714,3.809-17.228,11.521c-5.515,7.712-16.568,32.019-20.006,37.971
		c-3.439,5.952-8.53,5.316-8.935,2.96c-0.405-2.357,3.427-11.252,6.424-14.081c2.998-2.83,7.113-12.125,8.165-16.391
		c1.052-4.266-6.735-2.461-12.363,0.381c-5.629,2.842-14.619,21.984-19.333,33.116c-4.715,11.132-8.219,19.033-10.235,19.634
		c-2.017,0.601-7.029-6.348-5.742-11.854c1.287-5.506-0.69-14.463-3.199-16.497c-2.509-2.034-11.302,9.542-11.621,10.24
		c-9.308-13.228-13.967-18.998-17.275-20.265c-4.336-1.66-11.534,9.873-8.188,17.369c3.346,7.496,0.794,11.902-0.428,14.139
		c-1.222,2.238-6.482-7.272-11.604-15.667c-5.122-8.395-12.306-23.424-19.78-31.404c-7.475-7.979-14.802-3.803-15.355-0.066
		c-0.553,3.736,4.747,13.262,6.57,19.005s-3.444,2.975-7.066,0.784c-3.621-2.19-7.328-6.733-15.265-21.908
		c-7.937-15.176-11.775-21.285-19.171-26.461c-5.537-3.874-8.29,2.184-7.435,9.311c0.717,5.983,0.942,13.986,0.942,13.986
		s-9.086-12.592-13.343-19.052c-4.257-6.46-14.247-20.852-21.142-27.403c-6.895-6.551-12.518-8.789-15.65-6.133
		c-3.132,2.655,0.729,8.241,7.325,21.886c7.145,14.779,12.011,21.15,11.354,23.555c-0.657,2.405-8.367-2.352-15.813-9.088
		c-7.446-6.735-24.624-18.64-30.589-23.397c-5.966-4.758-13.221,1.126-15.938,6.24c-2.718,5.114,5.412,16.585,12.864,22.927
		c7.451,6.341,35.983,22.318,35.983,22.318s-21.257-8.338-33.368-8.839c-12.111-0.5-2.267,16.051,3.581,20.456
		c5.847,4.406,24.316,6.988,40.325,10.426c16.009,3.438,25.014,5.961,29.951,8.728c4.936,2.767,3.539,9.381,0.01,10.005
		c-3.529,0.623-15.007-9.973-22.689-12.255c-7.681-2.282-20.689,0.281-26.155,3.673c-5.465,3.391,7.391,10.332,19.132,12.705
		c11.74,2.374,46.329,9.496,54.978,10.394c8.65,0.898,10.159,6.734,7.622,8.395c-2.536,1.661-13.9,1.463-18.698-0.52
		c-4.798-1.983-18.868-4.019-24.358-3.049c-5.489,0.97-0.213,8.404,5.923,13.385c6.136,4.981,30.916,4.507,46.231,4.227
		c15.315-0.279,31.955,7.353,33.547,9.498c1.592,2.145-7.703,9.874-14.83,10.729c-7.127,0.855-16.798,5.247-18.135,9.122
		c-1.337,3.875,5.728,7.626,12.948,9.585s55.142-2.397,68.388-8.846c4.122-2.007,5.797-3.596,8.732-8.592
		c6.071,0.632,13.305,0.759,21.52,0.518c20.169-0.593,34.419-11.765,36.816-14.528c2.397-2.764-5.681-7.257-12.243-6.799
		c-6.562,0.458-8.817-1.748-10.167-3.255c-1.351-1.508,3.996-1.816,11.805-2.844c7.809-1.028,20.017-1.11,28.276-3.966
		c8.259-2.856,7.405-7.992,4.839-9.576c-2.566-1.584-9.621-2.163-14.423-2.672c-4.801-0.509-2.5-3.183,0.272-5.099
		c2.771-1.916,6.225-3.553,19.915-4.459c13.691-0.905,19.158-3.13,25.333-6.822c4.623-2.763-0.96-4.105-6.466-5.751
		c-4.622-1.382-6.652-6.835-6.652-6.835s23.27-6.853,29.133-9.316c5.863-2.463,22.642-5.5,29.031-10.096
		C482.379,696.902,485.971,692.607,484.401,689.648z"/>
</g>
<g id="Layer_1">
</g>
</svg>
