<?xml version="1.0" encoding="iso-8859-1"?>
<!-- Generator: Adobe Illustrator 19.1.1, SVG Export Plug-In . SVG Version: 6.00 Build 0)  -->
<svg version="1.1" xmlns="http://www.w3.org/2000/svg" xmlns:xlink="http://www.w3.org/1999/xlink" x="0px" y="0px"
	 viewBox="0 0 960 960" style="enable-background:new 0 0 960 960;" xml:space="preserve">
<g id="_x32_">
	<path style="fill:none;stroke:none;stroke-miterlimit:10;" d="M473.807,683.537c-1.685-2.891-9.309,1.992-21.078,5.747
		c-12.748,4.068-16.808,4.505-18.553,3.522c-1.745-0.984,2.667-6.654,9.202-11.761c6.536-5.107,18.732-17.412,23.462-21.596
		c4.729-4.184,1.235-10.948-2.381-13.9c-3.615-2.952-14.013,2.033-20.236,7.201c-6.224,5.169-23.831,26.641-23.831,26.641
		s9.329-15.749,12.246-25.407c2.918-9.658-8.6-3.935-13.267-0.058c-4.668,3.876-13.188,17.227-19.218,29.469
		c-6.031,12.242-12.628,17.656-16.114,20.487c-3.485,2.83-4.673-0.922-4.115-3.69c0.558-2.768,7.62-11.254,11.539-16.237
		c3.919-4.984,5.871-17.106,4.932-22.088c-0.94-4.982-11.094,3.894-16.256,11.83c-5.163,7.936-16.066,33.759-19.236,39.849
		c-3.171,6.091-7.997,5.131-8.498,2.795c-0.501-2.338,2.806-11.116,5.669-14.069c2.863-2.953,6.567-12.681,7.436-16.987
		c0.868-4.306-6.404-2.311-11.882,0.766c-5.479,3.076-13.62,22.577-17.845,33.896c-4.224,11.319-9.41,21.063-11.426,21.664
		c-2.017,0.601-6.357-6.483-5.07-11.988c1.287-5.506-0.287-14.732-2.796-16.766s-11.302,9.542-11.621,10.24
		c-9.308-13.228-18.639-18.998-21.947-20.265c-4.336-1.66-7.362,9.873-4.016,17.369c3.346,7.496,1.294,11.902,0.072,14.139
		c-1.222,2.238-6.885-7.003-12.007-15.398c-5.122-8.395-12.44-23.693-19.914-31.673c-7.475-7.979-14.264-3.803-14.817-0.066
		c-0.553,3.736,4.209,13.262,6.032,19.005s-3.175,3.378-6.797,1.187c-3.621-2.19-7.597-7.136-15.534-22.311
		c-7.937-15.176-12.178-21.016-19.574-26.192c-5.537-3.874-7.215,2.453-6.36,9.58c0.717,5.983,0.001,13.717,0.001,13.717
		s-13.768-16.66-19.222-22.455c-5.454-5.795-17.324-19.032-25.545-24.518c-8.221-5.486-14.036-7.134-16.89-4.012
		c-2.854,3.122,2.453,7.837,11.471,20.44c9.768,13.651,15.43,19.496,15.061,21.987c-0.368,2.491-9.758-1.37-18.542-7.027
		c-8.785-5.656-28.511-15.076-35.454-18.97c-6.944-3.894-13.651,3.023-15.731,8.52c-2.08,5.497,8.124,15.783,16.857,21.046
		c8.732,5.262,41.13,17.169,41.13,17.169s-23.248-5.102-36.003-4.062c-12.755,1.041-0.37,15.146,6.343,18.812
		s24.56,5.641,41.79,7.045c17.231,1.404,26.276,5.884,31.213,8.651c4.936,2.767,2.867,8.44-0.662,9.064
		c-3.529,0.623-19.335-5.898-27.017-8.18c-7.681-2.282-21.092,0.281-26.558,3.673c-5.465,3.391,7.525,10.332,19.266,12.705
		c11.74,2.374,51.463,6.093,60.112,6.991c8.65,0.898,9.487,6.734,6.95,8.395c-2.536,1.661-13.766,1.597-18.564-0.386
		c-4.798-1.983-18.868-3.347-24.358-2.377c-5.489,0.97-0.347,8.135,5.789,13.116c6.136,4.981,31.454,4.776,46.769,4.496
		c15.315-0.279,31.686,6.95,33.278,9.095c1.592,2.145-7.3,9.471-14.427,10.326c-7.127,0.855-17.336,5.381-18.673,9.256
		c-1.337,3.875,6.266,7.492,13.486,9.451s55.142-2.397,68.388-8.846c4.122-2.007,5.797-3.596,8.732-8.592
		c6.071,0.632,13.305,0.759,21.52,0.518c20.169-0.593,33.747-11.631,36.144-14.394c2.397-2.764-5.718-7.122-12.25-6.665
		c-6.531,0.458-8.909-1.882-10.253-3.389c-1.345-1.508,5.855-4.464,13.577-5.819c7.723-1.355,20.388-2.084,28.482-5.285
		c8.094-3.201,6.898-8.295,4.28-9.77c-2.618-1.475-9.922-1.757-14.719-2.064c-4.796-0.307-2.618-3.075,0.058-5.106
		c2.676-2.03,6.703-3.811,20.279-5.291c13.578-1.48,18.921-3.932,24.908-7.879c4.482-2.955-1.125-4.061-6.67-5.474
		c-4.654-1.186-7.428-6.28-7.428-6.28s15.887-6.763,21.615-9.47c5.728-2.707,21.362-6.446,27.524-11.306
		C472.23,690.466,475.492,686.427,473.807,683.537z"/>
</g>
<g id="Layer_1">
</g>
</svg>
