<?xml version="1.0" encoding="iso-8859-1"?>
<!-- Generator: Adobe Illustrator 19.1.1, SVG Export Plug-In . SVG Version: 6.00 Build 0)  -->
<svg version="1.1" xmlns="http://www.w3.org/2000/svg" xmlns:xlink="http://www.w3.org/1999/xlink" x="0px" y="0px"
	 viewBox="0 0 960 960" style="enable-background:new 0 0 960 960;" xml:space="preserve">
<g id="_x34_">
	<path style="fill:none;stroke:none;stroke-miterlimit:10;" d="M473.874,683.553c-1.684-2.891-9.35,2.003-21.121,5.755
		c-12.751,4.064-16.788,4.481-18.533,3.497c-1.745-0.984,2.645-6.635,9.183-11.74c6.538-5.105,18.741-17.406,23.473-21.589
		c4.731-4.183,1.238-10.948-2.377-13.901c-3.615-2.953-14.016,2.029-20.241,7.195c-6.227,5.168-23.842,26.634-23.842,26.634
		s9.335-15.747,12.256-25.403c2.921-9.658-8.6-3.938-13.27-0.063c-4.669,3.875-13.195,17.223-19.23,29.463
		c-6.035,12.24-12.635,17.653-16.122,20.482c-3.487,2.829-4.673-0.924-4.114-3.691c0.559-2.768,7.63-11.242,11.55-16.224
		c3.921-4.983,5.872-17.114,4.934-22.096c-0.938-4.982-11.111,3.905-16.277,11.84c-5.166,7.934-16.045,33.717-19.218,39.806
		c-3.173,6.09-8.01,5.148-8.51,2.811c-0.5-2.338,2.815-11.124,5.679-14.077c2.865-2.953,6.572-12.669,7.442-16.975
		c0.869-4.306-6.419-2.308-11.899,0.767c-5.481,3.074-13.629,22.573-17.858,33.891c-4.228,11.318-9.367,21.059-11.383,21.66
		c-2.017,0.601-6.381-6.478-5.094-11.984c1.287-5.506-0.301-14.722-2.81-16.756s-11.302,9.542-11.621,10.24
		c-9.308-13.228-18.615-18.998-21.923-20.265c-4.336-1.66-7.386,9.873-4.04,17.369c3.346,7.496,1.294,11.902,0.072,14.139
		c-1.222,2.238-6.871-7.013-11.993-15.408c-5.122-8.395-12.436-23.683-19.91-31.663c-7.475-7.979-14.283-3.803-14.837-0.066
		c-0.553,3.736,4.229,13.262,6.051,19.005s-3.185,3.364-6.807,1.173c-3.621-2.19-7.587-7.122-15.524-22.297
		c-7.937-15.176-12.164-21.026-19.56-26.202c-5.537-3.874-7.253,2.443-6.398,9.57c0.717,5.983,0.035,13.727,0.035,13.727
		s-13.729-16.657-19.178-22.457c-5.449-5.8-17.337-19.033-25.554-24.526c-8.216-5.493-14.045-7.136-16.901-4.016
		c-2.856,3.12,2.432,7.848,11.44,20.459c9.757,13.66,15.429,19.501,15.06,21.992c-0.368,2.491-9.733-1.367-18.515-7.029
		c-8.782-5.661-28.503-15.092-35.443-18.99c-6.941-3.898-13.653,3.015-15.736,8.511c-2.083,5.496,8.116,15.788,16.845,21.055
		c8.729,5.267,41.114,17.19,41.114,17.19s-23.252-5.121-36.007-4.081c-12.755,1.041-0.366,15.189,6.347,18.855
		c6.713,3.666,24.536,5.617,41.766,7.021c17.231,1.404,26.272,5.874,31.209,8.641c4.936,2.767,2.891,8.474-0.638,9.098
		c-3.529,0.623-19.359-5.936-27.041-8.218c-7.681-2.282-21.078,0.281-26.544,3.673c-5.465,3.391,7.521,10.332,19.262,12.705
		c11.74,2.374,51.459,6.107,60.108,7.005c8.65,0.898,9.511,6.734,6.974,8.395c-2.536,1.661-13.77,1.593-18.568-0.39
		c-4.798-1.983-18.868-3.371-24.358-2.401c-5.489,0.97-0.343,8.145,5.793,13.126c6.136,4.981,31.435,4.766,46.75,4.486
		c15.315-0.279,31.696,6.964,33.288,9.109c1.592,2.145-7.314,9.485-14.441,10.34c-7.127,0.855-17.316,5.377-18.653,9.252
		c-1.337,3.875,6.246,7.496,13.466,9.455s55.142-2.397,68.388-8.846c4.122-2.007,5.797-3.596,8.732-8.592
		c6.071,0.632,13.305,0.759,21.52,0.518c20.169-0.593,33.771-11.635,36.168-14.398c2.397-2.764-5.717-7.127-12.249-6.669
		c-6.533,0.458-8.906-1.878-10.25-3.385c-1.345-1.508,5.843-4.467,13.567-5.82c7.725-1.352,20.373-2.074,28.47-5.272
		c8.096-3.198,6.907-8.293,4.289-9.769c-2.618-1.476-9.914-1.76-14.711-2.068c-4.797-0.309-2.618-3.076,0.059-5.106
		c2.677-2.03,6.681-3.81,20.261-5.285c13.58-1.476,18.925-3.927,24.914-7.872c4.483-2.953-1.124-4.061-6.67-5.475
		c-4.655-1.187-7.409-6.292-7.409-6.292s15.872-6.748,21.602-9.454c5.73-2.706,21.401-6.439,27.565-11.298
		C472.29,690.496,475.559,686.444,473.874,683.553z"/>
</g>
<g id="Layer_1">
</g>
</svg>
