<?xml version="1.0" encoding="iso-8859-1"?>
<!-- Generator: Adobe Illustrator 19.1.1, SVG Export Plug-In . SVG Version: 6.00 Build 0)  -->
<svg version="1.1" xmlns="http://www.w3.org/2000/svg" xmlns:xlink="http://www.w3.org/1999/xlink" x="0px" y="0px"
	 viewBox="0 0 960 960" style="enable-background:new 0 0 960 960;" xml:space="preserve">
<g id="_x36_">
	<path style="fill:none;stroke:none;stroke-miterlimit:10;" d="M468.881,682.082c-1.728-2.852-6.25,1.13-17.786,5.152
		c-12.496,4.357-18.312,6.333-20.057,5.39c-1.745-0.944,4.302-8.161,10.64-13.416c6.339-5.255,18.106-17.835,22.683-22.126
		c4.576-4.291,0.975-10.975-2.661-13.844c-3.635-2.869-13.79,2.351-19.819,7.66c-6.03,5.31-22.934,27.178-22.934,27.178
		s8.858-15.959,11.524-25.681c2.665-9.723-8.579-3.739-13.101,0.243s-12.637,17.523-18.317,29.901
		c-5.681,12.377-12.074,17.94-15.452,20.85c-3.378,2.909-4.634-0.816-4.145-3.596c0.489-2.78,6.917-12.16,10.675-17.231
		c3.758-5.072,5.769-16.502,4.731-21.462c-1.039-4.96-9.774,3.058-14.694,11.11c-4.92,8.052-17.659,37.023-20.654,43.184
		c-2.995,6.162-7.048,3.856-7.594,1.531c-0.547-2.326,2.156-10.449,4.916-13.467c2.761-3.018,6.207-13.559,6.968-17.884
		c0.761-4.325-5.289-2.522-10.629,0.679c-5.341,3.2-12.943,22.883-16.862,34.296c-3.918,11.413-12.671,21.339-14.687,21.94
		c-2.017,0.601-4.529-6.848-3.242-12.354c1.287-5.506,0.81-15.463-1.699-17.497s-11.302,9.542-11.621,10.24
		c-9.308-13.228-20.467-18.998-23.775-20.265c-4.336-1.66-5.534,9.873-2.188,17.369c3.346,7.496,1.294,11.902,0.072,14.139
		c-1.222,2.238-7.982-6.272-13.104-14.667c-5.122-8.395-12.806-24.424-20.28-32.404c-7.475-7.979-12.802-3.803-13.355-0.066
		c-0.553,3.736,2.747,13.262,4.57,19.005s-2.444,4.475-6.066,2.284c-3.621-2.19-8.328-8.233-16.265-23.408
		c-7.937-15.176-13.275-20.285-20.671-25.461c-5.537-3.874-4.29,3.184-3.435,10.311c0.717,5.983-2.558,12.986-2.558,12.986
		s-16.726-16.857-22.539-22.3c-5.814-5.442-16.288-18.957-24.846-23.914c-8.558-4.958-13.356-6.941-16.008-3.642
		c-2.652,3.299,4.061,6.965,13.866,18.981c10.621,13.015,15.503,19.095,15.134,21.586c-0.368,2.491-11.602-1.589-20.621-6.87
		c-9.02-5.28-29.135-13.857-36.239-17.454c-7.105-3.597-13.516,3.601-15.36,9.183c-1.845,5.582,8.79,15.429,17.741,20.318
		c8.95,4.888,42.374,15.561,42.374,15.561s-22.882-3.64-35.637-2.6c-12.755,1.041-0.736,11.856,5.977,15.522
		c6.713,3.666,26.388,7.469,43.618,8.873c17.231,1.404,26.642,6.615,31.579,9.382c4.936,2.767,1.039,5.881-2.49,6.505
		c-3.529,0.623-17.507-2.973-25.189-5.255c-7.681-2.282-22.189,0.281-27.655,3.673c-5.465,3.391,7.891,10.332,19.632,12.705
		c11.74,2.374,51.829,4.996,60.478,5.894c8.65,0.898,7.659,6.734,5.122,8.395c-2.536,1.661-13.4,1.963-18.198-0.02
		c-4.798-1.983-18.868-1.519-24.358-0.549c-5.489,0.97-0.713,7.404,5.423,12.385c6.136,4.981,32.916,5.507,48.231,5.227
		c15.315-0.279,30.955,5.853,32.547,7.998c1.592,2.145-6.203,8.374-13.33,9.229c-7.127,0.855-18.798,5.747-20.135,9.622
		s7.728,7.126,14.948,9.085s55.142-2.397,68.388-8.846c4.122-2.007,5.797-3.596,8.732-8.592c6.071,0.632,13.305,0.759,21.52,0.518
		c20.169-0.593,31.919-11.265,34.316-14.028c2.397-2.764-5.818-6.756-12.268-6.299c-6.45,0.458-9.159-2.248-10.486-3.755
		c-1.328-1.508,6.793-4.219,14.387-5.75c7.595-1.53,21.531-2.901,29.451-6.285c7.92-3.384,6.264-8.453,3.647-9.869
		c-2.618-1.415-10.558-1.538-15.301-1.735c-4.742-0.198-2.654-3.015-0.057-5.106c2.597-2.091,8.338-3.948,21.71-5.736
		c13.373-1.788,18.593-4.363,24.417-8.444c4.359-3.056-1.202-4.034-6.708-5.321c-4.622-1.08-8.925-5.391-8.925-5.391
		s16.985-7.841,22.58-10.679c5.595-2.837,18.421-6.951,24.396-11.951C467.849,687.952,470.609,684.934,468.881,682.082z"/>
</g>
<g id="Layer_1">
</g>
</svg>
