<?xml version="1.0" encoding="iso-8859-1"?>
<!-- Generator: Adobe Illustrator 19.1.1, SVG Export Plug-In . SVG Version: 6.00 Build 0)  -->
<svg version="1.1" xmlns="http://www.w3.org/2000/svg" xmlns:xlink="http://www.w3.org/1999/xlink" x="0px" y="0px"
	 viewBox="0 0 960 960" style="enable-background:new 0 0 960 960;" xml:space="preserve">
<g id="_x35_">
	<path style="fill:none;stroke:none;stroke-miterlimit:10;" d="M470.57,682.754c-1.712-2.866-7.375,1.447-18.997,5.371
		c-12.589,4.251-17.759,5.661-19.504,4.703c-1.745-0.959,3.701-7.607,10.111-12.808c6.411-5.201,18.336-17.679,22.969-21.931
		c4.632-4.252,1.071-10.965-2.558-13.865c-3.627-2.899-13.872,2.234-19.972,7.491c-6.101,5.258-23.264,26.981-23.264,26.981
		s9.031-15.882,11.79-25.58c2.758-9.699-8.587-3.811-13.162,0.132c-4.576,3.943-12.84,17.414-18.648,29.742
		c-5.81,12.327-12.278,17.836-15.695,20.717c-3.418,2.88-4.648-0.855-4.134-3.631c0.514-2.776,7.176-11.827,10.993-16.865
		c3.817-5.04,5.807-16.724,4.805-21.692c-1.002-4.968-10.259,3.365-15.268,11.375c-5.009,8.009-17.073,35.823-20.133,41.958
		c-3.06,6.136-7.397,4.325-7.926,1.996c-0.53-2.33,2.395-10.694,5.193-13.688c2.799-2.994,6.339-13.236,7.14-17.554
		c0.8-4.318-5.699-2.444-11.09,0.711c-5.392,3.154-13.192,22.771-17.223,34.149c-4.031,11.378-11.472,21.237-13.488,21.839
		c-2.017,0.601-5.201-6.714-3.914-12.22c1.287-5.506,0.407-15.194-2.102-17.228s-11.302,9.542-11.621,10.24
		c-9.308-13.228-19.795-18.998-23.103-20.265c-4.336-1.66-6.206,9.873-2.86,17.369c3.346,7.496,1.294,11.902,0.072,14.139
		c-1.222,2.238-7.579-6.541-12.701-14.936c-5.122-8.395-12.672-24.155-20.146-32.135c-7.475-7.979-13.34-3.803-13.893-0.066
		c-0.553,3.736,3.285,13.262,5.108,19.005s-2.713,4.072-6.335,1.881c-3.621-2.19-8.059-7.83-15.996-23.005
		c-7.937-15.176-12.872-20.554-20.268-25.73c-5.537-3.874-5.365,2.915-4.51,10.042c0.717,5.983-1.617,13.255-1.617,13.255
		s-15.638-16.785-21.319-22.357c-5.682-5.572-16.669-18.985-25.103-24.136c-8.434-5.152-13.606-7.012-16.332-3.778
		c-2.726,3.234,3.47,7.285,12.985,19.517c10.307,13.249,15.476,19.243,15.107,21.733c-0.368,2.491-10.924-1.508-19.857-6.928
		c-8.934-5.418-28.906-14.305-35.95-18.012c-7.046-3.706-13.566,3.388-15.496,8.939c-1.931,5.551,8.545,15.559,17.416,20.586
		c8.87,5.025,41.917,16.152,41.917,16.152s-23.016-4.178-35.771-3.138c-12.755,1.041-0.602,13.066,6.111,16.732
		s25.716,6.797,42.946,8.201c17.231,1.404,26.508,6.346,31.445,9.113c4.936,2.767,1.711,6.822-1.818,7.446
		c-3.529,0.623-18.179-4.048-25.861-6.33c-7.681-2.282-21.786,0.281-27.252,3.673c-5.465,3.391,7.757,10.332,19.497,12.705
		c11.74,2.374,51.695,5.399,60.344,6.297c8.65,0.898,8.331,6.734,5.794,8.395c-2.536,1.661-13.534,1.829-18.332-0.154
		c-4.798-1.983-18.868-2.191-24.358-1.221c-5.489,0.97-0.579,7.673,5.557,12.654c6.136,4.981,32.378,5.238,47.693,4.958
		c15.315-0.279,31.224,6.256,32.816,8.401c1.592,2.145-6.606,8.777-13.733,9.632c-7.127,0.855-18.26,5.613-19.597,9.488
		c-1.337,3.875,7.19,7.26,14.41,9.219s55.142-2.397,68.388-8.846c4.122-2.007,5.797-3.596,8.732-8.592
		c6.071,0.632,13.305,0.759,21.52,0.518c20.169-0.593,32.591-11.399,34.988-14.162c2.397-2.764-5.781-6.891-12.261-6.433
		c-6.48,0.458-9.067-2.114-10.4-3.621c-1.334-1.508,6.448-4.309,14.089-5.775c7.642-1.466,21.111-2.601,29.095-5.917
		c7.984-3.316,6.497-8.395,3.88-9.833c-2.618-1.437-10.324-1.618-15.087-1.856c-4.762-0.238-2.641-3.037-0.015-5.106
		c2.626-2.069,7.737-3.898,21.184-5.572c13.448-1.675,18.714-4.205,24.598-8.236c4.404-3.019-1.174-4.044-6.694-5.377
		c-4.634-1.119-8.375-5.718-8.375-5.718s16.581-7.444,22.225-10.234c5.644-2.789,19.503-6.765,25.546-11.714
		C469.337,689.014,472.282,685.62,470.57,682.754z"/>
</g>
<g id="Layer_1">
</g>
</svg>
