<?xml version="1.0" encoding="iso-8859-1"?>
<!-- Generator: Adobe Illustrator 19.1.1, SVG Export Plug-In . SVG Version: 6.00 Build 0)  -->
<svg version="1.1" id="Layer_1" xmlns="http://www.w3.org/2000/svg" xmlns:xlink="http://www.w3.org/1999/xlink" x="0px" y="0px"
	 viewBox="0 0 960 960" style="enable-background:new 0 0 960 960;" xml:space="preserve">
<g id="_x33_">
	<path style="fill:none;" d="M595.244,697.172c-0.636-10.613-11.283-16.67-20.356-17.334c-6.889-0.504-7.366-6.891-6.889-14.504
		c0.445-7.099,1.841-11.538,0.094-15.213c0.932-4.991-0.377-14.996,0.099-18.867c0.641-5.214,2.563-55.209-0.641-57.834
		c-0.737-0.604-1.461-0.862-2.142-0.917c0.879-3.232,2.3-8.74,2.911-12.717c0.899-4.84-6.46-11.199-7.368-1.768
		c-1.392,6.831,0.423,10.166,2.635,14.807c-1.334,0.577-2.231,1.684-2.231,1.684s-5.385,60.107-3.89,67.527
		c0.538,2.667,0.719,4.895,1.121,6.637c-2.854-0.151,0.09,8.668,1.192,19.396c1.113,10.835-12.563,13.964-21.469,18.765
		c-8.906,4.802-4.812,15.665-4.812,15.665l61.5,1C595,703.5,595.881,707.785,595.244,697.172z"/>
</g>
<g id="Layer_1_1_">
</g>

</svg>
