<?xml version="1.0" encoding="iso-8859-1"?>
<!-- Generator: Adobe Illustrator 19.1.1, SVG Export Plug-In . SVG Version: 6.00 Build 0)  -->
<svg version="1.1" xmlns="http://www.w3.org/2000/svg" xmlns:xlink="http://www.w3.org/1999/xlink" x="0px" y="0px"
	 viewBox="0 0 960 960" style="enable-background:new 0 0 960 960;" xml:space="preserve">
<g id="_x35_">
	<path style="fill:none;" d="M783.606,534.478l-13.701,0.099l-1.15,11.487c0,0-4.886-3.742-9.198-4.03
		c-4.312-0.287-10.635,5.545-8.623,14.743c0.429,1.959,1.408,3.223,2.679,4.223h-11.962l-0.663-13.481
		c0,0,16.166-11.198,13.906-23.567s-6.159-12.702-8.264-10.908c-2.105,1.794-10.14,11.786-10.14,11.786s1.167-22.681-0.634-25.494
		l-43.908,0.125l16.369,7.341L703.852,561h-79.183c1.244-14,2.85-42.858,2.85-42.858s-8.048-3.205-20.121-4.93
		c-12.073-1.725-20.696,2.565-20.696,2.565l-2.012,26.146c-12.072-20.696-14.659,7.755-11.785,11.205s9.773-0.491,9.773-0.491
		S582.29,557,581.965,561h-79.032c-3.435-11-10.839-20.783-10.839-27.79c0-8.048,2.299-45.746,2.299-45.746
		s-4.886-6.058-7.186-0.309c0,0-1.437,35.344-3.737,43.68s-3.737,14.367-7.186,18.391c-0.44,0.513-0.869,1.047-1.285,1.606
		c-2.354-8.507-7.155-19.397-9.587-25.365c-3.162-7.761-3.449-43.117-3.449-43.117s-1.437-6.899-9.773-1.725
		c0,0,0.575,29.319-2.299,40.816c-2.874,11.498-7.473,20.782-10.923,27.68c-1.084,2.169-2.325,6.878-3.468,11.878h-77.77
		c0.305-12,0.63-22.841,0.862-26.199c0,0,2.012,8.005,5.749,8.005c3.737,0,10.348-12.381,12.36-36.526
		c2.012-24.145,0-37.091-5.461-37.091s-13.797,14.079-15.234,28.164c0,0-0.549-18.302-1.131-36.474
		c-12.818,27.307-21.131,60.122-25.179,98.869c-8.179,78.286,24.048,123.442,61.63,152.252h354.189
		C782.459,662.718,792.171,598.525,783.606,534.478z"/>
</g>
<g id="Layer_1">
</g>
</svg>
