<?xml version="1.0" encoding="iso-8859-1"?>
<!-- Generator: Adobe Illustrator 19.1.1, SVG Export Plug-In . SVG Version: 6.00 Build 0)  -->
<svg version="1.1" xmlns="http://www.w3.org/2000/svg" xmlns:xlink="http://www.w3.org/1999/xlink" x="0px" y="0px"
	 viewBox="0 0 960 960" style="enable-background:new 0 0 960 960;" xml:space="preserve">
<g id="_x34_">
	<path style="fill:none;" d="M701.163,683.229c47.878-44.195,37.743-123.366,6.174-164.52L703.852,561h-79.183
		c1.244-14,2.85-42.858,2.85-42.858s-8.048-3.205-20.121-4.93c-12.073-1.725-20.696,2.565-20.696,2.565l-2.012,26.146
		c-12.072-20.696-14.659,7.755-11.785,11.205s9.773-0.491,9.773-0.491S582.29,557,581.965,561h-79.032
		c-3.435-11-10.839-20.783-10.839-27.79c0-8.048,2.299-45.746,2.299-45.746s-0.164-0.202-0.443-0.496
		c-2.422,1.596-4.743,3.269-6.964,5.022c-0.485,9.965-1.744,32.42-3.516,38.845c-2.299,8.336-3.737,14.367-7.186,18.391
		c-0.44,0.513-0.869,1.047-1.285,1.606c-2.354-8.507-7.155-19.397-9.587-25.365c-0.617-1.515-1.124-4.09-1.541-7.241
		c-8.252,13.482-13.993,29.33-17.977,47.441c-11,50-8.862,114.983,38.138,138.983c5.377,2.746,11.694,5.207,18.728,7.349h143.186
		C667.459,705.844,686.827,696.462,701.163,683.229z"/>
</g>
<g id="Layer_1">
</g>
</svg>
