<?xml version="1.0" encoding="iso-8859-1"?>
<!-- Generator: Adobe Illustrator 19.1.1, SVG Export Plug-In . SVG Version: 6.00 Build 0)  -->
<svg version="1.1" xmlns="http://www.w3.org/2000/svg" xmlns:xlink="http://www.w3.org/1999/xlink" x="0px" y="0px"
	 viewBox="0 0 960 960" style="enable-background:new 0 0 960 960;" xml:space="preserve">
<g id="_x31_">
	<path style="fill:none;" d="M705.236,688.238c52-48,36.793-150.728-1.207-187.728c-0.374-0.364-0.758-0.721-1.14-1.08
		l-10.939,0.031l16.369,7.341L703.852,561h-79.183c1.244-14,2.85-42.858,2.85-42.858s-8.048-3.205-20.121-4.93
		c-12.073-1.725-20.696,2.565-20.696,2.565l-2.012,26.146c-12.072-20.696-14.659,7.755-11.785,11.205s9.773-0.491,9.773-0.491
		S582.29,557,581.965,561h-79.032c-3.435-11-10.839-20.783-10.839-27.79c0-8.048,2.299-45.746,2.299-45.746
		s-4.886-6.058-7.186-0.309c0,0-1.437,35.344-3.737,43.68s-3.737,14.367-7.186,18.391c-0.44,0.513-0.869,1.047-1.285,1.606
		c-2.354-8.507-7.155-19.397-9.587-25.365c-1.136-2.788-1.899-9.141-2.413-16.133c-10.572,15.958-17.616,34.925-22.215,55.833
		c-10.893,49.514-6.493,122.119,39.236,146.832h185.246C680.793,705.95,694.554,698.099,705.236,688.238z"/>
</g>
<g id="Layer_1">
</g>
</svg>
