<?xml version="1.0" encoding="iso-8859-1"?>
<!-- Generator: Adobe Illustrator 19.1.1, SVG Export Plug-In . SVG Version: 6.00 Build 0)  -->
<svg version="1.1" xmlns="http://www.w3.org/2000/svg" xmlns:xlink="http://www.w3.org/1999/xlink" x="0px" y="0px"
	 viewBox="0 0 960 960" style="enable-background:new 0 0 960 960;" xml:space="preserve">
<g id="_x35_">
	<path style="fill:none;" d="M699.963,681.739c47.254-43.619,37.696-118.013,7.042-158.996L703.852,561h-79.183
		c1.244-14,2.85-42.858,2.85-42.858s-8.048-3.205-20.121-4.93c-12.073-1.725-20.696,2.565-20.696,2.565l-2.012,26.146
		c-12.072-20.696-14.659,7.755-11.785,11.205s9.773-0.491,9.773-0.491S582.29,557,581.965,561h-79.032
		c-3.435-11-10.839-20.783-10.839-27.79c0-7.019,1.749-36.583,2.196-44.031c-2.6,1.708-5.07,3.512-7.433,5.4
		c-0.558,10.835-1.755,30.34-3.387,36.255c-2.299,8.336-3.737,14.367-7.186,18.391c-0.44,0.513-0.869,1.047-1.285,1.606
		c-2.354-8.507-7.155-19.397-9.587-25.365c-0.447-1.098-0.835-2.761-1.175-4.785c-7.64,12.798-13.019,27.825-16.826,45.126
		c-11,50-9.587,112.446,37.413,136.446c7.454,3.806,16.652,7.094,27.053,9.745h127.034
		C662.667,706.043,684.246,696.246,699.963,681.739z"/>
</g>
<g id="Layer_1">
</g>
</svg>
