<?xml version="1.0" encoding="utf-8"?>
<!-- Generator: Adobe Illustrator 19.0.1, SVG Export Plug-In . SVG Version: 6.00 Build 0)  -->
<svg version="1.1" id="Layer_1" xmlns="http://www.w3.org/2000/svg" xmlns:xlink="http://www.w3.org/1999/xlink" x="0px" y="0px"
	 viewBox="-242 244 14 14" style="enable-background:new -242 244 14 14;" xml:space="preserve">
<style type="text/css">
	.st0{fill:#FFFFFF;}
</style>
<polygon class="st0" points="-241.6,247.7 -241.6,251 -241.6,251 -241.6,251 -241.6,254.3 -238.1,254.3 -234.2,257.9 -234.2,252.2 
	-234.2,244.1 -238.1,247.7 "/>
<path class="st0" d="M-230.3,246.4c-0.4-0.4-1-0.4-1.4,0c-0.4,0.4-0.4,1,0,1.4c1.8,1.8,1.8,4.6,0,6.4c-0.4,0.4-0.4,1,0,1.4
	c0.2,0.2,0.5,0.3,0.7,0.3s0.5-0.1,0.7-0.3C-227.8,253.1-227.8,248.9-230.3,246.4z"/>
</svg>
