<?xml version="1.0" encoding="utf-8"?>
<!-- Generator: Adobe Illustrator 16.0.0, SVG Export Plug-In . SVG Version: 6.00 Build 0)  -->
<!DOCTYPE svg PUBLIC "-//W3C//DTD SVG 1.0//EN" "http://www.w3.org/TR/2001/REC-SVG-20010904/DTD/svg10.dtd">
<svg version="1.0" id="Layer_1" xmlns="http://www.w3.org/2000/svg" xmlns:xlink="http://www.w3.org/1999/xlink" x="0px" y="0px"
	 width="100px" height="100px" viewBox="0 0 100 100" enable-background="new 0 0 100 100" xml:space="preserve">
<g>
	<path fill-rule="evenodd" clip-rule="evenodd" fill="#FFFFFF" d="M93.826,52.345c0,8.609,0,17.219-0.001,25.829
		c-0.001,1.715-0.004,1.719-1.564,2.325C76.327,86.69,60.39,92.872,44.466,99.09c-1.129,0.44-2.01,0.357-3.033-0.311
		c-11.438-7.476-22.9-14.916-34.369-22.344c-0.565-0.366-0.834-0.788-0.844-1.424c-0.003-0.249-0.008-0.497-0.009-0.746
		C6.199,57.141,6.188,40.015,6.176,22.889c-0.001-2.173-0.007-2.191,1.985-2.964C23.287,14.051,38.417,8.187,53.545,2.319
		c0.665-0.258,1.352-0.475,1.991-0.786c1.093-0.531,2.053-0.381,3.061,0.276c11.468,7.487,22.946,14.959,34.438,22.411
		c0.623,0.404,0.764,0.884,0.762,1.55c-0.013,4.755-0.007,9.511-0.007,14.266c0,4.103,0,8.205,0,12.308
		C93.802,52.345,93.813,52.345,93.826,52.345z M73.388,42.292c0,0.04,0,0.081,0.001,0.121c1.209,0,2.421,0.04,3.627-0.024
		c0.377-0.02,0.844-0.229,1.089-0.509c1.248-1.425,2.425-2.911,3.653-4.353c0.337-0.396,0.371-0.679,0.046-1.119
		c-4.122-5.564-8.214-11.15-12.351-16.702c-0.324-0.436-0.883-0.814-1.406-0.965c-5.363-1.545-10.744-3.026-16.11-4.561
		c-0.57-0.163-0.828-0.049-1.092,0.452c-0.768,1.453-1.56,2.896-2.393,4.312c-0.325,0.551-0.296,0.997-0.033,1.56
		c3.136,6.716,6.256,13.439,9.354,20.173c0.314,0.684,0.714,0.959,1.478,0.988C63.963,41.846,68.675,42.077,73.388,42.292z
		 M27.143,58.332c0-0.048,0-0.096,0.001-0.145c-1.273,0-2.55,0.064-3.817-0.024c-0.715-0.051-1.172,0.166-1.598,0.693
		c-1.112,1.379-2.231,2.752-3.394,4.087c-0.423,0.485-0.446,0.813-0.053,1.344c4.106,5.541,8.178,11.107,12.287,16.646
		c0.271,0.366,0.726,0.702,1.16,0.827c5.455,1.575,10.923,3.104,16.382,4.661c0.501,0.144,0.771,0.065,1.028-0.427
		c0.792-1.511,1.679-2.975,2.452-4.495c0.177-0.349,0.197-0.923,0.035-1.277c-3.142-6.854-6.324-13.688-9.485-20.534
		c-0.237-0.513-0.547-0.727-1.131-0.749C36.386,58.757,31.765,58.539,27.143,58.332z M63.491,57.966
		c-0.085-0.297-0.103-0.417-0.151-0.522c-2.042-4.422-4.095-8.84-6.123-13.269c-0.254-0.554-0.648-0.652-1.185-0.676
		c-4.901-0.221-9.801-0.479-14.703-0.686c-1.566-0.066-3.137-0.01-4.78-0.01c0.121,0.293,0.226,0.574,0.352,0.845
		c1.876,4.055,3.792,8.093,5.609,12.174c0.44,0.988,1.032,1.286,2.046,1.32c3.786,0.125,7.569,0.33,11.354,0.5
		C58.388,57.753,60.866,57.854,63.491,57.966z M25.921,33.788c4.896-7.198,9.727-14.302,14.72-21.643
		c-10.761,3.063-21.255,6.051-31.946,9.094C14.53,25.49,20.175,29.602,25.921,33.788z M74.085,66.799
		c-4.873,7.165-9.711,14.278-14.548,21.392c0.044,0.056,0.088,0.111,0.132,0.167c10.479-2.983,20.956-5.967,31.642-9.01
		C85.473,75.096,79.814,70.974,74.085,66.799z M24.766,35.485c-5.652-4.116-11.234-8.181-17.023-12.396
		c1.444,10.444,2.852,20.624,4.259,30.803c0.072,0.012,0.145,0.024,0.217,0.036C16.384,47.806,20.55,41.684,24.766,35.485z
		 M75.239,65.104c5.667,4.126,11.229,8.174,17.022,12.392c-1.446-10.46-2.853-20.636-4.298-31.097
		C83.635,52.763,79.469,58.887,75.239,65.104z M42.57,12.587c-5.127,7.538-10.129,14.892-15.158,22.286
		c2.409,1.752,4.734,3.443,7.064,5.138c0.126-0.146,0.2-0.206,0.242-0.283c3.617-6.515,7.236-13.028,10.831-19.555
		c0.142-0.256,0.173-0.69,0.057-0.954C44.652,17.067,43.652,14.934,42.57,12.587z M65.499,60.548
		c-0.22,0.358-0.389,0.612-0.536,0.878c-3.001,5.399-6.005,10.798-8.995,16.204c-0.599,1.082-1.56,2.179-1.597,3.295
		c-0.037,1.114,0.864,2.266,1.374,3.393c0.529,1.173,1.082,2.337,1.7,3.668c5.112-7.517,10.112-14.866,15.146-22.268
		C70.208,63.979,67.903,62.3,65.499,60.548z M55.958,41.492c-3.06-6.599-6.043-13.035-9.107-19.642
		c-3.522,6.344-6.922,12.466-10.413,18.754C42.981,40.901,49.356,41.191,55.958,41.492z M53.153,78.742
		c3.525-6.353,6.931-12.487,10.412-18.762c-6.566-0.295-12.942-0.581-19.512-0.877C47.125,65.732,50.089,72.13,53.153,78.742z
		 M33.375,41.758c-2.4-1.748-4.727-3.442-7.12-5.185c-4.324,6.358-8.603,12.652-12.994,19.109c2.645,0.121,5.082,0.279,7.521,0.305
		c0.506,0.006,1.163-0.356,1.503-0.759c2.366-2.793,4.665-5.643,6.987-8.473C30.625,45.104,31.98,43.456,33.375,41.758z
		 M86.76,44.884c-2.576-0.105-4.896-0.165-7.211-0.313c-0.804-0.052-1.328,0.184-1.832,0.801c-2.966,3.633-5.966,7.238-8.951,10.854
		c-0.703,0.851-1.394,1.71-2.128,2.612c2.426,1.763,4.75,3.452,7.118,5.173C78.089,57.638,82.358,51.357,86.76,44.884z
		 M71.916,19.811c-0.034,0.059-0.068,0.119-0.102,0.178c3.814,5.187,7.628,10.373,11.502,15.641
		c2.85-3.449,5.604-6.781,8.458-10.234C85.029,23.499,78.473,21.655,71.916,19.811z M8.228,75.192
		c6.7,1.883,13.272,3.73,19.845,5.577c0.036-0.061,0.072-0.121,0.109-0.182C24.37,75.403,20.559,70.22,16.69,64.957
		C13.843,68.402,11.079,71.744,8.228,75.192z M65.45,57.223c3.557-4.301,7.006-8.47,10.599-12.814
		c-5.715-0.259-11.213-0.509-16.892-0.767C61.278,48.22,63.328,52.644,65.45,57.223z M34.555,43.362
		c-3.563,4.312-7.02,8.493-10.595,12.817c5.745,0.262,11.221,0.512,16.888,0.77C38.723,52.358,36.673,47.933,34.555,43.362z
		 M88.733,22.842c0.019-0.065,0.038-0.13,0.057-0.195C79.384,16.533,69.977,10.42,60.569,4.308
		c-0.047,0.062-0.095,0.125-0.143,0.188c3.126,4.25,6.244,8.506,9.396,12.738c0.213,0.285,0.657,0.452,1.027,0.558
		c3.546,1.02,7.1,2.016,10.651,3.017C83.912,21.487,86.322,22.164,88.733,22.842z M39.493,96.32
		c0.044-0.032,0.088-0.064,0.131-0.096c-0.059-0.101-0.109-0.208-0.178-0.301c-3.033-4.132-6.058-8.271-9.122-12.379
		c-0.268-0.359-0.767-0.634-1.211-0.761c-5.728-1.637-11.465-3.24-17.202-4.848c-0.176-0.049-0.365-0.049-0.548-0.072
		c-0.015,0.048-0.03,0.095-0.044,0.142C20.71,84.11,30.102,90.216,39.493,96.32z M47.973,88.068
		c-5.136-1.442-10.109-2.839-15.083-4.236c-0.029,0.061-0.058,0.121-0.087,0.182c3.279,4.459,6.559,8.918,9.924,13.494
		C44.51,94.301,46.206,91.248,47.973,88.068z M52.036,12.52c5.062,1.422,10.042,2.82,15.022,4.219
		c0.038-0.068,0.076-0.137,0.113-0.206c-3.272-4.449-6.545-8.899-9.897-13.458C55.481,6.307,53.785,9.365,52.036,12.52z
		 M92.519,68.069c0.021-0.007,0.044-0.015,0.065-0.021c0-12.13,0-24.258,0-36.543c-0.137,0.213-0.204,0.278-0.225,0.355
		c-0.928,3.639-1.892,7.269-2.751,10.923c-0.237,1.009-0.337,2.114-0.203,3.137c0.819,6.279,1.722,12.548,2.603,18.819
		C92.164,65.852,92.348,66.96,92.519,68.069z M7.6,33.104c-0.036-0.003-0.071-0.007-0.107-0.011c0,11.894,0,23.789,0,35.682
		c1.021-3.464,1.951-6.933,2.762-10.43c0.276-1.188,0.482-2.475,0.329-3.665C9.652,47.48,8.607,40.294,7.6,33.104z M77.579,84.938
		c-0.017-0.053-0.033-0.105-0.05-0.158c-4.409,1.256-8.782,2.662-13.238,3.726c-4.514,1.078-8.613,2.896-12.316,5.668
		c-0.595,0.444-1.249,0.811-1.875,1.213c0.029,0.051,0.059,0.103,0.088,0.153C59.318,92.005,68.448,88.472,77.579,84.938z
		 M22.678,15.552c0.017,0.053,0.033,0.106,0.049,0.159c0.171-0.042,0.344-0.077,0.514-0.125c4.982-1.418,9.973-2.806,14.94-4.273
		c1.745-0.516,3.514-1.064,5.123-1.89c1.841-0.945,3.517-2.214,5.263-3.345c0.429-0.278,0.852-0.566,1.278-0.849
		c-0.028-0.053-0.056-0.106-0.083-0.159C40.734,8.564,31.707,12.058,22.678,15.552z M8.717,71.191
		c0.074,0.038,0.149,0.076,0.224,0.114c2.186-2.642,4.372-5.283,6.577-7.947c-1.182-1.604-2.316-3.144-3.57-4.846
		C10.839,62.864,9.777,67.027,8.717,71.191z M88.061,42.073c1.121-4.406,2.184-8.582,3.246-12.758
		c-2.293,2.447-4.397,4.966-6.472,7.51c-0.138,0.168-0.161,0.609-0.038,0.783C85.812,39.052,86.874,40.463,88.061,42.073z
		 M55.265,90.143c-1.683-0.482-3.114-0.854-4.518-1.313c-0.661-0.217-0.997-0.082-1.324,0.534c-1.061,1.997-2.184,3.961-3.276,5.941
		c-0.136,0.245-0.234,0.511-0.455,0.998C48.961,94.199,52.003,92.242,55.265,90.143z M44.719,10.46
		c1.926,0.538,3.668,1.024,5.421,1.514c1.408-2.54,2.764-4.987,4.122-7.435c-0.048-0.042-0.096-0.084-0.144-0.126
		C51.037,6.395,47.957,8.377,44.719,10.46z M16.636,62.013c1.128-1.372,2.146-2.61,3.373-4.104c-2.294,0-4.304,0-6.389,0
		C14.599,59.24,15.581,60.577,16.636,62.013z M86.378,42.664c-0.987-1.339-1.972-2.674-3.009-4.082
		c-1.112,1.349-2.144,2.6-3.364,4.082C82.284,42.664,84.286,42.664,86.378,42.664z M52.947,83.077
		c-0.8,1.437-1.503,2.701-2.255,4.052c1.573,0.439,3.065,0.855,4.76,1.329C54.57,86.563,53.794,84.896,52.947,83.077z
		 M44.552,12.123c0.867,1.864,1.656,3.561,2.506,5.39c0.788-1.42,1.489-2.685,2.249-4.055C47.717,13.011,46.217,12.59,44.552,12.123
		z"/>
</g>
</svg>
