<?xml version="1.0" encoding="utf-8"?>
<!-- Generator: Adobe Illustrator 19.1.0, SVG Export Plug-In . SVG Version: 6.00 Build 0)  -->
<!DOCTYPE svg PUBLIC "-//W3C//DTD SVG 1.1//EN" "http://www.w3.org/Graphics/SVG/1.1/DTD/svg11.dtd">
<svg version="1.1" id="Layer_1" xmlns="http://www.w3.org/2000/svg" xmlns:xlink="http://www.w3.org/1999/xlink" x="0px" y="0px"
	 viewBox="0 0 322.2 82.5" enable-background="new 0 0 322.2 82.5" xml:space="preserve">
<path fill="none" stroke="#FFFFFF" stroke-width="4" stroke-linecap="round" stroke-linejoin="round" stroke-miterlimit="10" d="
	M8.8,18.5c-1.4-3.3-0.4-7.3,2.2-9.8s6.5-3.3,9.9-2.6s6.5,3.1,8.5,6.1c-3,0.3-6-0.1-8.9-0.9 M27.9,20.6c-1.8,0.9-3.9,0.7-5.8,0.2
	c-1.9-0.6-3.2-1.5-5.2-1.9c-4.1-0.8-6.9,0.8-9.9,3.8S2.4,29.9,2,34.1c-0.4,4.4,1.3,8.8,4.1,12.1s7,3.9,10.2,4.2
	c6.3,0.5,11.4-2.3,16.4-6 M60.8,47.3c-1.2,0.7-3,1.1-3.6-0.1c-0.2-0.5-0.1-1,0-1.5c0.8-4.2,1.6-8.4,2.4-12.6c0.4-2,0.7-4,0.5-6
	c-0.2-2-1.1-4-2.8-5.2c-2.6-1.8-4.8-0.8-7,1.4s-3.4,5.3-4.5,8.3c-1.8,5-4.3,10.9-6.1,15.8c3-7.6,5.2-16.7,6.6-24.7
	c-5.1,4.2-11.1,7.3-17.5,9c-2.9,0.8-5.9,1.2-8.8,0.5 M36,75.9c2.9,2.8,6.9,4.6,11,4.7c4.1,0,8.2-1.7,10.8-4.9
	c2.2-2.7,6.4-16.7,7.2-20l8.2-34.1 M75.9,7.7c-0.2-0.2-0.5,0.2-0.3,0.4C75.8,8.2,76.1,7.8,75.9,7.7 M32.4,68.4
	c-1.1-7.8,3.1-15.5,9-20.6s13.5-7.9,21-10c7.5-2.1,15.3-3.6,22.5-6.7c1.9-0.8,3.8-1.8,4.8-3.5c1.1-1.7,0.9-4.3-0.8-5.3
	c-1.7-1-3.9,0-5.6,1.1c-2.7,2-5.1,4.5-6.5,7.6c-1.3,3.1-1.5,6.8,0.1,9.8c1.6,3,4.9,5.1,8.3,4.7c1.6-0.2,3.2-1,4.5-1.9
	c1.7-1.2,3.1-2.6,4.3-4.3c1.9-2.6,3-5.8,2.7-9s-2.2-6.3-5.2-7.5 M103.5,23.3c0.7,3.3,0,6.8-0.9,10c-0.4,1.4-0.9,2.8-0.9,4.3
	c-0.1,2.6,1.2,5.2,3.2,6.8c2,1.7,4.6,2.5,7.2,2.4 M92.5,80.5c4.1,0,8.2-1.7,10.8-4.9c2.2-2.7,6.4-16.7,7.2-20l8.2-34.1
	c0,0,1.9-8.7,4.2-12.7c0.4-0.7,0.8-1.3,1.3-2 M108.6,26.7c0,1.2,1,2.2,2,2.8c4.5,3.2,10.3,3.8,15.8,3.3c7.6-0.7,15.1-4.5,18.1-9.2
	c-1.1,7.8-2.1,15.5-3.2,23.3c2.7-3.3,7.2-9.3,8.8-13.2 M151.4,23.1c-1,8.2-1.7,16.5-2.2,24.8c5.7-8.9,11.5-18.1,13.8-28.4 M178.6,2
	c-0.5,0.6-0.9,1.3-1.3,2c-2.3,4-5.8,17.5-5.8,17.5l-8.2,34.1c-0.8,3.4-5,17.4-7.2,20 M195.9,20.5c-5.5,0.2-9.4,2.5-13.3,6.3
	s-6.5,9.2-6.9,14.7c-0.1,1.7,0,3.5,1,4.8c1.4,1.9,2.6,2.3,4.8,1.6s3.9-2.5,5.4-4.3c2.8-3.4,5.5-12.2,6.8-16.4
	c-1.1,3.7-2.3,12.3-2.5,16.2c0,1.3,0.1,2.9,1.2,3.7c0.9,0.7,2.3,0.5,3.2-0.2c0.9-0.7,1.5-1.7,2-2.7 M239.1,41.7
	c-2.7,3.4-6.6,6.1-10.9,5.3c-5.1-1-6.7-7.9-6.8-11.7c-0.1-5.8,1.7-15,6.9-23.7c1.6-2.6,3.9-5.4,7-5.2c3.2,0.1,3.4,2.9,4.9,5.8
	c-0.4-4.8-3.7-7.5-8.4-6.3c-2.2,0.6-4.1,2-5.9,3.5c-6.4,5.2-26.3,20.3-30,22.5c-3.7,2.2-8.8,2.8-12.3,0.3 M243.5,35.6
	c6.4-8.2,11.6-16.8,13.6-27c0.2-1.1,0.1-2.7-1.1-2.9c-0.9-0.1-1.6,0.9-2,1.7c-3.8,8.4-5.7,16.8-6.9,26.6c-0.3,2.3-0.6,4.6-0.2,6.8
	c0.4,2.2,1.7,4.5,3.8,5.4c1,0.5,2.1,0.6,3.1,0.3c1.3-0.4,2.6-1.6,3.4-2.7 M273.3,42.7c-0.9,1.4-2,2.7-3.3,3.8
	c-0.5,0.4-1,0.8-1.6,0.8c-0.8,0-1.5-0.6-1.8-1.4c-0.3-0.7-0.3-1.6-0.3-2.4c0.2-7.7,3.3-22.9,3.3-22.9s-4.1,12.8-8.3,17.9 M272,8.1
	c0,0.1,0,0.3,0,0.4c0.2-0.2,0.2-0.7-0.1-0.6 M291.2,26.4c-0.1-1.8-0.4-3.9-1.9-5c-1.5-1.1-3.6-0.7-5.1,0.4c-1.4,1.1-2.3,2.8-3,4.5
	c-1.5,3.7-2.5,7.7-2.7,11.6c-0.2,3,0.2,6.5,2.6,8.4c1.9,1.5,4.8,1.5,7,0.5c2.2-1,4-2.9,5.5-4.8c5.5-6.9,8.7-15.4,11.8-23.7
	c1.3-3.3,2.5-6.7,3.8-10c0.4-1,0.5-2.5-0.6-2.7c-0.7-0.1-1.3,0.6-1.6,1.3c-1.4,2.9-2.2,6-2.9,9.1c-2.4,10.6-4.9,21.2-7.3,31.8
	c1.5-6.1,3.5-12.1,5.9-17.8c1.2-3,2.8-6.1,5.8-7.4c1.7-0.7,4.2-0.4,4.9,1.3c0.3,0.6,0.3,1.4,0.2,2.1c-0.3,2.5-1.9,4.8-4.1,6
	c-2.2,1.1-5.1,1.1-7.3-0.1c2.5,5.4,6.1,10.4,10.6,14.3c1.5,1.3,2.3,2.2,4.4,2.2c2,0,2.4-0.6,3-1.1 M310.9,30.8
	c-3.5,3-6.2,2.4-10.8,2.3c-16.9-0.5-33.3-7.6-50.1-6.3c-5.5,0.4-10.9,1.8-16.2,3.6c-9.8,3.5-19.2,9.3-24.7,18.1"/>
</svg>
