<?xml version="1.0" encoding="utf-8"?>
<!-- Generator: Adobe Illustrator 19.1.0, SVG Export Plug-In . SVG Version: 6.00 Build 0)  -->
<!DOCTYPE svg PUBLIC "-//W3C//DTD SVG 1.1//EN" "http://www.w3.org/Graphics/SVG/1.1/DTD/svg11.dtd">
<svg version="1.1" id="Layer_1" xmlns="http://www.w3.org/2000/svg" xmlns:xlink="http://www.w3.org/1999/xlink" x="0px" y="0px"
	 viewBox="0 0 250 250" enable-background="new 0 0 250 250" xml:space="preserve">
	<path opacity="0.64" fill-rule="evenodd" clip-rule="evenodd" fill="#F0F9FC" d="M144.3,95c0-4.6-0.4-9.2-1.7-13.7
		c-1.9-5.2-34.9-5.2-35.8,0c-1.3,4.6-1.8,9.1-1.7,13.7H144.3z"/>
	<path opacity="0.64" fill-rule="evenodd" clip-rule="evenodd" fill="#9ABACA" d="M135.5,175.4c7.5,0,0.8-15,0.5-19.9
		c-1.7-28.2,13.2-51,6.5-73.5c-17.9,0-17.9,0-35.8,0c-6.7,22.5,8.2,45.3,6.5,73.5c-0.3,4.9-7,19.9,0.5,19.9H135.5z"/>
	<path opacity="0.64" fill-rule="evenodd" clip-rule="evenodd" fill="#BCD8E6" d="M135.5,175.4c7.5,0,0.8-15,0.5-19.9
		c-1.7-28.2,13.2-51,6.5-73.5h-0.2h-0.6h-0.1h-0.5H141h-0.2h-0.5h0h-0.5h-0.2h-0.3h-0.4h0h-0.5H138h-0.3h-0.4h0h-0.4h-0.2h-0.2H136
		h0h-0.4h-0.2h-0.2h-0.4h0h-0.3h-0.3h-0.1h-0.4h-0.1h-0.2H133h0h-0.3h-0.2h-0.1H132H132h-0.3h-0.3h-0.1h-0.3h-0.1h-0.2h-0.3h0h-0.3
		H130h-0.1h-0.3h0h-0.3H129h-0.1h-0.3h0h-0.3h-0.1h-0.2h-0.3h-0.1h-0.3h-0.1H127h-0.2h-0.2h-0.3h-0.1h-0.3h0h-0.4h0h-0.3h-0.1h-0.3
		h-0.2h-0.2h-0.2h-0.2h-0.2h-0.2h-0.2h-0.2H123h-0.2h-0.3h-0.2h-0.2h-0.2h-0.2h-0.2h-0.2H121h-0.2h-0.3h-0.2H120h-0.1h-0.4h-0.1
		h-0.5h0h-0.5h-0.1h-0.5h-0.1h-0.4h-0.2h-0.3h-0.3c-4.9,22.5,6,45.3,4.8,73.5c-0.2,4.9-5.1,19.9,0.4,19.9H135.5z"/>
	<path opacity="0.64" fill-rule="evenodd" clip-rule="evenodd" fill="#BCD8E6" d="M113.2,82h-2.5c-5.2,22.5,6.4,45.3,5.1,73.5
		c-0.2,3.3-2.6,11.3-2.3,16.1c0.1,1.4,2.1,1.5,2,0c-0.1-4.9,1.8-12.6,1.9-15.8C118.5,127.5,109.2,104.6,113.2,82z"/>
	<path opacity="0.64" fill-rule="evenodd" clip-rule="evenodd" fill="#E1F2FB" d="M135.9,171.6c0.3-4.8-2.2-12.8-2.3-16.2
		c-1.3-28.2,10.3-51,5.1-73.5h-2.5c4,22.6-5.3,45.5-4.2,73.8c0.1,3.3,2,11.1,1.9,15.9C133.8,173.1,135.8,173,135.9,171.6z"/>
	<path opacity="0.64" fill-rule="evenodd" clip-rule="evenodd" fill="#F1CF65" d="M136.9,159.8c-0.4-1.7-0.8-3.3-0.9-4.3
		c-1.3-22.8,8.1-42,8.3-60.5H105c0.2,18.4,9.6,37.7,8.3,60.5c-0.1,1.1-0.4,2.6-0.9,4.3H136.9z"/>
	<path opacity="0.64" fill-rule="evenodd" clip-rule="evenodd" fill="#FCE67D" d="M109.4,95c0.1,18.4,7.5,37.7,6.4,60.5
		c0,1.1-0.3,2.6-0.7,4.3h1.8c0.3-1.6,0.5-3,0.5-4c0.8-22.9-5.1-42.2-5.2-60.7H109.4z"/>
	<path opacity="0.64" fill-rule="evenodd" clip-rule="evenodd" fill="#FCE67D" d="M136.9,159.8L136.9,159.8l0-0.2l0-0.1l0-0.1l0-0.1
		l0-0.1l0-0.1l0-0.2l0-0.1l0-0.1l0-0.1l0-0.1l0,0l0-0.1l0-0.1l0-0.1l0-0.1l0,0l0,0l0-0.1l0-0.1l0-0.1l0-0.1l0,0l0-0.1l0-0.1l0-0.1
		l0,0l0-0.1l0-0.2l0,0l0,0l-0.1-0.3l0,0c0-0.1,0-0.2-0.1-0.3v0l0,0l0-0.2l0,0l0,0l0-0.2l0,0l0,0l0,0c0-0.2,0-0.3-0.1-0.5l0,0v0
		c0-0.1,0-0.2,0-0.2c0-0.4,0-0.8-0.1-1.2l0-0.4c0-0.3,0-0.5,0-0.8l0-0.4c0-0.3,0-0.6,0-0.8l0-0.3c0-0.3,0-0.7,0-1l0-0.2
		c0-0.4,0-0.8,0-1.2l0-0.4c0-0.3,0-0.5,0-0.8l0-0.4c0-0.3,0-0.5,0-0.8l0-0.4c0-0.3,0-0.6,0.1-0.9l0-0.2c0-0.4,0.1-0.8,0.1-1.2l0-0.2
		c0-0.3,0.1-0.7,0.1-1l0-0.3c0-0.3,0.1-0.6,0.1-0.9l0-0.3c0-0.3,0.1-0.7,0.1-1l0-0.2c0.1-0.8,0.2-1.6,0.3-2.3l0-0.2
		c0-0.3,0.1-0.6,0.1-0.9l0-0.3c0.2-1.2,0.4-2.3,0.6-3.5l0,0c0.1-0.4,0.1-0.8,0.2-1.1l0-0.1c2.2-11.7,5.5-22.6,6.2-33.1l0-0.1
		c0.1-1.1,0.1-2.3,0.1-3.4l0,0h-29c0.1,18.4,7.1,37.7,6.1,60.5c0,1.1-0.3,2.6-0.6,4.3H136.9z"/>
	<path opacity="0.64" fill-rule="evenodd" clip-rule="evenodd" fill="#FFF6CF" d="M134.2,159.8c-0.3-1.7-0.6-3.3-0.7-4.3
		c-1-22.8,6.3-42,6.4-60.5h-2.8c-0.2,18.5-6.1,37.9-5.2,60.7c0,1,0.2,2.4,0.5,4H134.2z"/>
	<path opacity="0.64" fill-rule="evenodd" clip-rule="evenodd" fill="#FFFFFF" d="M144.3,95c0-4.4-0.4-8.7-1.7-13
		c-1.9-5-34.9-5-35.8,0c-1.3,4.3-1.8,8.7-1.7,13H144.3z"/>
	<path opacity="0.64" fill-rule="evenodd" clip-rule="evenodd" fill="#D9ECF6" d="M144.3,95L144.3,95c0-0.2,0-0.4,0-0.6
		c0-0.2,0-0.3,0-0.5c0-0.2,0-0.3,0-0.5c0-0.2,0-0.4,0-0.6c0-0.2,0-0.3,0-0.5c0-0.2,0-0.4,0-0.6l0-0.4c0-0.2,0-0.5-0.1-0.8l0-0.3
		c0-0.3,0-0.6-0.1-0.8l0-0.2c0-0.3-0.1-0.6-0.1-0.8l0-0.2c0-0.3-0.1-0.6-0.1-0.9l0-0.1c-0.1-0.3-0.1-0.6-0.2-1l0-0.1
		c-0.1-0.3-0.1-0.7-0.2-1l0-0.1c-0.1-0.3-0.1-0.7-0.2-1l0,0c-0.1-0.3-0.2-0.7-0.3-1l0,0c-0.1-0.3-0.2-0.7-0.3-1
		c-17.9,0-17.9,0-35.8,0c-0.1,0.4-0.2,0.7-0.3,1l0,0c-0.1,0.3-0.2,0.7-0.3,1l0,0c-0.1,0.3-0.2,0.7-0.2,1l0,0.1
		c-0.1,0.3-0.1,0.7-0.2,1l0,0.1c-0.1,0.3-0.1,0.6-0.2,1l0,0.1c0,0.3-0.1,0.6-0.1,0.9l0,0.2c0,0.3-0.1,0.6-0.1,0.8l0,0.2
		c0,0.3-0.1,0.6-0.1,0.8l0,0.3c0,0.2,0,0.5-0.1,0.8l0,0.4c0,0.2,0,0.4,0,0.6c0,0.2,0,0.3,0,0.5c0,0.2,0,0.4,0,0.6c0,0.2,0,0.3,0,0.5
		l0,0.5c0,0.2,0,0.4,0,0.6l0,0H144.3z"/>
	<path opacity="0.64" fill-rule="evenodd" clip-rule="evenodd" fill="#F0F9FC" d="M144.3,95L144.3,95c0-0.2,0-0.4,0-0.6
		c0-0.2,0-0.3,0-0.5c0-0.2,0-0.3,0-0.5c0-0.2,0-0.4,0-0.6c0-0.2,0-0.3,0-0.5c0-0.2,0-0.4,0-0.6l0-0.4c0-0.2,0-0.5,0-0.8l0-0.3
		c0-0.3,0-0.6-0.1-0.8l0-0.2c0-0.3,0-0.6-0.1-0.8l0-0.2c0-0.3-0.1-0.6-0.1-0.9l0-0.1c0-0.3-0.1-0.6-0.1-1l0-0.1c0-0.3-0.1-0.7-0.1-1
		l0-0.1c-0.1-0.3-0.1-0.7-0.2-1l0,0c-0.1-0.3-0.1-0.7-0.2-1l0,0c-0.1-0.3-0.1-0.7-0.2-1c-13.2,0-13.2,0-26.4,0
		c-0.1,0.4-0.1,0.7-0.2,1l0,0c-0.1,0.3-0.1,0.7-0.2,1l0,0c-0.1,0.3-0.1,0.7-0.2,1l0,0.1c-0.1,0.3-0.1,0.7-0.1,1l0,0.1
		c0,0.3-0.1,0.6-0.1,1l0,0.1c0,0.3-0.1,0.6-0.1,0.9l0,0.2c0,0.3-0.1,0.6-0.1,0.8l0,0.2c0,0.3,0,0.6-0.1,0.8l0,0.3c0,0.2,0,0.5,0,0.8
		l0,0.4c0,0.2,0,0.4,0,0.6c0,0.2,0,0.3,0,0.5c0,0.2,0,0.4,0,0.6c0,0.2,0,0.3,0,0.5l0,0.5c0,0.2,0,0.4,0,0.6v0H144.3z"/>
	<path opacity="0.64" fill-rule="evenodd" clip-rule="evenodd" fill="#FFFFFF" d="M138.6,82h-0.4h-0.5h-0.4h-0.4h-0.4h-0.2
		c0.8,4.3,1,8.7,1,13h2.8C140,90.6,139.6,86.3,138.6,82z"/>
</svg>
