<?xml version="1.0" encoding="utf-8"?>
<!-- Generator: Adobe Illustrator 19.1.0, SVG Export Plug-In . SVG Version: 6.00 Build 0)  -->
<!DOCTYPE svg PUBLIC "-//W3C//DTD SVG 1.1//EN" "http://www.w3.org/Graphics/SVG/1.1/DTD/svg11.dtd">
<svg version="1.1" id="Layer_1" xmlns="http://www.w3.org/2000/svg" xmlns:xlink="http://www.w3.org/1999/xlink" x="0px" y="0px"
	 viewBox="0 0 250 250" enable-background="new 0 0 250 250" xml:space="preserve">
	<path fill-rule="evenodd" clip-rule="evenodd" fill="#BCD8E6" d="M105.3,167H144c1,0,1.9-0.8,1.9-1.9l0,0c0-1-0.8-1.9-1.9-1.9
		h-38.6c-1,0-1.9,0.8-1.9,1.9l0,0C103.5,166.2,104.3,167,105.3,167z"/>
	<path fill-rule="evenodd" clip-rule="evenodd" fill="#BCD8E6" d="M130.7,164.3c-1.6-1.5-3.8-2.5-3.8-8v-8.1c0-5.8,3.1-8.7,6.5-11.1
		H116c3.4,2.3,6.5,5.2,6.5,11.1v8.1c0,5.4-2.3,6.4-3.8,8C120.9,166.4,127.9,165.7,130.7,164.3z"/>
	<path fill-rule="evenodd" clip-rule="evenodd" fill="#9ABACA" d="M116.3,137.4c3.3,2.3,6.2,5.2,6.2,10.9v8.1c0,4.3-1.4,5.8-2.8,7
		c4.8,0.3,4.5-7.1,4.5-9.3v-8.1c0-2.6,0-7.3-1.7-8.7C121.1,136,118.3,137.8,116.3,137.4z"/>
	<path fill-rule="evenodd" clip-rule="evenodd" fill="#9ABACA" d="M105.7,167h37.9c1.2,0,2.2-0.8,2.2-1.9h-42.3
		C103.5,166.2,104.5,167,105.7,167z"/>
	<path fill-rule="evenodd" clip-rule="evenodd" fill="#9ABACA" d="M142.5,85.3h-35.8c-1.8,5.1-11.5,21.8-6.5,36.4
		c3.7,10.9,13.9,17.1,24.3,17.1c10.5,0,20.6-6.2,24.3-17.1C154,107.1,144.4,90.4,142.5,85.3z"/>
	<path fill-rule="evenodd" clip-rule="evenodd" fill="#BCD8E6" d="M113.5,85.3h-3.1c-1.5,4.9-9.1,21-5.1,35
		c1.6,5.6,4.6,9.9,8.3,12.7c-1.8-2.8-3.3-6.3-4.2-10.5C106.4,107.6,112.4,90.5,113.5,85.3z"/>
	<path fill-rule="evenodd" clip-rule="evenodd" fill="#D15227" d="M100.2,102.8c-1.5,5.9-2,12.6,0.1,18.8
		c3.7,10.9,13.9,17.1,24.3,17.1c10.5,0,20.6-6.2,24.3-17.1c2.1-6.2,1.6-12.9,0.1-18.8H100.2z"/>
	<path fill-rule="evenodd" clip-rule="evenodd" fill="#BCD8E6" d="M142.5,85.3h-22.5c-1.3,5.1-8,21.8-4.5,36.4
		c2.2,9.3,7.6,15.1,13.7,16.7c8.7-1.5,16.5-7.4,19.7-16.7c1-3,1.4-6,1.4-9C150.4,100.8,144,89.3,142.5,85.3z"/>
	<path fill-rule="evenodd" clip-rule="evenodd" fill="#E1F2FB" d="M138.9,85.3h-3.1c1.1,5.2,7.1,22.3,4,37.2
		c-0.9,4.2-2.3,7.8-4.2,10.5c3.7-2.8,6.8-7.1,8.3-12.7C148,106.3,140.3,90.2,138.9,85.3z"/>
	<path fill-rule="evenodd" clip-rule="evenodd" fill="#E46C25" d="M115.5,102.8c-1,5.9-1.4,12.6,0.1,18.8
		c2.2,9.3,7.6,15.1,13.7,16.7c8.7-1.5,16.5-7.4,19.7-16.7c1-3,1.4-6,1.4-9c0-3.4-0.5-6.7-1.3-9.8H115.5z"/>
	<path fill-rule="evenodd" clip-rule="evenodd" fill="#DD6226" d="M105.1,102.8c-1.1,5.6-1.4,11.7,0.2,17.5
		c1.6,5.6,4.6,9.9,8.3,12.7c-1.8-2.8-3.3-6.3-4.2-10.5c-1.4-6.5-1-13.5,0-19.6H105.1z"/>
	<path fill-rule="evenodd" clip-rule="evenodd" fill="#EC8923" d="M139.8,102.8c1,6.2,1.3,13.1,0,19.6c-0.9,4.2-2.3,7.8-4.2,10.5
		c3.7-2.8,6.8-7.1,8.3-12.7c1.6-5.8,1.3-11.9,0.2-17.5H139.8z"/>
</svg>
