<?xml version="1.0" encoding="utf-8"?>
<!-- Generator: Adobe Illustrator 19.1.0, SVG Export Plug-In . SVG Version: 6.00 Build 0)  -->
<!DOCTYPE svg PUBLIC "-//W3C//DTD SVG 1.1//EN" "http://www.w3.org/Graphics/SVG/1.1/DTD/svg11.dtd">
<svg version="1.1" id="Layer_1" xmlns="http://www.w3.org/2000/svg" xmlns:xlink="http://www.w3.org/1999/xlink" x="0px" y="0px"
	 viewBox="0 0 250 250" enable-background="new 0 0 250 250" xml:space="preserve">
	<path fill-rule="evenodd" clip-rule="evenodd" fill="#BCD8E6" d="M109.5,180h31.4c1,0,1.9-0.8,1.9-1.9l0,0c0-1-0.8-1.9-1.9-1.9
		h-31.4c-1,0-1.9,0.8-1.9,1.9l0,0C107.6,179.2,108.5,180,109.5,180z"/>
	<path fill-rule="evenodd" clip-rule="evenodd" fill="#BCD8E6" d="M131.2,177.3c-1.6-1.5-3.8-2.5-3.8-8v-28.1
		c0-5.8,3.1-8.7,6.5-11.1h-17.3c3.4,2.3,6.5,5.2,6.5,11.1v28.1c0,5.4-2.3,6.4-3.8,8C121.5,179.4,128.5,178.7,131.2,177.3z"/>
	<path fill-rule="evenodd" clip-rule="evenodd" fill="#9ABACA" d="M116.8,130.4c3.3,2.3,6.2,5.2,6.2,10.9v28.1c0,4.3-1.4,5.8-2.8,7
		c4.8,0.3,4.5-7.1,4.5-9.3v-28.1c0-2.6,0-7.3-1.7-8.7C121.7,129,118.9,130.9,116.8,130.4z"/>
	<path fill-rule="evenodd" clip-rule="evenodd" fill="#9ABACA" d="M109.5,180h31.4c1,0,1.9-0.8,1.9-1.9h-35.1
		C107.6,179.2,108.5,180,109.5,180z"/>
	<path fill-rule="evenodd" clip-rule="evenodd" fill="#9ABACA" d="M139.9,72.3h-29.4c-1.5,5.7-9.4,24.7-5.3,41.1
		c3.1,12.3,11.4,19.3,20,19.3c8.6,0,16.9-7,20-19.3C149.3,96.9,141.4,78,139.9,72.3z"/>
	<path fill-rule="evenodd" clip-rule="evenodd" fill="#BCD8E6" d="M116.1,72.3h-2.5c-1.2,5.5-7.5,23.8-4.2,39.6
		c1.3,6.3,3.8,11.2,6.9,14.4c-1.5-3.1-2.7-7.1-3.4-11.9C110.2,97.5,115.1,78.1,116.1,72.3z"/>
	<path fill-rule="evenodd" clip-rule="evenodd" fill="#560E2D" d="M105.1,92.1c-1.2,6.7-1.6,14.2,0.1,21.3
		c3.1,12.3,11.4,19.3,20,19.3c8.6,0,16.9-7,20-19.3c1.8-7,1.3-14.5,0.1-21.3H105.1z"/>
	<path fill-rule="evenodd" clip-rule="evenodd" fill="#BCD8E6" d="M139.9,72.3h-18.5c-1,5.7-6.6,24.7-3.7,41.1
		c1.8,10.5,6.3,17.1,11.3,18.9c7.2-1.7,13.6-8.4,16.2-18.9c0.8-3.3,1.2-6.8,1.2-10.2C146.4,89.8,141.1,76.8,139.9,72.3z"/>
	<path fill-rule="evenodd" clip-rule="evenodd" fill="#E1F2FB" d="M136.9,72.3h-2.5c0.9,5.9,5.9,25.2,3.3,42
		c-0.7,4.8-1.9,8.8-3.4,11.9c3.1-3.2,5.6-8,6.9-14.4C144.4,96,138.1,77.8,136.9,72.3z"/>
	<path fill-rule="evenodd" clip-rule="evenodd" fill="#781944" d="M117.7,92.1c-0.8,6.7-1.1,14.2,0.1,21.3
		c1.8,10.5,6.3,17.1,11.3,18.9c7.2-1.7,13.6-8.4,16.2-18.9c0.8-3.3,1.2-6.8,1.2-10.2c0-3.8-0.4-7.5-1.1-11.1H117.7z"/>
	<path fill-rule="evenodd" clip-rule="evenodd" fill="#781944" d="M109.1,92.1c-0.9,6.3-1.2,13.2,0.2,19.8
		c1.3,6.3,3.8,11.2,6.9,14.4c-1.5-3.1-2.7-7.1-3.4-11.9c-1.1-7.4-0.8-15.2,0-22.2H109.1z"/>
	<path fill-rule="evenodd" clip-rule="evenodd" fill="#A74070" d="M137.7,92.1c0.8,7,1.1,14.8,0,22.2c-0.7,4.8-1.9,8.8-3.4,11.9
		c3.1-3.2,5.6-8,6.9-14.4c1.3-6.5,1.1-13.5,0.2-19.8H137.7z"/>
</svg>
