<?xml version="1.0" encoding="utf-8"?>
<!-- Generator: Adobe Illustrator 19.1.0, SVG Export Plug-In . SVG Version: 6.00 Build 0)  -->
<!DOCTYPE svg PUBLIC "-//W3C//DTD SVG 1.1//EN" "http://www.w3.org/Graphics/SVG/1.1/DTD/svg11.dtd">
<svg version="1.1" id="Layer_1" xmlns="http://www.w3.org/2000/svg" xmlns:xlink="http://www.w3.org/1999/xlink" x="0px" y="0px"
	 viewBox="0 0 250 250" enable-background="new 0 0 250 250" xml:space="preserve">
<path fill="#BDD8E6" d="M111.8,166.4h25.5c0.9,0,1.7-0.8,1.7-1.7l0,0c0-0.9-0.8-1.7-1.7-1.7h-25.5c-0.9,0-1.7,0.8-1.7,1.7l0,0
	C110.1,165.6,110.9,166.4,111.8,166.4z"/>
<path fill="#BDD8E6" d="M130.1,163.3c-1.4-2.1-4-3.6-4-11.2v-11.3c0-8.1,3.3-12,6.4-15.2h-15.9c3.1,3.2,6.5,7,6.5,15.1V152
	c0,7.6-2.6,9.1-4.1,11.3C121.1,166.2,127.5,165.2,130.1,163.3z"/>
<path fill="#9BBBCA" d="M116.9,125.9c3,3.2,6.2,7,6.2,14.9V152c0,5.9-1.8,8.2-3.1,9.9c4.4,0.4,4.1-9.8,4.1-12.9v-11.3
	c0-3.6,0-10.1-1.5-12.1C121.3,123.9,118.7,126.5,116.9,125.9z"/>
<path fill="#9BBBCA" d="M111.6,166.4h25.8c0.8,0,1.5-0.8,1.5-1.7h-28.8C110.1,165.6,110.8,166.4,111.6,166.4z"/>
<polygon fill="#9BBBCA" points="92.4,102.7 156.7,102.7 131.1,127.1 118,127.1 "/>
<polygon fill="#BDD8E6" points="108.9,102.7 156.7,102.7 131.1,127.1 123.3,127.1 "/>
<polygon fill="#BDD8E6" points="100.1,102.7 104.5,102.7 120.8,127.1 119.9,127.1 "/>
<polygon fill="#E1F2FC" points="149.5,102.7 145.1,102.7 128.8,127.1 129.7,127.1 "/>
<polygon fill="#83A07D" points="150.1,108.9 133,125.3 116.1,125.3 98.9,108.9 "/>
<polygon fill="#A9C7A4" points="108.7,108.9 119.6,125.3 118.5,125.3 105.2,108.9 "/>
<polygon fill="#A9C7A4" points="141.3,117.4 133,125.3 122.2,125.3 112.6,108.9 150.1,108.9 "/>
<polygon fill="#D2E8CE" points="141,108.9 130,125.3 131.1,125.3 144.4,108.9 "/>
<path fill="#FBAE48" d="M148.3,84c-1,3.9-2.9,10-5.3,16.8c-2.4,6.8-4.8,12.7-6.6,16.4c1-3.9,2.9-10,5.3-16.8
	C144.2,93.6,146.6,87.6,148.3,84z"/>
<path fill="#D2BA74" d="M134.7,108.9h1.1c-1.3,3.3-2.5,6.2-3.5,8.3C132.9,115,133.7,112.2,134.7,108.9z"/>
<path fill="#598050" d="M132.7,102.7c0.5-1.3,1.3-2.4,2.4-3c1-0.6,2.2-0.8,3.3-0.4s1.9,1.3,2.3,2.4c0.4,1.1,0.4,2.5-0.1,3.8
	c-0.5,1.3-1.3,2.4-2.4,3c-1,0.6-2.2,0.8-3.3,0.4c-1.1-0.4-1.9-1.3-2.3-2.4C132.2,105.4,132.2,104,132.7,102.7z"/>
<path fill="#89AC9A" d="M132.7,102.7h8.2c0.1,0.9,0,1.9-0.3,2.8c-1,2.7-3.5,4.2-5.7,3.4C132.7,108.1,131.7,105.4,132.7,102.7z"/>
<path fill="#87AF80" d="M134.9,101c0.2-0.4,0.4-0.8,0.8-1c0.3-0.2,0.7-0.3,1.1-0.1c0.4,0.1,0.6,0.4,0.8,0.8c0.1,0.4,0.1,0.8,0,1.3
	c-0.2,0.4-0.4,0.8-0.8,1c-0.3,0.2-0.7,0.3-1.1,0.1c-0.4-0.1-0.6-0.4-0.8-0.8C134.8,101.9,134.8,101.4,134.9,101z"/>
</svg>
