<?xml version="1.0" encoding="utf-8"?>
<!-- Generator: Adobe Illustrator 19.1.0, SVG Export Plug-In . SVG Version: 6.00 Build 0)  -->
<!DOCTYPE svg PUBLIC "-//W3C//DTD SVG 1.1//EN" "http://www.w3.org/Graphics/SVG/1.1/DTD/svg11.dtd">
<svg version="1.1" id="Layer_1" xmlns="http://www.w3.org/2000/svg" xmlns:xlink="http://www.w3.org/1999/xlink" x="0px" y="0px"
	 viewBox="0 0 250 250" enable-background="new 0 0 250 250" xml:space="preserve">
	<polygon fill-rule="evenodd" clip-rule="evenodd" fill="#9ABACA" points="100.6,99.6 149.1,99.6 139.4,152.3 110.3,152.3 	"/>
	<polygon fill-rule="evenodd" clip-rule="evenodd" fill="#CDCCCC" points="146.9,111.5 142.5,135.9 107.3,135.9 102.8,111.5 	"/>
	<polygon fill-rule="evenodd" clip-rule="evenodd" fill="#BCD8E6" points="115,99.6 149.1,99.6 139.4,152.3 121.8,152.3 	"/>
	<path fill-rule="evenodd" clip-rule="evenodd" fill="#E1F2FB" d="M139.1,99.6h5.2l-10.1,50.2c-0.2,1.1-2.2,1.2-2,0L139.1,99.6z"/>
	<path fill-rule="evenodd" clip-rule="evenodd" fill="#BCD8E6" d="M105.5,99.6h5.2l7.2,50.2c0.2,1.2-1.8,1.1-2,0L105.5,99.6z"/>
	<polygon fill-rule="evenodd" clip-rule="evenodd" fill="#E6E6E5" points="112.4,111.5 115.9,135.9 113,135.9 107.9,111.5 	"/>
	<polygon fill-rule="evenodd" clip-rule="evenodd" fill="#E6E6E5" points="146.9,111.5 142.5,135.9 119.7,135.9 116.5,111.5 	"/>
	<polygon fill-rule="evenodd" clip-rule="evenodd" fill="#FFFFFF" points="141.9,111.5 137,135.9 134.1,135.9 137.4,111.5 	"/>
</svg>
