<?xml version="1.0" encoding="utf-8"?>
<!-- Generator: Adobe Illustrator 19.1.0, SVG Export Plug-In . SVG Version: 6.00 Build 0)  -->
<!DOCTYPE svg PUBLIC "-//W3C//DTD SVG 1.1//EN" "http://www.w3.org/Graphics/SVG/1.1/DTD/svg11.dtd">
<svg version="1.1" id="Layer_1" xmlns="http://www.w3.org/2000/svg" xmlns:xlink="http://www.w3.org/1999/xlink" x="0px" y="0px"
	 viewBox="0 0 250 250" enable-background="new 0 0 250 250" xml:space="preserve">
	<path opacity="0.64" fill-rule="evenodd" clip-rule="evenodd" fill="#9ABACA" d="M138.8,148.3c-4.9,0-9.8,0-14.6,0
		c-4.9,0-9.8,0-14.6,0c-0.9-7.5-1.9-14.9-2.8-22.4c-0.9-7.5-1.9-14.9-2.8-22.4c6.9,0,13.7,0,20.6,0c6.9,0,13.7,0,20.6,0
		c-1,7.5-2.1,14.9-3.1,22.4C140.9,133.4,139.9,140.8,138.8,148.3z"/>
	<path opacity="0.64" fill-rule="evenodd" clip-rule="evenodd" fill="#BCD8E6" d="M138.8,148.3c-3.5,0-7,0-10.5,0c-3.5,0-7,0-10.5,0
		c-0.4-7.5-0.8-14.9-1.2-22.4c-0.4-7.5-0.8-14.9-1.2-22.4c4.9,0,9.9,0,14.8,0c4.9,0,9.9,0,14.8,0c-1,7.5-2.1,14.9-3.1,22.4
		C140.9,133.4,139.9,140.8,138.8,148.3z"/>
	<path opacity="0.64" fill-rule="evenodd" clip-rule="evenodd" fill="#BCD8E6" d="M114.8,142.4c0.2,3.1-2.4,2.8-2.6,0
		c-0.6-6.5-1.3-13-1.9-19.4c-0.6-6.5-1.3-13-1.9-19.4c1.2,0,2.3,0,3.5,0c0.5,6.5,1,13,1.5,19.4C113.8,129.5,114.3,136,114.8,142.4z"
		/>
	<path opacity="0.64" fill-rule="evenodd" clip-rule="evenodd" fill="#E1F2FB" d="M136.3,142.4c-0.3,3.1-2.9,2.8-2.6,0
		c0.6-6.5,1.1-13,1.7-19.4c0.6-6.5,1.1-13,1.7-19.4c1.2,0,2.3,0,3.5,0c-0.7,6.5-1.4,13-2.1,19.4C137.7,129.5,137,136,136.3,142.4z"
		/>
	<path opacity="0.64" fill-rule="evenodd" clip-rule="evenodd" fill="#BE5C27" d="M140,140.2c-5.2,0-10.5,0-15.7,0
		c-5.2,0-10.5,0-15.7,0c-0.6-4.4-1.1-8.8-1.7-13.3c-0.6-4.4-1.1-8.8-1.7-13.3c6.4,0,12.8,0,19.2,0s12.8,0,19.3,0
		c-0.6,4.4-1.2,8.9-1.8,13.3C141.2,131.3,140.6,135.7,140,140.2z"/>
	<path opacity="0.64" fill-rule="evenodd" clip-rule="evenodd" fill="#E88724" d="M140,140.2c-3.8,0-7.6,0-11.3,0
		c-3.8,0-7.5,0-11.3,0c-0.2-4.4-0.5-8.8-0.7-13.3c-0.2-4.4-0.5-8.8-0.7-13.3c4.6,0,9.2,0,13.9,0c4.6,0,9.2,0,13.9,0
		c-0.6,4.4-1.2,8.9-1.8,13.3C141.2,131.3,140.6,135.7,140,140.2z"/>
	<path opacity="0.64" fill-rule="evenodd" clip-rule="evenodd" fill="#FBAD47" d="M136.6,140.2c-0.9,0-1.8,0-2.7,0
		c0.4-4.4,0.8-8.8,1.2-13.3c0.4-4.4,0.8-8.8,1.2-13.3c1.1,0,2.2,0,3.3,0c-0.5,4.4-1,8.9-1.5,13.3C137.5,131.3,137,135.7,136.6,140.2
		z"/>
	<path opacity="0.64" fill-rule="evenodd" clip-rule="evenodd" fill="#E88724" d="M114.6,140.2c-0.9,0-1.8,0-2.7,0
		c-0.4-4.4-0.9-8.8-1.3-13.3c-0.4-4.4-0.9-8.8-1.3-13.3c1.1,0,2.2,0,3.3,0c0.3,4.4,0.7,8.9,1,13.3
		C113.9,131.3,114.2,135.7,114.6,140.2z"/>
</svg>
