# 3ds Max Wavefront OBJ Exporter v0.97b - (c)2007 guruware
# File Created: 22.12.2015 18:07:30

mtllib cube06.mtl

#
# object ChamferBox11
#

v  -0.0402 0.0492 -0.0402
v  -0.0402 0.0492 0.0402
v  0.0402 0.0492 0.0402
v  0.0402 0.0492 -0.0402
v  -0.0402 0.0394 -0.0500
v  -0.0500 0.0394 -0.0402
v  -0.0500 0.0394 0.0402
v  -0.0402 0.0394 0.0500
v  0.0402 0.0394 0.0500
v  0.0500 0.0394 0.0402
v  0.0500 0.0394 -0.0402
v  0.0402 0.0394 -0.0500
v  -0.0402 -0.0394 -0.0500
v  -0.0500 -0.0394 -0.0402
v  -0.0500 -0.0394 0.0402
v  -0.0402 -0.0394 0.0500
v  0.0402 -0.0394 0.0500
v  0.0500 -0.0394 0.0402
v  0.0500 -0.0394 -0.0402
v  0.0402 -0.0394 -0.0500
v  -0.0402 -0.0492 -0.0402
v  -0.0402 -0.0492 0.0402
v  0.0402 -0.0492 0.0402
v  0.0402 -0.0492 -0.0402
# 24 vertices

vn 0.0000 1.0000 -0.0000
vn -0.5774 0.5774 -0.5774
vn -0.7071 0.7071 -0.0000
vn -0.5774 0.5774 0.5774
vn 0.0000 0.7071 0.7071
vn 0.5774 0.5774 0.5774
vn 0.7071 0.7071 -0.0000
vn 0.5774 0.5774 -0.5774
vn 0.0000 0.7071 -0.7071
vn -0.7071 0.0000 -0.7071
vn -1.0000 0.0000 -0.0000
vn -0.7071 0.0000 0.7071
vn 0.0000 0.0000 1.0000
vn 0.7071 0.0000 0.7071
vn 1.0000 0.0000 -0.0000
vn 0.7071 0.0000 -0.7071
vn 0.0000 0.0000 -1.0000
vn -0.5774 -0.5774 -0.5774
vn -0.7071 -0.7071 -0.0000
vn -0.5774 -0.5774 0.5774
vn 0.0000 -0.7071 0.7071
vn 0.5774 -0.5774 0.5774
vn 0.7071 -0.7071 -0.0000
vn 0.5774 -0.5774 -0.5774
vn 0.0000 -0.7071 -0.7071
vn 0.0000 -1.0000 -0.0000
# 26 vertex normals

vt 0.0988 0.9012 0.9995
vt 0.0988 0.0988 0.9995
vt 0.9012 0.0988 0.9995
vt 0.9012 0.9012 0.9995
vt 0.0988 0.9995 0.8996
vt 0.0005 0.9012 0.8996
vt 0.0005 0.0988 0.8996
vt 0.0988 0.0005 0.8996
vt 0.9012 0.0005 0.8996
vt 0.9995 0.0988 0.8996
vt 0.9995 0.9012 0.8996
vt 0.9012 0.9995 0.8996
vt 0.9012 0.8996 0.9995
vt 0.9012 0.1004 0.9995
vt 0.9995 0.1004 0.9012
vt 0.9995 0.8996 0.9012
vt 0.0988 0.8996 0.0005
vt 0.0988 0.1004 0.0005
vt 0.9012 0.1004 0.0005
vt 0.9012 0.8996 0.0005
vt 0.9995 0.1004 0.0988
vt 0.9995 0.8996 0.0988
vt 0.0988 0.8996 0.9995
vt 0.0988 0.1004 0.9995
vt 0.9012 0.9995 0.1004
vt 0.9012 0.9012 0.0005
vt 0.9995 0.9012 0.1004
vt 0.9012 0.0988 0.0005
vt 0.9995 0.0988 0.1004
vt 0.9012 0.0005 0.1004
vt 0.0988 0.0988 0.0005
vt 0.0988 0.0005 0.1004
vt 0.0005 0.0988 0.1004
vt 0.0988 0.9012 0.0005
vt 0.0005 0.9012 0.1004
vt 0.0988 0.9995 0.1004
# 36 texture coords

g ChamferBox11
usemtl 01___Default
s off
f 1/1/1 2/2/1 3/3/1 4/4/1 
f 1/1/2 5/5/2 6/6/2 
f 1/1/3 6/6/3 7/7/3 2/2/3 
f 2/2/4 7/7/4 8/8/4 
f 2/2/5 8/8/5 9/9/5 3/3/5 
f 3/3/6 9/9/6 10/10/6 
f 3/3/7 10/10/7 11/11/7 4/4/7 
f 4/4/8 11/11/8 12/12/8 
f 4/4/9 12/12/9 5/5/9 1/1/9 
f 5/13/10 13/14/10 14/15/10 6/16/10 
f 6/17/11 14/18/11 15/19/11 7/20/11 
f 7/20/12 15/19/12 16/21/12 8/22/12 
f 8/17/13 16/18/13 17/19/13 9/20/13 
f 9/20/14 17/19/14 18/21/14 10/22/14 
f 10/23/15 18/24/15 19/14/15 11/13/15 
f 11/13/16 19/14/16 20/15/16 12/16/16 
f 12/23/17 20/24/17 13/14/17 5/13/17 
f 13/25/18 21/26/18 14/27/18 
f 14/27/19 21/26/19 22/28/19 15/29/19 
f 15/29/20 22/28/20 16/30/20 
f 16/30/21 22/28/21 23/31/21 17/32/21 
f 17/32/22 23/31/22 18/33/22 
f 18/33/23 23/31/23 24/34/23 19/35/23 
f 19/35/24 24/34/24 20/36/24 
f 20/36/25 24/34/25 21/26/25 13/25/25 
f 24/34/26 23/31/26 22/28/26 21/26/26 
# 18 polygons - 8 triangles

