# 3ds Max Wavefront OBJ Exporter v0.97b - (c)2007 guruware
# File Created: 22.12.2015 18:05:58

mtllib cube01.mtl

#
# object ChamferBox07
#

v  -0.3150 0.3937 -0.3150
v  -0.3150 0.3937 0.3150
v  0.3150 0.3937 0.3150
v  0.3150 0.3937 -0.3150
v  -0.3150 0.3832 -0.3543
v  -0.3346 0.3832 -0.3491
v  -0.3491 0.3832 -0.3346
v  -0.3543 0.3832 -0.3150
v  -0.3543 0.3832 0.3150
v  -0.3491 0.3832 0.3346
v  -0.3346 0.3832 0.3491
v  -0.3150 0.3832 0.3543
v  0.3150 0.3832 0.3543
v  0.3346 0.3832 0.3491
v  0.3491 0.3832 0.3346
v  0.3543 0.3832 0.3150
v  0.3543 0.3832 -0.3150
v  0.3491 0.3832 -0.3346
v  0.3346 0.3832 -0.3491
v  0.3150 0.3832 -0.3543
v  -0.3150 0.3543 -0.3832
v  -0.3491 0.3543 -0.3740
v  -0.3740 0.3543 -0.3491
v  -0.3832 0.3543 -0.3150
v  -0.3832 0.3543 0.3150
v  -0.3740 0.3543 0.3491
v  -0.3491 0.3543 0.3740
v  -0.3150 0.3543 0.3832
v  0.3150 0.3543 0.3832
v  0.3491 0.3543 0.3740
v  0.3740 0.3543 0.3491
v  0.3832 0.3543 0.3150
v  0.3832 0.3543 -0.3150
v  0.3740 0.3543 -0.3491
v  0.3491 0.3543 -0.3740
v  0.3150 0.3543 -0.3832
v  -0.3150 0.3150 -0.3937
v  -0.3543 0.3150 -0.3832
v  -0.3832 0.3150 -0.3543
v  -0.3937 0.3150 -0.3150
v  -0.3937 0.3150 0.3150
v  -0.3832 0.3150 0.3543
v  -0.3543 0.3150 0.3832
v  -0.3150 0.3150 0.3937
v  0.3150 0.3150 0.3937
v  0.3543 0.3150 0.3832
v  0.3832 0.3150 0.3543
v  0.3937 0.3150 0.3150
v  0.3937 0.3150 -0.3150
v  0.3832 0.3150 -0.3543
v  0.3543 0.3150 -0.3832
v  0.3150 0.3150 -0.3937
v  -0.3150 -0.3150 -0.3937
v  -0.3543 -0.3150 -0.3832
v  -0.3832 -0.3150 -0.3543
v  -0.3937 -0.3150 -0.3150
v  -0.3937 -0.3150 0.3150
v  -0.3832 -0.3150 0.3543
v  -0.3543 -0.3150 0.3832
v  -0.3150 -0.3150 0.3937
v  0.3150 -0.3150 0.3937
v  0.3543 -0.3150 0.3832
v  0.3832 -0.3150 0.3543
v  0.3937 -0.3150 0.3150
v  0.3937 -0.3150 -0.3150
v  0.3832 -0.3150 -0.3543
v  0.3543 -0.3150 -0.3832
v  0.3150 -0.3150 -0.3937
v  -0.3150 -0.3543 -0.3832
v  -0.3491 -0.3543 -0.3740
v  -0.3740 -0.3543 -0.3491
v  -0.3832 -0.3543 -0.3150
v  -0.3832 -0.3543 0.3150
v  -0.3740 -0.3543 0.3491
v  -0.3491 -0.3543 0.3740
v  -0.3150 -0.3543 0.3832
v  0.3150 -0.3543 0.3832
v  0.3491 -0.3543 0.3740
v  0.3740 -0.3543 0.3491
v  0.3832 -0.3543 0.3150
v  0.3832 -0.3543 -0.3150
v  0.3740 -0.3543 -0.3491
v  0.3491 -0.3543 -0.3740
v  0.3150 -0.3543 -0.3832
v  -0.3150 -0.3832 -0.3543
v  -0.3346 -0.3832 -0.3491
v  -0.3491 -0.3832 -0.3346
v  -0.3543 -0.3832 -0.3150
v  -0.3543 -0.3832 0.3150
v  -0.3491 -0.3832 0.3346
v  -0.3346 -0.3832 0.3491
v  -0.3150 -0.3832 0.3543
v  0.3150 -0.3832 0.3543
v  0.3346 -0.3832 0.3491
v  0.3491 -0.3832 0.3346
v  0.3543 -0.3832 0.3150
v  0.3543 -0.3832 -0.3150
v  0.3491 -0.3832 -0.3346
v  0.3346 -0.3832 -0.3491
v  0.3150 -0.3832 -0.3543
v  -0.3150 -0.3937 -0.3150
v  -0.3150 -0.3937 0.3150
v  0.3150 -0.3937 0.3150
v  0.3150 -0.3937 -0.3150
# 104 vertices

vn 0.0000 1.0000 -0.0000
vn -0.0692 0.9636 -0.2582
vn -0.1890 0.9636 -0.1890
vn -0.2582 0.9636 -0.0692
vn -0.2588 0.9659 -0.0000
vn -0.2582 0.9636 0.0692
vn -0.1890 0.9636 0.1890
vn -0.0692 0.9636 0.2582
vn 0.0000 0.9659 0.2588
vn 0.0692 0.9636 0.2582
vn 0.1890 0.9636 0.1890
vn 0.2582 0.9636 0.0692
vn 0.2588 0.9659 -0.0000
vn 0.2582 0.9636 -0.0692
vn 0.1890 0.9636 -0.1890
vn 0.0692 0.9636 -0.2582
vn 0.0000 0.9659 -0.2588
vn -0.1862 0.6947 -0.6947
vn -0.5086 0.6947 -0.5086
vn -0.6947 0.6947 -0.1862
vn -0.7071 0.7071 -0.0000
vn -0.6947 0.6947 0.1862
vn -0.5086 0.6947 0.5086
vn -0.1862 0.6947 0.6947
vn 0.0000 0.7071 0.7071
vn 0.1862 0.6947 0.6947
vn 0.5086 0.6947 0.5086
vn 0.6947 0.6947 0.1862
vn 0.7071 0.7071 -0.0000
vn 0.6947 0.6947 -0.1862
vn 0.5086 0.6947 -0.5086
vn 0.1862 0.6947 -0.6947
vn 0.0000 0.7071 -0.7071
vn -0.2506 0.2506 -0.9351
vn -0.6846 0.2506 -0.6846
vn -0.9351 0.2506 -0.2506
vn -0.9659 0.2588 -0.0000
vn -0.9351 0.2506 0.2506
vn -0.6846 0.2506 0.6846
vn -0.2506 0.2506 0.9351
vn 0.0000 0.2588 0.9659
vn 0.2506 0.2506 0.9351
vn 0.6846 0.2506 0.6846
vn 0.9351 0.2506 0.2506
vn 0.9659 0.2588 -0.0000
vn 0.9351 0.2506 -0.2506
vn 0.6846 0.2506 -0.6846
vn 0.2506 0.2506 -0.9351
vn 0.0000 0.2588 -0.9659
vn -0.2588 0.0000 -0.9659
vn -0.7071 0.0000 -0.7071
vn -0.9659 0.0000 -0.2588
vn -1.0000 0.0000 -0.0000
vn -0.9659 0.0000 0.2588
vn -0.7071 0.0000 0.7071
vn -0.2588 0.0000 0.9659
vn 0.0000 0.0000 1.0000
vn 0.2588 0.0000 0.9659
vn 0.7071 0.0000 0.7071
vn 0.9659 0.0000 0.2588
vn 1.0000 0.0000 -0.0000
vn 0.9659 0.0000 -0.2588
vn 0.7071 0.0000 -0.7071
vn 0.2588 0.0000 -0.9659
vn 0.0000 0.0000 -1.0000
vn -0.2506 -0.2506 -0.9351
vn -0.6846 -0.2506 -0.6846
vn -0.9351 -0.2506 -0.2506
vn -0.9659 -0.2588 -0.0000
vn -0.9351 -0.2506 0.2506
vn -0.6846 -0.2506 0.6846
vn -0.2506 -0.2506 0.9351
vn 0.0000 -0.2588 0.9659
vn 0.2506 -0.2506 0.9351
vn 0.6846 -0.2506 0.6846
vn 0.9351 -0.2506 0.2506
vn 0.9659 -0.2588 -0.0000
vn 0.9351 -0.2506 -0.2506
vn 0.6846 -0.2506 -0.6846
vn 0.2506 -0.2506 -0.9351
vn 0.0000 -0.2588 -0.9659
vn -0.1862 -0.6947 -0.6947
vn -0.5086 -0.6947 -0.5086
vn -0.6947 -0.6947 -0.1862
vn -0.7071 -0.7071 -0.0000
vn -0.6947 -0.6947 0.1862
vn -0.5086 -0.6947 0.5086
vn -0.1862 -0.6947 0.6947
vn 0.0000 -0.7071 0.7071
vn 0.1862 -0.6947 0.6947
vn 0.5086 -0.6947 0.5086
vn 0.6947 -0.6947 0.1862
vn 0.7071 -0.7071 -0.0000
vn 0.6947 -0.6947 -0.1862
vn 0.5086 -0.6947 -0.5086
vn 0.1862 -0.6947 -0.6947
vn 0.0000 -0.7071 -0.7071
vn -0.0692 -0.9636 -0.2582
vn -0.1890 -0.9636 -0.1890
vn -0.2582 -0.9636 -0.0692
vn -0.2588 -0.9659 -0.0000
vn -0.2582 -0.9636 0.0692
vn -0.1890 -0.9636 0.1890
vn -0.0692 -0.9636 0.2582
vn 0.0000 -0.9659 0.2588
vn 0.0692 -0.9636 0.2582
vn 0.1890 -0.9636 0.1890
vn 0.2582 -0.9636 0.0692
vn 0.2588 -0.9659 -0.0000
vn 0.2582 -0.9636 -0.0692
vn 0.1890 -0.9636 -0.1890
vn 0.0692 -0.9636 -0.2582
vn 0.0000 -0.9659 -0.2588
vn 0.0000 -1.0000 -0.0000
# 114 vertex normals

vt 0.1004 0.8996 0.9995
vt 0.1004 0.1004 0.9995
vt 0.8996 0.1004 0.9995
vt 0.8996 0.8996 0.9995
vt 0.1004 0.9496 0.9861
vt 0.0754 0.9429 0.9861
vt 0.0571 0.9246 0.9861
vt 0.0504 0.8996 0.9861
vt 0.0504 0.1004 0.9861
vt 0.0571 0.0754 0.9861
vt 0.0754 0.0571 0.9861
vt 0.1004 0.0504 0.9861
vt 0.8996 0.0504 0.9861
vt 0.9246 0.0571 0.9861
vt 0.9429 0.0754 0.9861
vt 0.9496 0.1004 0.9861
vt 0.9496 0.8996 0.9861
vt 0.9429 0.9246 0.9861
vt 0.9246 0.9429 0.9861
vt 0.8996 0.9496 0.9861
vt 0.1004 0.9861 0.9496
vt 0.0571 0.9745 0.9496
vt 0.0255 0.9429 0.9496
vt 0.0139 0.8996 0.9496
vt 0.0139 0.1004 0.9496
vt 0.0255 0.0571 0.9496
vt 0.0571 0.0255 0.9496
vt 0.1004 0.0139 0.9496
vt 0.8996 0.0139 0.9496
vt 0.9429 0.0255 0.9496
vt 0.9745 0.0571 0.9496
vt 0.9861 0.1004 0.9496
vt 0.9861 0.8996 0.9496
vt 0.9745 0.9429 0.9496
vt 0.9429 0.9745 0.9496
vt 0.8996 0.9861 0.9496
vt 0.9429 0.9496 0.9745
vt 0.9745 0.9496 0.9429
vt 0.0571 0.9496 0.0255
vt 0.0504 0.8996 0.0139
vt 0.1004 0.8996 0.0005
vt 0.1004 0.9496 0.0139
vt 0.8996 0.8996 0.0005
vt 0.8996 0.9496 0.0139
vt 0.9496 0.8996 0.0139
vt 0.9429 0.9496 0.0255
vt 0.9861 0.8996 0.0504
vt 0.9745 0.9496 0.0571
vt 0.0571 0.9496 0.9745
vt 0.0504 0.1004 0.0139
vt 0.1004 0.1004 0.0005
vt 0.8996 0.1004 0.0005
vt 0.9496 0.1004 0.0139
vt 0.9861 0.1004 0.0504
vt 0.9429 0.0504 0.9745
vt 0.9745 0.0504 0.9429
vt 0.0571 0.0504 0.0255
vt 0.1004 0.0504 0.0139
vt 0.8996 0.0504 0.0139
vt 0.9429 0.0504 0.0255
vt 0.9745 0.0504 0.0571
vt 0.0571 0.0504 0.9745
vt 0.9246 0.0139 0.9429
vt 0.9429 0.9745 0.0504
vt 0.9246 0.9429 0.0139
vt 0.9429 0.9246 0.0139
vt 0.9745 0.9429 0.0504
vt 0.0754 0.0139 0.0571
vt 0.1004 0.0139 0.0504
vt 0.8996 0.0139 0.0504
vt 0.9246 0.0139 0.0571
vt 0.9745 0.0571 0.0504
vt 0.9429 0.0754 0.0139
vt 0.9246 0.0571 0.0139
vt 0.9429 0.0255 0.0504
vt 0.0571 0.0255 0.0504
vt 0.0754 0.0571 0.0139
vt 0.0571 0.0754 0.0139
vt 0.0255 0.0571 0.0504
vt 0.0754 0.0139 0.9429
vt 0.0255 0.9429 0.0504
vt 0.0571 0.9246 0.0139
vt 0.0754 0.9429 0.0139
vt 0.0571 0.9745 0.0504
# 84 texture coords

g ChamferBox07
usemtl 01___Default
s off
f 1/1/1 2/2/1 3/3/1 4/4/1 
f 1/1/2 5/5/2 6/6/2 
f 1/1/3 6/6/3 7/7/3 
f 1/1/4 7/7/4 8/8/4 
f 1/1/5 8/8/5 9/9/5 2/2/5 
f 2/2/6 9/9/6 10/10/6 
f 2/2/7 10/10/7 11/11/7 
f 2/2/8 11/11/8 12/12/8 
f 2/2/9 12/12/9 13/13/9 3/3/9 
f 3/3/10 13/13/10 14/14/10 
f 3/3/11 14/14/11 15/15/11 
f 3/3/12 15/15/12 16/16/12 
f 3/3/13 16/16/13 17/17/13 4/4/13 
f 4/4/14 17/17/14 18/18/14 
f 4/4/15 18/18/15 19/19/15 
f 4/4/16 19/19/16 20/20/16 
f 4/4/17 20/20/17 5/5/17 1/1/17 
f 5/5/18 21/21/18 22/22/18 6/6/18 
f 6/6/19 22/22/19 23/23/19 7/7/19 
f 7/7/20 23/23/20 24/24/20 8/8/20 
f 8/8/21 24/24/21 25/25/21 9/9/21 
f 9/9/22 25/25/22 26/26/22 10/10/22 
f 10/10/23 26/26/23 27/27/23 11/11/23 
f 11/11/24 27/27/24 28/28/24 12/12/24 
f 12/12/25 28/28/25 29/29/25 13/13/25 
f 13/13/26 29/29/26 30/30/26 14/14/26 
f 14/14/27 30/30/27 31/31/27 15/15/27 
f 15/15/28 31/31/28 32/32/28 16/16/28 
f 16/16/29 32/32/29 33/33/29 17/17/29 
f 17/17/30 33/33/30 34/34/30 18/18/30 
f 18/18/31 34/34/31 35/35/31 19/19/31 
f 19/19/32 35/35/32 36/36/32 20/20/32 
f 20/20/33 36/36/33 21/21/33 5/5/33 
f 21/20/34 37/4/34 38/17/34 22/37/34 
f 22/37/35 38/17/35 39/33/35 23/38/35 
f 23/39/36 39/40/36 40/41/36 24/42/36 
f 24/42/37 40/41/37 41/43/37 25/44/37 
f 25/44/38 41/43/38 42/45/38 26/46/38 
f 26/46/39 42/45/39 43/47/39 27/48/39 
f 27/39/40 43/40/40 44/41/40 28/42/40 
f 28/42/41 44/41/41 45/43/41 29/44/41 
f 29/44/42 45/43/42 46/45/42 30/46/42 
f 30/46/43 46/45/43 47/47/43 31/48/43 
f 31/49/44 47/8/44 48/1/44 32/5/44 
f 32/5/45 48/1/45 49/4/45 33/20/45 
f 33/20/46 49/4/46 50/17/46 34/37/46 
f 34/37/47 50/17/47 51/33/47 35/38/47 
f 35/49/48 51/8/48 52/1/48 36/5/48 
f 36/5/49 52/1/49 37/4/49 21/20/49 
f 37/4/50 53/3/50 54/16/50 38/17/50 
f 38/17/51 54/16/51 55/32/51 39/33/51 
f 39/40/52 55/50/52 56/51/52 40/41/52 
f 40/41/53 56/51/53 57/52/53 41/43/53 
f 41/43/54 57/52/54 58/53/54 42/45/54 
f 42/45/55 58/53/55 59/54/55 43/47/55 
f 43/40/56 59/50/56 60/51/56 44/41/56 
f 44/41/57 60/51/57 61/52/57 45/43/57 
f 45/43/58 61/52/58 62/53/58 46/45/58 
f 46/45/59 62/53/59 63/54/59 47/47/59 
f 47/8/60 63/9/60 64/2/60 48/1/60 
f 48/1/61 64/2/61 65/3/61 49/4/61 
f 49/4/62 65/3/62 66/16/62 50/17/62 
f 50/17/63 66/16/63 67/32/63 51/33/63 
f 51/8/64 67/9/64 68/2/64 52/1/64 
f 52/1/65 68/2/65 53/3/65 37/4/65 
f 53/3/66 69/13/66 70/55/66 54/16/66 
f 54/16/67 70/55/67 71/56/67 55/32/67 
f 55/50/68 71/57/68 72/58/68 56/51/68 
f 56/51/69 72/58/69 73/59/69 57/52/69 
f 57/52/70 73/59/70 74/60/70 58/53/70 
f 58/53/71 74/60/71 75/61/71 59/54/71 
f 59/50/72 75/57/72 76/58/72 60/51/72 
f 60/51/73 76/58/73 77/59/73 61/52/73 
f 61/52/74 77/59/74 78/60/74 62/53/74 
f 62/53/75 78/60/75 79/61/75 63/54/75 
f 63/9/76 79/62/76 80/12/76 64/2/76 
f 64/2/77 80/12/77 81/13/77 65/3/77 
f 65/3/78 81/13/78 82/55/78 66/16/78 
f 66/16/79 82/55/79 83/56/79 67/32/79 
f 67/9/80 83/62/80 84/12/80 68/2/80 
f 68/2/81 84/12/81 69/13/81 53/3/81 
f 69/13/82 85/29/82 86/63/82 70/55/82 
f 70/64/83 86/65/83 87/66/83 71/67/83 
f 71/57/84 87/68/84 88/69/84 72/58/84 
f 72/58/85 88/69/85 89/70/85 73/59/85 
f 73/59/86 89/70/86 90/71/86 74/60/86 
f 74/72/87 90/73/87 91/74/87 75/75/87 
f 75/57/88 91/68/88 92/69/88 76/58/88 
f 76/58/89 92/69/89 93/70/89 77/59/89 
f 77/59/90 93/70/90 94/71/90 78/60/90 
f 78/76/91 94/77/91 95/78/91 79/79/91 
f 79/62/92 95/80/92 96/28/92 80/12/92 
f 80/12/93 96/28/93 97/29/93 81/13/93 
f 81/13/94 97/29/94 98/63/94 82/55/94 
f 82/81/95 98/82/95 99/83/95 83/84/95 
f 83/62/96 99/80/96 100/28/96 84/12/96 
f 84/12/97 100/28/97 85/29/97 69/13/97 
f 85/44/98 101/43/98 86/65/98 
f 86/65/99 101/43/99 87/66/99 
f 87/66/100 101/43/100 88/45/100 
f 88/45/101 101/43/101 102/52/101 89/53/101 
f 89/53/102 102/52/102 90/73/102 
f 90/73/103 102/52/103 91/74/103 
f 91/74/104 102/52/104 92/59/104 
f 92/59/105 102/52/105 103/51/105 93/58/105 
f 93/58/106 103/51/106 94/77/106 
f 94/77/107 103/51/107 95/78/107 
f 95/78/108 103/51/108 96/50/108 
f 96/50/109 103/51/109 104/41/109 97/40/109 
f 97/40/110 104/41/110 98/82/110 
f 98/82/111 104/41/111 99/83/111 
f 99/83/112 104/41/112 100/42/112 
f 100/42/113 104/41/113 101/43/113 85/44/113 
f 104/41/114 103/51/114 102/52/114 101/43/114 
# 90 polygons - 24 triangles

