<?xml version="1.0" encoding="iso-8859-1"?>
<!-- Generator: Adobe Illustrator 19.1.1, SVG Export Plug-In . SVG Version: 6.00 Build 0)  -->
<svg version="1.1" xmlns="http://www.w3.org/2000/svg" xmlns:xlink="http://www.w3.org/1999/xlink" x="0px" y="0px"
	 viewBox="0 0 960 960" style="enable-background:new 0 0 960 960;" xml:space="preserve">
<g id="_x32_">
	<path id="_x32__1_" style="fill:none;" d="M861.316,531.211c-14.745,1.062-61.008-12.772-67.002-17.293
		c-5.993-4.52-13.224-10.932-10.531-14.043c2.692-3.111,15.389-3.309,22.347-1.445c6.957,1.864,16.544-1.028,15.862-3.62
		c-0.682-2.592-12.96-14.142-27.33-19.6c-14.37-5.458-36.192-15.946-40.048-22.876c-3.856-6.931-5.902-14.706-0.427-13.56
		c5.476,1.146,18.754,5.966,22.483,9.605c3.729,3.638,11.036,7.412,14.019,6.812c2.983-0.6,6.085-5.665-1.636-9.731
		c-7.722-4.066-40.792-20.745-50.842-27.339c-10.05-6.594-19.899-18.044-13.542-19.163c6.357-1.119,20.827,1.91,27.13,6.904
		c6.302,4.994,14.689,12.831,18.209,13.568c3.52,0.736,8.313-0.709,4.748-5.129c-3.565-4.421-13.335-13.075-28.096-22.12
		c-14.76-9.045-30.622-21.337-34.962-27.648c-4.34-6.311-10.19-21.408,1.677-16.571c11.867,4.837,30.667,18.435,30.667,18.435
		s-25.04-24.648-30.827-33.062c-5.788-8.415-10.838-22.022-6.666-26.176c4.172-4.153,13.154-7.686,17.876-1.26
		c4.722,6.426,18.816,23.184,24.489,31.98c5.672,8.796,13.864,17.521,15.32,15.461c1.455-2.059-0.159-9.699-3.764-26.13
		c-3.328-15.169-7.669-21.48-3.807-23.229c3.861-1.748,7.251,2.193,12.657,10.492c5.405,8.299,8.653,25.11,11.388,32.601
		c2.734,7.491,10.857,27.884,10.857,27.884s5.665-5.301,7.231-11.142c1.865-6.957,5.532-12.534,9.242-6.859
		c4.957,7.582,5.827,12.871,7.555,29.97c1.728,17.098,3.856,24.483,6.411,27.876c2.555,3.393,6.055,6.167,6.502,0.137
		c0.447-6.029,1.294-13.94,3.205-17.214c1.91-3.274,9.893-6.637,13.876,3.586c3.983,10.223,3.327,27.29,4.965,37.022
		c1.638,9.732,4.756,20.182,6.729,18.554c1.974-1.629,5.53-4.966,5.212-13.197c-0.318-8.231,5.104-18.526,8.523-15.361
		c3.42,3.165,16.525,18.563,16.451,44.265c-0.074,25.703-2.667,43.938-10.562,50.45C869.01,529.557,867.119,530.793,861.316,531.211
		z"/>
</g>
<g id="Layer_1">
</g>
</svg>
