<?xml version="1.0" encoding="iso-8859-1"?>
<!-- Generator: Adobe Illustrator 19.1.1, SVG Export Plug-In . SVG Version: 6.00 Build 0)  -->
<svg version="1.1" xmlns="http://www.w3.org/2000/svg" xmlns:xlink="http://www.w3.org/1999/xlink" x="0px" y="0px"
	 viewBox="0 0 960 960" style="enable-background:new 0 0 960 960;" xml:space="preserve">
<g id="_x31_0">
	<path id="_x31_0_1_" style="fill:none;" d="M861.721,530.929c-14.769,0.685-48.667-17.33-54.543-22.003
		c-5.876-4.673-16.941-9.268-14.169-12.309c2.771-3.041,9.97-5.914,16.878-3.872c6.908,2.042,22.567,2.896,21.951,0.287
		c-0.616-2.609-18.82-13.493-32.82-19.843c-14-6.35-32.465-17.991-35.878-25.151c-3.413-7.16-0.97-15.205,4.422-13.718
		c5.393,1.488,11.271,5.408,14.764,9.275c3.493,3.866,10.968,9.775,13.983,9.364c3.015-0.411,0.721-7.839-6.153-13.216
		c-6.875-5.377-32.596-27.705-41.311-35.984c-8.715-8.28-14.486-24.379-8.03-24.347c6.455,0.032,19.773,8.608,25.085,14.646
		s4.837,8.205,7.999,12.757c2.051,2.954,10.462,4.703,7.742-0.283c-2.72-4.986-7.942-14.435-21.84-24.82
		c-13.898-10.384-26.734-27.686-30.485-34.384c-3.75-6.697-5.622-20.401,5.775-14.482c11.397,5.919,24.469,22.893,24.469,22.893
		s-22.72-26.9-27.721-35.83c-5.001-8.93-7.368-24.992-2.822-28.753c4.545-3.761,19.812-9.557,23.933-2.71
		c4.121,6.847,13.586,24.388,18.437,33.688c4.851,9.299,7.882,24.355,9.525,22.433c1.642-1.921-2.283-10.076-4.369-26.804
		c-1.926-15.444-1.602-20.3,2.413-21.689c4.014-1.389,9.876-1.259,14.506,7.52s6.423,28.353,8.462,36.08
		c2.039,7.727,3.269,31.136,3.269,31.136s7.019-4.227,9.601-9.695c3.076-6.514,7.733-12.511,12.397-7.589
		c5.931,6.26,4.8,14.555,3.453,31.69c-1.347,17.134-4.507,26.436-2.597,30.23c1.91,3.794,7.712,5.703,8.536-0.288
		c0.824-5.99,2.978-15.085,5.091-18.233c2.112-3.148,14.77-6.565,17.692,4.011c2.922,10.576,1.775,23.903,2.413,33.752
		c0.638,9.849-4.205,23.41-2.191,21.833c2.015-1.578,5.401-6.759,8.048-14.56c2.802-8.256,7.36-13.125,11.914-12.139
		c6.388,1.383,16.046,16.981,15.315,42.675c-0.731,25.695-9.29,44.359-17.35,50.667S867.533,530.66,861.721,530.929z"/>
</g>
<g id="Layer_1">
</g>
</svg>
