<?xml version="1.0" encoding="iso-8859-1"?>
<!-- Generator: Adobe Illustrator 19.1.1, SVG Export Plug-In . SVG Version: 6.00 Build 0)  -->
<svg version="1.1" xmlns="http://www.w3.org/2000/svg" xmlns:xlink="http://www.w3.org/1999/xlink" x="0px" y="0px"
	 viewBox="0 0 960 960" style="enable-background:new 0 0 960 960;" xml:space="preserve">
<g id="_x31_1">
	<path id="_x31_1_1_" style="fill:none;" d="M861.721,530.929c-14.761,0.793-50.636-16.416-56.545-21.045
		c-5.909-4.629-16.396-9.484-13.647-12.545c2.748-3.061,10.805-5.558,17.727-3.567c6.922,1.991,21.622,2.228,20.987-0.376
		c-0.635-2.604-17.951-13.552-32.026-19.714c-14.075-6.163-33.556-17.542-37.061-24.653c-3.505-7.111-1.789-15.108,3.62-13.691
		c5.41,1.416,12.459,5.433,16.002,9.252c3.542,3.818,11.46,9.36,14.468,8.909c3.008-0.451,1.54-7.519-5.48-12.666
		c-7.02-5.147-34.461-26.585-43.406-34.568c-8.945-7.983-15.391-23.323-8.954-23.492c6.436-0.169,19.944,7.493,25.427,13.346
		c5.483,5.854,6.935,8.982,10.155,12.927c2.283,2.596,10.123,3.829,7.257-1.056c-2.867-4.886-8.366-14.143-22.544-24.063
		c-14.177-9.919-27.685-26.163-31.632-32.723c-3.947-6.56-6.692-20.373,4.853-14.827c11.546,5.546,25.732,21.666,25.732,21.666
		s-23.486-26.11-28.749-34.856c-5.263-8.746-8.277-24.331-3.862-28.222c4.414-3.89,18.634-9.483,22.955-2.786
		c4.321,6.697,14.785,23.868,19.91,32.988c5.125,9.119,9.105,23.042,10.683,21.075c1.577-1.966-2.115-10.009-4.715-26.62
		c-2.4-15.336-2.909-20.342,1.05-21.852c3.958-1.51,9.498-0.844,14.388,7.764c4.889,8.608,7.192,27.685,9.465,35.324
		c2.273,7.64,4.833,30.789,4.833,30.789s6.79-4.413,9.193-9.945c2.863-6.59,7-12.754,11.534-7.726
		c5.804,6.45,5.35,14.494,4.54,31.617c-0.81,17.122-3.12,26.117-1.097,29.84c2.022,3.723,7.474,5.755,8.219-0.243
		c0.745-5.997,2.605-15.251,4.675-18.425c2.07-3.174,13.762-6.376,16.884,4.132c3.121,10.508,2.396,24.529,3.222,34.354
		c0.826,9.825-2.738,22.89-0.736,21.298c2.003-1.592,5.404-6.497,7.561-14.364c2.288-8.251,6.946-13.985,11.333-12.67
		c5.935,1.65,16.182,17.174,15.638,42.868c-0.544,25.696-8.11,44.301-16.122,50.667
		C869.444,529.416,867.531,530.617,861.721,530.929z"/>
</g>
<g id="Layer_1">
</g>
</svg>
