<?xml version="1.0" encoding="iso-8859-1"?>
<!-- Generator: Adobe Illustrator 19.1.1, SVG Export Plug-In . SVG Version: 6.00 Build 0)  -->
<svg version="1.1" xmlns="http://www.w3.org/2000/svg" xmlns:xlink="http://www.w3.org/1999/xlink" x="0px" y="0px"
	 viewBox="0 0 960 960" style="enable-background:new 0 0 960 960;" xml:space="preserve">
<g id="_x31_3">
	<path id="_x31_3_1_" style="fill:none;" d="M861.721,530.929c-14.729,1.254-59.074-12.499-65.125-16.941
		c-6.051-4.442-14.061-10.41-11.409-13.555c2.651-3.145,14.385-4.032,21.366-2.258c6.981,1.774,17.573-0.632,16.858-3.216
		c-0.716-2.582-14.226-13.802-28.626-19.163c-14.399-5.362-38.231-15.617-42.131-22.519c-3.899-6.902-5.299-14.689,0.181-13.578
		c5.481,1.11,17.552,5.541,21.303,9.154c3.751,3.612,13.567,7.58,16.544,6.96c2.978-0.619,5.05-6.15-2.593-10.309
		c-7.644-4.159-42.451-21.789-52.382-28.5c-9.931-6.711-19.269-18.799-12.914-19.828c6.353-1.029,20.674,2.714,26.891,7.778
		c6.216,5.065,15.924,12.312,19.394,13.653c3.276,1.061,8.674,0.089,5.18-4.367c-3.495-4.457-10.182-12.893-25.557-20.822
		c-15.374-7.929-31.76-19.638-36.549-25.608c-4.789-5.97-11.278-20.255,0.903-16.306c12.182,3.949,31.143,16.41,31.143,16.41
		s-26.764-22.724-33.15-30.684c-6.386-7.96-12.17-21.502-8.318-25.948c3.852-4.445,13.586-9.166,18.764-3.109
		c5.178,6.057,19.923,21.638,26.221,29.988c6.299,8.349,14.348,17.417,15.647,15.257c1.299-2.159-1.396-9.721-6.196-25.831
		c-4.431-14.873-8.511-20.522-4.791-22.549c3.719-2.026,7.883,0.936,13.879,8.809c5.997,7.873,10.487,24.823,13.761,32.088
		c3.275,7.265,11.539,29.301,11.539,29.301s5.808-5.212,7.448-11.014c1.955-6.912,3.859-13.794,7.835-8.316
		c5.259,7.264,7.709,14.23,9.199,31.303c1.49,17.072,2.826,24.753,5.328,28.171c2.502,3.418,6.452,5.98,6.858-0.051
		c0.407-6.03,1.004-15.965,2.892-19.25c1.888-3.285,9.445-5.564,13.42,4.65c3.977,10.214,5.056,27.21,6.688,36.933
		c1.633,9.723,3.546,20.659,5.498,19.006c1.952-1.654,5.42-5.374,5.475-13.524c0.082-8.229,5.173-17.672,8.845-14.947
		c3.992,2.794,16.764,17.997,17.024,43.696c0.261,25.7-3.053,44.052-10.862,50.666C869.393,529.175,867.518,530.436,861.721,530.929
		z"/>
</g>
<g id="Layer_1">
</g>
</svg>
