<?xml version="1.0" encoding="utf-8"?>
<!-- Generator: Adobe Illustrator 19.1.0, SVG Export Plug-In . SVG Version: 6.00 Build 0)  -->
<!DOCTYPE svg PUBLIC "-//W3C//DTD SVG 1.1//EN" "http://www.w3.org/Graphics/SVG/1.1/DTD/svg11.dtd">
<svg version="1.1" id="Layer_1" xmlns="http://www.w3.org/2000/svg" xmlns:xlink="http://www.w3.org/1999/xlink" x="0px" y="0px"
	 viewBox="0 0 250 250" enable-background="new 0 0 250 250" xml:space="preserve">
	<path fill-rule="evenodd" clip-rule="evenodd" fill="#2F3E1A" d="M124.6,28.4c-10.7,0-10.5,5.7-7.9,16.3c1.4,5.4-1.9,2-2.5,7.3
		c-0.6,5.3,2.1,4.1,2.1,7.7c0,3.6-1.4,29.9-6.9,42.6C95,136.1,91,179.2,103.1,216.1c1.7,5.2,4.9,5.3,5.3,5.9
		c7.8,0.2,12,0.4,16.2,0.4c4.2,0,8.3-0.1,16.2-0.4c0.4-0.6,3.5-0.7,5.3-5.9c12.2-37,8.1-80.1-6.4-113.8c-5.4-12.7-6.9-37.6-6.9-41.2
		c0-3.6,4.3-3.3,3.7-8.6c-0.6-5.3-5.5-1.1-4.2-6.5C134.9,35.3,135.3,28.4,124.6,28.4z"/>
	<path fill-rule="evenodd" clip-rule="evenodd" fill="#3D5527" d="M119.4,29.5c-3.8,2.1-4.2,7.3-2.7,15.2c1.1,5.4-2,2-2.5,7.3
		c-0.5,5.3,2.1,4.1,2.1,7.7c0,3.6,0.7,29.9-3.5,42.6c-11.3,33.7-14.4,76.8-5,113.8c0.8,2.4,4.1,1.8,3.9,0
		c-6.8-37.2-4.4-80.3,4-114.1c3.2-12.9,2.7-39.6,2.7-43.3c0-3.7-1.9-2.4-1.6-7.8c0.4-5.4,2.7-1.8,1.9-7.4
		C117.7,36.9,117.8,32.2,119.4,29.5z"/>
	<path fill-rule="evenodd" clip-rule="evenodd" fill="#3D5527" d="M129.6,222.4c2.9-0.1,6.4-0.2,11.2-0.3c0.4-0.6,3.5-0.7,5.3-5.9
		c12.2-37,8.1-80.1-6.4-113.8c-5.4-12.7-6-38.5-6-42.1c0-3.6,3.3-2.4,2.7-7.7c-0.6-5.3-4.5-1.8-3.2-7.3c2.2-8.7,2.8-14-3.5-15.7
		c-4.4,1.7-5.3,6.5-3.8,15.2c1,5.4-1.8,2-2.2,7.3c-0.4,5.3,1.9,4.1,1.9,7.7c0,3.6,0.6,29.9-3.2,42.6c-10.2,33.8-13,76.9-4.5,113.8
		c1.2,5.2,3.4,5.3,3.7,5.9C125.1,222.2,127.5,222.3,129.6,222.4z"/>
	<path fill-rule="evenodd" clip-rule="evenodd" fill="#5A7936" d="M141.3,216.1c9.5-36.9,6.3-80-5-113.8c-4.2-12.7-3.5-39-3.5-42.6
		c0-3.6,2.6-2.4,2.1-7.7s-3.5-1.8-2.5-7.3c1.5-7.9,1.1-13.1-2.7-15.2c1.6,2.7,1.7,7.4,0.8,14c-0.8,5.5,1.5,2,1.9,7.4
		c0.4,5.4-1.6,4.1-1.6,7.8c0,3.7-0.5,30.4,2.7,43.3c8.4,33.8,10.8,76.9,4,114.1C136.9,218.3,140.6,218.3,141.3,216.1z"/>
	<path fill-rule="evenodd" clip-rule="evenodd" fill="#F9E496" d="M124.6,200.2c14.1,0,25.5-13.9,25.5-30.9
		c0-17-11.5-30.9-25.5-30.9c-14.1,0-25.5,13.9-25.5,30.9C99.1,186.4,110.5,200.2,124.6,200.2z"/>
	<path fill-rule="evenodd" clip-rule="evenodd" fill="#CBAF4B" d="M124.6,152.4c5.7,0,10.4-6.2,10.4-13.9c0-7.7-4.7-13.9-10.4-13.9
		c-5.7,0-10.4,6.2-10.4,13.9C114.2,146.2,118.9,152.4,124.6,152.4z"/>
	<path fill-rule="evenodd" clip-rule="evenodd" fill="#CBAF4B" d="M124.6,28.4c-10.7,0-12.8,5.7-10.1,16.3c1.4,5.4-2.6,2-3.2,7.3
		s2.7,4.1,2.7,7.7c0,3.2,0.7,23.4-2.7,37c2.6,4.2,7.6,7.1,13.2,7.1c5.7,0,10.7-2.9,13.3-7.1c-3.4-13.6-2.7-33.8-2.7-37
		c0-3.6,3.3-2.4,2.7-7.7c-0.6-5.3-4.5-1.8-3.2-7.3C137.3,34.1,135.3,28.4,124.6,28.4z"/>
	<path fill-rule="evenodd" clip-rule="evenodd" fill="#EBD37C" d="M113.6,99.5c0.7,0.7,1.5,1.2,2.3,1.8c3-13.1,2.5-39,2.5-42.6
		c0-3.7-1.9-2.4-1.6-7.8c0.4-5.4,2.7-1.8,1.9-7.4c-0.9-6.6-0.9-11.3,0.8-14c-3.8,2.1-4.2,7.3-2.7,15.2c1.1,5.4-2,2-2.5,7.3
		c-0.5,5.3,2.1,4.1,2.1,7.7C116.4,63,117,86.1,113.6,99.5z"/>
	<path fill-rule="evenodd" clip-rule="evenodd" fill="#EBD37C" d="M137.8,96.6C135,85.3,135,72,135.1,60l0-0.3
		c0-3.6,3.3-2.4,2.7-7.7c-0.6-5.6-4.6-1.3-3.1-7.7c1.1-4.4,2.1-10.9-2.2-14c-0.8-0.6-2.9-1.9-7.3-1.9c-0.7,4.5-0.8,7.6,0.7,16.3
		c1,5.4-1.8,2-2.2,7.3c-0.4,5.3,1.9,4.1,1.9,7.7c0,3.6,0.6,29.9-3.2,42.6c-0.1,0.4-0.2,0.8-0.4,1.2
		C128.5,104.5,134.7,101.7,137.8,96.6z"/>
	<path fill-rule="evenodd" clip-rule="evenodd" fill="#F5E29D" d="M133.2,101.2c0.8-0.5,1.6-1.1,2.3-1.8
		c-3.3-13.4-2.7-36.4-2.7-39.8c0-3.6,2.6-2.4,2.1-7.7s-3.5-1.8-2.5-7.3c1.5-7.9,1.1-13.1-2.7-15.2c1.6,2.7,1.7,7.4,0.8,14
		c-0.8,5.5,1.5,2,1.9,7.4c0.4,5.4-1.6,4.1-1.6,7.8C130.8,62.3,130.2,88.1,133.2,101.2z"/>
		<path fill-rule="evenodd" clip-rule="evenodd" fill="#B09430" d="M114.7,45.9c0.2,1.2-0.1,1.8-0.5,2.1H135
			c-0.4-0.4-0.7-0.9-0.5-2.1H114.7z"/>
		<path fill-rule="evenodd" clip-rule="evenodd" fill="#B09430" d="M113.7,58c0.2,0.4,0.3,0.9,0.3,1.6c0,0.1,0,0.3,0,0.5h21.1
			c0-0.2,0-0.4,0-0.5c0-0.7,0.1-1.2,0.3-1.6H113.7z"/>
		<path fill-rule="evenodd" clip-rule="evenodd" fill="#CBAF4B" d="M132.7,48c-0.3-0.4-0.5-0.9-0.4-2.1h-1.9
			c0.1,1.3,0.8,1.2,1.4,2.1H132.7z"/>
		<path fill-rule="evenodd" clip-rule="evenodd" fill="#CBAF4B" d="M132.8,60.1l0-0.5c0-0.7,0.1-1.2,0.2-1.6h-2.3c0,0.2,0,0.4,0,0.6
			c0,0.3,0,0.8,0,1.5H132.8z"/>
		<path fill-rule="evenodd" clip-rule="evenodd" fill="#CBAF4B" d="M116.5,48h1c0.5-0.9,1.2-0.8,1.4-2.1h-1.9
			C117,47.1,116.8,47.7,116.5,48z"/>
		<path fill-rule="evenodd" clip-rule="evenodd" fill="#CBAF4B" d="M116.4,60.1h2c0-0.7,0-1.2,0-1.5c0-0.2,0-0.4,0-0.6h-2.3
			c0.2,0.4,0.2,0.9,0.2,1.6L116.4,60.1z"/>
</svg>
