<?xml version="1.0" encoding="utf-8"?>
<!-- Generator: Adobe Illustrator 19.1.0, SVG Export Plug-In . SVG Version: 6.00 Build 0)  -->
<!DOCTYPE svg PUBLIC "-//W3C//DTD SVG 1.1//EN" "http://www.w3.org/Graphics/SVG/1.1/DTD/svg11.dtd">
<svg version="1.1" id="Layer_1" xmlns="http://www.w3.org/2000/svg" xmlns:xlink="http://www.w3.org/1999/xlink" x="0px" y="0px"
	 viewBox="0 0 250 250" enable-background="new 0 0 250 250" xml:space="preserve">
	<path fill-rule="evenodd" clip-rule="evenodd" fill="#D0A32B" d="M107.4,196c-6.9,0-12.5-3.1-12.5-7v-78.1
		c0-15.3,17.3-16.6,17.7-21.9l2.7-30.7c11.7,0,6.8,0,18.5,0l2.7,30.7c0.5,5.4,17.7,6.6,17.7,21.9V189c0,3.8-5.6,7-12.5,7
		C124.1,196,125,196,107.4,196z"/>
	<path fill-rule="evenodd" clip-rule="evenodd" fill="#FACD4D" d="M136.5,89c0,0.1,0,0.2,0,0.2c0,0.1,0,0.2,0.1,0.2
		c0,0.1,0,0.2,0.1,0.2c0,0.1,0.1,0.2,0.1,0.2c0,0.1,0.1,0.2,0.1,0.2c0,0.1,0.1,0.2,0.1,0.2c0.1,0.1,0.1,0.1,0.2,0.2
		c0.1,0.1,0.1,0.1,0.2,0.2c0.1,0.1,0.1,0.1,0.2,0.2c0.1,0.1,0.1,0.1,0.2,0.2c0.1,0.1,0.2,0.1,0.2,0.2c0.1,0.1,0.2,0.1,0.3,0.2
		c0.1,0.1,0.2,0.1,0.3,0.2l0,0c0.1,0.1,0.2,0.1,0.3,0.2c0.1,0.1,0.2,0.1,0.3,0.2c0.1,0.1,0.2,0.1,0.3,0.2l0,0
		c0.1,0.1,0.2,0.1,0.3,0.2c0.1,0.1,0.2,0.1,0.3,0.2l0.3,0.2l0.4,0.2l0.4,0.2l0.4,0.2l0.4,0.2l0.4,0.2l0,0l0.4,0.2l0.4,0.2l0.4,0.2
		l0.4,0.2l0.4,0.2v0c0.1,0.1,0.3,0.2,0.4,0.3c0.1,0.1,0.3,0.2,0.4,0.3c0.1,0.1,0.3,0.2,0.4,0.3c0.1,0.1,0.3,0.2,0.4,0.3
		c0.1,0.1,0.3,0.2,0.4,0.3c0.1,0.1,0.3,0.2,0.4,0.3l0,0c0.1,0.1,0.3,0.2,0.4,0.3v0c0.1,0.1,0.3,0.2,0.4,0.3c0.1,0.1,0.3,0.2,0.4,0.3
		l0,0c0.1,0.1,0.3,0.2,0.4,0.3c0.1,0.1,0.3,0.2,0.4,0.3c0.1,0.1,0.3,0.2,0.4,0.3c0.1,0.1,0.2,0.2,0.4,0.4c0.1,0.1,0.2,0.2,0.4,0.4
		c0.1,0.1,0.2,0.3,0.4,0.4v0c0.1,0.1,0.2,0.3,0.3,0.4c0.1,0.1,0.2,0.3,0.3,0.4c0.1,0.1,0.2,0.3,0.3,0.4c0.1,0.1,0.2,0.3,0.3,0.4
		c0.1,0.1,0.2,0.3,0.3,0.4c0.1,0.2,0.2,0.3,0.3,0.5c0.1,0.2,0.2,0.3,0.3,0.5c0.1,0.2,0.2,0.3,0.3,0.5v0c0.1,0.2,0.2,0.3,0.2,0.5
		c0.1,0.2,0.2,0.3,0.2,0.5c0.1,0.2,0.1,0.4,0.2,0.5c0.1,0.2,0.1,0.4,0.2,0.6c0.1,0.2,0.1,0.4,0.2,0.6v0c0.1,0.2,0.1,0.4,0.1,0.6
		s0.1,0.4,0.1,0.6c0,0.2,0.1,0.4,0.1,0.6l0,0c0,0.2,0.1,0.4,0.1,0.6c0,0.2,0,0.4,0.1,0.7c0,0.2,0,0.5,0,0.7c0,0.2,0,0.5,0,0.7V189
		c0,3.8-5.6,7-12.5,7h-21.6c-5.8,0-9.2-3.9-9.2-6.5v-78.6c0-15.3,11.5-16.5,11.5-21.9l0.2-30.7h11.2L136.5,89z"/>
	<path fill-rule="evenodd" clip-rule="evenodd" fill="#FACD4D" d="M101.6,189v-78.1c0-8.9,4.5-13,8.3-16c0.5-0.4,1-0.7,1.4-1.1
		c1.8-1.4,4.2-1.5,3.1,0c-0.3,0.4-0.7,0.8-1.1,1.2c-2.6,3-5.4,7.2-5.4,15.5v78.6C107.9,192.9,101.6,191.5,101.6,189L101.6,189z
		 M115.4,87.4l2-29.1h1.9l-1.4,29.1C117.8,88.9,115.5,88.8,115.4,87.4z"/>
	<path fill-rule="evenodd" clip-rule="evenodd" fill="#FEEAAF" d="M129.8,58.3h1.9l2,29.1c0.1,1.3-2.4,1.4-2.5,0L129.8,58.3
		L129.8,58.3z M137.9,93.9c0.6,0.4,1.1,0.8,1.6,1.2c3.8,3,8.1,7.1,8.1,15.8V189c0,4-6.3,3.5-6.3,0.4v-78.8c0-8.2-2.7-12.4-5.3-15.4
		c-0.4-0.5-1.1-0.9-1.2-1.4C134.3,92.4,136.1,92.8,137.9,93.9z"/>
	<rect x="97.7" y="143.4" fill-rule="evenodd" clip-rule="evenodd" fill="#193F6F" width="53.7" height="29.6"/>
	<rect x="101.6" y="143.4" fill-rule="evenodd" clip-rule="evenodd" fill="#2B6DA9" width="6.3" height="29.6"/>
	<rect x="111" y="143.4" fill-rule="evenodd" clip-rule="evenodd" fill="#2B6DA9" width="40.5" height="29.6"/>
	<rect x="141.3" y="143.4" fill-rule="evenodd" clip-rule="evenodd" fill="#4A8AC8" width="6.3" height="29.6"/>
	<path fill-rule="evenodd" clip-rule="evenodd" fill="#193F6F" d="M113.5,79.5l1.9-21.2c11.7,0,6.8,0,18.5,0l1.9,21.2H113.5z"/>
	<polygon fill-rule="evenodd" clip-rule="evenodd" fill="#2B6DA9" points="117.4,58.3 117.8,58.3 118.2,58.3 118.6,58.3 119,58.3 
		119.3,58.3 118.3,79.5 116,79.5 	"/>
	<path fill-rule="evenodd" clip-rule="evenodd" fill="#133054" d="M114.7,67.3l0.3-6.4c12.3,0,7.1,0,19.3,0l0.3,6.4H114.7z"/>
	<polygon fill-rule="evenodd" clip-rule="evenodd" fill="#193F6F" points="117.2,60.9 119.2,60.9 118.9,67.3 116.8,67.3 	"/>
	<path fill-rule="evenodd" clip-rule="evenodd" fill="#193F6F" d="M113.7,55.1h21.7c1.3,0,2.3,1,2.3,2.3v6.5c0,1.3-1,2.3-2.3,2.3
		h-21.7c-1.3,0-2.3-1-2.3-2.3v-6.5C111.4,56.1,112.5,55.1,113.7,55.1z"/>
	<path fill-rule="evenodd" clip-rule="evenodd" fill="#2B6DA9" d="M134.5,66.2l1.2,13.3h-13.2l0.1-13.3c-1.1-0.1-1.9-0.6-1.9-1.3
		v-8.5c0-0.6,0.8-1.2,1.9-1.3v0h0.4h5.4h7c1.3,0,2.3,0.6,2.3,1.3v8.5c0,0.7-1,1.3-2.3,1.3H134.5z"/>
	<polygon fill-rule="evenodd" clip-rule="evenodd" fill="#4A8AC8" points="133.2,79.5 130.9,79.5 130.5,66.2 132.5,66.2 	"/>
	<polygon fill-rule="evenodd" clip-rule="evenodd" fill="#193F6F" points="134.4,66.2 134.4,67.3 122.6,67.3 122.6,66.2 	"/>
	<polygon fill-rule="evenodd" clip-rule="evenodd" fill="#2B6DA9" points="132.5,67.3 130.6,67.3 130.5,66.2 132.5,66.2 	"/>
	<path fill-rule="evenodd" clip-rule="evenodd" fill="#4A8AC8" d="M132.6,55.1l0,11.1c1,0,1.5,0,2.3,0l-0.1-11.1H132.6z"/>
	<polygon fill-rule="evenodd" clip-rule="evenodd" fill="#2B6DA9" points="117.3,55.1 117.3,66.2 115,66.2 115.1,55.1 	"/>
</svg>
