<?xml version="1.0" encoding="utf-8"?>
<!-- Generator: Adobe Illustrator 19.1.0, SVG Export Plug-In . SVG Version: 6.00 Build 0)  -->
<!DOCTYPE svg PUBLIC "-//W3C//DTD SVG 1.1//EN" "http://www.w3.org/Graphics/SVG/1.1/DTD/svg11.dtd">
<svg version="1.1" id="Layer_1" xmlns="http://www.w3.org/2000/svg" xmlns:xlink="http://www.w3.org/1999/xlink" x="0px" y="0px"
	 viewBox="0 0 250 250" enable-background="new 0 0 250 250" xml:space="preserve">
	<path fill-rule="evenodd" clip-rule="evenodd" fill="#83A07D" d="M117.6,64.6c0,22.8-10.4,31.9-16.5,48.2
		c-9.8,25.8,3.4,43.7,3.4,77c0,7.8-6.1,27.6,4.7,27.6h14.1h17.9c10.8,0,4.7-19.8,4.7-27.6c0-33.3,13.2-51.2,3.4-77
		c-6.2-16.2-16.5-25.3-16.5-48.2H117.6z"/>
	<path fill-rule="evenodd" clip-rule="evenodd" fill="#A9C7A4" d="M121.3,217.4h1.9h17.9c10.8,0,4.7-19.8,4.7-27.6
		c0-33.3,13.2-51.2,3.4-77c-6.2-16.2-16.5-25.3-16.5-48.2h-5.3c0,22.8-7.5,31.9-11.9,48.2c-7.1,25.8,2.4,43.7,2.4,77
		C117.9,197.6,113.5,217.4,121.3,217.4z"/>
	<path fill-rule="evenodd" clip-rule="evenodd" fill="#D3E9CE" d="M143.2,211.2c0.9-6.5-1.2-16.4-1.2-21.4c0-33.3,10.8-51.2,2.8-77
		C139.8,96.5,130,87.4,130,64.6H129c0.6,21.4,8.4,30.8,12.3,46.9c6.6,26.9-2.3,45.6-2.3,80.5c0,4.5,1.3,12.9,1.1,19.5
		C140.1,215.2,142.8,214.3,143.2,211.2z"/>
	<path fill-rule="evenodd" clip-rule="evenodd" fill="#A9C7A4" d="M120.2,64.6c0,22.8-9.8,31.9-14.8,48.2c-8,25.8,2.8,43.7,2.8,77
		c0,4.9-2,14.6-1.2,21.1c0.4,3.5,3.1,4.5,3.1,0c0-6.5,1.1-14.5,1.1-18.9c0-34.8-8.9-53.5-2.3-80.5c3.9-16.1,11.7-25.5,12.3-46.9
		H120.2z"/>
	<path fill-rule="evenodd" clip-rule="evenodd" fill="#2E685A" d="M119.8,40.4h10.6c1.3,0,2.2,1.2,2.3,2.6
		c0.4,11.4-0.7,29.4,1.2,34.1h-17.5c2.1-2.8,0.8-22.7,1.2-34.1C117.6,41.5,118.6,40.4,119.8,40.4z"/>
	<path fill-rule="evenodd" clip-rule="evenodd" fill="#1D483D" d="M119.8,40.4h10.6c1.3,0,2.2,1.2,2.3,2.6c0,0.9,0.1,1.8,0.1,2.8
		h-15.3c0-1,0-1.9,0.1-2.8C117.6,41.5,118.6,40.4,119.8,40.4z"/>
	<rect x="120.2" y="40.4" fill-rule="evenodd" clip-rule="evenodd" fill="#4E887A" width="0.9" height="24.2"/>
	<rect x="120.2" y="40.4" fill-rule="evenodd" clip-rule="evenodd" fill="#2E685A" width="0.9" height="5.4"/>
	<rect x="127.4" y="40.4" fill-rule="evenodd" clip-rule="evenodd" fill="#4E887A" width="5.4" height="24.2"/>
	<path fill-rule="evenodd" clip-rule="evenodd" fill="#2E685A" d="M130.4,40.4h-3v5.4h5.4c0-1,0-1.9-0.1-2.8
		C132.6,41.5,131.7,40.4,130.4,40.4z"/>
	<rect x="129.1" y="40.4" fill-rule="evenodd" clip-rule="evenodd" fill="#77B0A3" width="0.9" height="24.2"/>
	<rect x="129.1" y="40.4" fill-rule="evenodd" clip-rule="evenodd" fill="#4E887A" width="0.9" height="5.4"/>
	<path fill-rule="evenodd" clip-rule="evenodd" fill="#4E887A" d="M132.9,69.8c0.1,3.2,0.4,5.8,1,7.3h-7.3c0.5-3.7,0.8-7.8,0.8-12.5
		h5.3C132.7,66.4,132.8,68.1,132.9,69.8z"/>
	<path fill-rule="evenodd" clip-rule="evenodd" fill="#77B0A3" d="M131.1,77.1h-0.8c-0.7-3.7-1.2-7.8-1.3-12.5h1.1
		C130,69.2,130.4,73.3,131.1,77.1z"/>
	<path fill-rule="evenodd" clip-rule="evenodd" fill="#4E887A" d="M120,77.1h-0.8c0.7-3.7,1.1-7.8,1.1-12.5h1.1
		C121.2,69.2,120.7,73.3,120,77.1z"/>
	<path fill-rule="evenodd" clip-rule="evenodd" fill="#2E685A" d="M116.8,34.3h16.6c1.1,0,2,0.9,2,2v5.7c0,1.1-0.9,2-2,2h-16.6
		c-1.1,0-2-0.9-2-2v-5.7C114.8,35.2,115.7,34.3,116.8,34.3z"/>
	<path fill-rule="evenodd" clip-rule="evenodd" fill="#4E887A" d="M122.5,34.3h10.9c1.1,0,2,0.9,2,2v5.7c0,1.1-0.9,2-2,2h-10.9
		c-1.1,0-2-0.9-2-2v-5.7C120.5,35.2,121.4,34.3,122.5,34.3z"/>
	<rect x="117.8" y="34.3" fill-rule="evenodd" clip-rule="evenodd" fill="#4E887A" width="0.9" height="9.8"/>
	<rect x="131" y="34.3" fill-rule="evenodd" clip-rule="evenodd" fill="#77B0A3" width="0.9" height="9.8"/>
	<path fill-rule="evenodd" clip-rule="evenodd" fill="#CDCCCC" d="M103.8,142c0.6,6.4,1.8,13,2.8,20.1h37.1c1-7.2,2.2-13.7,2.8-20.1
		h-11.3c0-5.8-4.5-10.6-10-10.6c-5.5,0-10,4.7-10,10.6H103.8z"/>
	<path fill-rule="evenodd" clip-rule="evenodd" fill="#E6E6E5" d="M109.2,162.1c-0.8-7.1-1.8-13.7-2.3-20.1h-3.2
		c0.6,6.4,1.8,13,2.8,20.1H109.2z"/>
	<path fill-rule="evenodd" clip-rule="evenodd" fill="#E6E6E5" d="M113.3,142c0.6,6.4,1.6,13,2.6,20.1h27.8c1-7.2,2.2-13.7,2.8-20.1
		h-11.3c0-5.8-4.5-10.6-10-10.6c-5.5,0-10,4.7-10,10.6H113.3z"/>
	<path fill-rule="evenodd" clip-rule="evenodd" fill="#FFFFFF" d="M143.3,142c-0.5,6.4-1.4,13-2.3,20.1h2.6c1-7.2,2.2-13.7,2.8-20.1
		H143.3z"/>
</svg>
