<?xml version="1.0" encoding="utf-8"?>
<!-- Generator: Adobe Illustrator 19.1.0, SVG Export Plug-In . SVG Version: 6.00 Build 0)  -->
<!DOCTYPE svg PUBLIC "-//W3C//DTD SVG 1.1//EN" "http://www.w3.org/Graphics/SVG/1.1/DTD/svg11.dtd">
<svg version="1.1" id="Layer_1" xmlns="http://www.w3.org/2000/svg" xmlns:xlink="http://www.w3.org/1999/xlink" x="0px" y="0px"
	 viewBox="0 0 250 250" enable-background="new 0 0 250 250" xml:space="preserve">
	<path fill-rule="evenodd" clip-rule="evenodd" fill="#918C5A" d="M111.3,215c-5.4,0-9.8-4-9.8-8.9v-99.3c0-19.5,13.5-21,13.9-27.9
		l2.1-39c9.2,0,5.3,0,14.5,0l2.1,39c0.4,6.8,13.9,8.4,13.9,27.9v99.3c0,4.9-4.4,8.9-9.8,8.9C124.5,215,125.2,215,111.3,215z"/>
	<path fill-rule="evenodd" clip-rule="evenodd" fill="#C0BC8C" d="M134.2,79c0,0.1,0,0.2,0,0.3c0,0.1,0,0.2,0,0.3
		c0,0.1,0,0.2,0.1,0.3c0,0.1,0.1,0.2,0.1,0.3c0,0.1,0.1,0.2,0.1,0.3c0,0.1,0.1,0.2,0.1,0.3c0,0.1,0.1,0.2,0.1,0.3
		c0,0.1,0.1,0.2,0.1,0.3c0.1,0.1,0.1,0.2,0.2,0.3c0.1,0.1,0.1,0.2,0.2,0.3c0.1,0.1,0.1,0.2,0.2,0.3c0.1,0.1,0.1,0.2,0.2,0.3
		c0.1,0.1,0.1,0.2,0.2,0.3v0c0.1,0.1,0.1,0.2,0.2,0.3c0.1,0.1,0.2,0.2,0.2,0.3c0.1,0.1,0.2,0.2,0.2,0.3l0,0c0.1,0.1,0.2,0.2,0.3,0.3
		c0.1,0.1,0.2,0.2,0.3,0.3l0.3,0.3l0.3,0.3l0.3,0.3l0.3,0.3l0.3,0.3l0.3,0.3l0,0l0.3,0.3l0.3,0.3l0.3,0.3l0.3,0.3l0.3,0.3v0
		c0.1,0.1,0.2,0.2,0.3,0.3c0.1,0.1,0.2,0.2,0.3,0.3c0.1,0.1,0.2,0.2,0.3,0.3c0.1,0.1,0.2,0.2,0.3,0.4c0.1,0.1,0.2,0.2,0.3,0.4
		c0.1,0.1,0.2,0.2,0.3,0.4l0,0c0.1,0.1,0.2,0.3,0.3,0.4l0,0c0.1,0.1,0.2,0.3,0.3,0.4c0.1,0.1,0.2,0.3,0.3,0.4v0
		c0.1,0.1,0.2,0.3,0.3,0.4c0.1,0.1,0.2,0.3,0.3,0.4c0.1,0.1,0.2,0.3,0.3,0.4c0.1,0.1,0.2,0.3,0.3,0.5c0.1,0.2,0.2,0.3,0.3,0.5
		c0.1,0.2,0.2,0.3,0.3,0.5l0,0c0.1,0.2,0.2,0.3,0.3,0.5c0.1,0.2,0.2,0.3,0.3,0.5c0.1,0.2,0.2,0.4,0.3,0.5c0.1,0.2,0.2,0.4,0.2,0.6
		c0.1,0.2,0.2,0.4,0.2,0.6c0.1,0.2,0.2,0.4,0.2,0.6c0.1,0.2,0.1,0.4,0.2,0.6c0.1,0.2,0.1,0.4,0.2,0.6l0,0c0.1,0.2,0.1,0.4,0.2,0.6
		c0.1,0.2,0.1,0.4,0.2,0.7c0.1,0.2,0.1,0.5,0.2,0.7c0.1,0.2,0.1,0.5,0.1,0.7c0,0.2,0.1,0.5,0.1,0.7l0,0c0,0.2,0.1,0.5,0.1,0.8
		c0,0.3,0.1,0.5,0.1,0.8c0,0.3,0.1,0.5,0.1,0.8l0,0c0,0.3,0,0.5,0.1,0.8c0,0.3,0,0.6,0,0.8c0,0.3,0,0.6,0,0.9c0,0.3,0,0.6,0,0.9
		v99.3c0,4.9-4.4,8.9-9.8,8.9h-16.9c-4.5,0-7.2-5-7.2-8.3v-99.8c0-19.5,9-21,9-27.9l0.1-39h8.8L134.2,79z"/>
	<path fill-rule="evenodd" clip-rule="evenodd" fill="#C0BC8C" d="M106.8,206.2v-99.3c0-11.3,3.5-16.5,6.5-20.3
		c0.4-0.5,0.7-0.9,1.1-1.4c1.4-1.8,3.3-1.9,2.4,0c-0.2,0.5-0.6,1-0.9,1.6c-2.1,3.8-4.2,9.2-4.2,19.7v99.9
		C111.8,211,106.8,209.3,106.8,206.2L106.8,206.2z M117.7,77l1.6-37h1.5l-1.1,37C119.6,78.9,117.7,78.8,117.7,77z"/>
	<path fill-rule="evenodd" clip-rule="evenodd" fill="#D6D3AC" d="M129,40h1.5l1.6,37c0.1,1.7-1.9,1.8-2,0L129,40L129,40z
		 M135.3,85.3c0.5,0.5,0.8,1,1.3,1.6c3,3.8,6.4,9,6.4,20.1v99.3c0,5-5,4.4-5,0.5V106.5c0-10.4-2.1-15.8-4.1-19.6
		c-0.3-0.6-0.9-1.1-1-1.7C132.5,83.3,133.9,83.9,135.3,85.3z"/>
	<rect x="103.8" y="109.4" fill-rule="evenodd" clip-rule="evenodd" fill="#2D6640" width="42.2" height="58.7"/>
	<rect x="106.8" y="109.4" fill-rule="evenodd" clip-rule="evenodd" fill="#4A8860" width="5" height="58.7"/>
	<rect x="114.2" y="109.4" fill-rule="evenodd" clip-rule="evenodd" fill="#4A8860" width="31.7" height="58.7"/>
	<path fill-rule="evenodd" clip-rule="evenodd" fill="#2D6640" d="M116.1,66.9l1.5-26.9c9.2,0,5.3,0,14.5,0l1.5,26.9H116.1z"/>
	<polygon fill-rule="evenodd" clip-rule="evenodd" fill="#4A8860" points="119.2,40 119.5,40 119.9,40 120.2,40 120.5,40 120.7,40 
		119.9,66.9 118.1,66.9 	"/>
	<path fill-rule="evenodd" clip-rule="evenodd" fill="#1D482C" d="M117.3,44.6l0.2-4.6c9.2,0,5.3,0,14.5,0l0.2,4.6H117.3z"/>
	<polygon fill-rule="evenodd" clip-rule="evenodd" fill="#2D6640" points="119.2,40 119.5,40 119.5,40 119.9,40 119.9,40 120.2,40 
		120.2,40 120.5,40 120.5,40 120.7,40 120.6,44.6 119,44.6 	"/>
	<path fill-rule="evenodd" clip-rule="evenodd" fill="#2D6640" d="M116.2,35.9h17.4c0.9,0,1.6,0.7,1.6,1.6v4.6
		c0,0.9-0.7,1.6-1.6,1.6h-17.4c-0.9,0-1.6-0.7-1.6-1.6v-4.6C114.5,36.7,115.3,35.9,116.2,35.9z"/>
	<path fill-rule="evenodd" clip-rule="evenodd" fill="#4A8860" d="M132.3,43.8l1.3,23.1h-10.3l0-23.1c-0.8-0.1-1.5-0.8-1.5-1.6v-4.6
		c0-0.8,0.6-1.5,1.5-1.6v0h0.3h4.2h5.5c1,0,1.8,0.7,1.8,1.6v4.6c0,0.9-0.8,1.6-1.8,1.6H132.3z"/>
	<polygon fill-rule="evenodd" clip-rule="evenodd" fill="#63A27A" points="131.6,66.9 129.8,66.9 129,43.8 130.5,43.8 	"/>
	<polygon fill-rule="evenodd" clip-rule="evenodd" fill="#2D6640" points="132.3,43.8 132.4,44.6 123.3,44.6 123.3,43.8 	"/>
	<polygon fill-rule="evenodd" clip-rule="evenodd" fill="#4A8860" points="130.5,44.6 129,44.6 129,43.8 130.5,43.8 	"/>
	<rect x="137.9" y="109.4" fill-rule="evenodd" clip-rule="evenodd" fill="#63A27A" width="5" height="58.7"/>
	<path fill-rule="evenodd" clip-rule="evenodd" fill="#63A27A" d="M131.2,35.9l0,7.9c0.8,0,1.2,0,1.8,0l-0.1-7.9H131.2z"/>
	<polygon fill-rule="evenodd" clip-rule="evenodd" fill="#4A8860" points="119.1,35.9 119.1,43.8 117.3,43.8 117.4,35.9 	"/>
</svg>
