# 3ds Max Wavefront OBJ Exporter v0.97b - (c)2007 guruware
# File Created: 22.12.2015 18:06:52

mtllib cube03.mtl

#
# object ChamferBox08
#

v  -0.1575 0.1969 -0.1575
v  -0.1575 0.1969 0.1575
v  0.1575 0.1969 0.1575
v  0.1575 0.1969 -0.1575
v  -0.1575 0.1853 -0.1853
v  -0.1772 0.1853 -0.1772
v  -0.1853 0.1853 -0.1575
v  -0.1853 0.1853 0.1575
v  -0.1772 0.1853 0.1772
v  -0.1575 0.1853 0.1853
v  0.1575 0.1853 0.1853
v  0.1772 0.1853 0.1772
v  0.1853 0.1853 0.1575
v  0.1853 0.1853 -0.1575
v  0.1772 0.1853 -0.1772
v  0.1575 0.1853 -0.1853
v  -0.1575 0.1575 -0.1969
v  -0.1853 0.1575 -0.1853
v  -0.1969 0.1575 -0.1575
v  -0.1969 0.1575 0.1575
v  -0.1853 0.1575 0.1853
v  -0.1575 0.1575 0.1969
v  0.1575 0.1575 0.1969
v  0.1853 0.1575 0.1853
v  0.1969 0.1575 0.1575
v  0.1969 0.1575 -0.1575
v  0.1853 0.1575 -0.1853
v  0.1575 0.1575 -0.1969
v  -0.1575 -0.1575 -0.1969
v  -0.1853 -0.1575 -0.1853
v  -0.1969 -0.1575 -0.1575
v  -0.1969 -0.1575 0.1575
v  -0.1853 -0.1575 0.1853
v  -0.1575 -0.1575 0.1969
v  0.1575 -0.1575 0.1969
v  0.1853 -0.1575 0.1853
v  0.1969 -0.1575 0.1575
v  0.1969 -0.1575 -0.1575
v  0.1853 -0.1575 -0.1853
v  0.1575 -0.1575 -0.1969
v  -0.1575 -0.1853 -0.1853
v  -0.1772 -0.1853 -0.1772
v  -0.1853 -0.1853 -0.1575
v  -0.1853 -0.1853 0.1575
v  -0.1772 -0.1853 0.1772
v  -0.1575 -0.1853 0.1853
v  0.1575 -0.1853 0.1853
v  0.1772 -0.1853 0.1772
v  0.1853 -0.1853 0.1575
v  0.1853 -0.1853 -0.1575
v  0.1772 -0.1853 -0.1772
v  0.1575 -0.1853 -0.1853
v  -0.1575 -0.1969 -0.1575
v  -0.1575 -0.1969 0.1575
v  0.1575 -0.1969 0.1575
v  0.1575 -0.1969 -0.1575
# 56 vertices

vn 0.0000 1.0000 -0.0000
vn -0.1566 0.9125 -0.3780
vn -0.3780 0.9125 -0.1566
vn -0.3827 0.9239 -0.0000
vn -0.3780 0.9125 0.1566
vn -0.1566 0.9125 0.3780
vn 0.0000 0.9239 0.3827
vn 0.1566 0.9125 0.3780
vn 0.3780 0.9125 0.1566
vn 0.3827 0.9239 -0.0000
vn 0.3780 0.9125 -0.1566
vn 0.1566 0.9125 -0.3780
vn 0.0000 0.9239 -0.3827
vn -0.3574 0.3574 -0.8629
vn -0.8629 0.3574 -0.3574
vn -0.9239 0.3827 -0.0000
vn -0.8629 0.3574 0.3574
vn -0.3574 0.3574 0.8629
vn 0.0000 0.3827 0.9239
vn 0.3574 0.3574 0.8629
vn 0.8629 0.3574 0.3574
vn 0.9239 0.3827 -0.0000
vn 0.8629 0.3574 -0.3574
vn 0.3574 0.3574 -0.8629
vn 0.0000 0.3827 -0.9239
vn -0.3827 0.0000 -0.9239
vn -0.9239 0.0000 -0.3827
vn -1.0000 0.0000 -0.0000
vn -0.9239 0.0000 0.3827
vn -0.3827 0.0000 0.9239
vn 0.0000 0.0000 1.0000
vn 0.3827 0.0000 0.9239
vn 0.9239 0.0000 0.3827
vn 1.0000 0.0000 -0.0000
vn 0.9239 0.0000 -0.3827
vn 0.3827 0.0000 -0.9239
vn 0.0000 0.0000 -1.0000
vn -0.3574 -0.3574 -0.8629
vn -0.8629 -0.3574 -0.3574
vn -0.9239 -0.3827 -0.0000
vn -0.8629 -0.3574 0.3574
vn -0.3574 -0.3574 0.8629
vn 0.0000 -0.3827 0.9239
vn 0.3574 -0.3574 0.8629
vn 0.8629 -0.3574 0.3574
vn 0.9239 -0.3827 -0.0000
vn 0.8629 -0.3574 -0.3574
vn 0.3574 -0.3574 -0.8629
vn 0.0000 -0.3827 -0.9239
vn -0.1566 -0.9125 -0.3780
vn -0.3780 -0.9125 -0.1566
vn -0.3827 -0.9239 -0.0000
vn -0.3780 -0.9125 0.1566
vn -0.1566 -0.9125 0.3780
vn 0.0000 -0.9239 0.3827
vn 0.1566 -0.9125 0.3780
vn 0.3780 -0.9125 0.1566
vn 0.3827 -0.9239 -0.0000
vn 0.3780 -0.9125 -0.1566
vn 0.1566 -0.9125 -0.3780
vn 0.0000 -0.9239 -0.3827
vn 0.0000 -1.0000 -0.0000
# 62 vertex normals

vt 0.1004 0.8996 0.9995
vt 0.1004 0.1004 0.9995
vt 0.8996 0.1004 0.9995
vt 0.8996 0.8996 0.9995
vt 0.1004 0.9702 0.9702
vt 0.0504 0.9496 0.9702
vt 0.0298 0.8996 0.9702
vt 0.0298 0.1004 0.9702
vt 0.0504 0.0504 0.9702
vt 0.1004 0.0298 0.9702
vt 0.8996 0.0298 0.9702
vt 0.9496 0.0504 0.9702
vt 0.9702 0.1004 0.9702
vt 0.9702 0.8996 0.9702
vt 0.9496 0.9496 0.9702
vt 0.8996 0.9702 0.9702
vt 0.9496 0.9702 0.9496
vt 0.0504 0.9702 0.0504
vt 0.0298 0.8996 0.0298
vt 0.1004 0.8996 0.0005
vt 0.1004 0.9702 0.0298
vt 0.8996 0.8996 0.0005
vt 0.8996 0.9702 0.0298
vt 0.9702 0.8996 0.0298
vt 0.9496 0.9702 0.0504
vt 0.0504 0.9702 0.9496
vt 0.0298 0.1004 0.0298
vt 0.1004 0.1004 0.0005
vt 0.8996 0.1004 0.0005
vt 0.9702 0.1004 0.0298
vt 0.9496 0.0298 0.9496
vt 0.0504 0.0298 0.0504
vt 0.1004 0.0298 0.0298
vt 0.8996 0.0298 0.0298
vt 0.9496 0.0298 0.0504
vt 0.0504 0.0298 0.9496
vt 0.9496 0.9496 0.0298
vt 0.9496 0.0504 0.0298
vt 0.0504 0.0504 0.0298
vt 0.0504 0.9496 0.0298
# 40 texture coords

g ChamferBox08
usemtl 01___Default
s off
f 1/1/1 2/2/1 3/3/1 4/4/1 
f 1/1/2 5/5/2 6/6/2 
f 1/1/3 6/6/3 7/7/3 
f 1/1/4 7/7/4 8/8/4 2/2/4 
f 2/2/5 8/8/5 9/9/5 
f 2/2/6 9/9/6 10/10/6 
f 2/2/7 10/10/7 11/11/7 3/3/7 
f 3/3/8 11/11/8 12/12/8 
f 3/3/9 12/12/9 13/13/9 
f 3/3/10 13/13/10 14/14/10 4/4/10 
f 4/4/11 14/14/11 15/15/11 
f 4/4/12 15/15/12 16/16/12 
f 4/4/13 16/16/13 5/5/13 1/1/13 
f 5/16/14 17/4/14 18/14/14 6/17/14 
f 6/18/15 18/19/15 19/20/15 7/21/15 
f 7/21/16 19/20/16 20/22/16 8/23/16 
f 8/23/17 20/22/17 21/24/17 9/25/17 
f 9/18/18 21/19/18 22/20/18 10/21/18 
f 10/21/19 22/20/19 23/22/19 11/23/19 
f 11/23/20 23/22/20 24/24/20 12/25/20 
f 12/26/21 24/7/21 25/1/21 13/5/21 
f 13/5/22 25/1/22 26/4/22 14/16/22 
f 14/16/23 26/4/23 27/14/23 15/17/23 
f 15/26/24 27/7/24 28/1/24 16/5/24 
f 16/5/25 28/1/25 17/4/25 5/16/25 
f 17/4/26 29/3/26 30/13/26 18/14/26 
f 18/19/27 30/27/27 31/28/27 19/20/27 
f 19/20/28 31/28/28 32/29/28 20/22/28 
f 20/22/29 32/29/29 33/30/29 21/24/29 
f 21/19/30 33/27/30 34/28/30 22/20/30 
f 22/20/31 34/28/31 35/29/31 23/22/31 
f 23/22/32 35/29/32 36/30/32 24/24/32 
f 24/7/33 36/8/33 37/2/33 25/1/33 
f 25/1/34 37/2/34 38/3/34 26/4/34 
f 26/4/35 38/3/35 39/13/35 27/14/35 
f 27/7/36 39/8/36 40/2/36 28/1/36 
f 28/1/37 40/2/37 29/3/37 17/4/37 
f 29/3/38 41/11/38 42/31/38 30/13/38 
f 30/27/39 42/32/39 43/33/39 31/28/39 
f 31/28/40 43/33/40 44/34/40 32/29/40 
f 32/29/41 44/34/41 45/35/41 33/30/41 
f 33/27/42 45/32/42 46/33/42 34/28/42 
f 34/28/43 46/33/43 47/34/43 35/29/43 
f 35/29/44 47/34/44 48/35/44 36/30/44 
f 36/8/45 48/36/45 49/10/45 37/2/45 
f 37/2/46 49/10/46 50/11/46 38/3/46 
f 38/3/47 50/11/47 51/31/47 39/13/47 
f 39/8/48 51/36/48 52/10/48 40/2/48 
f 40/2/49 52/10/49 41/11/49 29/3/49 
f 41/23/50 53/22/50 42/37/50 
f 42/37/51 53/22/51 43/24/51 
f 43/24/52 53/22/52 54/29/52 44/30/52 
f 44/30/53 54/29/53 45/38/53 
f 45/38/54 54/29/54 46/34/54 
f 46/34/55 54/29/55 55/28/55 47/33/55 
f 47/33/56 55/28/56 48/39/56 
f 48/39/57 55/28/57 49/27/57 
f 49/27/58 55/28/58 56/20/58 50/19/58 
f 50/19/59 56/20/59 51/40/59 
f 51/40/60 56/20/60 52/21/60 
f 52/21/61 56/20/61 53/22/61 41/23/61 
f 56/20/62 55/28/62 54/29/62 53/22/62 
# 46 polygons - 16 triangles

