# 3ds Max Wavefront OBJ Exporter v0.97b - (c)2007 guruware
# File Created: 22.12.2015 18:07:13

mtllib cube04.mtl

#
# object ChamferBox09
#

v  -0.0787 0.0984 -0.0787
v  -0.0787 0.0984 0.0787
v  0.0787 0.0984 0.0787
v  0.0787 0.0984 -0.0787
v  -0.0787 0.0787 -0.0984
v  -0.0984 0.0787 -0.0787
v  -0.0984 0.0787 0.0787
v  -0.0787 0.0787 0.0984
v  0.0787 0.0787 0.0984
v  0.0984 0.0787 0.0787
v  0.0984 0.0787 -0.0787
v  0.0787 0.0787 -0.0984
v  -0.0787 -0.0787 -0.0984
v  -0.0984 -0.0787 -0.0787
v  -0.0984 -0.0787 0.0787
v  -0.0787 -0.0787 0.0984
v  0.0787 -0.0787 0.0984
v  0.0984 -0.0787 0.0787
v  0.0984 -0.0787 -0.0787
v  0.0787 -0.0787 -0.0984
v  -0.0787 -0.0984 -0.0787
v  -0.0787 -0.0984 0.0787
v  0.0787 -0.0984 0.0787
v  0.0787 -0.0984 -0.0787
# 24 vertices

vn 0.0000 1.0000 -0.0000
vn -0.5774 0.5774 -0.5774
vn -0.7071 0.7071 -0.0000
vn -0.5774 0.5774 0.5774
vn 0.0000 0.7071 0.7071
vn 0.5774 0.5774 0.5774
vn 0.7071 0.7071 -0.0000
vn 0.5774 0.5774 -0.5774
vn 0.0000 0.7071 -0.7071
vn -0.7071 0.0000 -0.7071
vn -1.0000 0.0000 -0.0000
vn -0.7071 0.0000 0.7071
vn 0.0000 0.0000 1.0000
vn 0.7071 0.0000 0.7071
vn 1.0000 0.0000 -0.0000
vn 0.7071 0.0000 -0.7071
vn 0.0000 0.0000 -1.0000
vn -0.5774 -0.5774 -0.5774
vn -0.7071 -0.7071 -0.0000
vn -0.5774 -0.5774 0.5774
vn 0.0000 -0.7071 0.7071
vn 0.5774 -0.5774 0.5774
vn 0.7071 -0.7071 -0.0000
vn 0.5774 -0.5774 -0.5774
vn 0.0000 -0.7071 -0.7071
vn 0.0000 -1.0000 -0.0000
# 26 vertex normals

vt 0.1004 0.8996 0.9995
vt 0.1004 0.1004 0.9995
vt 0.8996 0.1004 0.9995
vt 0.8996 0.8996 0.9995
vt 0.1004 0.9995 0.8996
vt 0.0005 0.8996 0.8996
vt 0.0005 0.1004 0.8996
vt 0.1004 0.0005 0.8996
vt 0.8996 0.0005 0.8996
vt 0.9995 0.1004 0.8996
vt 0.9995 0.8996 0.8996
vt 0.8996 0.9995 0.8996
vt 0.1004 0.8996 0.0005
vt 0.1004 0.1004 0.0005
vt 0.8996 0.1004 0.0005
vt 0.8996 0.8996 0.0005
vt 0.9995 0.1004 0.1004
vt 0.9995 0.8996 0.1004
vt 0.8996 0.0005 0.1004
vt 0.1004 0.0005 0.1004
vt 0.0005 0.1004 0.1004
vt 0.0005 0.8996 0.1004
vt 0.1004 0.9995 0.1004
vt 0.8996 0.9995 0.1004
# 24 texture coords

g ChamferBox09
usemtl 01___Default
s off
f 1/1/1 2/2/1 3/3/1 4/4/1 
f 1/1/2 5/5/2 6/6/2 
f 1/1/3 6/6/3 7/7/3 2/2/3 
f 2/2/4 7/7/4 8/8/4 
f 2/2/5 8/8/5 9/9/5 3/3/5 
f 3/3/6 9/9/6 10/10/6 
f 3/3/7 10/10/7 11/11/7 4/4/7 
f 4/4/8 11/11/8 12/12/8 
f 4/4/9 12/12/9 5/5/9 1/1/9 
f 5/4/10 13/3/10 14/10/10 6/11/10 
f 6/13/11 14/14/11 15/15/11 7/16/11 
f 7/16/12 15/15/12 16/17/12 8/18/12 
f 8/13/13 16/14/13 17/15/13 9/16/13 
f 9/16/14 17/15/14 18/17/14 10/18/14 
f 10/1/15 18/2/15 19/3/15 11/4/15 
f 11/4/16 19/3/16 20/10/16 12/11/16 
f 12/1/17 20/2/17 13/3/17 5/4/17 
f 13/3/18 21/9/18 14/10/18 
f 14/18/19 21/16/19 22/15/19 15/17/19 
f 15/15/20 22/19/20 16/17/20 
f 16/19/21 22/15/21 23/14/21 17/20/21 
f 17/15/22 23/19/22 18/17/22 
f 18/21/23 23/14/23 24/13/23 19/22/23 
f 19/3/24 24/9/24 20/10/24 
f 20/23/25 24/13/25 21/16/25 13/24/25 
f 24/13/26 23/14/26 22/15/26 21/16/26 
# 18 polygons - 8 triangles

